M48
;Layer_Color=9474304
;FILE_FORMAT=2:5
INCH,LZ
;TYPE=PLATED
T1F00S00C0.01200
T2F00S00C0.01968
T5F00S00C0.04331
T7F00S00C0.12598
%
T01
X-0147068Y-0007868
Y-0003931
X-0143131
Y-0007868
T02
X00722Y-01203
X00916Y-01085
X01068Y-01198
X01452Y-01196
X01554Y-01048
X01628Y-01099
X01801Y-0109
X01802Y-01151
X02021Y-01056
X00499Y-011
X00452Y-01205
X00265Y-01115
X00077Y-01214
X-00017Y-01092
X-00167Y-01164
X-00396Y-01162
X-0037Y-01046
X-00283
X-00848Y-01048
X-00959
X-01303Y-0119
X-01555Y-01188
X-01795Y-01183
X-02027Y-01158
X-02253Y-00931
X-02248Y-00801
X-0225332Y-0064754
X-0224Y-00515
X-01997Y-00446
X-01952Y-00334
X-01961Y-00152
X-01949Y00002
X-01961Y00184
X-02104Y0024
X-0223985Y0020516
X-02213Y00357
X-0223Y00517
X-02086Y005
X-01926Y00437
X-0182Y00426
X-0172111Y0042862
X-01559Y00516
X-01454Y00415
X-01351Y00396
X-0129503Y0032992
X-0122Y00291
X-0101Y00324
X-00931Y00385
X-01015Y00485
X-00975Y00124
X-00969Y0004
X-0099698Y-0006522
X-00963Y-00183
X-0101871Y-0029489
X-0097Y-00371
X-01067Y-00421
X-0101955Y-0056988
X-01108Y-00612
X-01209Y-0068
X-0121Y-00764
X-01277Y-00761
X-01347Y-00855
X-01423Y-00713
X-01336Y-0063
Y-0055175
X-01404
X-014135Y-004735
X-01336
X-01491
X-0145Y-00277
X-01226Y-00358
X-01247Y-00161
X-01123Y-00223
X-01108Y00004
X-01239Y00024
X-01376Y00185
X-01447Y00212
X-01558Y00269
X-00937Y-00692
X-00921Y-00781
X-00959Y-00952
X-009035Y-01
X-00848Y-00952
X-00702Y-00762
X-00635Y-00765
X-00634Y-00681
X-00748Y-00597
X-00808Y-00603
X-00884Y-00378
X-0073276Y-0036424
X-00687Y-00363
X-00657Y-00183
X-00737Y-00122
X-00665Y00034
X-00674Y00118
X-00771Y00126
X-0081944Y0018904
X-00831Y00365
X-00784Y00367
X-00541Y00326
X-00552Y0024
X-0061631Y0019803
X-00451Y00146
X-00389Y00241
X-00301Y00331
X-00268Y00421
X-0028Y00501
X-0039482Y004185
X-0045952Y0047052
X00028Y0047
X00083Y00158
X0017825Y00079
X0018125Y-00003
X00183Y-0007979
X0017Y-00136
X00022Y-00193
X-00089Y-00159
X-00175Y-00082
X-00176Y-00003
X-00175Y00082
X-0036221Y0005751
X-00368Y-00101
X-00379Y-00218
X-0028053Y-0027847
X-0036375Y-0040793
X-00179Y-00413
X0001Y-00407
X-00051Y-00496
X-00076Y-00659
X-0013689Y-007623
X-00326Y-00755
X-0033Y-00663
X-0027246Y-005416
X-0048097Y-0048365
X-0053101Y-0029324
X-00489Y-00154
X0Y0
X00408Y-0011056
X0040975Y-00155
X00392Y-00285
X00557Y-00267
Y-00316
X0064628Y-0016059
X00534Y-00056
X00561Y-00025
X0062056Y0004826
X0066Y00074
X00648Y00319
X00641Y00517
X0044123Y0044887
X00428Y-00445
X00456Y-00505
X00593Y-00541
X0063925Y-00542
X00563Y-00708
X00533Y-00873
X00433Y-00974
X00239Y-01004
X00105Y-01001
X00138Y-0091759
X00049Y-0075
X00236Y-00753
X00268Y-00656
X00123Y-00542
X00165Y-00409
X-00114Y-00946
X-00283Y-00949
X-0037
X-003265Y-009975
X00681Y-01002
X00747Y-00781
X00857Y-00691
X01088Y-00685
X01216Y-00688
X01184Y-00779
X012Y-00881
X01351Y-00834
X01396Y-00879
X0143Y-0094
X01458Y-01011
X01551Y-00911
X0165Y-00932
X01657Y-01016
X01737Y-01018
X01748Y-0092
X01737Y-0087
X01738Y-0082
X0174Y-00773
Y-00718
Y-0067
X01754Y-00628
X0169Y-00462
X01671Y-00346
X01799Y-00363
X01883Y-00431
X0192Y-00479
X02053Y-00558
X02003Y-0063
X02017Y-00683
Y-00734
X02018Y-00787
X02019Y-00837
Y-00887
X01996Y-00927
X01948Y-00941
X01899Y-00939
X01849
X01799
X02123Y-01008
X02197Y-00973
X02179Y-00534
X02128Y-00499
X02125Y-00439
X01999Y-00314
X01992Y-00268
X01948
X01868
X01725Y-00165
X01769Y-00023
X01774Y00112
X01854Y00062
X01937Y00042
X01927Y-00031
X0208541Y0006406
X02113Y00151
X02102Y00254
X02101Y00404
X02105Y00474
X02192Y00408
X0193Y00358
X01941Y00212
X01852Y00237
X01629Y00291
X01667Y00333
X01556Y00324
X01476Y00322
X01384Y00306
X01432Y00142
X01326Y00116
X01312Y00013
X01265Y00014
X0136
X01408Y00013
X01453Y00007
X01485Y-00022
X01503Y-00062
X01506Y-00107
X01507Y-00148
Y-00198
X01503Y-00242
X01475Y-00278
X01426Y-00302
X01382Y-00301
X01339Y-00303
X01293Y-00302
X01245
X012Y-00286
X0117Y-00251
X01152Y-00215
X011166Y-0025392
X01124Y-00315
X01153Y-00484
X00992Y-00507
X00916Y-00497
X00925Y-00367
X00896Y-00325
X0079145Y-0032933
X00692Y-00154
X0072Y00069
X00771
X00802Y00033
X0098281Y0003181
X01002Y-00018
X01122Y-00014
X0116354Y000174
X01101Y00139
X0116477Y0028133
X01151Y0039
X01161Y00455
X01018Y00371
X01007Y00253
X00876Y00236
X00676Y00261
X00975Y-00115
X0130654Y-003596
X0130954Y-004406
X0130454Y-005226
X0130425Y-0059575
X0135Y-0057
X01385Y-00685
X01449Y-00791
X01535Y-00726
X01551Y-00555
X0155Y-005
X0154895Y-0044047
X01599Y-00244
X01602Y-00081
X01668Y0003
X01608Y00106
X01522Y00074
X01476Y00532
X01391Y00533
X01884Y00518
X02134Y-00152
X02164Y-00213
X01017Y-00817
X00878Y-00907
X01071Y-00999
X02272Y-0097
X023Y-00635
X02271Y-00254
X02268Y00018
X0229Y00349
X0222411Y0070291
X02224Y00775
X0187006Y0077542
X01862Y00899
X01947Y00873
X01705Y00866
X01703Y00935
X017015Y009875
X0169Y00791
X01708Y00675
X01629Y00581
X01558Y00536
X01516Y0071
X01369Y00842
X01371Y00958
X01141Y00929
X01149Y00801
X01207Y0079
X01179Y00616
X0098Y0063
X0097154Y007834
X00971Y00911
X0081354Y009334
X0077154Y008064
X00733Y00634
X0087Y01181
X01102Y01191
X01096Y01078
X02015Y011
X02045Y01198
X02099Y01014
X0198939Y0061761
X0045Y00599
X00318Y00677
X00311Y00795
X001918Y0082569
X00151Y00933
X00059Y00801
X-00064Y00856
X-00104Y00946
X-00065Y01126
X00114Y0113
X-0020946Y012044
X-0035946Y011674
X-00562Y01024
Y00938
X-00613Y00981
X-00664Y00938
Y01024
X-00616Y00779
X-00609Y00692
X-0052829Y0062218
X-00531Y00572
X-00458Y00614
X-00305Y00686
X-00304Y0077
X-00237Y00767
X-00059Y00627
X-00073Y00561
X0004Y00633
X00184Y00636
X0055054Y008354
X00481Y00928
X00492Y0108
X00667Y01189
X0064654Y009264
X-0081Y00767
X-00877Y0077
X-00878Y00686
X-00813Y00627
X-00757Y00598
X-00702Y00599
X-01205Y00551
X-01183Y00698
X-01144Y00924
X-01227
X-011855Y009715
X-01144Y01018
X-01227Y01019
X-01352Y01057
X-01369Y01176
X-01195Y01186
X-01556Y01189
X-01714Y01206
X-01882
X-02024Y01168
X-02071Y01215
X-02127Y01012
X-0212Y0092
X-0221Y00978
X-02292Y00986
X-02241Y00874
X-02269Y0063
X-02179Y00628
X-01986Y00836
X-01883Y00777
X-01809Y0074
X-01701Y00926
X-01461Y00948
X-01374Y00907
X-01484Y01067
X-01471Y00664
X-01922Y01025
T05
X-0080228Y-01175
X-0070385
X-0060542
X-00507
X-009007
X-0099913
X-01541Y-00974
X-01641
X-01741
X-01841
X-02121Y-0088163
Y-0078322
Y-0068478
Y-0058637
X0071378Y01037
X0081222
X0091063
X0061537
X-0051394Y01169
X-0061236
X-0071078
X-0080921
X-0090764
X-0100606
T07
X0222441Y-0114173
X-0222441
X0222441Y0114173
X-0222441
M30
