G04*
G04 #@! TF.GenerationSoftware,Altium Limited,Altium Designer,20.1.11 (218)*
G04*
G04 Layer_Color=16711935*
%FSLAX25Y25*%
%MOIN*%
G70*
G04*
G04 #@! TF.SameCoordinates,8D0FCBAB-09EC-4A3B-B863-23265075E7EF*
G04*
G04*
G04 #@! TF.FilePolarity,Positive*
G04*
G01*
G75*
%ADD10C,0.01000*%
%ADD143C,0.02500*%
D10*
X22441Y-15256D02*
G03*
X28740Y-15256I3150J0D01*
G01*
Y15256D02*
G03*
X22441Y15256I-3150J0D01*
G01*
X15256Y-28740D02*
G03*
X15256Y-22441I0J3150D01*
G01*
X-15256D02*
G03*
X-15256Y-28740I0J-3150D01*
G01*
X15256Y22441D02*
G03*
X15256Y28740I0J3150D01*
G01*
X-15256D02*
G03*
X-15256Y22441I0J-3150D01*
G01*
X-28740Y-15256D02*
G03*
X-22441Y-15256I3150J0D01*
G01*
Y15256D02*
G03*
X-28740Y15256I-3150J0D01*
G01*
X234252Y-114173D02*
G03*
X234252Y-114173I-11811J0D01*
G01*
Y114173D02*
G03*
X234252Y114173I-11811J0D01*
G01*
X-210630D02*
G03*
X-210630Y114173I-11811J0D01*
G01*
Y-114173D02*
G03*
X-210630Y-114173I-11811J0D01*
G01*
X22441Y-15157D02*
Y0D01*
X28740Y-15256D02*
Y0D01*
X22441D02*
Y15157D01*
X28740Y0D02*
Y15256D01*
X0Y-22441D02*
X15157D01*
X0Y-28740D02*
X15256D01*
X-15157Y-22441D02*
X0D01*
X-15256Y-28740D02*
X0D01*
Y22441D02*
X15157D01*
X0Y28740D02*
X15256D01*
X-15157Y22441D02*
X0D01*
X-15256Y28740D02*
X0D01*
X-22441Y-15157D02*
Y0D01*
X-28740Y-15256D02*
Y0D01*
Y15256D01*
X-22441Y0D02*
Y15157D01*
D143*
X222441Y-125984D02*
G03*
X234252Y-114173I0J11811D01*
G01*
X234252Y114173D02*
G03*
X222441Y125984I-11811J0D01*
G01*
X-222441Y125984D02*
G03*
X-234252Y114173I0J-11811D01*
G01*
X-234252Y-114173D02*
G03*
X-222441Y-125984I11811J0D01*
G01*
X183300Y-126000D02*
G03*
X188505Y-121302I300J4900D01*
G01*
X203095D02*
G03*
X208300Y-126000I4905J202D01*
G01*
X149800D02*
G03*
X155005Y-121302I300J4900D01*
G01*
X169595D02*
G03*
X174800Y-126000I4905J202D01*
G01*
X136095Y-121302D02*
G03*
X141300Y-126000I4905J202D01*
G01*
X116300D02*
G03*
X121505Y-121302I300J4900D01*
G01*
X-213623Y-32572D02*
G03*
X-234300Y-50400I-1877J-18728D01*
G01*
Y19000D02*
G03*
X-213623Y1172I18800J900D01*
G01*
X-222441Y-125984D02*
X116284Y-125984D01*
X-234252Y-114173D02*
Y-49848D01*
Y19000D02*
Y114173D01*
X-222441Y125984D02*
X222441Y125984D01*
X234252Y114173D02*
X234252Y-114173D01*
X208300Y-126000D02*
X222441D01*
X-213616Y-32500D02*
Y1100D01*
X174800Y-126000D02*
X183300D01*
X141300D02*
X149800D01*
X188500Y-121302D02*
X203100D01*
X155000D02*
X169600D01*
X121500D02*
X136100D01*
M02*
