G04*
G04 #@! TF.GenerationSoftware,Altium Limited,Altium Designer,20.1.11 (218)*
G04*
G04 Layer_Color=16711935*
%FSLAX25Y25*%
%MOIN*%
G70*
G04*
G04 #@! TF.SameCoordinates,8D0FCBAB-09EC-4A3B-B863-23265075E7EF*
G04*
G04*
G04 #@! TF.FilePolarity,Negative*
G04*
G01*
G75*
%ADD65C,0.06706*%
%ADD69R,0.03950X0.04343*%
%ADD102O,0.16548X0.12611*%
%ADD103O,0.12611X0.06706*%
%ADD104C,0.07487*%
%ADD105R,0.07099X0.07099*%
%ADD106C,0.07099*%
%ADD107O,0.08270X0.04340*%
%ADD108O,0.07490X0.04340*%
%ADD109C,0.00800*%
%ADD110C,0.03950*%
%ADD111C,0.03200*%
%ADD136O,0.10249X0.04737*%
%ADD137O,0.04737X0.09461*%
D65*
X49700Y-59900D02*
D03*
X59700D02*
D03*
X69700D02*
D03*
X79700D02*
D03*
D69*
X-7813Y-8366D02*
D03*
X-13324D02*
D03*
X7874D02*
D03*
X13385D02*
D03*
X-13324Y-80D02*
D03*
X-7813D02*
D03*
X13385D02*
D03*
X7874D02*
D03*
X-2786Y-16147D02*
D03*
X2725D02*
D03*
X2786Y15932D02*
D03*
X-2725D02*
D03*
X-13324Y8206D02*
D03*
X-7813D02*
D03*
X7874D02*
D03*
X13385D02*
D03*
D102*
X-175779Y-32813D02*
D03*
Y-14310D02*
D03*
Y4194D02*
D03*
D103*
X-212000Y-39900D02*
D03*
Y11281D02*
D03*
D104*
X61537Y103700D02*
D03*
X71378D02*
D03*
X81221D02*
D03*
X91063D02*
D03*
X-212100Y-58636D02*
D03*
Y-68479D02*
D03*
Y-78321D02*
D03*
Y-88164D02*
D03*
D105*
X-51394Y116900D02*
D03*
X-99913Y-117500D02*
D03*
X-184100Y-97400D02*
D03*
D106*
X-61236Y116900D02*
D03*
X-71078D02*
D03*
X-80921D02*
D03*
X-90764D02*
D03*
X-100606D02*
D03*
X-90070Y-117500D02*
D03*
X-80228D02*
D03*
X-70385D02*
D03*
X-60542D02*
D03*
X-50700D02*
D03*
X-154100Y-97400D02*
D03*
X-164100D02*
D03*
X-174100D02*
D03*
D107*
X206790Y57790D02*
D03*
Y91810D02*
D03*
D108*
X223250D02*
D03*
Y57790D02*
D03*
D109*
X222441Y-114173D02*
D03*
Y114173D02*
D03*
X-222441D02*
D03*
Y-114173D02*
D03*
D110*
X120700Y79000D02*
D03*
D111*
X-147068Y-3931D02*
D03*
Y-7868D02*
D03*
X-143131D02*
D03*
Y-3931D02*
D03*
D136*
X129300Y98700D02*
D03*
Y92795D02*
D03*
Y86889D02*
D03*
Y80984D02*
D03*
Y75078D02*
D03*
Y69172D02*
D03*
Y63267D02*
D03*
Y57361D02*
D03*
Y51456D02*
D03*
Y45550D02*
D03*
Y39645D02*
D03*
Y33739D02*
D03*
Y27834D02*
D03*
X180087D02*
D03*
Y33739D02*
D03*
Y39645D02*
D03*
Y45550D02*
D03*
Y51456D02*
D03*
Y57361D02*
D03*
Y63267D02*
D03*
Y69172D02*
D03*
Y75078D02*
D03*
Y80984D02*
D03*
Y86889D02*
D03*
Y92795D02*
D03*
Y98700D02*
D03*
D137*
X133631Y21141D02*
D03*
X139536D02*
D03*
X145442D02*
D03*
X151347D02*
D03*
X157253D02*
D03*
X163158D02*
D03*
X169064D02*
D03*
X174969D02*
D03*
M02*
