G04*
G04 #@! TF.GenerationSoftware,Altium Limited,Altium Designer,20.1.11 (218)*
G04*
G04 Layer_Color=255*
%FSLAX25Y25*%
%MOIN*%
G70*
G04*
G04 #@! TF.SameCoordinates,8D0FCBAB-09EC-4A3B-B863-23265075E7EF*
G04*
G04*
G04 #@! TF.FilePolarity,Positive*
G04*
G01*
G75*
%ADD26C,0.05906*%
%ADD30R,0.03150X0.03543*%
%ADD118O,0.15748X0.11811*%
%ADD119O,0.11811X0.05906*%
%ADD120C,0.07087*%
%ADD121R,0.06299X0.06299*%
%ADD122C,0.06299*%
%ADD123O,0.07870X0.03940*%
%ADD124O,0.07090X0.03940*%
%ADD127O,0.09449X0.03937*%
%ADD128O,0.03937X0.08661*%
D26*
X49700Y-59900D02*
D03*
X59700D02*
D03*
X69700D02*
D03*
X79700D02*
D03*
D30*
X-7813Y-8366D02*
D03*
X-13324D02*
D03*
X7874D02*
D03*
X13385D02*
D03*
X-13324Y-80D02*
D03*
X-7813D02*
D03*
X13385D02*
D03*
X7874D02*
D03*
X-2786Y-16147D02*
D03*
X2725D02*
D03*
X2786Y15932D02*
D03*
X-2725D02*
D03*
X-13324Y8206D02*
D03*
X-7813D02*
D03*
X7874D02*
D03*
X13385D02*
D03*
D118*
X-175779Y-32813D02*
D03*
Y-14310D02*
D03*
Y4194D02*
D03*
D119*
X-212000Y-39900D02*
D03*
Y11281D02*
D03*
D120*
X61537Y103700D02*
D03*
X71378D02*
D03*
X81221D02*
D03*
X91063D02*
D03*
X-212100Y-58636D02*
D03*
Y-68479D02*
D03*
Y-78321D02*
D03*
Y-88164D02*
D03*
D121*
X-51394Y116900D02*
D03*
X-99913Y-117500D02*
D03*
X-184100Y-97400D02*
D03*
D122*
X-61236Y116900D02*
D03*
X-71078D02*
D03*
X-80921D02*
D03*
X-90764D02*
D03*
X-100606D02*
D03*
X-90070Y-117500D02*
D03*
X-80228D02*
D03*
X-70385D02*
D03*
X-60542D02*
D03*
X-50700D02*
D03*
X-154100Y-97400D02*
D03*
X-164100D02*
D03*
X-174100D02*
D03*
D123*
X206790Y57790D02*
D03*
Y91810D02*
D03*
D124*
X223250D02*
D03*
Y57790D02*
D03*
D127*
X129300Y98700D02*
D03*
Y92795D02*
D03*
Y86889D02*
D03*
Y80984D02*
D03*
Y75078D02*
D03*
Y69172D02*
D03*
Y63267D02*
D03*
Y57361D02*
D03*
Y51456D02*
D03*
Y45550D02*
D03*
Y39645D02*
D03*
Y33739D02*
D03*
Y27834D02*
D03*
X180087D02*
D03*
Y33739D02*
D03*
Y39645D02*
D03*
Y45550D02*
D03*
Y51456D02*
D03*
Y57361D02*
D03*
Y63267D02*
D03*
Y69172D02*
D03*
Y75078D02*
D03*
Y80984D02*
D03*
Y86889D02*
D03*
Y92795D02*
D03*
Y98700D02*
D03*
D128*
X133631Y21141D02*
D03*
X139536D02*
D03*
X145442D02*
D03*
X151347D02*
D03*
X157253D02*
D03*
X163158D02*
D03*
X169064D02*
D03*
X174969D02*
D03*
M02*
