G04*
G04 #@! TF.GenerationSoftware,Altium Limited,Altium Designer,20.1.11 (218)*
G04*
G04 Layer_Color=8421504*
%FSLAX25Y25*%
%MOIN*%
G70*
G04*
G04 #@! TF.SameCoordinates,8D0FCBAB-09EC-4A3B-B863-23265075E7EF*
G04*
G04*
G04 #@! TF.FilePolarity,Positive*
G04*
G01*
G75*
%ADD24R,0.03150X0.03150*%
%ADD25R,0.03543X0.03150*%
%ADD26C,0.05906*%
%ADD27R,0.03150X0.03150*%
%ADD28R,0.07874X0.07874*%
%ADD29R,0.07874X0.07874*%
%ADD30R,0.03150X0.03543*%
%ADD31R,0.06299X0.07087*%
%ADD32O,0.02165X0.00787*%
%ADD33O,0.00787X0.02165*%
%ADD34R,0.15748X0.05906*%
%ADD35R,0.04724X0.06299*%
%ADD36R,0.06000X0.06000*%
%ADD37R,0.05000X0.03600*%
%ADD38R,0.03600X0.03600*%
%ADD39O,0.05906X0.01063*%
%ADD40O,0.01063X0.05906*%
%ADD41R,0.05906X0.10630*%
%ADD42R,0.03540X0.04720*%
%ADD43R,0.04720X0.05120*%
%ADD44O,0.02362X0.09252*%
%ADD45O,0.08024X0.02260*%
%ADD46O,0.06299X0.01181*%
%ADD47O,0.01181X0.06299*%
%ADD48O,0.02480X0.07343*%
%ADD49R,0.04724X0.01181*%
%ADD50R,0.07874X0.07087*%
%ADD51R,0.16930X0.07870*%
%ADD52R,0.04490X0.01970*%
%ADD53R,0.04490X0.01180*%
%ADD54R,0.13071X0.09740*%
%ADD55R,0.12835X0.03583*%
%ADD56R,0.02362X0.03937*%
%ADD57R,0.04724X0.07874*%
%ADD58R,0.23622X0.26378*%
%ADD59R,0.08661X0.14173*%
%ADD60R,0.08661X0.04724*%
%ADD61O,0.09843X0.02756*%
%ADD62R,0.10630X0.05906*%
G36*
X39901Y108167D02*
Y107002D01*
X38744Y105415D01*
X37656D01*
X36499Y107002D01*
Y108167D01*
X36751Y108419D01*
X39649D01*
X39901Y108167D01*
D02*
G37*
G36*
X-9215D02*
Y107002D01*
X-10372Y105415D01*
X-11460D01*
X-12617Y107002D01*
Y108167D01*
X-12365Y108419D01*
X-9467D01*
X-9215Y108167D01*
D02*
G37*
G36*
X39901Y101349D02*
Y100184D01*
X39649Y99932D01*
X36751D01*
X36499Y100184D01*
Y101349D01*
X37656Y102935D01*
X38744D01*
X39901Y101349D01*
D02*
G37*
G36*
X-9215D02*
Y100184D01*
X-9467Y99932D01*
X-12365D01*
X-12617Y100184D01*
Y101349D01*
X-11460Y102935D01*
X-10372D01*
X-9215Y101349D01*
D02*
G37*
G36*
X-185112Y97449D02*
Y94551D01*
X-185364Y94299D01*
X-186529D01*
X-188115Y95456D01*
Y96544D01*
X-186529Y97701D01*
X-185364D01*
X-185112Y97449D01*
D02*
G37*
G36*
X-190596Y96544D02*
Y95456D01*
X-192182Y94299D01*
X-193347D01*
X-193599Y94551D01*
Y97449D01*
X-193347Y97701D01*
X-192182D01*
X-190596Y96544D01*
D02*
G37*
G36*
X157201Y95822D02*
Y94657D01*
X156044Y93071D01*
X154956D01*
X153799Y94657D01*
Y95822D01*
X154051Y96074D01*
X156949D01*
X157201Y95822D01*
D02*
G37*
G36*
X225936Y93480D02*
X226490Y92926D01*
X226790Y92202D01*
Y91418D01*
X226490Y90694D01*
X225936Y90140D01*
X225212Y89840D01*
X221278D01*
X220554Y90140D01*
X220000Y90694D01*
X219700Y91418D01*
Y92202D01*
X220000Y92926D01*
X220554Y93480D01*
X221278Y93780D01*
X225212D01*
X225936Y93480D01*
D02*
G37*
G36*
X209876D02*
X210430Y92926D01*
X210730Y92202D01*
Y91418D01*
X210430Y90694D01*
X209876Y90140D01*
X209152Y89840D01*
X204428D01*
X203704Y90140D01*
X203150Y90694D01*
X202850Y91418D01*
Y92202D01*
X203150Y92926D01*
X203704Y93480D01*
X204428Y93780D01*
X209152D01*
X209876Y93480D01*
D02*
G37*
G36*
X157201Y89004D02*
Y87839D01*
X156949Y87587D01*
X154051D01*
X153799Y87839D01*
Y89004D01*
X154956Y90591D01*
X156044D01*
X157201Y89004D01*
D02*
G37*
G36*
X206800Y86410D02*
X202310D01*
Y88380D01*
X206800D01*
Y86410D01*
D02*
G37*
G36*
Y83260D02*
X202310D01*
Y85230D01*
X206800D01*
Y83260D01*
D02*
G37*
G36*
Y81100D02*
X202310D01*
Y82280D01*
X206800D01*
Y81100D01*
D02*
G37*
G36*
Y79130D02*
X202310D01*
Y80310D01*
X206800D01*
Y79130D01*
D02*
G37*
G36*
X-220599Y80383D02*
Y79218D01*
X-221756Y77632D01*
X-222844D01*
X-224001Y79218D01*
Y80383D01*
X-223749Y80635D01*
X-220851D01*
X-220599Y80383D01*
D02*
G37*
G36*
X-203399Y80322D02*
Y79157D01*
X-204556Y77571D01*
X-205644D01*
X-206801Y79157D01*
Y80322D01*
X-206549Y80574D01*
X-203651D01*
X-203399Y80322D01*
D02*
G37*
G36*
X-211999D02*
Y79157D01*
X-213156Y77571D01*
X-214244D01*
X-215401Y79157D01*
Y80322D01*
X-215149Y80574D01*
X-212251D01*
X-211999Y80322D01*
D02*
G37*
G36*
X206800Y77160D02*
X202310D01*
Y78340D01*
X206800D01*
Y77160D01*
D02*
G37*
G36*
Y75190D02*
X202310D01*
Y76370D01*
X206800D01*
Y75190D01*
D02*
G37*
G36*
Y73230D02*
X202310D01*
Y74410D01*
X206800D01*
Y73230D01*
D02*
G37*
G36*
X-220599Y73565D02*
Y72400D01*
X-220851Y72148D01*
X-223749D01*
X-224001Y72400D01*
Y73565D01*
X-222844Y75151D01*
X-221756D01*
X-220599Y73565D01*
D02*
G37*
G36*
X-203399Y73504D02*
Y72339D01*
X-203651Y72087D01*
X-206549D01*
X-206801Y72339D01*
Y73504D01*
X-205644Y75090D01*
X-204556D01*
X-203399Y73504D01*
D02*
G37*
G36*
X-211999D02*
Y72339D01*
X-212251Y72087D01*
X-215149D01*
X-215401Y72339D01*
Y73504D01*
X-214244Y75090D01*
X-213156D01*
X-211999Y73504D01*
D02*
G37*
G36*
X206800Y71260D02*
X202310D01*
Y72440D01*
X206800D01*
Y71260D01*
D02*
G37*
G36*
Y69290D02*
X202310D01*
Y70470D01*
X206800D01*
Y69290D01*
D02*
G37*
G36*
Y67320D02*
X202310D01*
Y68500D01*
X206800D01*
Y67320D01*
D02*
G37*
G36*
Y64370D02*
X202310D01*
Y66340D01*
X206800D01*
Y64370D01*
D02*
G37*
G36*
Y61220D02*
X202310D01*
Y63190D01*
X206800D01*
Y61220D01*
D02*
G37*
G36*
X-29412Y62449D02*
Y59551D01*
X-29664Y59299D01*
X-30829D01*
X-32415Y60456D01*
Y61544D01*
X-30829Y62701D01*
X-29664D01*
X-29412Y62449D01*
D02*
G37*
G36*
X-34896Y61544D02*
Y60456D01*
X-36482Y59299D01*
X-37647D01*
X-37899Y59551D01*
Y62449D01*
X-37647Y62701D01*
X-36482D01*
X-34896Y61544D01*
D02*
G37*
G36*
X-57075Y62449D02*
Y59551D01*
X-57327Y59299D01*
X-58492D01*
X-60078Y60456D01*
Y61544D01*
X-58492Y62701D01*
X-57327D01*
X-57075Y62449D01*
D02*
G37*
G36*
X-62559Y61544D02*
Y60456D01*
X-64145Y59299D01*
X-65310D01*
X-65562Y59551D01*
Y62449D01*
X-65310Y62701D01*
X-64145D01*
X-62559Y61544D01*
D02*
G37*
G36*
X-85742Y62449D02*
Y59551D01*
X-85994Y59299D01*
X-87159D01*
X-88745Y60456D01*
Y61544D01*
X-87159Y62701D01*
X-85994D01*
X-85742Y62449D01*
D02*
G37*
G36*
X-91225Y61544D02*
Y60456D01*
X-92812Y59299D01*
X-93977D01*
X-94229Y59551D01*
Y62449D01*
X-93977Y62701D01*
X-92812D01*
X-91225Y61544D01*
D02*
G37*
G36*
X-114409Y62449D02*
Y59551D01*
X-114661Y59299D01*
X-115826D01*
X-117412Y60456D01*
Y61544D01*
X-115826Y62701D01*
X-114661D01*
X-114409Y62449D01*
D02*
G37*
G36*
X-119892Y61544D02*
Y60456D01*
X-121478Y59299D01*
X-122643D01*
X-122895Y59551D01*
Y62449D01*
X-122643Y62701D01*
X-121478D01*
X-119892Y61544D01*
D02*
G37*
G36*
X225936Y59460D02*
X226490Y58906D01*
X226790Y58182D01*
Y57398D01*
X226490Y56674D01*
X225936Y56120D01*
X225212Y55820D01*
X221278D01*
X220554Y56120D01*
X220000Y56674D01*
X219700Y57398D01*
Y58182D01*
X220000Y58906D01*
X220554Y59460D01*
X221278Y59760D01*
X225212D01*
X225936Y59460D01*
D02*
G37*
G36*
X209876D02*
X210430Y58906D01*
X210730Y58182D01*
Y57398D01*
X210430Y56674D01*
X209876Y56120D01*
X209152Y55820D01*
X204428D01*
X203704Y56120D01*
X203150Y56674D01*
X202850Y57398D01*
Y58182D01*
X203150Y58906D01*
X203704Y59460D01*
X204428Y59760D01*
X209152D01*
X209876Y59460D01*
D02*
G37*
G36*
X-177101Y56949D02*
Y54051D01*
X-177353Y53799D01*
X-178518D01*
X-180104Y54956D01*
Y56044D01*
X-178518Y57201D01*
X-177353D01*
X-177101Y56949D01*
D02*
G37*
G36*
X-182585Y56044D02*
Y54956D01*
X-184171Y53799D01*
X-185336D01*
X-185588Y54051D01*
Y56949D01*
X-185336Y57201D01*
X-184171D01*
X-182585Y56044D01*
D02*
G37*
G36*
X-191012Y56949D02*
Y54051D01*
X-191264Y53799D01*
X-192429D01*
X-194015Y54956D01*
Y56044D01*
X-192429Y57201D01*
X-191264D01*
X-191012Y56949D01*
D02*
G37*
G36*
X-196496Y56044D02*
Y54956D01*
X-198082Y53799D01*
X-199247D01*
X-199499Y54051D01*
Y56949D01*
X-199247Y57201D01*
X-198082D01*
X-196496Y56044D01*
D02*
G37*
G36*
X26801Y55436D02*
Y54271D01*
X25644Y52685D01*
X24556D01*
X23399Y54271D01*
Y55436D01*
X23651Y55688D01*
X26549D01*
X26801Y55436D01*
D02*
G37*
G36*
X-19002D02*
Y54271D01*
X-20159Y52685D01*
X-21247D01*
X-22404Y54271D01*
Y55436D01*
X-22152Y55688D01*
X-19254D01*
X-19002Y55436D01*
D02*
G37*
G36*
X26801Y48618D02*
Y47453D01*
X26549Y47201D01*
X23651D01*
X23399Y47453D01*
Y48618D01*
X24556Y50204D01*
X25644D01*
X26801Y48618D01*
D02*
G37*
G36*
X-19002D02*
Y47453D01*
X-19254Y47201D01*
X-22152D01*
X-22404Y47453D01*
Y48618D01*
X-21247Y50204D01*
X-20159D01*
X-19002Y48618D01*
D02*
G37*
G36*
X99301Y49322D02*
Y48157D01*
X98144Y46571D01*
X97056D01*
X95899Y48157D01*
Y49322D01*
X96151Y49574D01*
X99049D01*
X99301Y49322D01*
D02*
G37*
G36*
X129260Y48462D02*
Y45564D01*
X129008Y45312D01*
X127843D01*
X126257Y46469D01*
Y47557D01*
X127843Y48714D01*
X129008D01*
X129260Y48462D01*
D02*
G37*
G36*
X123777Y47557D02*
Y46469D01*
X122191Y45312D01*
X121026D01*
X120774Y45564D01*
Y48462D01*
X121026Y48714D01*
X122191D01*
X123777Y47557D01*
D02*
G37*
G36*
X161034Y47869D02*
Y46705D01*
X159878Y45118D01*
X158789D01*
X157633Y46705D01*
Y47869D01*
X157885Y48121D01*
X160782D01*
X161034Y47869D01*
D02*
G37*
G36*
X153260D02*
Y46705D01*
X152103Y45118D01*
X151015D01*
X149858Y46705D01*
Y47869D01*
X150110Y48121D01*
X153008D01*
X153260Y47869D01*
D02*
G37*
G36*
X145485D02*
Y46705D01*
X144328Y45118D01*
X143240D01*
X142083Y46705D01*
Y47869D01*
X142335Y48121D01*
X145233D01*
X145485Y47869D01*
D02*
G37*
G36*
X191349Y47320D02*
Y46155D01*
X190192Y44569D01*
X189104D01*
X187947Y46155D01*
Y47320D01*
X188199Y47572D01*
X191097D01*
X191349Y47320D01*
D02*
G37*
G36*
X183064Y47259D02*
Y46094D01*
X181908Y44508D01*
X180819D01*
X179663Y46094D01*
Y47259D01*
X179915Y47511D01*
X182812D01*
X183064Y47259D01*
D02*
G37*
G36*
X174801D02*
Y46094D01*
X173644Y44508D01*
X172556D01*
X171399Y46094D01*
Y47259D01*
X171651Y47511D01*
X174549D01*
X174801Y47259D01*
D02*
G37*
G36*
X223466Y47633D02*
Y44735D01*
X223214Y44483D01*
X222049D01*
X220463Y45640D01*
Y46729D01*
X222049Y47885D01*
X223214D01*
X223466Y47633D01*
D02*
G37*
G36*
X217982Y46729D02*
Y45640D01*
X216396Y44483D01*
X215231D01*
X214979Y44735D01*
Y47633D01*
X215231Y47885D01*
X216396D01*
X217982Y46729D01*
D02*
G37*
G36*
X206047Y47633D02*
Y44735D01*
X205795Y44483D01*
X204630D01*
X203044Y45640D01*
Y46729D01*
X204630Y47885D01*
X205795D01*
X206047Y47633D01*
D02*
G37*
G36*
X200563Y46729D02*
Y45640D01*
X198977Y44483D01*
X197812D01*
X197560Y44735D01*
Y47633D01*
X197812Y47885D01*
X198977D01*
X200563Y46729D01*
D02*
G37*
G36*
X-47671Y44306D02*
Y43141D01*
X-48828Y41555D01*
X-49916D01*
X-51073Y43141D01*
Y44306D01*
X-50821Y44558D01*
X-47923D01*
X-47671Y44306D01*
D02*
G37*
G36*
X-100051D02*
Y43141D01*
X-101208Y41555D01*
X-102296D01*
X-103453Y43141D01*
Y44306D01*
X-103201Y44558D01*
X-100303D01*
X-100051Y44306D01*
D02*
G37*
G36*
X99301Y42504D02*
Y41339D01*
X99049Y41087D01*
X96151D01*
X95899Y41339D01*
Y42504D01*
X97056Y44090D01*
X98144D01*
X99301Y42504D01*
D02*
G37*
G36*
X161034Y41052D02*
Y39887D01*
X160782Y39635D01*
X157885D01*
X157633Y39887D01*
Y41052D01*
X158789Y42638D01*
X159878D01*
X161034Y41052D01*
D02*
G37*
G36*
X153260D02*
Y39887D01*
X153008Y39635D01*
X150110D01*
X149858Y39887D01*
Y41052D01*
X151015Y42638D01*
X152103D01*
X153260Y41052D01*
D02*
G37*
G36*
X145485D02*
Y39887D01*
X145233Y39635D01*
X142335D01*
X142083Y39887D01*
Y41052D01*
X143240Y42638D01*
X144328D01*
X145485Y41052D01*
D02*
G37*
G36*
X191349Y40502D02*
Y39337D01*
X191097Y39085D01*
X188199D01*
X187947Y39337D01*
Y40502D01*
X189104Y42088D01*
X190192D01*
X191349Y40502D01*
D02*
G37*
G36*
X26801Y41836D02*
Y40671D01*
X25644Y39085D01*
X24556D01*
X23399Y40671D01*
Y41836D01*
X23651Y42088D01*
X26549D01*
X26801Y41836D01*
D02*
G37*
G36*
X-19002D02*
Y40671D01*
X-20159Y39085D01*
X-21247D01*
X-22404Y40671D01*
Y41836D01*
X-22152Y42088D01*
X-19254D01*
X-19002Y41836D01*
D02*
G37*
G36*
X183064Y40441D02*
Y39276D01*
X182812Y39024D01*
X179915D01*
X179663Y39276D01*
Y40441D01*
X180819Y42027D01*
X181908D01*
X183064Y40441D01*
D02*
G37*
G36*
X174801D02*
Y39276D01*
X174549Y39024D01*
X171651D01*
X171399Y39276D01*
Y40441D01*
X172556Y42027D01*
X173644D01*
X174801Y40441D01*
D02*
G37*
G36*
X129260Y40687D02*
Y37789D01*
X129008Y37537D01*
X127843D01*
X126257Y38694D01*
Y39783D01*
X127843Y40939D01*
X129008D01*
X129260Y40687D01*
D02*
G37*
G36*
X123777Y39783D02*
Y38694D01*
X122191Y37537D01*
X121026D01*
X120774Y37789D01*
Y40687D01*
X121026Y40939D01*
X122191D01*
X123777Y39783D01*
D02*
G37*
G36*
X-47671Y37488D02*
Y36323D01*
X-47923Y36071D01*
X-50821D01*
X-51073Y36323D01*
Y37488D01*
X-49916Y39075D01*
X-48828D01*
X-47671Y37488D01*
D02*
G37*
G36*
X-100051D02*
Y36323D01*
X-100303Y36071D01*
X-103201D01*
X-103453Y36323D01*
Y37488D01*
X-102296Y39075D01*
X-101208D01*
X-100051Y37488D01*
D02*
G37*
G36*
X26801Y35018D02*
Y33853D01*
X26549Y33601D01*
X23651D01*
X23399Y33853D01*
Y35018D01*
X24556Y36604D01*
X25644D01*
X26801Y35018D01*
D02*
G37*
G36*
X-19002D02*
Y33853D01*
X-19254Y33601D01*
X-22152D01*
X-22404Y33853D01*
Y35018D01*
X-21247Y36604D01*
X-20159D01*
X-19002Y35018D01*
D02*
G37*
G36*
X79501Y33197D02*
Y32032D01*
X78344Y30446D01*
X77256D01*
X76099Y32032D01*
Y33197D01*
X76351Y33449D01*
X79249D01*
X79501Y33197D01*
D02*
G37*
G36*
X97201Y33136D02*
Y31971D01*
X96044Y30385D01*
X94956D01*
X93799Y31971D01*
Y33136D01*
X94051Y33388D01*
X96949D01*
X97201Y33136D01*
D02*
G37*
G36*
X53901D02*
Y31971D01*
X52744Y30385D01*
X51656D01*
X50499Y31971D01*
Y33136D01*
X50751Y33388D01*
X53649D01*
X53901Y33136D01*
D02*
G37*
G36*
X191349Y32331D02*
Y31166D01*
X190192Y29580D01*
X189104D01*
X187947Y31166D01*
Y32331D01*
X188199Y32583D01*
X191097D01*
X191349Y32331D01*
D02*
G37*
G36*
X79501Y26379D02*
Y25214D01*
X79249Y24962D01*
X76351D01*
X76099Y25214D01*
Y26379D01*
X77256Y27965D01*
X78344D01*
X79501Y26379D01*
D02*
G37*
G36*
X97201Y26318D02*
Y25153D01*
X96949Y24901D01*
X94051D01*
X93799Y25153D01*
Y26318D01*
X94956Y27904D01*
X96044D01*
X97201Y26318D01*
D02*
G37*
G36*
X53901D02*
Y25153D01*
X53649Y24901D01*
X50751D01*
X50499Y25153D01*
Y26318D01*
X51656Y27904D01*
X52744D01*
X53901Y26318D01*
D02*
G37*
G36*
X191349Y25513D02*
Y24348D01*
X191097Y24096D01*
X188199D01*
X187947Y24348D01*
Y25513D01*
X189104Y27099D01*
X190192D01*
X191349Y25513D01*
D02*
G37*
G36*
X206347Y25433D02*
Y22535D01*
X206095Y22283D01*
X204930D01*
X203344Y23440D01*
Y24529D01*
X204930Y25685D01*
X206095D01*
X206347Y25433D01*
D02*
G37*
G36*
X200863Y24529D02*
Y23440D01*
X199277Y22283D01*
X198112D01*
X197860Y22535D01*
Y25433D01*
X198112Y25685D01*
X199277D01*
X200863Y24529D01*
D02*
G37*
G36*
X-66651Y19455D02*
Y16557D01*
X-66903Y16306D01*
X-68068D01*
X-69654Y17462D01*
Y18551D01*
X-68068Y19707D01*
X-66903D01*
X-66651Y19455D01*
D02*
G37*
G36*
X-72135Y18551D02*
Y17462D01*
X-73721Y16306D01*
X-74886D01*
X-75138Y16557D01*
Y19455D01*
X-74886Y19707D01*
X-73721D01*
X-72135Y18551D01*
D02*
G37*
G36*
X129321Y17102D02*
Y14205D01*
X129069Y13953D01*
X127904D01*
X126318Y15109D01*
Y16198D01*
X127904Y17354D01*
X129069D01*
X129321Y17102D01*
D02*
G37*
G36*
X123838Y16198D02*
Y15109D01*
X122252Y13953D01*
X121087D01*
X120835Y14205D01*
Y17102D01*
X121087Y17354D01*
X122252D01*
X123838Y16198D01*
D02*
G37*
G36*
X223466Y16533D02*
Y13635D01*
X223214Y13383D01*
X222049D01*
X220463Y14540D01*
Y15629D01*
X222049Y16785D01*
X223214D01*
X223466Y16533D01*
D02*
G37*
G36*
X217982Y15629D02*
Y14540D01*
X216396Y13383D01*
X215231D01*
X214979Y13635D01*
Y16533D01*
X215231Y16785D01*
X216396D01*
X217982Y15629D01*
D02*
G37*
G36*
X99702Y19716D02*
X100048Y19370D01*
Y19126D01*
Y13220D01*
X100048Y12976D01*
X99702Y12630D01*
X99213D01*
X98867Y12976D01*
X98867Y13220D01*
Y19126D01*
Y19370D01*
X99213Y19716D01*
X99702Y19716D01*
D02*
G37*
G36*
X98080Y19370D02*
Y19126D01*
Y13220D01*
Y12975D01*
X97734Y12630D01*
X97245D01*
X96899Y12976D01*
X96899Y13220D01*
Y19126D01*
Y19370D01*
X97245Y19716D01*
X97734D01*
X98080Y19370D01*
D02*
G37*
G36*
X95765Y19716D02*
X96111Y19370D01*
Y19126D01*
Y13220D01*
Y12976D01*
X95765Y12630D01*
X95276D01*
X94930Y12976D01*
X94930Y13220D01*
Y19126D01*
Y19370D01*
X95276Y19716D01*
X95765Y19716D01*
D02*
G37*
G36*
X94143Y19370D02*
Y19126D01*
X94143Y13220D01*
X94143Y12975D01*
X93797Y12630D01*
X93308D01*
X92962Y12976D01*
X92962Y13220D01*
Y19126D01*
Y19370D01*
X93308Y19716D01*
X93797D01*
X94143Y19370D01*
D02*
G37*
G36*
X90205Y19370D02*
X90205Y19126D01*
Y13220D01*
X90205Y12976D01*
X89859Y12630D01*
X89370Y12630D01*
X89024Y12975D01*
Y13220D01*
Y19126D01*
Y19370D01*
X89370Y19716D01*
X89859Y19716D01*
X90205Y19370D01*
D02*
G37*
G36*
X86268D02*
Y19126D01*
Y13220D01*
Y12976D01*
X85922Y12630D01*
X85433D01*
X85087Y12975D01*
Y13220D01*
Y19126D01*
Y19370D01*
X85433Y19716D01*
X85922D01*
X86268Y19370D01*
D02*
G37*
G36*
X81985Y19716D02*
X82331Y19370D01*
Y19126D01*
Y13220D01*
X82331Y12976D01*
X81985Y12630D01*
X81496D01*
X81150Y12975D01*
X81150Y13220D01*
Y19126D01*
X81150Y19370D01*
X81496Y19716D01*
X81985Y19716D01*
D02*
G37*
G36*
X80363Y19370D02*
Y19126D01*
Y13220D01*
Y12975D01*
X80017Y12630D01*
X79528D01*
X79182Y12976D01*
Y13220D01*
Y19126D01*
Y19370D01*
X79528Y19716D01*
X80017Y19716D01*
X80363Y19370D01*
D02*
G37*
G36*
X78048Y19716D02*
X78394Y19370D01*
Y19126D01*
Y13220D01*
X78394Y12976D01*
X78048Y12630D01*
X77559D01*
X77213Y12976D01*
X77213Y13220D01*
Y19126D01*
Y19370D01*
X77559Y19716D01*
X78048Y19716D01*
D02*
G37*
G36*
X76425Y19370D02*
Y19126D01*
Y13220D01*
X76425Y12976D01*
X76079Y12630D01*
X75590D01*
X75244Y12975D01*
Y13220D01*
Y19126D01*
Y19370D01*
X75590Y19716D01*
X76079D01*
X76425Y19370D01*
D02*
G37*
G36*
X74111Y19716D02*
X74457Y19370D01*
Y19126D01*
Y13220D01*
Y12976D01*
X74111Y12630D01*
X73622D01*
X73276Y12976D01*
X73276Y13220D01*
Y19126D01*
Y19370D01*
X73622Y19716D01*
X74111Y19716D01*
D02*
G37*
G36*
X72488Y19370D02*
Y19126D01*
Y13220D01*
X72488Y12976D01*
X72142Y12630D01*
X71653D01*
X71307Y12975D01*
Y13220D01*
Y19126D01*
Y19370D01*
X71653Y19716D01*
X72142D01*
X72488Y19370D01*
D02*
G37*
G36*
X68551D02*
Y19126D01*
Y13220D01*
X68551Y12976D01*
X68205Y12630D01*
X67716D01*
X67370Y12975D01*
Y13220D01*
Y19126D01*
Y19370D01*
X67716Y19716D01*
X68205Y19716D01*
X68551Y19370D01*
D02*
G37*
G36*
X58709Y19370D02*
Y19126D01*
Y13220D01*
Y12975D01*
X58363Y12630D01*
X57874D01*
X57528Y12976D01*
X57528Y13220D01*
Y19126D01*
X57528Y19370D01*
X57874Y19716D01*
X58363Y19716D01*
X58709Y19370D01*
D02*
G37*
G36*
X56741Y19370D02*
Y19126D01*
Y13220D01*
X56741Y12976D01*
X56395Y12630D01*
X55906D01*
X55560Y12975D01*
Y13220D01*
Y19126D01*
Y19370D01*
X55906Y19716D01*
X56395D01*
X56741Y19370D01*
D02*
G37*
G36*
X54772Y19370D02*
Y19126D01*
Y13220D01*
Y12975D01*
X54426Y12630D01*
X53937D01*
X53591Y12976D01*
Y13220D01*
Y19126D01*
Y19370D01*
X53937Y19716D01*
X54426Y19716D01*
X54772Y19370D01*
D02*
G37*
G36*
X52804Y19370D02*
Y19126D01*
Y13220D01*
X52804Y12976D01*
X52458Y12630D01*
X51969D01*
X51623Y12975D01*
Y13220D01*
Y19126D01*
Y19370D01*
X51969Y19716D01*
X52458D01*
X52804Y19370D01*
D02*
G37*
G36*
X91828Y19716D02*
X92174Y19370D01*
X92174Y19126D01*
Y13220D01*
X92174Y12976D01*
X91828Y12630D01*
X91339Y12630D01*
X90993Y12976D01*
X90993Y13220D01*
Y19126D01*
Y19370D01*
X91339Y19716D01*
X91828Y19716D01*
D02*
G37*
G36*
X87891D02*
X88237Y19370D01*
Y19126D01*
Y13220D01*
X88237Y12976D01*
X87891Y12630D01*
X87402Y12630D01*
X87056Y12976D01*
X87056Y13220D01*
Y19126D01*
Y19370D01*
X87402Y19716D01*
X87891Y19716D01*
D02*
G37*
G36*
X84300Y19370D02*
Y19126D01*
Y13220D01*
Y12975D01*
X83954Y12630D01*
X83465Y12630D01*
X83119Y12976D01*
X83119Y13220D01*
Y19126D01*
X83119Y19370D01*
X83465Y19716D01*
X83954Y19716D01*
X84300Y19370D01*
D02*
G37*
G36*
X70174Y19716D02*
X70520Y19370D01*
Y19126D01*
Y13220D01*
X70520Y12976D01*
X70174Y12630D01*
X69685Y12630D01*
X69339Y12976D01*
X69339Y13220D01*
Y19126D01*
Y19370D01*
X69685Y19716D01*
X70174Y19716D01*
D02*
G37*
G36*
X66237D02*
X66583Y19370D01*
Y19126D01*
X66583Y13220D01*
Y12976D01*
X66237Y12630D01*
X65748Y12630D01*
X65402Y12976D01*
X65402Y13220D01*
Y19126D01*
Y19370D01*
X65748Y19716D01*
X66237Y19716D01*
D02*
G37*
G36*
X64615Y19370D02*
Y19126D01*
Y13220D01*
X64615Y12976D01*
X64269Y12630D01*
X63780Y12630D01*
X63434Y12976D01*
Y13220D01*
Y19126D01*
Y19370D01*
X63780Y19716D01*
X64269Y19716D01*
X64615Y19370D01*
D02*
G37*
G36*
X62646Y19370D02*
Y19126D01*
Y13220D01*
Y12975D01*
X62300Y12630D01*
X61811Y12630D01*
X61465Y12976D01*
X61465Y13220D01*
Y19126D01*
Y19370D01*
X61811Y19716D01*
X62300D01*
X62646Y19370D01*
D02*
G37*
G36*
X60678Y19370D02*
Y19126D01*
Y13220D01*
X60678Y12976D01*
X60332Y12630D01*
X59843Y12630D01*
X59497Y12976D01*
Y13220D01*
X59497Y19126D01*
Y19370D01*
X59843Y19716D01*
X60332Y19716D01*
X60678Y19370D01*
D02*
G37*
G36*
X-134628Y13801D02*
Y10903D01*
X-134880Y10651D01*
X-136045D01*
X-137631Y11808D01*
Y12896D01*
X-136045Y14053D01*
X-134880D01*
X-134628Y13801D01*
D02*
G37*
G36*
X-140111Y12896D02*
Y11808D01*
X-141698Y10651D01*
X-142863D01*
X-143115Y10903D01*
Y13801D01*
X-142863Y14053D01*
X-141698D01*
X-140111Y12896D01*
D02*
G37*
G36*
X-149928Y13801D02*
Y10903D01*
X-150180Y10651D01*
X-151345D01*
X-152931Y11808D01*
Y12896D01*
X-151345Y14053D01*
X-150180D01*
X-149928Y13801D01*
D02*
G37*
G36*
X-155412Y12896D02*
Y11808D01*
X-156998Y10651D01*
X-158163D01*
X-158415Y10903D01*
Y13801D01*
X-158163Y14053D01*
X-156998D01*
X-155412Y12896D01*
D02*
G37*
G36*
X49655Y10316D02*
X49655Y9826D01*
X49309Y9480D01*
X49064Y9480D01*
X42914D01*
X42568Y9826D01*
Y10316D01*
X42914Y10661D01*
X49309D01*
X49655Y10316D01*
D02*
G37*
G36*
X108757Y10661D02*
X109103Y10316D01*
X109103Y9826D01*
X108757Y9480D01*
X108512Y9480D01*
X102607Y9480D01*
X102365Y9483D01*
X102024Y9829D01*
X102024Y10313D01*
X102365Y10658D01*
X102607Y10661D01*
Y10661D01*
X108512D01*
X108757Y10661D01*
D02*
G37*
G36*
X-43499Y10447D02*
Y9282D01*
X-44656Y7696D01*
X-45744D01*
X-46901Y9282D01*
Y10447D01*
X-46649Y10699D01*
X-43751D01*
X-43499Y10447D01*
D02*
G37*
G36*
X-89499D02*
Y9282D01*
X-90656Y7696D01*
X-91744D01*
X-92901Y9282D01*
Y10447D01*
X-92649Y10699D01*
X-89751D01*
X-89499Y10447D01*
D02*
G37*
G36*
X102607Y8693D02*
X108757D01*
X109103Y8348D01*
X109103Y7858D01*
X108757Y7512D01*
X102362D01*
X102016Y7858D01*
X102016Y8348D01*
X102362Y8693D01*
X102607Y8693D01*
D02*
G37*
G36*
X49655Y8348D02*
X49655Y7858D01*
X49309Y7512D01*
X42914D01*
X42568Y7858D01*
Y8348D01*
X42914Y8693D01*
X49064D01*
X49309Y8693D01*
X49655Y8348D01*
D02*
G37*
G36*
X129260Y9349D02*
Y6451D01*
X129008Y6199D01*
X127843D01*
X126257Y7356D01*
Y8444D01*
X127843Y9601D01*
X129008D01*
X129260Y9349D01*
D02*
G37*
G36*
X123777Y8444D02*
Y7356D01*
X122191Y6199D01*
X121026D01*
X120774Y6451D01*
Y9349D01*
X121026Y9601D01*
X122191D01*
X123777Y8444D01*
D02*
G37*
G36*
X108757Y6724D02*
X109103Y6379D01*
Y5889D01*
X108757Y5543D01*
X102362D01*
X102016Y5889D01*
X102016Y6379D01*
X102362Y6724D01*
X108512D01*
X108757Y6724D01*
D02*
G37*
G36*
X49655Y6379D02*
X49655Y5889D01*
X49309Y5543D01*
X42914D01*
X42568Y5889D01*
Y6379D01*
X42914Y6724D01*
X49309D01*
X49655Y6379D01*
D02*
G37*
G36*
X223466Y7833D02*
Y4935D01*
X223214Y4683D01*
X222049D01*
X220463Y5840D01*
Y6928D01*
X222049Y8085D01*
X223214D01*
X223466Y7833D01*
D02*
G37*
G36*
X217982Y6928D02*
Y5840D01*
X216396Y4683D01*
X215231D01*
X214979Y4935D01*
Y7833D01*
X215231Y8085D01*
X216396D01*
X217982Y6928D01*
D02*
G37*
G36*
X108757Y4756D02*
X109103Y4411D01*
Y3921D01*
X108757Y3575D01*
X108512Y3575D01*
X102362D01*
X102016Y3921D01*
X102016Y4411D01*
X102362Y4756D01*
X108512D01*
X108757Y4756D01*
D02*
G37*
G36*
X49655Y4411D02*
Y3921D01*
X49309Y3575D01*
X42914D01*
X42568Y3921D01*
Y4411D01*
X42914Y4756D01*
X43159D01*
X49064Y4756D01*
X49309D01*
X49655Y4411D01*
D02*
G37*
G36*
X-43499Y3629D02*
Y2464D01*
X-43751Y2212D01*
X-46649D01*
X-46901Y2464D01*
Y3629D01*
X-45744Y5215D01*
X-44656D01*
X-43499Y3629D01*
D02*
G37*
G36*
X-89499D02*
Y2464D01*
X-89751Y2212D01*
X-92649D01*
X-92901Y2464D01*
Y3629D01*
X-91744Y5215D01*
X-90656D01*
X-89499Y3629D01*
D02*
G37*
G36*
X49655Y2441D02*
X49655Y1952D01*
X49309Y1606D01*
X42914D01*
X42568Y1952D01*
X42568Y2441D01*
X42914Y2788D01*
X49064D01*
X49309Y2788D01*
X49655Y2441D01*
D02*
G37*
G36*
X108757Y2788D02*
X109103Y2441D01*
Y1952D01*
X108757Y1606D01*
X108512Y1606D01*
X102362D01*
X102016Y1952D01*
X102016Y2441D01*
X102362Y2788D01*
X108512D01*
X108757Y2788D01*
D02*
G37*
G36*
X109103Y474D02*
X109103Y-16D01*
X108757Y-362D01*
X108512Y-362D01*
Y-362D01*
X102607D01*
Y-362D01*
X102362Y-362D01*
X102016Y-16D01*
X102016Y473D01*
X102362Y819D01*
X102607Y819D01*
X102607Y819D01*
X108512D01*
X108757Y819D01*
X109103Y474D01*
D02*
G37*
G36*
X49064Y819D02*
X49309D01*
X49655Y472D01*
Y-17D01*
X49309Y-363D01*
X42914D01*
X42568Y-17D01*
X42568Y472D01*
X42914Y819D01*
X43159D01*
X49064Y819D01*
D02*
G37*
G36*
X49655Y-1496D02*
X49655Y-1985D01*
X49309Y-2331D01*
X43159D01*
X42914Y-2331D01*
X42568Y-1985D01*
X42568Y-1496D01*
X42914Y-1149D01*
X49064D01*
X49309Y-1149D01*
X49655Y-1496D01*
D02*
G37*
G36*
X102607Y-1149D02*
X108512Y-1149D01*
X108757Y-1149D01*
X109103Y-1495D01*
X109103Y-1985D01*
X108757Y-2331D01*
X108512D01*
Y-2331D01*
X102607D01*
X102362Y-2331D01*
X102016Y-1985D01*
Y-1495D01*
X102362Y-1149D01*
X102607Y-1149D01*
D02*
G37*
G36*
X224182Y-1369D02*
Y-2534D01*
X223025Y-4120D01*
X221937D01*
X220780Y-2534D01*
Y-1369D01*
X221032Y-1117D01*
X223930D01*
X224182Y-1369D01*
D02*
G37*
G36*
X216501Y-1453D02*
Y-2618D01*
X215344Y-4204D01*
X214256D01*
X213099Y-2618D01*
Y-1453D01*
X213351Y-1201D01*
X216249D01*
X216501Y-1453D01*
D02*
G37*
G36*
X109103Y-3463D02*
X109103Y-3953D01*
X108757Y-4299D01*
X108512Y-4299D01*
X102362D01*
X102016Y-3953D01*
X102016Y-3463D01*
X102362Y-3118D01*
X102607Y-3118D01*
X108757D01*
X109103Y-3463D01*
D02*
G37*
G36*
X49309Y-3118D02*
X49655Y-3464D01*
X49655Y-3954D01*
X49309Y-4300D01*
X49064Y-4300D01*
X42914D01*
X42568Y-3954D01*
X42568Y-3464D01*
X42914Y-3118D01*
X49064D01*
X49309Y-3118D01*
D02*
G37*
G36*
X49655Y-5432D02*
X49655Y-5922D01*
X49309Y-6268D01*
X49064D01*
X43159Y-6268D01*
X42914D01*
X42568Y-5922D01*
X42568Y-5432D01*
X42914Y-5086D01*
X43159D01*
X49064Y-5086D01*
X49309Y-5086D01*
X49655Y-5432D01*
D02*
G37*
G36*
X-43499Y-2653D02*
Y-3818D01*
X-44656Y-5404D01*
X-45744D01*
X-46901Y-3818D01*
Y-2653D01*
X-46649Y-2401D01*
X-43751D01*
X-43499Y-2653D01*
D02*
G37*
G36*
X-89499D02*
Y-3818D01*
X-90656Y-5404D01*
X-91744D01*
X-92901Y-3818D01*
Y-2653D01*
X-92649Y-2401D01*
X-89751D01*
X-89499Y-2653D01*
D02*
G37*
G36*
X102607Y-5085D02*
X108512D01*
X108757Y-5085D01*
X109103Y-5432D01*
X109103Y-5921D01*
X108757Y-6267D01*
X108512Y-6267D01*
X102607D01*
X102362Y-6267D01*
X102016Y-5921D01*
X102016Y-5431D01*
X102362Y-5085D01*
X102607Y-5085D01*
D02*
G37*
G36*
X142341Y-3801D02*
Y-4966D01*
X141185Y-6552D01*
X140096D01*
X138939Y-4966D01*
Y-3801D01*
X139191Y-3549D01*
X142089D01*
X142341Y-3801D01*
D02*
G37*
G36*
X108757Y-7055D02*
X109103Y-7401D01*
X109103Y-7890D01*
X108757Y-8236D01*
X108512Y-8236D01*
X102607Y-8236D01*
X102365Y-8232D01*
X102024Y-7887D01*
Y-7403D01*
X102365Y-7058D01*
X102607Y-7055D01*
X108512D01*
X108757Y-7055D01*
D02*
G37*
G36*
X49655Y-7401D02*
X49655Y-7891D01*
X49309Y-8237D01*
X43159D01*
X42914Y-8237D01*
X42568Y-7891D01*
Y-7401D01*
X42914Y-7056D01*
X49309D01*
X49655Y-7401D01*
D02*
G37*
G36*
X224182Y-8187D02*
Y-9352D01*
X223930Y-9604D01*
X221032D01*
X220780Y-9352D01*
Y-8187D01*
X221937Y-6600D01*
X223025D01*
X224182Y-8187D01*
D02*
G37*
G36*
X216501Y-8271D02*
Y-9436D01*
X216249Y-9688D01*
X213351D01*
X213099Y-9436D01*
Y-8271D01*
X214256Y-6685D01*
X215344D01*
X216501Y-8271D01*
D02*
G37*
G36*
X203399Y-7051D02*
Y-9949D01*
X203147Y-10201D01*
X201982D01*
X200396Y-9044D01*
Y-7956D01*
X201982Y-6799D01*
X203147D01*
X203399Y-7051D01*
D02*
G37*
G36*
X197915Y-7956D02*
Y-9044D01*
X196329Y-10201D01*
X195164D01*
X194912Y-9949D01*
Y-7051D01*
X195164Y-6799D01*
X196329D01*
X197915Y-7956D01*
D02*
G37*
G36*
X183799Y-7051D02*
Y-9949D01*
X183547Y-10201D01*
X182382D01*
X180796Y-9044D01*
Y-7956D01*
X182382Y-6799D01*
X183547D01*
X183799Y-7051D01*
D02*
G37*
G36*
X178315Y-7956D02*
Y-9044D01*
X176729Y-10201D01*
X175564D01*
X175312Y-9949D01*
Y-7051D01*
X175564Y-6799D01*
X176729D01*
X178315Y-7956D01*
D02*
G37*
G36*
X108757Y-9023D02*
X109103Y-9369D01*
X109103Y-9858D01*
X108757Y-10204D01*
X102607D01*
X102362Y-10204D01*
X102016Y-9858D01*
X102016Y-9369D01*
X102362Y-9023D01*
X108512D01*
X108757Y-9023D01*
D02*
G37*
G36*
X49655Y-9369D02*
X49655Y-9859D01*
X49309Y-10205D01*
X49064Y-10205D01*
X42914D01*
X42568Y-9859D01*
X42568Y-9369D01*
X42914Y-9024D01*
X49309D01*
X49655Y-9369D01*
D02*
G37*
G36*
X-43499Y-9471D02*
Y-10636D01*
X-43751Y-10888D01*
X-46649D01*
X-46901Y-10636D01*
Y-9471D01*
X-45744Y-7885D01*
X-44656D01*
X-43499Y-9471D01*
D02*
G37*
G36*
X-89499D02*
Y-10636D01*
X-89751Y-10888D01*
X-92649D01*
X-92901Y-10636D01*
Y-9471D01*
X-91744Y-7885D01*
X-90656D01*
X-89499Y-9471D01*
D02*
G37*
G36*
X142341Y-10619D02*
Y-11784D01*
X142089Y-12036D01*
X139191D01*
X138939Y-11784D01*
Y-10619D01*
X140096Y-9032D01*
X141185D01*
X142341Y-10619D01*
D02*
G37*
G36*
X109103Y-11338D02*
Y-11827D01*
X108757Y-12173D01*
X108512Y-12173D01*
X102362D01*
X102016Y-11827D01*
Y-11338D01*
X102362Y-10992D01*
X108512D01*
X108757Y-10992D01*
X109103Y-11338D01*
D02*
G37*
G36*
X49309Y-10993D02*
X49655Y-11338D01*
X49655Y-11828D01*
X49309Y-12174D01*
X49064Y-12174D01*
X42914D01*
X42568Y-11828D01*
Y-11338D01*
X42914Y-10993D01*
X49064D01*
X49309Y-10993D01*
D02*
G37*
G36*
X119148Y-10585D02*
Y-11750D01*
X117991Y-13336D01*
X116903D01*
X115746Y-11750D01*
Y-10585D01*
X115998Y-10333D01*
X118896D01*
X119148Y-10585D01*
D02*
G37*
G36*
X108757Y-12959D02*
X109103Y-13306D01*
Y-13795D01*
X108757Y-14141D01*
X102362D01*
X102016Y-13795D01*
X102016Y-13306D01*
X102362Y-12959D01*
X108512D01*
X108757Y-12959D01*
D02*
G37*
G36*
X49655Y-13307D02*
Y-13797D01*
X49309Y-14143D01*
X49064Y-14143D01*
X43159D01*
X42914Y-14143D01*
X42568Y-13797D01*
X42568Y-13307D01*
X42914Y-12961D01*
X49309D01*
X49655Y-13307D01*
D02*
G37*
G36*
X109103Y-15274D02*
Y-15764D01*
X108757Y-16110D01*
X102362D01*
X102016Y-15764D01*
Y-15274D01*
X102362Y-14929D01*
X108512D01*
X108757Y-14929D01*
X109103Y-15274D01*
D02*
G37*
G36*
X49655Y-15276D02*
X49655Y-15765D01*
X49309Y-16111D01*
X49064Y-16111D01*
X42914D01*
X42568Y-15765D01*
Y-15276D01*
X42914Y-14930D01*
X49309D01*
X49655Y-15276D01*
D02*
G37*
G36*
X109103Y-17243D02*
X109103Y-17733D01*
X108757Y-18079D01*
X108512Y-18079D01*
X102607D01*
X102365Y-18076D01*
X102024Y-17730D01*
X102024Y-17246D01*
X102365Y-16901D01*
X102607Y-16898D01*
Y-16898D01*
X108512Y-16897D01*
X108757Y-16897D01*
X109103Y-17243D01*
D02*
G37*
G36*
X49655Y-17244D02*
Y-17734D01*
X49309Y-18080D01*
X42914D01*
X42568Y-17734D01*
X42568Y-17244D01*
X42914Y-16898D01*
X49309D01*
X49655Y-17244D01*
D02*
G37*
G36*
X119148Y-17402D02*
Y-18567D01*
X118896Y-18819D01*
X115998D01*
X115746Y-18567D01*
Y-17402D01*
X116903Y-15816D01*
X117991D01*
X119148Y-17402D01*
D02*
G37*
G36*
X-78112Y-16351D02*
Y-19249D01*
X-78364Y-19501D01*
X-79529D01*
X-81115Y-18344D01*
Y-17256D01*
X-79529Y-16099D01*
X-78364D01*
X-78112Y-16351D01*
D02*
G37*
G36*
X-83596Y-17256D02*
Y-18344D01*
X-85182Y-19501D01*
X-86347D01*
X-86599Y-19249D01*
Y-16351D01*
X-86347Y-16099D01*
X-85182D01*
X-83596Y-17256D01*
D02*
G37*
G36*
X109103Y-19211D02*
X109103Y-19701D01*
X108757Y-20047D01*
X108512Y-20047D01*
X102607D01*
X102362Y-20047D01*
X102016Y-19701D01*
X102016Y-19211D01*
X102362Y-18866D01*
X102607Y-18866D01*
X102607Y-18866D01*
X108512D01*
X108757Y-18866D01*
X109103Y-19211D01*
D02*
G37*
G36*
X49655Y-19212D02*
X49655Y-19702D01*
X49309Y-20048D01*
X42914D01*
X42568Y-19702D01*
Y-19212D01*
X42914Y-18867D01*
X49064D01*
X49309Y-18867D01*
X49655Y-19212D01*
D02*
G37*
G36*
X142362Y-17307D02*
Y-18472D01*
X141206Y-20058D01*
X140117D01*
X138961Y-18472D01*
Y-17307D01*
X139213Y-17055D01*
X142110D01*
X142362Y-17307D01*
D02*
G37*
G36*
X49655Y-21181D02*
Y-21671D01*
X49309Y-22017D01*
X42914D01*
X42568Y-21671D01*
Y-21181D01*
X42914Y-20835D01*
X43159D01*
X49064Y-20835D01*
X49309Y-20835D01*
X49655Y-21181D01*
D02*
G37*
G36*
X108512Y-20834D02*
X108757Y-20834D01*
X109103Y-21180D01*
X109103Y-21670D01*
X108757Y-22016D01*
X108512Y-22016D01*
Y-22016D01*
X102607D01*
X102362Y-22016D01*
X102016Y-21670D01*
X102016Y-21180D01*
X102362Y-20834D01*
X102607D01*
X108512Y-20834D01*
D02*
G37*
G36*
X108757Y-22803D02*
X109103Y-23148D01*
X109103Y-23638D01*
X108757Y-23984D01*
X108512Y-23984D01*
X102607Y-23984D01*
X102362D01*
X102016Y-23638D01*
Y-23148D01*
X102362Y-22803D01*
X108512D01*
X108757Y-22803D01*
D02*
G37*
G36*
X49655Y-23149D02*
X49655Y-23639D01*
X49309Y-23985D01*
X42914D01*
X42568Y-23639D01*
X42568Y-23149D01*
X42914Y-22804D01*
X49064D01*
X49309Y-22804D01*
X49655Y-23149D01*
D02*
G37*
G36*
X108757Y-24771D02*
X109103Y-25117D01*
X109103Y-25607D01*
X108757Y-25953D01*
X108512Y-25953D01*
X102607Y-25953D01*
X102362Y-25953D01*
X102016Y-25607D01*
X102016Y-25117D01*
X102362Y-24771D01*
X102607Y-24771D01*
X108512Y-24771D01*
X108757Y-24771D01*
D02*
G37*
G36*
X142362Y-24124D02*
Y-25289D01*
X142110Y-25541D01*
X139213D01*
X138961Y-25289D01*
Y-24124D01*
X140117Y-22538D01*
X141206D01*
X142362Y-24124D01*
D02*
G37*
G36*
X49309Y-24771D02*
X49655Y-25117D01*
X49655Y-25607D01*
X49309Y-25953D01*
X49064Y-25953D01*
X42914D01*
X42568Y-25607D01*
X42568Y-25117D01*
X42914Y-24771D01*
X49064D01*
X49309Y-24771D01*
D02*
G37*
G36*
X-125499Y-23878D02*
Y-25043D01*
X-126656Y-26629D01*
X-127744D01*
X-128901Y-25043D01*
Y-23878D01*
X-128649Y-23626D01*
X-125751D01*
X-125499Y-23878D01*
D02*
G37*
G36*
X49655Y-27086D02*
X49655Y-27576D01*
X49309Y-27922D01*
X49064D01*
X43159Y-27922D01*
X42914D01*
X42568Y-27576D01*
X42568Y-27086D01*
X42914Y-26741D01*
X43159Y-26741D01*
X49064D01*
X49309Y-26741D01*
X49655Y-27086D01*
D02*
G37*
G36*
X108757Y-26739D02*
X109103Y-27086D01*
X109103Y-27575D01*
X108757Y-27921D01*
X108512Y-27921D01*
X102607Y-27921D01*
X102365Y-27918D01*
X102024Y-27572D01*
X102024Y-27088D01*
X102365Y-26743D01*
X102607Y-26739D01*
Y-26739D01*
X108512D01*
X108757Y-26739D01*
D02*
G37*
G36*
X109103Y-29054D02*
X109103Y-29544D01*
X108757Y-29890D01*
X108512Y-29890D01*
X102362D01*
X102016Y-29544D01*
X102016Y-29054D01*
X102362Y-28708D01*
X108757D01*
X109103Y-29054D01*
D02*
G37*
G36*
X49655D02*
X49655Y-29544D01*
X49309Y-29890D01*
X49064Y-29890D01*
X42914D01*
X42568Y-29544D01*
X42568Y-29054D01*
X42914Y-28708D01*
X49309D01*
X49655Y-29054D01*
D02*
G37*
G36*
X225818Y-28335D02*
Y-31233D01*
X225566Y-31485D01*
X224401D01*
X222815Y-30329D01*
Y-29240D01*
X224401Y-28083D01*
X225566D01*
X225818Y-28335D01*
D02*
G37*
G36*
X220334Y-29240D02*
Y-30329D01*
X218748Y-31485D01*
X217583D01*
X217331Y-31233D01*
Y-28335D01*
X217583Y-28083D01*
X218748D01*
X220334Y-29240D01*
D02*
G37*
G36*
X49655Y-31023D02*
X49655Y-31513D01*
X49309Y-31859D01*
X49064D01*
X43159Y-31859D01*
X42914D01*
X42568Y-31513D01*
X42568Y-31023D01*
X42914Y-30678D01*
X49309D01*
X49655Y-31023D01*
D02*
G37*
G36*
X109103Y-31023D02*
Y-31513D01*
X108757Y-31859D01*
X108512Y-31859D01*
X102607Y-31859D01*
X102362Y-31859D01*
X102016Y-31513D01*
X102016Y-31023D01*
X102362Y-30678D01*
X108512D01*
X108757Y-30678D01*
X109103Y-31023D01*
D02*
G37*
G36*
X-125499Y-30696D02*
Y-31861D01*
X-125751Y-32113D01*
X-128649D01*
X-128901Y-31861D01*
Y-30696D01*
X-127744Y-29110D01*
X-126656D01*
X-125499Y-30696D01*
D02*
G37*
G36*
X109103Y-32991D02*
Y-33481D01*
X108757Y-33827D01*
X108512Y-33827D01*
X102362D01*
X102016Y-33481D01*
Y-32991D01*
X102362Y-32645D01*
X108512D01*
X108757Y-32645D01*
X109103Y-32991D01*
D02*
G37*
G36*
X49655D02*
Y-33481D01*
X49309Y-33827D01*
X49064Y-33827D01*
X43159D01*
X42914Y-33827D01*
X42568Y-33481D01*
X42568Y-32991D01*
X42914Y-32645D01*
X49309D01*
X49655Y-32991D01*
D02*
G37*
G36*
X109103Y-34960D02*
X109103Y-35450D01*
X108757Y-35796D01*
X102607D01*
X102362Y-35796D01*
X102016Y-35450D01*
X102016Y-34960D01*
X102362Y-34615D01*
X108757D01*
X109103Y-34960D01*
D02*
G37*
G36*
X49655D02*
X49655Y-35450D01*
X49309Y-35796D01*
X49064Y-35796D01*
X42914D01*
X42568Y-35450D01*
X42568Y-34960D01*
X42914Y-34615D01*
X49309D01*
X49655Y-34960D01*
D02*
G37*
G36*
X36101Y-33264D02*
Y-34429D01*
X34944Y-36015D01*
X33856D01*
X32699Y-34429D01*
Y-33264D01*
X32951Y-33012D01*
X35849D01*
X36101Y-33264D01*
D02*
G37*
G36*
X149758Y-34451D02*
Y-37349D01*
X149506Y-37601D01*
X148341D01*
X146755Y-36444D01*
Y-35356D01*
X148341Y-34199D01*
X149506D01*
X149758Y-34451D01*
D02*
G37*
G36*
X144274Y-35356D02*
Y-36444D01*
X142688Y-37601D01*
X141523D01*
X141271Y-37349D01*
Y-34451D01*
X141523Y-34199D01*
X142688D01*
X144274Y-35356D01*
D02*
G37*
G36*
X43159Y-36582D02*
X49309D01*
X49655Y-36928D01*
Y-37418D01*
X49309Y-37764D01*
X42914D01*
X42568Y-37418D01*
X42568Y-36928D01*
X42914Y-36582D01*
X43159Y-36582D01*
D02*
G37*
G36*
X109103Y-36928D02*
X109103Y-37418D01*
X108757Y-37764D01*
X108512Y-37764D01*
Y-37764D01*
X102607D01*
X102365Y-37761D01*
X102024Y-37416D01*
Y-36931D01*
X102365Y-36586D01*
X102607Y-36583D01*
X108512Y-36582D01*
X108757Y-36582D01*
X109103Y-36928D01*
D02*
G37*
G36*
X127143Y-34777D02*
Y-37674D01*
X126891Y-37927D01*
X125726D01*
X124140Y-36770D01*
Y-35681D01*
X125726Y-34525D01*
X126891D01*
X127143Y-34777D01*
D02*
G37*
G36*
X121660Y-35681D02*
Y-36770D01*
X120074Y-37927D01*
X118909D01*
X118657Y-37674D01*
Y-34777D01*
X118909Y-34525D01*
X120074D01*
X121660Y-35681D01*
D02*
G37*
G36*
X-47692Y-35255D02*
Y-36420D01*
X-48849Y-38006D01*
X-49938D01*
X-51094Y-36420D01*
Y-35255D01*
X-50842Y-35003D01*
X-47945D01*
X-47692Y-35255D01*
D02*
G37*
G36*
X-100072D02*
Y-36420D01*
X-101229Y-38006D01*
X-102318D01*
X-103474Y-36420D01*
Y-35255D01*
X-103222Y-35003D01*
X-100324D01*
X-100072Y-35255D01*
D02*
G37*
G36*
X225818Y-36335D02*
Y-39233D01*
X225566Y-39485D01*
X224401D01*
X222815Y-38328D01*
Y-37240D01*
X224401Y-36083D01*
X225566D01*
X225818Y-36335D01*
D02*
G37*
G36*
X220334Y-37240D02*
Y-38328D01*
X218748Y-39485D01*
X217583D01*
X217331Y-39233D01*
Y-36335D01*
X217583Y-36083D01*
X218748D01*
X220334Y-37240D01*
D02*
G37*
G36*
X70521Y-40078D02*
X70521Y-40322D01*
Y-46228D01*
X70521Y-46472D01*
X70175Y-46818D01*
X69686Y-46819D01*
X69340Y-46472D01*
X69340Y-46228D01*
Y-40322D01*
X69340Y-40322D01*
X69340Y-40078D01*
X69686Y-39732D01*
X70175Y-39732D01*
X70521Y-40078D01*
D02*
G37*
G36*
X90206D02*
X90206Y-40322D01*
X90206Y-46228D01*
X90206Y-46472D01*
X89860Y-46819D01*
X89371Y-46819D01*
X89025Y-46473D01*
X89025Y-46228D01*
X89025Y-46228D01*
Y-40322D01*
X89025Y-40322D01*
X89025Y-40078D01*
X89371Y-39732D01*
X89860Y-39732D01*
X90206Y-40078D01*
D02*
G37*
G36*
X36101Y-40082D02*
Y-41247D01*
X35849Y-41499D01*
X32951D01*
X32699Y-41247D01*
Y-40082D01*
X33856Y-38496D01*
X34944D01*
X36101Y-40082D01*
D02*
G37*
G36*
X163985Y-38953D02*
Y-40118D01*
X162829Y-41704D01*
X161740D01*
X160583Y-40118D01*
Y-38953D01*
X160836Y-38701D01*
X163733D01*
X163985Y-38953D01*
D02*
G37*
G36*
X-47692Y-42073D02*
Y-43238D01*
X-47945Y-43490D01*
X-50842D01*
X-51094Y-43238D01*
Y-42073D01*
X-49938Y-40486D01*
X-48849D01*
X-47692Y-42073D01*
D02*
G37*
G36*
X-100072D02*
Y-43238D01*
X-100324Y-43490D01*
X-103222D01*
X-103474Y-43238D01*
Y-42073D01*
X-102318Y-40486D01*
X-101229D01*
X-100072Y-42073D01*
D02*
G37*
G36*
X127143Y-43314D02*
Y-46212D01*
X126891Y-46464D01*
X125726D01*
X124140Y-45307D01*
Y-44219D01*
X125726Y-43062D01*
X126891D01*
X127143Y-43314D01*
D02*
G37*
G36*
X121660Y-44219D02*
Y-45307D01*
X120074Y-46464D01*
X118909D01*
X118657Y-46212D01*
Y-43314D01*
X118909Y-43062D01*
X120074D01*
X121660Y-44219D01*
D02*
G37*
G36*
X100045Y-40080D02*
X100048Y-40322D01*
Y-46228D01*
X100048Y-46473D01*
X99702Y-46819D01*
X99213Y-46819D01*
X98867Y-46472D01*
X98867Y-46228D01*
X98867Y-46228D01*
X98867Y-40322D01*
X98867D01*
X98870Y-40080D01*
X99215Y-39739D01*
X99700D01*
X100045Y-40080D01*
D02*
G37*
G36*
X87891Y-39732D02*
X88237Y-40078D01*
X88237Y-40322D01*
X88237Y-46228D01*
X88237Y-46472D01*
X87891Y-46818D01*
X87402Y-46819D01*
X87056Y-46473D01*
X87056Y-46228D01*
X87056D01*
Y-40322D01*
X87056Y-40078D01*
X87402Y-39732D01*
X87891Y-39732D01*
D02*
G37*
G36*
X83955Y-39732D02*
X84301Y-40078D01*
X84301Y-40322D01*
X84301Y-40322D01*
Y-46228D01*
X84301Y-46473D01*
X83955Y-46819D01*
X83466Y-46819D01*
X83120Y-46472D01*
X83120Y-46228D01*
X83120D01*
Y-40322D01*
X83120D01*
X83120Y-40078D01*
X83466Y-39732D01*
X83955Y-39732D01*
D02*
G37*
G36*
X82329Y-40080D02*
X82332Y-40322D01*
Y-46228D01*
X82332Y-46473D01*
X81986Y-46819D01*
X81497Y-46818D01*
X81151Y-46472D01*
X81151Y-46228D01*
X81151Y-46228D01*
X81151Y-40322D01*
X81151Y-40322D01*
X81154Y-40080D01*
X81499Y-39739D01*
X81984Y-39739D01*
X82329Y-40080D01*
D02*
G37*
G36*
X78395Y-40078D02*
Y-40322D01*
Y-46228D01*
Y-46473D01*
X78049Y-46819D01*
X77560D01*
X77214Y-46473D01*
X77214Y-46228D01*
Y-40322D01*
Y-40078D01*
X77560Y-39732D01*
X78049D01*
X78395Y-40078D01*
D02*
G37*
G36*
X72486Y-40080D02*
X72489Y-40322D01*
X72489Y-46228D01*
X72489Y-46472D01*
X72143Y-46819D01*
X71654Y-46819D01*
X71308Y-46473D01*
X71308Y-46228D01*
Y-40322D01*
X71311Y-40080D01*
X71656Y-39739D01*
X72141D01*
X72486Y-40080D01*
D02*
G37*
G36*
X68552Y-40078D02*
Y-40322D01*
X68552Y-46228D01*
X68552Y-46472D01*
X68206Y-46819D01*
X67717Y-46819D01*
X67371Y-46473D01*
X67371Y-46228D01*
Y-40322D01*
Y-40078D01*
X67717Y-39732D01*
X68206Y-39732D01*
X68552Y-40078D01*
D02*
G37*
G36*
X66584Y-40078D02*
Y-40322D01*
Y-46228D01*
X66584Y-46472D01*
X66238Y-46819D01*
X65749Y-46818D01*
X65403Y-46472D01*
X65403Y-46228D01*
Y-46228D01*
X65403Y-40322D01*
Y-40078D01*
X65749Y-39732D01*
X66238Y-39732D01*
X66584Y-40078D01*
D02*
G37*
G36*
X64615Y-40078D02*
Y-40322D01*
Y-46228D01*
X64615Y-46473D01*
X64269Y-46819D01*
X63780Y-46818D01*
X63434Y-46472D01*
X63434Y-46228D01*
X63434Y-46228D01*
X63434Y-40322D01*
Y-40078D01*
X63780Y-39732D01*
X64269Y-39732D01*
X64615Y-40078D01*
D02*
G37*
G36*
X62644Y-40080D02*
X62647Y-40322D01*
X62647Y-46228D01*
X62647Y-46473D01*
X62301Y-46819D01*
X61812Y-46819D01*
X61466Y-46472D01*
X61466Y-46228D01*
X61466D01*
X61466Y-40322D01*
X61469Y-40080D01*
X61814Y-39739D01*
X62299D01*
X62644Y-40080D01*
D02*
G37*
G36*
X56741Y-40078D02*
Y-40322D01*
Y-46228D01*
Y-46473D01*
X56395Y-46819D01*
X55906D01*
X55560Y-46473D01*
X55560Y-46228D01*
Y-40322D01*
Y-40078D01*
X55906Y-39732D01*
X56395D01*
X56741Y-40078D01*
D02*
G37*
G36*
X52801Y-40080D02*
X52804Y-40322D01*
X52804Y-46228D01*
X52804Y-46472D01*
X52458Y-46818D01*
X51969Y-46819D01*
X51623Y-46473D01*
X51623Y-46228D01*
X51623D01*
Y-40322D01*
X51623D01*
X51626Y-40080D01*
X51971Y-39739D01*
X52456D01*
X52801Y-40080D01*
D02*
G37*
G36*
X97734Y-39732D02*
X98080Y-40078D01*
Y-40322D01*
Y-46228D01*
Y-46473D01*
X97734Y-46819D01*
X97245Y-46819D01*
X96899Y-46473D01*
Y-46228D01*
Y-40322D01*
Y-40078D01*
X97245Y-39732D01*
X97734Y-39732D01*
D02*
G37*
G36*
X96111Y-40078D02*
Y-40322D01*
Y-46228D01*
Y-46473D01*
X95765Y-46819D01*
X95276Y-46819D01*
X94930Y-46473D01*
Y-46228D01*
Y-40322D01*
Y-40078D01*
X95276Y-39732D01*
X95765Y-39732D01*
X96111Y-40078D01*
D02*
G37*
G36*
X92174Y-40078D02*
X92174Y-40322D01*
Y-46228D01*
X92174Y-46473D01*
X91828Y-46819D01*
X91339D01*
X90993Y-46473D01*
Y-46228D01*
Y-40322D01*
Y-40078D01*
X91339Y-39732D01*
X91828Y-39732D01*
X92174Y-40078D01*
D02*
G37*
G36*
X76427Y-40078D02*
Y-40322D01*
Y-46228D01*
Y-46473D01*
X76081Y-46819D01*
X75592Y-46819D01*
X75246Y-46473D01*
Y-46228D01*
Y-40322D01*
Y-40078D01*
X75592Y-39732D01*
X76081Y-39732D01*
X76427Y-40078D01*
D02*
G37*
G36*
X74112Y-39732D02*
X74458Y-40078D01*
X74458Y-40322D01*
Y-46228D01*
X74458Y-46473D01*
X74112Y-46819D01*
X73623Y-46819D01*
X73277Y-46473D01*
Y-46228D01*
Y-40322D01*
X73277Y-40078D01*
X73623Y-39732D01*
X74112Y-39732D01*
D02*
G37*
G36*
X58363Y-39732D02*
X58709Y-40078D01*
X58709Y-40322D01*
Y-46228D01*
Y-46473D01*
X58363Y-46819D01*
X57874Y-46819D01*
X57528Y-46473D01*
Y-46228D01*
Y-40322D01*
Y-40078D01*
X57874Y-39732D01*
X58363Y-39732D01*
D02*
G37*
G36*
X54426D02*
X54772Y-40078D01*
Y-40322D01*
Y-46228D01*
Y-46473D01*
X54426Y-46819D01*
X53937Y-46819D01*
X53591Y-46473D01*
Y-46228D01*
Y-40322D01*
Y-40078D01*
X53937Y-39732D01*
X54426Y-39732D01*
D02*
G37*
G36*
X93797D02*
X94143Y-40078D01*
Y-40322D01*
X94143Y-46228D01*
Y-46473D01*
X93797Y-46819D01*
X93308Y-46819D01*
X92962Y-46473D01*
Y-46228D01*
Y-40322D01*
Y-40078D01*
X93308Y-39732D01*
X93797Y-39732D01*
D02*
G37*
G36*
X85923D02*
X86269Y-40078D01*
Y-40322D01*
Y-46228D01*
Y-46473D01*
X85923Y-46819D01*
X85434Y-46819D01*
X85088Y-46473D01*
X85088Y-46228D01*
Y-40322D01*
X85088Y-40078D01*
X85434Y-39732D01*
X85923Y-39732D01*
D02*
G37*
G36*
X80364Y-40078D02*
Y-40322D01*
Y-46228D01*
Y-46473D01*
X80018Y-46819D01*
X79529Y-46819D01*
X79183Y-46473D01*
Y-46228D01*
Y-40322D01*
Y-40078D01*
X79529Y-39732D01*
X80018Y-39732D01*
X80364Y-40078D01*
D02*
G37*
G36*
X60678D02*
Y-40322D01*
Y-46228D01*
Y-46473D01*
X60332Y-46819D01*
X59843Y-46819D01*
X59497Y-46473D01*
X59497Y-46228D01*
X59497Y-40322D01*
Y-40078D01*
X59843Y-39732D01*
X60332D01*
X60678Y-40078D01*
D02*
G37*
G36*
X163985Y-45771D02*
Y-46936D01*
X163733Y-47188D01*
X160836D01*
X160583Y-46936D01*
Y-45771D01*
X161740Y-44185D01*
X162829D01*
X163985Y-45771D01*
D02*
G37*
G36*
X225818Y-44335D02*
Y-47233D01*
X225566Y-47485D01*
X224401D01*
X222815Y-46328D01*
Y-45240D01*
X224401Y-44083D01*
X225566D01*
X225818Y-44335D01*
D02*
G37*
G36*
X220334Y-45240D02*
Y-46328D01*
X218748Y-47485D01*
X217583D01*
X217331Y-47233D01*
Y-44335D01*
X217583Y-44083D01*
X218748D01*
X220334Y-45240D01*
D02*
G37*
G36*
X149819Y-50851D02*
Y-53749D01*
X149567Y-54001D01*
X148402D01*
X146816Y-52844D01*
Y-51756D01*
X148402Y-50599D01*
X149567D01*
X149819Y-50851D01*
D02*
G37*
G36*
X144335Y-51756D02*
Y-52844D01*
X142749Y-54001D01*
X141584D01*
X141332Y-53749D01*
Y-50851D01*
X141584Y-50599D01*
X142749D01*
X144335Y-51756D01*
D02*
G37*
G36*
X127143Y-51851D02*
Y-54749D01*
X126891Y-55001D01*
X125726D01*
X124140Y-53844D01*
Y-52756D01*
X125726Y-51599D01*
X126891D01*
X127143Y-51851D01*
D02*
G37*
G36*
X121660Y-52756D02*
Y-53844D01*
X120074Y-55001D01*
X118909D01*
X118657Y-54749D01*
Y-51851D01*
X118909Y-51599D01*
X120074D01*
X121660Y-52756D01*
D02*
G37*
G36*
X164006Y-53764D02*
Y-54929D01*
X162850Y-56515D01*
X161761D01*
X160605Y-54929D01*
Y-53764D01*
X160857Y-53512D01*
X163754D01*
X164006Y-53764D01*
D02*
G37*
G36*
X149819Y-58651D02*
Y-61549D01*
X149567Y-61801D01*
X148402D01*
X146816Y-60644D01*
Y-59556D01*
X148402Y-58399D01*
X149567D01*
X149819Y-58651D01*
D02*
G37*
G36*
X144335Y-59556D02*
Y-60644D01*
X142749Y-61801D01*
X141584D01*
X141332Y-61549D01*
Y-58651D01*
X141584Y-58399D01*
X142749D01*
X144335Y-59556D01*
D02*
G37*
G36*
X164006Y-60582D02*
Y-61747D01*
X163754Y-61999D01*
X160857D01*
X160605Y-61747D01*
Y-60582D01*
X161761Y-58996D01*
X162850D01*
X164006Y-60582D01*
D02*
G37*
G36*
X-28812Y-59051D02*
Y-61949D01*
X-29064Y-62201D01*
X-30229D01*
X-31815Y-61044D01*
Y-59956D01*
X-30229Y-58799D01*
X-29064D01*
X-28812Y-59051D01*
D02*
G37*
G36*
X-34296Y-59956D02*
Y-61044D01*
X-35882Y-62201D01*
X-37047D01*
X-37299Y-61949D01*
Y-59051D01*
X-37047Y-58799D01*
X-35882D01*
X-34296Y-59956D01*
D02*
G37*
G36*
X-57075Y-59051D02*
Y-61949D01*
X-57327Y-62201D01*
X-58492D01*
X-60078Y-61044D01*
Y-59956D01*
X-58492Y-58799D01*
X-57327D01*
X-57075Y-59051D01*
D02*
G37*
G36*
X-62559Y-59956D02*
Y-61044D01*
X-64145Y-62201D01*
X-65310D01*
X-65562Y-61949D01*
Y-59051D01*
X-65310Y-58799D01*
X-64145D01*
X-62559Y-59956D01*
D02*
G37*
G36*
X-85742Y-59051D02*
Y-61949D01*
X-85994Y-62201D01*
X-87159D01*
X-88745Y-61044D01*
Y-59956D01*
X-87159Y-58799D01*
X-85994D01*
X-85742Y-59051D01*
D02*
G37*
G36*
X-91225Y-59956D02*
Y-61044D01*
X-92812Y-62201D01*
X-93977D01*
X-94229Y-61949D01*
Y-59051D01*
X-93977Y-58799D01*
X-92812D01*
X-91225Y-59956D01*
D02*
G37*
G36*
X-114409Y-59051D02*
Y-61949D01*
X-114661Y-62201D01*
X-115826D01*
X-117412Y-61044D01*
Y-59956D01*
X-115826Y-58799D01*
X-114661D01*
X-114409Y-59051D01*
D02*
G37*
G36*
X-119892Y-59956D02*
Y-61044D01*
X-121478Y-62201D01*
X-122643D01*
X-122895Y-61949D01*
Y-59051D01*
X-122643Y-58799D01*
X-121478D01*
X-119892Y-59956D01*
D02*
G37*
G36*
X192640Y-62237D02*
Y-65135D01*
X192388Y-65387D01*
X191223D01*
X189637Y-64230D01*
Y-63142D01*
X191223Y-61985D01*
X192388D01*
X192640Y-62237D01*
D02*
G37*
G36*
X187156Y-63142D02*
Y-64230D01*
X185570Y-65387D01*
X184405D01*
X184153Y-65135D01*
Y-62237D01*
X184405Y-61985D01*
X185570D01*
X187156Y-63142D01*
D02*
G37*
G36*
X212701Y-64164D02*
Y-65329D01*
X211544Y-66915D01*
X210456D01*
X209299Y-65329D01*
Y-64164D01*
X209551Y-63912D01*
X212449D01*
X212701Y-64164D01*
D02*
G37*
G36*
Y-70982D02*
Y-72147D01*
X212449Y-72399D01*
X209551D01*
X209299Y-72147D01*
Y-70982D01*
X210456Y-69396D01*
X211544D01*
X212701Y-70982D01*
D02*
G37*
G36*
X166569Y-71251D02*
Y-74149D01*
X166317Y-74401D01*
X165152D01*
X163566Y-73244D01*
Y-72156D01*
X165152Y-70999D01*
X166317D01*
X166569Y-71251D01*
D02*
G37*
G36*
X161085Y-72156D02*
Y-73244D01*
X159499Y-74401D01*
X158334D01*
X158082Y-74149D01*
Y-71251D01*
X158334Y-70999D01*
X159499D01*
X161085Y-72156D01*
D02*
G37*
G36*
X133069Y-71251D02*
Y-74149D01*
X132817Y-74401D01*
X131652D01*
X130066Y-73244D01*
Y-72156D01*
X131652Y-70999D01*
X132817D01*
X133069Y-71251D01*
D02*
G37*
G36*
X127585Y-72156D02*
Y-73244D01*
X125999Y-74401D01*
X124834D01*
X124582Y-74149D01*
Y-71251D01*
X124834Y-70999D01*
X125999D01*
X127585Y-72156D01*
D02*
G37*
G36*
X212680Y-77553D02*
Y-78718D01*
X211523Y-80304D01*
X210434D01*
X209278Y-78718D01*
Y-77553D01*
X209530Y-77301D01*
X212427D01*
X212680Y-77553D01*
D02*
G37*
G36*
X166508Y-78940D02*
Y-81838D01*
X166256Y-82090D01*
X165091D01*
X163505Y-80934D01*
Y-79845D01*
X165091Y-78689D01*
X166256D01*
X166508Y-78940D01*
D02*
G37*
G36*
X161024Y-79845D02*
Y-80934D01*
X159438Y-82090D01*
X158273D01*
X158021Y-81838D01*
Y-78940D01*
X158273Y-78689D01*
X159438D01*
X161024Y-79845D01*
D02*
G37*
G36*
X133008Y-78940D02*
Y-81838D01*
X132756Y-82090D01*
X131591D01*
X130005Y-80934D01*
Y-79845D01*
X131591Y-78689D01*
X132756D01*
X133008Y-78940D01*
D02*
G37*
G36*
X127524Y-79845D02*
Y-80934D01*
X125938Y-82090D01*
X124773D01*
X124521Y-81838D01*
Y-78940D01*
X124773Y-78689D01*
X125938D01*
X127524Y-79845D01*
D02*
G37*
G36*
X212680Y-84371D02*
Y-85536D01*
X212427Y-85788D01*
X209530D01*
X209278Y-85536D01*
Y-84371D01*
X210434Y-82785D01*
X211523D01*
X212680Y-84371D01*
D02*
G37*
G36*
X10601Y-83483D02*
Y-84648D01*
X9444Y-86234D01*
X8356D01*
X7199Y-84648D01*
Y-83483D01*
X7451Y-83231D01*
X10349D01*
X10601Y-83483D01*
D02*
G37*
G36*
X1701D02*
Y-84648D01*
X544Y-86234D01*
X-544D01*
X-1701Y-84648D01*
Y-83483D01*
X-1449Y-83231D01*
X1449D01*
X1701Y-83483D01*
D02*
G37*
G36*
X198551Y-85014D02*
Y-87912D01*
X198299Y-88164D01*
X197134D01*
X195548Y-87007D01*
Y-85919D01*
X197134Y-84762D01*
X198299D01*
X198551Y-85014D01*
D02*
G37*
G36*
X193067Y-85919D02*
Y-87007D01*
X191481Y-88164D01*
X190316D01*
X190064Y-87912D01*
Y-85014D01*
X190316Y-84762D01*
X191481D01*
X193067Y-85919D01*
D02*
G37*
G36*
X185540Y-85036D02*
Y-87933D01*
X185288Y-88185D01*
X184123D01*
X182537Y-87028D01*
Y-85940D01*
X184123Y-84784D01*
X185288D01*
X185540Y-85036D01*
D02*
G37*
G36*
X180056Y-85940D02*
Y-87028D01*
X178470Y-88185D01*
X177305D01*
X177053Y-87933D01*
Y-85036D01*
X177305Y-84784D01*
X178470D01*
X180056Y-85940D01*
D02*
G37*
G36*
X166508Y-86651D02*
Y-89549D01*
X166256Y-89801D01*
X165091D01*
X163505Y-88644D01*
Y-87556D01*
X165091Y-86399D01*
X166256D01*
X166508Y-86651D01*
D02*
G37*
G36*
X161024Y-87556D02*
Y-88644D01*
X159438Y-89801D01*
X158273D01*
X158021Y-89549D01*
Y-86651D01*
X158273Y-86399D01*
X159438D01*
X161024Y-87556D01*
D02*
G37*
G36*
X133008Y-86651D02*
Y-89549D01*
X132756Y-89801D01*
X131591D01*
X130005Y-88644D01*
Y-87556D01*
X131591Y-86399D01*
X132756D01*
X133008Y-86651D01*
D02*
G37*
G36*
X127524Y-87556D02*
Y-88644D01*
X125938Y-89801D01*
X124773D01*
X124521Y-89549D01*
Y-86651D01*
X124773Y-86399D01*
X125938D01*
X127524Y-87556D01*
D02*
G37*
G36*
X10601Y-90301D02*
Y-91466D01*
X10349Y-91717D01*
X7451D01*
X7199Y-91466D01*
Y-90301D01*
X8356Y-88714D01*
X9444D01*
X10601Y-90301D01*
D02*
G37*
G36*
X1701D02*
Y-91466D01*
X1449Y-91717D01*
X-1449D01*
X-1701Y-91466D01*
Y-90301D01*
X-544Y-88714D01*
X544D01*
X1701Y-90301D01*
D02*
G37*
D24*
X147700Y95143D02*
D03*
X147728Y88848D02*
D03*
X222527Y-21411D02*
D03*
X222499Y-15116D02*
D03*
D25*
X155500Y89075D02*
D03*
Y94586D02*
D03*
X97600Y48086D02*
D03*
Y42575D02*
D03*
X162284Y-40189D02*
D03*
Y-45700D02*
D03*
X211000Y-70911D02*
D03*
Y-65400D02*
D03*
X210979Y-84300D02*
D03*
Y-78789D02*
D03*
X162306Y-55000D02*
D03*
Y-60511D02*
D03*
X25100Y35089D02*
D03*
Y40600D02*
D03*
X34400Y-40011D02*
D03*
Y-34500D02*
D03*
X-101773Y-42002D02*
D03*
Y-36491D02*
D03*
X-49393Y-42002D02*
D03*
Y-36491D02*
D03*
X-127200Y-25114D02*
D03*
Y-30625D02*
D03*
X-101752Y43070D02*
D03*
Y37559D02*
D03*
X-10916Y101420D02*
D03*
Y106931D02*
D03*
X-49372Y43070D02*
D03*
Y37559D02*
D03*
X140662Y-18542D02*
D03*
Y-24054D02*
D03*
X140640Y-10548D02*
D03*
Y-5037D02*
D03*
X52200Y26389D02*
D03*
Y31900D02*
D03*
X95500Y26389D02*
D03*
Y31900D02*
D03*
X214800Y-8200D02*
D03*
Y-2689D02*
D03*
X-205100Y73575D02*
D03*
Y79086D02*
D03*
X0Y-90230D02*
D03*
Y-84719D02*
D03*
X-91200Y-9400D02*
D03*
Y-3889D02*
D03*
Y3700D02*
D03*
Y9211D02*
D03*
X-20703Y35089D02*
D03*
Y40600D02*
D03*
Y48689D02*
D03*
Y54200D02*
D03*
X189648Y31095D02*
D03*
Y25584D02*
D03*
X159334Y41123D02*
D03*
Y46634D02*
D03*
X189648Y40573D02*
D03*
Y46084D02*
D03*
X151559Y41123D02*
D03*
Y46634D02*
D03*
X143784Y41123D02*
D03*
Y46634D02*
D03*
X173100Y46023D02*
D03*
Y40512D02*
D03*
X181363Y46023D02*
D03*
Y40512D02*
D03*
X38200Y106931D02*
D03*
Y101420D02*
D03*
X222481Y-2605D02*
D03*
Y-8116D02*
D03*
X117447Y-11820D02*
D03*
Y-17331D02*
D03*
X77800Y26450D02*
D03*
Y31961D02*
D03*
X-222300Y73636D02*
D03*
Y79147D02*
D03*
X-213700Y79086D02*
D03*
Y73575D02*
D03*
X-45200Y-9400D02*
D03*
Y-3889D02*
D03*
Y3700D02*
D03*
Y9211D02*
D03*
X25100Y48689D02*
D03*
Y54200D02*
D03*
X8900Y-84719D02*
D03*
Y-90230D02*
D03*
D26*
X224000Y-88200D02*
D03*
Y-78200D02*
D03*
Y-68200D02*
D03*
Y-58200D02*
D03*
D27*
X142202Y-44100D02*
D03*
X148497Y-44072D02*
D03*
D28*
X-181790Y107300D02*
D03*
X-199900D02*
D03*
X-156200Y-27900D02*
D03*
X-138090D02*
D03*
D29*
X-193500Y-82455D02*
D03*
Y-64345D02*
D03*
X-113300Y-48271D02*
D03*
Y-30161D02*
D03*
X-37650D02*
D03*
Y-48271D02*
D03*
X-145100Y-5900D02*
D03*
X-113300Y49339D02*
D03*
Y31229D02*
D03*
X-37650D02*
D03*
Y49339D02*
D03*
D30*
X120145Y-53300D02*
D03*
X125656D02*
D03*
X127773Y47013D02*
D03*
X122262D02*
D03*
X127773Y39238D02*
D03*
X122262D02*
D03*
X127834Y15653D02*
D03*
X122323D02*
D03*
X127773Y7900D02*
D03*
X122262D02*
D03*
X142820Y-52300D02*
D03*
X148331D02*
D03*
X142820Y-60100D02*
D03*
X148331D02*
D03*
X148270Y-35900D02*
D03*
X142759D02*
D03*
X184052Y-86484D02*
D03*
X178541D02*
D03*
X176800Y-8500D02*
D03*
X182311D02*
D03*
X185641Y-63686D02*
D03*
X191152D02*
D03*
X191552Y-86463D02*
D03*
X197063D02*
D03*
X201911Y-8500D02*
D03*
X196400D02*
D03*
X218819Y-29784D02*
D03*
X224330D02*
D03*
Y-37784D02*
D03*
X218819D02*
D03*
X224330Y-45784D02*
D03*
X218819D02*
D03*
X165020Y-88100D02*
D03*
X159509D02*
D03*
X165020Y-80389D02*
D03*
X159509D02*
D03*
X165081Y-72700D02*
D03*
X159570D02*
D03*
X221978Y6384D02*
D03*
X216467D02*
D03*
X221978Y15084D02*
D03*
X216467D02*
D03*
X131581Y-72700D02*
D03*
X126070D02*
D03*
X120145Y-36226D02*
D03*
X125656D02*
D03*
X120145Y-44763D02*
D03*
X125656D02*
D03*
X216467Y46184D02*
D03*
X221978D02*
D03*
X-192111Y96000D02*
D03*
X-186600D02*
D03*
X-141627Y12352D02*
D03*
X-136116D02*
D03*
X-156927D02*
D03*
X-151416D02*
D03*
X-68139Y18006D02*
D03*
X-73650D02*
D03*
X-85111Y-17800D02*
D03*
X-79600D02*
D03*
X199348Y23984D02*
D03*
X204859D02*
D03*
X204559Y46184D02*
D03*
X199048D02*
D03*
X131520Y-88100D02*
D03*
X126009D02*
D03*
X131520Y-80389D02*
D03*
X126009D02*
D03*
X-184100Y55500D02*
D03*
X-178589D02*
D03*
X-198011D02*
D03*
X-192500D02*
D03*
X-121407Y61000D02*
D03*
X-115896D02*
D03*
X-58563D02*
D03*
X-64074D02*
D03*
X-92741D02*
D03*
X-87230D02*
D03*
X-30900D02*
D03*
X-36411D02*
D03*
X-30300Y-60500D02*
D03*
X-35811D02*
D03*
X-92741D02*
D03*
X-87230D02*
D03*
X-58563D02*
D03*
X-64074D02*
D03*
X-121407D02*
D03*
X-115896D02*
D03*
D31*
X0Y0D02*
D03*
D32*
X-6201Y-3937D02*
D03*
Y-2362D02*
D03*
Y-787D02*
D03*
Y787D02*
D03*
Y2362D02*
D03*
Y3937D02*
D03*
X6201D02*
D03*
Y2362D02*
D03*
Y787D02*
D03*
Y-787D02*
D03*
Y-2362D02*
D03*
Y-3937D02*
D03*
D33*
X-3937Y6201D02*
D03*
X-2362D02*
D03*
X-787D02*
D03*
X787D02*
D03*
X2362D02*
D03*
X3937D02*
D03*
Y-6201D02*
D03*
X2362D02*
D03*
X787D02*
D03*
X-787D02*
D03*
X-2362D02*
D03*
X-3937D02*
D03*
D34*
X94410Y71900D02*
D03*
X58190D02*
D03*
D35*
X157506Y62745D02*
D03*
X151600D02*
D03*
X145695D02*
D03*
Y78497D02*
D03*
X151600D02*
D03*
X157506Y78497D02*
D03*
D36*
X56400Y45300D02*
D03*
X69900D02*
D03*
D37*
X81400Y45350D02*
D03*
X206433Y35235D02*
D03*
D38*
X89400Y41550D02*
D03*
Y49050D02*
D03*
X198433Y31535D02*
D03*
Y39035D02*
D03*
D39*
X173568Y-48027D02*
D03*
X173568Y-46058D02*
D03*
X173568Y-44090D02*
D03*
X173568Y-42121D02*
D03*
X173568Y-40153D02*
D03*
X173568Y-38184D02*
D03*
X173568Y-36216D02*
D03*
X173568Y-34247D02*
D03*
X173568Y-32279D02*
D03*
X173568Y-30310D02*
D03*
X173568Y-28342D02*
D03*
X173568Y-26373D02*
D03*
X207032Y-26373D02*
D03*
X207032Y-28342D02*
D03*
X207032Y-30310D02*
D03*
X207032Y-32279D02*
D03*
X207032Y-34247D02*
D03*
X207032Y-36216D02*
D03*
X207032Y-38184D02*
D03*
X207032Y-40153D02*
D03*
X207032Y-42121D02*
D03*
X207032Y-44090D02*
D03*
X207032Y-46058D02*
D03*
X207032Y-48027D02*
D03*
D40*
X179473Y-20468D02*
D03*
X181442D02*
D03*
X183410D02*
D03*
X185379D02*
D03*
X187347D02*
D03*
X189316D02*
D03*
X191284D02*
D03*
X193253D02*
D03*
X195221D02*
D03*
X197190D02*
D03*
X199158D02*
D03*
X201127D02*
D03*
Y-53932D02*
D03*
X199158D02*
D03*
X197190D02*
D03*
X195221D02*
D03*
X193253D02*
D03*
X191284D02*
D03*
X189316D02*
D03*
X187347D02*
D03*
X185379D02*
D03*
X183410D02*
D03*
X181442D02*
D03*
X179473D02*
D03*
D41*
X184625Y-74684D02*
D03*
X192107D02*
D03*
D42*
X137850Y-117150D02*
D03*
X119740D02*
D03*
X171350D02*
D03*
X153240D02*
D03*
X204850D02*
D03*
X186740D02*
D03*
D43*
X135390Y-111050D02*
D03*
X122200D02*
D03*
X168890D02*
D03*
X155700D02*
D03*
X202390D02*
D03*
X189200D02*
D03*
D44*
X-93252Y-50239D02*
D03*
X-88252Y-50239D02*
D03*
X-83252Y-50239D02*
D03*
X-78252Y-50239D02*
D03*
X-73252D02*
D03*
X-68252Y-50239D02*
D03*
X-63252Y-50239D02*
D03*
X-58252Y-50239D02*
D03*
X-93252Y-28192D02*
D03*
X-88252Y-28192D02*
D03*
X-83252Y-28192D02*
D03*
X-78252Y-28192D02*
D03*
X-73252D02*
D03*
X-68252Y-28192D02*
D03*
X-63252Y-28192D02*
D03*
X-58252Y-28192D02*
D03*
Y51308D02*
D03*
X-63252Y51308D02*
D03*
X-68252Y51308D02*
D03*
X-73252Y51308D02*
D03*
X-78252D02*
D03*
X-83252Y51308D02*
D03*
X-88252Y51308D02*
D03*
X-93252Y51308D02*
D03*
X-58252Y29261D02*
D03*
X-63252Y29261D02*
D03*
X-68252Y29261D02*
D03*
X-73252Y29261D02*
D03*
X-78252D02*
D03*
X-83252Y29261D02*
D03*
X-88252Y29261D02*
D03*
X-93252Y29261D02*
D03*
D45*
X-134198Y-13400D02*
D03*
Y-8400D02*
D03*
Y-3400D02*
D03*
Y1600D02*
D03*
X-156002Y-13400D02*
D03*
Y-8400D02*
D03*
Y-3400D02*
D03*
Y1600D02*
D03*
D46*
X105560Y-37173D02*
D03*
Y-35205D02*
D03*
X105560Y-33236D02*
D03*
Y-31268D02*
D03*
X105560Y-29299D02*
D03*
X105560Y-27331D02*
D03*
X105560Y-25362D02*
D03*
Y-23394D02*
D03*
X105560Y-21425D02*
D03*
Y-19457D02*
D03*
X105560Y-17488D02*
D03*
X105560Y-15519D02*
D03*
Y-13551D02*
D03*
X105560Y-11582D02*
D03*
Y-9614D02*
D03*
X105560Y-7645D02*
D03*
X105560Y-5677D02*
D03*
X105560Y-3708D02*
D03*
Y-1740D02*
D03*
X105560Y229D02*
D03*
Y2197D02*
D03*
X105560Y4166D02*
D03*
X105560Y6134D02*
D03*
X105560Y8103D02*
D03*
Y10071D02*
D03*
X46112D02*
D03*
Y8103D02*
D03*
X46112Y6134D02*
D03*
Y4166D02*
D03*
X46112Y2197D02*
D03*
Y229D02*
D03*
X46112Y-1740D02*
D03*
Y-3708D02*
D03*
X46112Y-5677D02*
D03*
Y-7645D02*
D03*
X46112Y-9614D02*
D03*
Y-11582D02*
D03*
X46112Y-13551D02*
D03*
Y-15519D02*
D03*
X46112Y-17488D02*
D03*
X46112Y-19457D02*
D03*
Y-21425D02*
D03*
X46112Y-23394D02*
D03*
Y-25362D02*
D03*
Y-27331D02*
D03*
Y-29299D02*
D03*
Y-31268D02*
D03*
X46112Y-33236D02*
D03*
X46112Y-35205D02*
D03*
Y-37173D02*
D03*
D47*
X99458Y16173D02*
D03*
X97490D02*
D03*
X95521Y16173D02*
D03*
X93553Y16173D02*
D03*
X91584D02*
D03*
X89616D02*
D03*
X87647D02*
D03*
X85679D02*
D03*
X83710D02*
D03*
X81742Y16173D02*
D03*
X79773Y16173D02*
D03*
X77804Y16173D02*
D03*
X75836D02*
D03*
X73867Y16173D02*
D03*
X71899D02*
D03*
X69930D02*
D03*
X67962D02*
D03*
X65993D02*
D03*
X64025Y16173D02*
D03*
X62056Y16173D02*
D03*
X60088D02*
D03*
X58119Y16173D02*
D03*
X56151D02*
D03*
X54182Y16173D02*
D03*
X52214D02*
D03*
Y-43275D02*
D03*
X54182D02*
D03*
X56151Y-43275D02*
D03*
X58119D02*
D03*
X60088Y-43275D02*
D03*
X62056D02*
D03*
X64025Y-43275D02*
D03*
X65993D02*
D03*
X67962Y-43275D02*
D03*
X69930D02*
D03*
X71899Y-43275D02*
D03*
X73867D02*
D03*
X75836Y-43275D02*
D03*
X77804Y-43275D02*
D03*
X79773Y-43275D02*
D03*
X81742Y-43275D02*
D03*
X83710D02*
D03*
X85679D02*
D03*
X87647D02*
D03*
X89616D02*
D03*
X91584Y-43275D02*
D03*
X93553Y-43275D02*
D03*
X95521D02*
D03*
X97490Y-43275D02*
D03*
X99458D02*
D03*
D48*
X-196400Y65800D02*
D03*
X-191400D02*
D03*
X-186400D02*
D03*
X-181400D02*
D03*
X-196400Y86922D02*
D03*
X-191400D02*
D03*
X-186400D02*
D03*
X-181400D02*
D03*
D49*
X18349Y-94334D02*
D03*
Y-92365D02*
D03*
Y-90397D02*
D03*
Y-88428D02*
D03*
Y-86460D02*
D03*
Y-84491D02*
D03*
Y-82523D02*
D03*
Y-80554D02*
D03*
D50*
X30750Y-100042D02*
D03*
X30751Y-74846D02*
D03*
D51*
X-162600Y79450D02*
D03*
Y63350D02*
D03*
D52*
X204560Y87400D02*
D03*
Y84250D02*
D03*
Y65350D02*
D03*
Y62200D02*
D03*
D53*
Y81690D02*
D03*
X204550Y79720D02*
D03*
X204560Y77750D02*
D03*
Y75780D02*
D03*
Y73820D02*
D03*
Y71850D02*
D03*
Y69880D02*
D03*
X204550Y67910D02*
D03*
D54*
X-113000Y12313D02*
D03*
Y-12513D02*
D03*
D55*
X-210300Y33200D02*
D03*
X-190064D02*
D03*
X-146364Y103000D02*
D03*
X-166600D02*
D03*
X-139146Y32992D02*
D03*
X-159382D02*
D03*
X22754Y73392D02*
D03*
X2517D02*
D03*
D56*
X222372Y25666D02*
D03*
X214892Y25666D02*
D03*
X214892Y35903D02*
D03*
X218632Y35902D02*
D03*
X222372Y35902D02*
D03*
D57*
X-52342Y69972D02*
D03*
X-70295D02*
D03*
X-109676D02*
D03*
X-127628D02*
D03*
X-23676D02*
D03*
X-41628D02*
D03*
X-81009D02*
D03*
X-98962D02*
D03*
X-98962Y-69404D02*
D03*
X-81009D02*
D03*
X-41628D02*
D03*
X-23676D02*
D03*
X-127628D02*
D03*
X-109676D02*
D03*
X-70295D02*
D03*
X-52342D02*
D03*
D58*
X-61240Y97196D02*
D03*
X-118573D02*
D03*
X-32573D02*
D03*
X-89907D02*
D03*
X-90064Y-96628D02*
D03*
X-32731D02*
D03*
X-118731D02*
D03*
X-61397D02*
D03*
D59*
X25794Y104206D02*
D03*
D60*
X1384Y95151D02*
D03*
Y104206D02*
D03*
Y113261D02*
D03*
D61*
X12046Y36900D02*
D03*
Y41900D02*
D03*
Y46900D02*
D03*
Y51900D02*
D03*
X-7246Y36900D02*
D03*
Y41900D02*
D03*
Y46900D02*
D03*
Y51900D02*
D03*
X-57804Y-7394D02*
D03*
Y-2394D02*
D03*
Y2606D02*
D03*
Y7606D02*
D03*
X-77096Y-7394D02*
D03*
Y-2394D02*
D03*
Y2606D02*
D03*
Y7606D02*
D03*
D62*
X128832Y-18319D02*
D03*
Y-10838D02*
D03*
M02*
