G04*
G04 #@! TF.GenerationSoftware,Altium Limited,Altium Designer,20.1.11 (218)*
G04*
G04 Layer_Color=65535*
%FSLAX25Y25*%
%MOIN*%
G70*
G04*
G04 #@! TF.SameCoordinates,8D0FCBAB-09EC-4A3B-B863-23265075E7EF*
G04*
G04*
G04 #@! TF.FilePolarity,Positive*
G04*
G01*
G75*
%ADD10C,0.01000*%
%ADD11C,0.00984*%
%ADD12C,0.00984*%
%ADD13C,0.01575*%
%ADD14C,0.02362*%
%ADD15C,0.01181*%
%ADD16C,0.00591*%
%ADD17C,0.00500*%
%ADD18C,0.00600*%
%ADD19C,0.00394*%
%ADD20C,0.00800*%
%ADD21C,0.00787*%
%ADD22C,0.00598*%
%ADD23C,0.01417*%
G36*
X-144269Y96634D02*
X-147387D01*
Y97413D01*
X-144269D01*
Y96634D01*
D02*
G37*
G36*
X-166746Y97413D02*
X-165576D01*
Y96634D01*
X-166746D01*
Y94425D01*
X-167525D01*
Y96634D01*
X-168694D01*
Y97413D01*
X-167525D01*
Y99622D01*
X-166746D01*
Y97413D01*
D02*
G37*
G36*
X-209276Y38787D02*
X-212394D01*
Y39566D01*
X-209276D01*
Y38787D01*
D02*
G37*
G36*
X-158359Y38579D02*
X-161477D01*
Y39358D01*
X-158359D01*
Y38579D01*
D02*
G37*
G36*
X-189139Y39566D02*
X-187969D01*
Y38787D01*
X-189139D01*
Y36578D01*
X-189918D01*
Y38787D01*
X-191087D01*
Y39566D01*
X-189918D01*
Y41775D01*
X-189139D01*
Y39566D01*
D02*
G37*
G36*
X-138221Y39358D02*
X-137052D01*
Y38579D01*
X-138221D01*
Y36370D01*
X-139001D01*
Y38579D01*
X-140170D01*
Y39358D01*
X-139001D01*
Y41567D01*
X-138221D01*
Y39358D01*
D02*
G37*
G36*
X149043Y91432D02*
X146368D01*
X147683Y92748D01*
X147728D01*
X149043Y91432D01*
D02*
G37*
G36*
X3541Y78979D02*
X423D01*
Y79758D01*
X3541D01*
Y78979D01*
D02*
G37*
G36*
X23679Y79758D02*
X24848D01*
Y78979D01*
X23679D01*
Y76770D01*
X22899D01*
Y78979D01*
X21730D01*
Y79758D01*
X22899D01*
Y81967D01*
X23679D01*
Y79758D01*
D02*
G37*
G36*
X17190Y28318D02*
X20189D01*
X21500Y27007D01*
X22600D01*
X25500Y24107D01*
Y23707D01*
X27500Y21707D01*
Y20207D01*
X28500Y19207D01*
Y17786D01*
X28111Y17397D01*
X27003Y18506D01*
X24775D01*
X24253Y17984D01*
X23657D01*
Y17680D01*
X22656Y16679D01*
X21800Y17535D01*
Y19007D01*
X19800Y21007D01*
X19500D01*
X18200Y22307D01*
X17594D01*
X16831Y23070D01*
X17624Y23864D01*
X17776D01*
Y24461D01*
X18298Y24983D01*
Y27210D01*
X17190Y28318D01*
X16472Y28733D01*
X16775D01*
X17190Y28318D01*
D02*
G37*
G36*
X-17190Y28111D02*
X-18298Y27003D01*
Y24775D01*
X-17776Y24253D01*
Y23657D01*
X-17473D01*
X-16472Y22656D01*
X-17327Y21800D01*
X-18800D01*
X-20800Y19800D01*
Y19500D01*
X-22100Y18200D01*
Y17594D01*
X-22863Y16831D01*
X-23657Y17624D01*
Y17776D01*
X-24253D01*
X-24775Y18298D01*
X-27003D01*
X-28111Y17190D01*
X-28526Y16472D01*
Y16775D01*
X-28111Y17190D01*
Y20189D01*
X-26800Y21500D01*
Y22600D01*
X-23900Y25500D01*
X-23500D01*
X-21500Y27500D01*
X-20000D01*
X-19000Y28500D01*
X-17579D01*
X-17190Y28111D01*
D02*
G37*
G36*
X28733Y-16775D02*
X28318Y-17190D01*
Y-20189D01*
X27007Y-21500D01*
Y-22600D01*
X24107Y-25500D01*
X23707D01*
X21707Y-27500D01*
X20207D01*
X19207Y-28500D01*
X17786D01*
X17397Y-28111D01*
X18506Y-27003D01*
Y-24775D01*
X17984Y-24253D01*
Y-23657D01*
X17680D01*
X16679Y-22656D01*
X17535Y-21800D01*
X19007D01*
X21007Y-19800D01*
Y-19500D01*
X22307Y-18200D01*
Y-17594D01*
X23070Y-16831D01*
X23864Y-17624D01*
Y-17776D01*
X24461D01*
X24983Y-18298D01*
X27210D01*
X28318Y-17190D01*
X28733Y-16472D01*
Y-16775D01*
D02*
G37*
G36*
X-21800Y-17535D02*
Y-19007D01*
X-19800Y-21007D01*
X-19500D01*
X-18200Y-22307D01*
X-17594D01*
X-16831Y-23070D01*
X-17624Y-23864D01*
X-17776D01*
Y-24461D01*
X-18298Y-24983D01*
Y-27210D01*
X-17190Y-28318D01*
X-16472Y-28733D01*
X-16775D01*
X-17190Y-28318D01*
X-20189D01*
X-21500Y-27007D01*
X-22600D01*
X-25500Y-24107D01*
Y-23707D01*
X-27500Y-21707D01*
Y-20207D01*
X-28500Y-19207D01*
Y-17786D01*
X-28111Y-17397D01*
X-27003Y-18506D01*
X-24775D01*
X-24253Y-17984D01*
X-23657D01*
Y-17680D01*
X-22656Y-16679D01*
X-21800Y-17535D01*
D02*
G37*
G36*
X223842Y-18826D02*
X221167D01*
X222482Y-17511D01*
X222527D01*
X223842Y-18826D01*
D02*
G37*
G36*
X145913Y-45432D02*
X144597Y-44117D01*
Y-44072D01*
X145913Y-42757D01*
Y-45432D01*
D02*
G37*
D10*
X158295Y96083D02*
G03*
X157076Y97303I-1220J0D01*
G01*
X153926D02*
G03*
X152706Y96083I-0J-1220D01*
G01*
X157053Y86297D02*
G03*
X158273Y87517I0J1220D01*
G01*
X152683D02*
G03*
X153903Y86297I1220J0D01*
G01*
X118647Y-50505D02*
G03*
X117428Y-51724I0J-1220D01*
G01*
Y-54874D02*
G03*
X118647Y-56094I1220J-0D01*
G01*
X128434Y-51747D02*
G03*
X127214Y-50528I-1220J0D01*
G01*
Y-56117D02*
G03*
X128434Y-54897I0J1220D01*
G01*
X59088Y67704D02*
G03*
X93616Y68156I17212J4196D01*
G01*
X93597Y75735D02*
G03*
X58971Y75584I-17297J-3835D01*
G01*
X120764Y49808D02*
G03*
X119545Y48588I0J-1220D01*
G01*
Y45439D02*
G03*
X120764Y44219I1220J-0D01*
G01*
X130551Y48566D02*
G03*
X129331Y49785I-1220J0D01*
G01*
Y44196D02*
G03*
X130551Y45416I0J1220D01*
G01*
X120764Y42034D02*
G03*
X119545Y40814I0J-1220D01*
G01*
Y37664D02*
G03*
X120764Y36444I1220J-0D01*
G01*
X130551Y40791D02*
G03*
X129331Y42011I-1220J0D01*
G01*
Y36421D02*
G03*
X130551Y37641I0J1220D01*
G01*
X120764Y18470D02*
G03*
X119545Y17250I0J-1220D01*
G01*
Y14101D02*
G03*
X120764Y12881I1220J-0D01*
G01*
X130551Y17227D02*
G03*
X129331Y18447I-1220J0D01*
G01*
Y12858D02*
G03*
X130551Y14078I0J1220D01*
G01*
X120764Y10695D02*
G03*
X119545Y9476I0J-1220D01*
G01*
Y6326D02*
G03*
X120764Y5106I1220J-0D01*
G01*
X130551Y9453D02*
G03*
X129331Y10672I-1220J0D01*
G01*
Y5083D02*
G03*
X130551Y6303I0J1220D01*
G01*
X94783Y41017D02*
G03*
X96003Y39797I1220J0D01*
G01*
X99153D02*
G03*
X100373Y41017I0J1220D01*
G01*
X96026Y50803D02*
G03*
X94806Y49583I-0J-1220D01*
G01*
X100395D02*
G03*
X99176Y50803I-1220J0D01*
G01*
X149828Y-55095D02*
G03*
X151048Y-53876I0J1220D01*
G01*
Y-50726D02*
G03*
X149828Y-49506I-1220J0D01*
G01*
X140042Y-53853D02*
G03*
X141262Y-55072I1220J-0D01*
G01*
Y-49483D02*
G03*
X140042Y-50703I0J-1220D01*
G01*
X149828Y-62895D02*
G03*
X151048Y-61676I0J1220D01*
G01*
Y-58526D02*
G03*
X149828Y-57306I-1220J0D01*
G01*
X140042Y-61653D02*
G03*
X141262Y-62872I1220J-0D01*
G01*
Y-57283D02*
G03*
X140042Y-58503I0J-1220D01*
G01*
X141262Y-33105D02*
G03*
X140042Y-34324I0J-1220D01*
G01*
Y-37474D02*
G03*
X141262Y-38694I1220J-0D01*
G01*
X151048Y-34347D02*
G03*
X149828Y-33127I-1220J0D01*
G01*
Y-38717D02*
G03*
X151048Y-37497I0J1220D01*
G01*
X159489Y-47197D02*
G03*
X160709Y-48417I1220J0D01*
G01*
X163858D02*
G03*
X165078Y-47197I0J1220D01*
G01*
X160732Y-37411D02*
G03*
X159512Y-38631I-0J-1220D01*
G01*
X165101D02*
G03*
X163881Y-37411I-1220J0D01*
G01*
X176983Y-83668D02*
G03*
X175763Y-84887I0J-1220D01*
G01*
Y-88037D02*
G03*
X176983Y-89257I1220J-0D01*
G01*
X186769Y-84910D02*
G03*
X185549Y-83690I-1220J0D01*
G01*
Y-89280D02*
G03*
X186769Y-88060I0J1220D01*
G01*
X183869Y-11317D02*
G03*
X185089Y-10097I0J1220D01*
G01*
Y-6947D02*
G03*
X183869Y-5728I-1220J0D01*
G01*
X174083Y-10074D02*
G03*
X175303Y-11294I1220J-0D01*
G01*
Y-5705D02*
G03*
X174083Y-6924I0J-1220D01*
G01*
X192649Y-66481D02*
G03*
X193869Y-65261I0J1220D01*
G01*
Y-62112D02*
G03*
X192649Y-60892I-1220J0D01*
G01*
X182863Y-65238D02*
G03*
X184083Y-66458I1220J-0D01*
G01*
Y-60869D02*
G03*
X182863Y-62089I0J-1220D01*
G01*
X198621Y-89280D02*
G03*
X199841Y-88060I0J1220D01*
G01*
Y-84910D02*
G03*
X198621Y-83690I-1220J0D01*
G01*
X188835Y-88037D02*
G03*
X190055Y-89257I1220J-0D01*
G01*
Y-83668D02*
G03*
X188835Y-84887I0J-1220D01*
G01*
X194903Y-5705D02*
G03*
X193683Y-6924I0J-1220D01*
G01*
Y-10074D02*
G03*
X194903Y-11294I1220J-0D01*
G01*
X204689Y-6947D02*
G03*
X203469Y-5728I-1220J0D01*
G01*
Y-11317D02*
G03*
X204689Y-10097I0J1220D01*
G01*
X213795Y-63903D02*
G03*
X212576Y-62683I-1220J0D01*
G01*
X209426D02*
G03*
X208206Y-63903I-0J-1220D01*
G01*
X212553Y-73689D02*
G03*
X213773Y-72469I0J1220D01*
G01*
X208183D02*
G03*
X209403Y-73689I1220J0D01*
G01*
X213795Y-77231D02*
G03*
X212576Y-76011I-1220J0D01*
G01*
X209426D02*
G03*
X208206Y-77231I-0J-1220D01*
G01*
X212553Y-87017D02*
G03*
X213773Y-85797I0J1220D01*
G01*
X208183D02*
G03*
X209403Y-87017I1220J0D01*
G01*
X159489Y-62069D02*
G03*
X160709Y-63289I1220J0D01*
G01*
X163858D02*
G03*
X165078Y-62069I0J1220D01*
G01*
X160732Y-52283D02*
G03*
X159512Y-53503I-0J-1220D01*
G01*
X165101D02*
G03*
X163881Y-52283I-1220J0D01*
G01*
X225888Y-32601D02*
G03*
X227108Y-31381I0J1220D01*
G01*
Y-28232D02*
G03*
X225888Y-27012I-1220J0D01*
G01*
X216102Y-31358D02*
G03*
X217322Y-32578I1220J-0D01*
G01*
Y-26989D02*
G03*
X216102Y-28209I0J-1220D01*
G01*
X217322Y-34989D02*
G03*
X216102Y-36209I0J-1220D01*
G01*
Y-39358D02*
G03*
X217322Y-40578I1220J-0D01*
G01*
X227108Y-36232D02*
G03*
X225888Y-35012I-1220J0D01*
G01*
Y-40601D02*
G03*
X227108Y-39381I0J1220D01*
G01*
X217322Y-42989D02*
G03*
X216102Y-44209I0J-1220D01*
G01*
Y-47358D02*
G03*
X217322Y-48578I1220J-0D01*
G01*
X227108Y-44232D02*
G03*
X225888Y-43012I-1220J0D01*
G01*
Y-48601D02*
G03*
X227108Y-47381I0J1220D01*
G01*
X158012Y-85305D02*
G03*
X156792Y-86524I0J-1220D01*
G01*
Y-89674D02*
G03*
X158012Y-90894I1220J-0D01*
G01*
X167798Y-86547D02*
G03*
X166578Y-85328I-1220J0D01*
G01*
Y-90917D02*
G03*
X167798Y-89697I0J1220D01*
G01*
X158012Y-77594D02*
G03*
X156792Y-78814I0J-1220D01*
G01*
Y-81963D02*
G03*
X158012Y-83183I1220J-0D01*
G01*
X167798Y-78837D02*
G03*
X166578Y-77617I-1220J0D01*
G01*
Y-83206D02*
G03*
X167798Y-81986I0J1220D01*
G01*
X158012Y-69883D02*
G03*
X156792Y-71103I0J-1220D01*
G01*
Y-74253D02*
G03*
X158012Y-75472I1220J-0D01*
G01*
X167798Y-71126D02*
G03*
X166578Y-69906I-1220J0D01*
G01*
Y-75495D02*
G03*
X167798Y-74276I0J1220D01*
G01*
X27895Y42097D02*
G03*
X26676Y43317I-1220J0D01*
G01*
X23526D02*
G03*
X22306Y42097I-0J-1220D01*
G01*
X26653Y32311D02*
G03*
X27872Y33531I0J1220D01*
G01*
X22283D02*
G03*
X23503Y32311I1220J0D01*
G01*
X37217Y-32942D02*
G03*
X35997Y-31722I-1220J0D01*
G01*
X32847D02*
G03*
X31628Y-32942I-0J-1220D01*
G01*
X35974Y-42728D02*
G03*
X37194Y-41508I0J1220D01*
G01*
X31605D02*
G03*
X32824Y-42728I1220J0D01*
G01*
X-15244Y28740D02*
G03*
X-15244Y22441I0J-3150D01*
G01*
X28740Y15244D02*
G03*
X22441Y15244I-3150J0D01*
G01*
X15244Y-28740D02*
G03*
X15244Y-22441I0J3150D01*
G01*
X-28740Y-15256D02*
G03*
X-22441Y-15256I3150J0D01*
G01*
X-15157Y-22441D02*
G03*
X-15256Y-28742I-98J-3150D01*
G01*
X22441Y-15157D02*
G03*
X28742Y-15256I3150J-98D01*
G01*
X15157Y22441D02*
G03*
X15256Y28742I98J3150D01*
G01*
X-22441Y15157D02*
G03*
X-28742Y15256I-3150J98D01*
G01*
X-15157Y22441D02*
G03*
X-22441Y15157I0J-7283D01*
G01*
X-15256Y28740D02*
G03*
X-28740Y15256I0J-13484D01*
G01*
X22441Y15157D02*
G03*
X15157Y22441I-7283J0D01*
G01*
X28740Y15256D02*
G03*
X15256Y28740I-13484J0D01*
G01*
X15157Y-22441D02*
G03*
X22441Y-15157I0J7283D01*
G01*
X15256Y-28740D02*
G03*
X28740Y-15256I0J13484D01*
G01*
X-28740D02*
G03*
X-15256Y-28740I13484J0D01*
G01*
X-22441Y-15157D02*
G03*
X-15157Y-22441I7283J0D01*
G01*
X-98957Y-34933D02*
G03*
X-100176Y-33713I-1220J0D01*
G01*
X-103326D02*
G03*
X-104546Y-34933I-0J-1220D01*
G01*
X-100199Y-44719D02*
G03*
X-98979Y-43499I0J1220D01*
G01*
X-104569D02*
G03*
X-103349Y-44719I1220J0D01*
G01*
X-46577Y-34933D02*
G03*
X-47796Y-33713I-1220J0D01*
G01*
X-50946D02*
G03*
X-52166Y-34933I-0J-1220D01*
G01*
X-47820Y-44719D02*
G03*
X-46600Y-43499I0J1220D01*
G01*
X-52189D02*
G03*
X-50969Y-44719I1220J0D01*
G01*
X-130017Y-32183D02*
G03*
X-128797Y-33403I1220J0D01*
G01*
X-125647D02*
G03*
X-124427Y-32183I0J1220D01*
G01*
X-128774Y-22397D02*
G03*
X-129994Y-23617I-0J-1220D01*
G01*
X-124405D02*
G03*
X-125624Y-22397I-1220J0D01*
G01*
X-104569Y36001D02*
G03*
X-103349Y34781I1220J0D01*
G01*
X-100199D02*
G03*
X-98979Y36001I0J1220D01*
G01*
X-103326Y45787D02*
G03*
X-104546Y44567I-0J-1220D01*
G01*
X-98957D02*
G03*
X-100176Y45787I-1220J0D01*
G01*
X-8099Y108489D02*
G03*
X-9319Y109709I-1220J0D01*
G01*
X-12468D02*
G03*
X-13688Y108489I-0J-1220D01*
G01*
X-9342Y98703D02*
G03*
X-8122Y99923I0J1220D01*
G01*
X-13711D02*
G03*
X-12491Y98703I1220J0D01*
G01*
X-52189Y36001D02*
G03*
X-50969Y34781I1220J0D01*
G01*
X-47820D02*
G03*
X-46600Y36001I0J1220D01*
G01*
X-50946Y45787D02*
G03*
X-52166Y44567I-0J-1220D01*
G01*
X-46577D02*
G03*
X-47796Y45787I-1220J0D01*
G01*
X214909Y9201D02*
G03*
X213689Y7981I0J-1220D01*
G01*
Y4832D02*
G03*
X214909Y3612I1220J-0D01*
G01*
X224695Y7958D02*
G03*
X223475Y9178I-1220J0D01*
G01*
Y3589D02*
G03*
X224695Y4809I0J1220D01*
G01*
X214909Y17901D02*
G03*
X213689Y16681I0J-1220D01*
G01*
Y13532D02*
G03*
X214909Y12312I1220J-0D01*
G01*
X224695Y16658D02*
G03*
X223475Y17878I-1220J0D01*
G01*
Y12289D02*
G03*
X224695Y13509I0J1220D01*
G01*
X137845Y-25612D02*
G03*
X139065Y-26831I1220J0D01*
G01*
X142214D02*
G03*
X143434Y-25612I0J1220D01*
G01*
X139088Y-15825D02*
G03*
X137868Y-17045I-0J-1220D01*
G01*
X143457D02*
G03*
X142237Y-15825I-1220J0D01*
G01*
X143457Y-3478D02*
G03*
X142237Y-2259I-1220J0D01*
G01*
X139088D02*
G03*
X137868Y-3478I-0J-1220D01*
G01*
X142214Y-13265D02*
G03*
X143434Y-12045I0J1220D01*
G01*
X137845D02*
G03*
X139065Y-13265I1220J0D01*
G01*
X124512Y-69883D02*
G03*
X123292Y-71103I0J-1220D01*
G01*
Y-74253D02*
G03*
X124512Y-75472I1220J-0D01*
G01*
X134298Y-71126D02*
G03*
X133078Y-69906I-1220J0D01*
G01*
Y-75495D02*
G03*
X134298Y-74276I0J1220D01*
G01*
X55017Y33458D02*
G03*
X53797Y34678I-1220J0D01*
G01*
X50647D02*
G03*
X49428Y33458I-0J-1220D01*
G01*
X53774Y23672D02*
G03*
X54994Y24892I0J1220D01*
G01*
X49405D02*
G03*
X50624Y23672I1220J0D01*
G01*
X98317Y33458D02*
G03*
X97097Y34678I-1220J0D01*
G01*
X93947D02*
G03*
X92728Y33458I-0J-1220D01*
G01*
X97074Y23672D02*
G03*
X98294Y24892I0J1220D01*
G01*
X92705D02*
G03*
X93924Y23672I1220J0D01*
G01*
X127214Y-39042D02*
G03*
X128434Y-37823I0J1220D01*
G01*
Y-34673D02*
G03*
X127214Y-33453I-1220J0D01*
G01*
X117428Y-37800D02*
G03*
X118647Y-39020I1220J-0D01*
G01*
Y-33430D02*
G03*
X117428Y-34650I0J-1220D01*
G01*
X127214Y-47580D02*
G03*
X128434Y-46360I0J1220D01*
G01*
Y-43210D02*
G03*
X127214Y-41990I-1220J0D01*
G01*
X117428Y-46337D02*
G03*
X118647Y-47557I1220J-0D01*
G01*
Y-41967D02*
G03*
X117428Y-43187I0J-1220D01*
G01*
X217617Y-1131D02*
G03*
X216397Y89I-1220J0D01*
G01*
X213247D02*
G03*
X212028Y-1131I-0J-1220D01*
G01*
X216374Y-10917D02*
G03*
X217594Y-9697I0J1220D01*
G01*
X212005D02*
G03*
X213224Y-10917I1220J0D01*
G01*
X223536Y43367D02*
G03*
X224756Y44587I0J1220D01*
G01*
Y47737D02*
G03*
X223536Y48957I-1220J0D01*
G01*
X213750Y44610D02*
G03*
X214970Y43390I1220J-0D01*
G01*
Y48980D02*
G03*
X213750Y47760I0J-1220D01*
G01*
X-185042Y93183D02*
G03*
X-183822Y94403I0J1220D01*
G01*
Y97553D02*
G03*
X-185042Y98773I-1220J0D01*
G01*
X-194828Y94426D02*
G03*
X-193608Y93206I1220J-0D01*
G01*
Y98795D02*
G03*
X-194828Y97576I0J-1220D01*
G01*
X-202283Y80644D02*
G03*
X-203503Y81864I-1220J0D01*
G01*
X-206653D02*
G03*
X-207873Y80644I-0J-1220D01*
G01*
X-203526Y70858D02*
G03*
X-202306Y72078I0J1220D01*
G01*
X-207895D02*
G03*
X-206676Y70858I1220J0D01*
G01*
X2817Y-83161D02*
G03*
X1597Y-81941I-1220J0D01*
G01*
X-1553D02*
G03*
X-2772Y-83161I-0J-1220D01*
G01*
X1574Y-92947D02*
G03*
X2794Y-91727I0J1220D01*
G01*
X-2795D02*
G03*
X-1576Y-92947I1220J0D01*
G01*
X-88405Y-2392D02*
G03*
X-89624Y-1172I-1220J0D01*
G01*
X-92774D02*
G03*
X-93994Y-2392I-0J-1220D01*
G01*
X-89647Y-12178D02*
G03*
X-88428Y-10958I0J1220D01*
G01*
X-94017D02*
G03*
X-92797Y-12178I1220J0D01*
G01*
X-88405Y10708D02*
G03*
X-89624Y11928I-1220J0D01*
G01*
X-92774D02*
G03*
X-93994Y10708I-0J-1220D01*
G01*
X-89647Y922D02*
G03*
X-88428Y2142I0J1220D01*
G01*
X-94017D02*
G03*
X-92797Y922I1220J0D01*
G01*
X-134619Y9557D02*
G03*
X-133399Y10776I0J1220D01*
G01*
Y13926D02*
G03*
X-134619Y15146I-1220J0D01*
G01*
X-144405Y10799D02*
G03*
X-143185Y9579I1220J-0D01*
G01*
Y15169D02*
G03*
X-144405Y13949I0J-1220D01*
G01*
X-17908Y42097D02*
G03*
X-19128Y43317I-1220J0D01*
G01*
X-22277D02*
G03*
X-23497Y42097I-0J-1220D01*
G01*
X-19150Y32311D02*
G03*
X-17931Y33531I0J1220D01*
G01*
X-23520D02*
G03*
X-22300Y32311I1220J0D01*
G01*
X-17908Y55697D02*
G03*
X-19128Y56917I-1220J0D01*
G01*
X-22277D02*
G03*
X-23497Y55697I-0J-1220D01*
G01*
X-19150Y45911D02*
G03*
X-17931Y47131I0J1220D01*
G01*
X-23520D02*
G03*
X-22300Y45911I1220J0D01*
G01*
X-149919Y9557D02*
G03*
X-148699Y10776I0J1220D01*
G01*
Y13926D02*
G03*
X-149919Y15146I-1220J0D01*
G01*
X-159705Y10799D02*
G03*
X-158485Y9579I1220J-0D01*
G01*
Y15169D02*
G03*
X-159705Y13949I0J-1220D01*
G01*
X-75147Y20802D02*
G03*
X-76367Y19582I0J-1220D01*
G01*
Y16432D02*
G03*
X-75147Y15213I1220J-0D01*
G01*
X-65361Y19559D02*
G03*
X-66581Y20779I-1220J0D01*
G01*
Y15190D02*
G03*
X-65361Y16409I0J1220D01*
G01*
X-78103Y-20595D02*
G03*
X-76883Y-19376I0J1220D01*
G01*
Y-16226D02*
G03*
X-78103Y-15006I-1220J0D01*
G01*
X-87889Y-19353D02*
G03*
X-86669Y-20572I1220J-0D01*
G01*
Y-14983D02*
G03*
X-87889Y-16203I0J-1220D01*
G01*
X186853Y24087D02*
G03*
X188072Y22867I1220J0D01*
G01*
X191222D02*
G03*
X192442Y24087I0J1220D01*
G01*
X188095Y33873D02*
G03*
X186875Y32653I-0J-1220D01*
G01*
X192465D02*
G03*
X191245Y33873I-1220J0D01*
G01*
X206356Y21189D02*
G03*
X207576Y22409I0J1220D01*
G01*
Y25558D02*
G03*
X206356Y26778I-1220J0D01*
G01*
X196570Y22432D02*
G03*
X197790Y21212I1220J-0D01*
G01*
Y26801D02*
G03*
X196570Y25581I0J-1220D01*
G01*
X162129Y48131D02*
G03*
X160909Y49351I-1220J0D01*
G01*
X157760D02*
G03*
X156540Y48131I-0J-1220D01*
G01*
X160886Y38345D02*
G03*
X162106Y39564I0J1220D01*
G01*
X156517D02*
G03*
X157737Y38345I1220J0D01*
G01*
X192444Y47581D02*
G03*
X191224Y48801I-1220J0D01*
G01*
X188074D02*
G03*
X186854Y47581I-0J-1220D01*
G01*
X191201Y37795D02*
G03*
X192421Y39015I0J1220D01*
G01*
X186831D02*
G03*
X188051Y37795I1220J0D01*
G01*
X154354Y48131D02*
G03*
X153135Y49351I-1220J0D01*
G01*
X149985D02*
G03*
X148765Y48131I-0J-1220D01*
G01*
X153112Y38345D02*
G03*
X154331Y39564I0J1220D01*
G01*
X148742D02*
G03*
X149962Y38345I1220J0D01*
G01*
X197551Y48980D02*
G03*
X196331Y47760I0J-1220D01*
G01*
Y44610D02*
G03*
X197551Y43390I1220J-0D01*
G01*
X207337Y47737D02*
G03*
X206117Y48957I-1220J0D01*
G01*
Y43367D02*
G03*
X207337Y44587I0J1220D01*
G01*
X146580Y48131D02*
G03*
X145360Y49351I-1220J0D01*
G01*
X142210D02*
G03*
X140990Y48131I-0J-1220D01*
G01*
X145337Y38345D02*
G03*
X146557Y39564I0J1220D01*
G01*
X140967D02*
G03*
X142187Y38345I1220J0D01*
G01*
X170305Y39015D02*
G03*
X171524Y37795I1220J0D01*
G01*
X174674D02*
G03*
X175894Y39015I0J1220D01*
G01*
X171547Y48801D02*
G03*
X170327Y47581I-0J-1220D01*
G01*
X175917D02*
G03*
X174697Y48801I-1220J0D01*
G01*
X178568Y39015D02*
G03*
X179788Y37795I1220J0D01*
G01*
X182937D02*
G03*
X184157Y39015I0J1220D01*
G01*
X179811Y48801D02*
G03*
X178591Y47581I-0J-1220D01*
G01*
X184180D02*
G03*
X182960Y48801I-1220J0D01*
G01*
X35405Y99923D02*
G03*
X36624Y98703I1220J0D01*
G01*
X39774D02*
G03*
X40994Y99923I0J1220D01*
G01*
X36647Y109709D02*
G03*
X35427Y108489I-0J-1220D01*
G01*
X41017D02*
G03*
X39797Y109709I-1220J0D01*
G01*
X219686Y-9613D02*
G03*
X220905Y-10833I1220J0D01*
G01*
X224055D02*
G03*
X225275Y-9613I0J1220D01*
G01*
X220929Y173D02*
G03*
X219709Y-1047I-0J-1220D01*
G01*
X225298D02*
G03*
X224078Y173I-1220J0D01*
G01*
X114652Y-18829D02*
G03*
X115872Y-20048I1220J0D01*
G01*
X119021D02*
G03*
X120241Y-18829I0J1220D01*
G01*
X115895Y-9042D02*
G03*
X114675Y-10262I-0J-1220D01*
G01*
X120264D02*
G03*
X119044Y-9042I-1220J0D01*
G01*
X124512Y-85305D02*
G03*
X123292Y-86524I0J-1220D01*
G01*
Y-89674D02*
G03*
X124512Y-90894I1220J-0D01*
G01*
X134298Y-86547D02*
G03*
X133078Y-85328I-1220J0D01*
G01*
Y-90917D02*
G03*
X134298Y-89697I0J1220D01*
G01*
X124512Y-77594D02*
G03*
X123292Y-78814I0J-1220D01*
G01*
Y-81963D02*
G03*
X124512Y-83183I1220J-0D01*
G01*
X134298Y-78837D02*
G03*
X133078Y-77617I-1220J0D01*
G01*
Y-83206D02*
G03*
X134298Y-81986I0J1220D01*
G01*
X80595Y33458D02*
G03*
X79376Y34678I-1220J0D01*
G01*
X76226D02*
G03*
X75006Y33458I-0J-1220D01*
G01*
X79353Y23672D02*
G03*
X80572Y24892I0J1220D01*
G01*
X74983D02*
G03*
X76203Y23672I1220J0D01*
G01*
X-177092Y52705D02*
G03*
X-175872Y53924I0J1220D01*
G01*
Y57074D02*
G03*
X-177092Y58294I-1220J0D01*
G01*
X-186878Y53947D02*
G03*
X-185658Y52728I1220J-0D01*
G01*
Y58317D02*
G03*
X-186878Y57097I0J-1220D01*
G01*
X-219505Y80644D02*
G03*
X-220724Y81864I-1220J0D01*
G01*
X-223874D02*
G03*
X-225094Y80644I-0J-1220D01*
G01*
X-220747Y70858D02*
G03*
X-219528Y72078I0J1220D01*
G01*
X-225117D02*
G03*
X-223897Y70858I1220J0D01*
G01*
X-216495Y72078D02*
G03*
X-215276Y70858I1220J0D01*
G01*
X-212126D02*
G03*
X-210906Y72078I0J1220D01*
G01*
X-215253Y81864D02*
G03*
X-216473Y80644I-0J-1220D01*
G01*
X-210883D02*
G03*
X-212103Y81864I-1220J0D01*
G01*
X-42405Y-2392D02*
G03*
X-43624Y-1172I-1220J0D01*
G01*
X-46774D02*
G03*
X-47994Y-2392I-0J-1220D01*
G01*
X-43647Y-12178D02*
G03*
X-42428Y-10958I0J1220D01*
G01*
X-48017D02*
G03*
X-46797Y-12178I1220J0D01*
G01*
X-42405Y10708D02*
G03*
X-43624Y11928I-1220J0D01*
G01*
X-46774D02*
G03*
X-47994Y10708I-0J-1220D01*
G01*
X-43647Y922D02*
G03*
X-42428Y2142I0J1220D01*
G01*
X-48017D02*
G03*
X-46797Y922I1220J0D01*
G01*
X27895Y55697D02*
G03*
X26676Y56917I-1220J0D01*
G01*
X23526D02*
G03*
X22306Y55697I-0J-1220D01*
G01*
X26653Y45911D02*
G03*
X27872Y47131I0J1220D01*
G01*
X22283D02*
G03*
X23503Y45911I1220J0D01*
G01*
X6105Y-91727D02*
G03*
X7324Y-92947I1220J0D01*
G01*
X10474D02*
G03*
X11694Y-91727I0J1220D01*
G01*
X7347Y-81941D02*
G03*
X6128Y-83161I-0J-1220D01*
G01*
X11717D02*
G03*
X10497Y-81941I-1220J0D01*
G01*
X-191003Y52705D02*
G03*
X-189783Y53924I0J1220D01*
G01*
Y57074D02*
G03*
X-191003Y58294I-1220J0D01*
G01*
X-200789Y53947D02*
G03*
X-199569Y52728I1220J-0D01*
G01*
Y58317D02*
G03*
X-200789Y57097I0J-1220D01*
G01*
X225632Y36784D02*
G03*
X225632Y36784I-500J0D01*
G01*
X158272Y87517D02*
Y90667D01*
X153903Y86297D02*
X157053D01*
X152683Y87517D02*
Y90667D01*
X158295Y92934D02*
Y96084D01*
X152706Y92934D02*
Y96084D01*
X153926Y97303D02*
X157076D01*
X-199900Y112147D02*
Y112812D01*
X-181790Y112812D01*
X-199900Y101788D02*
Y102453D01*
Y101788D02*
X-181790Y101788D01*
X-194345Y101788D02*
Y112812D01*
X-181790Y112147D02*
Y112812D01*
Y101788D02*
Y102453D01*
X-188653Y-64345D02*
X-187988D01*
X-199012D02*
X-198347D01*
X-199012Y-76900D02*
X-187988D01*
Y-82455D02*
X-187988Y-64345D01*
X-188653Y-82455D02*
X-187988D01*
X-199012Y-64345D02*
X-199012Y-82455D01*
X-198347D01*
X117428Y-54874D02*
Y-51724D01*
X118647Y-56094D02*
X121797D01*
X118647Y-50505D02*
X121797D01*
X124064Y-56117D02*
X127214D01*
X128433Y-54897D02*
Y-51747D01*
X124064Y-50528D02*
X127214D01*
X99037Y95726D02*
Y98856D01*
X100906Y98858D01*
X63012Y95727D02*
X72287D01*
X63012Y93956D02*
Y95727D01*
X59332Y93958D02*
Y95725D01*
X89781Y93953D02*
Y95723D01*
X72287D02*
X89781D01*
X72287D02*
X72458Y95727D01*
X53757Y95726D02*
X59317D01*
X53757D02*
Y98506D01*
X51788D02*
X53757D01*
X93467Y93956D02*
Y95726D01*
X99037D01*
Y102126D02*
X100867Y102125D01*
X99037Y102126D02*
Y115906D01*
X53757D02*
X99037D01*
X53757Y100506D02*
Y115906D01*
X51788Y100506D02*
X53757D01*
X51694Y117873D02*
X100906D01*
Y93858D02*
Y117873D01*
X51733Y93818D02*
X100906D01*
X51694Y93858D02*
Y117873D01*
X126181Y49785D02*
X129331D01*
X130550Y45416D02*
Y48566D01*
X126181Y44196D02*
X129331D01*
X120764Y49808D02*
X123914D01*
X120764Y44219D02*
X123914D01*
X119545Y45439D02*
Y48589D01*
X126181Y42011D02*
X129331D01*
X130550Y37641D02*
Y40791D01*
X126181Y36421D02*
X129331D01*
X120764Y42034D02*
X123914D01*
X120764Y36444D02*
X123914D01*
X119545Y37664D02*
Y40814D01*
X130551Y14078D02*
Y17227D01*
X126181Y18447D02*
X129331D01*
X126181Y12858D02*
X129331D01*
X120765Y18470D02*
X123914D01*
X119545Y14101D02*
Y17250D01*
X120765Y12881D02*
X123914D01*
X126181Y10672D02*
X129331D01*
X130550Y6303D02*
Y9453D01*
X126181Y5083D02*
X129331D01*
X120764Y10695D02*
X123914D01*
X120764Y5106D02*
X123914D01*
X119545Y6326D02*
Y9476D01*
X96026Y50803D02*
X99176D01*
X94806Y46434D02*
Y49583D01*
X100395Y46434D02*
Y49583D01*
X94783Y41017D02*
Y44167D01*
X96003Y39797D02*
X99153D01*
X100372Y41017D02*
Y44167D01*
X141262Y-55072D02*
X144412D01*
X140042Y-53853D02*
Y-50703D01*
X141262Y-49483D02*
X144412D01*
X146679Y-55095D02*
X149828D01*
X146679Y-49506D02*
X149828D01*
X151048Y-53876D02*
Y-50726D01*
X141262Y-62872D02*
X144412D01*
X140042Y-61653D02*
Y-58503D01*
X141262Y-57283D02*
X144412D01*
X146679Y-62895D02*
X149828D01*
X146679Y-57306D02*
X149828D01*
X151048Y-61676D02*
Y-58526D01*
X146678Y-33128D02*
X149828D01*
X151048Y-37497D02*
Y-34347D01*
X146678Y-38717D02*
X149828D01*
X141262Y-33105D02*
X144411D01*
X141262Y-38694D02*
X144411D01*
X140042Y-37474D02*
Y-34324D01*
X159512Y-41781D02*
Y-38631D01*
X160732Y-37411D02*
X163881D01*
X165101Y-41781D02*
Y-38631D01*
X159489Y-47197D02*
Y-44048D01*
X165078Y-47197D02*
Y-44048D01*
X160708Y-48417D02*
X163858D01*
X186769Y-88060D02*
Y-84910D01*
X182400Y-83690D02*
X185549D01*
X182400Y-89280D02*
X185549D01*
X176983Y-83668D02*
X180133D01*
X175763Y-88037D02*
Y-84887D01*
X176983Y-89257D02*
X180133D01*
X174083Y-10074D02*
Y-6924D01*
X175303Y-11294D02*
X178452D01*
X175303Y-5705D02*
X178452D01*
X180719Y-11317D02*
X183869D01*
X185089Y-10097D02*
Y-6947D01*
X180719Y-5728D02*
X183869D01*
X184083Y-66458D02*
X187233D01*
X182863Y-65238D02*
Y-62089D01*
X184083Y-60869D02*
X187233D01*
X189500Y-66481D02*
X192649D01*
X189500Y-60892D02*
X192649D01*
X193869Y-65262D02*
Y-62112D01*
X188835Y-88037D02*
Y-84887D01*
X190055Y-89257D02*
X193204D01*
X190055Y-83668D02*
X193204D01*
X195471Y-89280D02*
X198621D01*
X199841Y-88060D02*
Y-84910D01*
X195471Y-83691D02*
X198621D01*
X200319Y-5728D02*
X203469D01*
X204689Y-10097D02*
Y-6947D01*
X200319Y-11317D02*
X203469D01*
X194903Y-5705D02*
X198052D01*
X194903Y-11294D02*
X198052D01*
X193683Y-10074D02*
Y-6924D01*
X213772Y-72469D02*
Y-69319D01*
X209403Y-73689D02*
X212553D01*
X208183Y-72469D02*
Y-69319D01*
X213795Y-67052D02*
Y-63903D01*
X208206Y-67052D02*
Y-63903D01*
X209426Y-62683D02*
X212576D01*
X209403Y-87017D02*
X212553D01*
X213773Y-85797D02*
Y-82648D01*
X208183Y-85797D02*
Y-82648D01*
X213795Y-80381D02*
Y-77231D01*
X209426Y-76011D02*
X212576D01*
X208206Y-80381D02*
Y-77231D01*
X160732Y-52283D02*
X163881D01*
X159512Y-56652D02*
Y-53503D01*
X165101Y-56652D02*
Y-53503D01*
X159489Y-62069D02*
Y-58919D01*
X160709Y-63289D02*
X163858D01*
X165078Y-62069D02*
Y-58919D01*
X181866Y-68684D02*
X194866D01*
X181866Y-80684D02*
X194866D01*
X216102Y-31358D02*
Y-28208D01*
X217322Y-32578D02*
X220471D01*
X217322Y-26989D02*
X220471D01*
X222738Y-32601D02*
X225888D01*
X227108Y-31381D02*
Y-28232D01*
X222738Y-27012D02*
X225888D01*
X222738Y-35012D02*
X225888D01*
X227108Y-39381D02*
Y-36232D01*
X222738Y-40601D02*
X225888D01*
X217322Y-34989D02*
X220471D01*
X217322Y-40578D02*
X220471D01*
X216102Y-39358D02*
Y-36208D01*
X222738Y-43012D02*
X225888D01*
X227108Y-47381D02*
Y-44232D01*
X222738Y-48601D02*
X225888D01*
X217322Y-42989D02*
X220471D01*
X217322Y-48578D02*
X220471D01*
X216102Y-47358D02*
Y-44208D01*
X163428Y-85328D02*
X166578D01*
X167798Y-89697D02*
Y-86547D01*
X163428Y-90917D02*
X166578D01*
X158012Y-85305D02*
X161161D01*
X158012Y-90894D02*
X161161D01*
X156792Y-89674D02*
Y-86524D01*
X163428Y-77617D02*
X166578D01*
X167798Y-81986D02*
Y-78837D01*
X163428Y-83206D02*
X166578D01*
X158012Y-77594D02*
X161161D01*
X158012Y-83183D02*
X161161D01*
X156792Y-81963D02*
Y-78813D01*
X167798Y-74276D02*
Y-71126D01*
X163429Y-69906D02*
X166578D01*
X163429Y-75495D02*
X166578D01*
X158012Y-69883D02*
X161162D01*
X156792Y-74253D02*
Y-71103D01*
X158012Y-75472D02*
X161162D01*
X27872Y33531D02*
Y36681D01*
X23503Y32311D02*
X26653D01*
X22283Y33531D02*
Y36681D01*
X27895Y38948D02*
Y42097D01*
X22306Y38948D02*
Y42097D01*
X23526Y43317D02*
X26676D01*
X32824Y-42728D02*
X35974D01*
X37194Y-41508D02*
Y-38359D01*
X31605Y-41508D02*
Y-38359D01*
X37217Y-36092D02*
Y-32942D01*
X32847Y-31722D02*
X35997D01*
X31628Y-36092D02*
Y-32942D01*
X13100Y-6800D02*
X14800Y-5100D01*
X16500Y-6800D01*
X4800Y-15100D02*
X6500Y-16800D01*
X4800Y-15100D02*
X6500Y-13400D01*
X4800Y-15100D02*
X14800D01*
Y-5100D01*
X-15157Y-22441D02*
X15157D01*
X-15256Y-28740D02*
X15256D01*
X28740Y-15256D02*
Y15256D01*
X22441Y-15157D02*
Y15157D01*
X-15157Y22441D02*
X15157D01*
X-15256Y28740D02*
X15256D01*
X-22441Y-15256D02*
Y15157D01*
X-28740Y-15256D02*
Y15256D01*
X132740Y-125420D02*
Y-120690D01*
X124860Y-125420D02*
X132740D01*
X125300Y-111640D02*
X132300D01*
X137860Y-120690D02*
Y-120150D01*
X119740Y-120690D02*
X137860D01*
X119740D02*
Y-120150D01*
X124860Y-125420D02*
Y-120690D01*
X166240Y-125420D02*
Y-120690D01*
X158360Y-125420D02*
X166240D01*
X158800Y-111640D02*
X165800D01*
X171360Y-120690D02*
Y-120150D01*
X153240Y-120690D02*
X171360D01*
X153240D02*
Y-120150D01*
X158360Y-125420D02*
Y-120690D01*
X199740Y-125420D02*
Y-120690D01*
X191860Y-125420D02*
X199740D01*
X192300Y-111640D02*
X199300D01*
X204860Y-120690D02*
Y-120150D01*
X186740Y-120690D02*
X204860D01*
X186740D02*
Y-120150D01*
X191860Y-125420D02*
Y-120690D01*
X-108453Y-30161D02*
X-107788D01*
X-107788Y-48271D01*
X-118812Y-30161D02*
X-118147D01*
X-118812Y-48271D02*
X-118812Y-30161D01*
Y-35716D02*
X-107788D01*
X-108453Y-48271D02*
X-107788D01*
X-118812D02*
X-118147D01*
X-103349Y-44719D02*
X-100199D01*
X-98979Y-43499D02*
Y-40350D01*
X-104569Y-43499D02*
Y-40350D01*
X-98957Y-38082D02*
Y-34933D01*
X-103326Y-33713D02*
X-100176D01*
X-104545Y-38082D02*
Y-34933D01*
X-50969Y-44719D02*
X-47820D01*
X-46600Y-43499D02*
Y-40350D01*
X-52189Y-43499D02*
Y-40350D01*
X-46577Y-38082D02*
Y-34933D01*
X-50946Y-33713D02*
X-47796D01*
X-52166Y-38082D02*
Y-34933D01*
X-43162Y-48271D02*
X-42497D01*
X-43162Y-30160D02*
X-43162Y-48271D01*
X-32803D02*
X-32138D01*
X-32138Y-30160D01*
X-43162Y-42716D02*
X-32138D01*
X-43162Y-30160D02*
X-42497D01*
X-32803D02*
X-32138D01*
X-128774Y-22397D02*
X-125624D01*
X-129994Y-26766D02*
Y-23617D01*
X-124405Y-26766D02*
Y-23617D01*
X-130017Y-32183D02*
Y-29033D01*
X-128797Y-33403D02*
X-125647D01*
X-124428Y-32183D02*
Y-29033D01*
X-103326Y45787D02*
X-100176D01*
X-104546Y41418D02*
Y44568D01*
X-98957Y41418D02*
Y44568D01*
X-104569Y36001D02*
Y39151D01*
X-103349Y34782D02*
X-100199D01*
X-98980Y36001D02*
Y39151D01*
X-12492Y98703D02*
X-9342D01*
X-8122Y99922D02*
Y103072D01*
X-13711Y99922D02*
Y103072D01*
X-8099Y105339D02*
Y108489D01*
X-12468Y109708D02*
X-9319D01*
X-13688Y105339D02*
Y108489D01*
X-50946Y45787D02*
X-47796D01*
X-52166Y41418D02*
Y44568D01*
X-46577Y41418D02*
Y44568D01*
X-52189Y36001D02*
Y39151D01*
X-50969Y34782D02*
X-47820D01*
X-46600Y36001D02*
Y39151D01*
X224695Y4808D02*
Y7958D01*
X220326Y9178D02*
X223475D01*
X220326Y3589D02*
X223475D01*
X214909Y9201D02*
X218059D01*
X213689Y4832D02*
Y7981D01*
X214909Y3612D02*
X218059D01*
X224695Y13508D02*
Y16658D01*
X220326Y17878D02*
X223475D01*
X220326Y12289D02*
X223475D01*
X214909Y17901D02*
X218059D01*
X213689Y13532D02*
Y16681D01*
X214909Y12312D02*
X218059D01*
X139088Y-15825D02*
X142237D01*
X137868Y-20195D02*
Y-17045D01*
X143457Y-20195D02*
Y-17045D01*
X137845Y-25611D02*
Y-22462D01*
X139065Y-26831D02*
X142214D01*
X143434Y-25611D02*
Y-22462D01*
X139065Y-13265D02*
X142214D01*
X143434Y-12045D02*
Y-8896D01*
X137845Y-12045D02*
Y-8896D01*
X143457Y-6628D02*
Y-3479D01*
X139088Y-2259D02*
X142237D01*
X137868Y-6628D02*
Y-3479D01*
X134298Y-74276D02*
Y-71126D01*
X129929Y-69906D02*
X133078D01*
X129929Y-75495D02*
X133078D01*
X124512Y-69883D02*
X127662D01*
X123292Y-74253D02*
Y-71103D01*
X124512Y-75472D02*
X127662D01*
X50624Y23672D02*
X53774D01*
X54994Y24892D02*
Y28041D01*
X49405Y24892D02*
Y28041D01*
X55017Y30308D02*
Y33458D01*
X50647Y34678D02*
X53797D01*
X49428Y30308D02*
Y33458D01*
X93924Y23672D02*
X97074D01*
X98294Y24892D02*
Y28041D01*
X92705Y24892D02*
Y28041D01*
X98317Y30308D02*
Y33458D01*
X93947Y34678D02*
X97097D01*
X92728Y30308D02*
Y33458D01*
X117428Y-37800D02*
Y-34650D01*
X118647Y-39020D02*
X121797D01*
X118647Y-33430D02*
X121797D01*
X124064Y-39042D02*
X127214D01*
X128433Y-37823D02*
Y-34673D01*
X124064Y-33453D02*
X127214D01*
X117428Y-46337D02*
Y-43187D01*
X118647Y-47557D02*
X121797D01*
X118647Y-41967D02*
X121797D01*
X124064Y-47580D02*
X127214D01*
X128433Y-46360D02*
Y-43210D01*
X124064Y-41991D02*
X127214D01*
X213224Y-10917D02*
X216374D01*
X217594Y-9697D02*
Y-6548D01*
X212005Y-9697D02*
Y-6548D01*
X217617Y-4281D02*
Y-1131D01*
X213247Y89D02*
X216397D01*
X212028Y-4281D02*
Y-1131D01*
X213750Y44610D02*
Y47760D01*
X214969Y43390D02*
X218119D01*
X214969Y48980D02*
X218119D01*
X220386Y43367D02*
X223536D01*
X224756Y44587D02*
Y47737D01*
X220386Y48957D02*
X223536D01*
X-194828Y94426D02*
Y97576D01*
X-193608Y93206D02*
X-190459D01*
X-193608Y98795D02*
X-190459D01*
X-188192Y93183D02*
X-185042D01*
X-183822Y94403D02*
Y97553D01*
X-188192Y98772D02*
X-185042D01*
X-206676Y70858D02*
X-203526D01*
X-202306Y72078D02*
Y75227D01*
X-207895Y72078D02*
Y75227D01*
X-202283Y77494D02*
Y80644D01*
X-206653Y81864D02*
X-203503D01*
X-207872Y77494D02*
Y80644D01*
X-1576Y-92947D02*
X1574D01*
X2794Y-91727D02*
Y-88578D01*
X-2795Y-91727D02*
Y-88578D01*
X2817Y-86310D02*
Y-83161D01*
X-1553Y-81941D02*
X1597D01*
X-2772Y-86310D02*
Y-83161D01*
X-88428Y-10958D02*
Y-7808D01*
X-92797Y-12178D02*
X-89647D01*
X-94017Y-10958D02*
Y-7808D01*
X-88405Y-5541D02*
Y-2392D01*
X-93994Y-5541D02*
Y-2392D01*
X-92774Y-1172D02*
X-89624D01*
X-88428Y2142D02*
Y5292D01*
X-92797Y922D02*
X-89647D01*
X-94017Y2142D02*
Y5292D01*
X-88405Y7559D02*
Y10708D01*
X-93994Y7559D02*
Y10708D01*
X-92774Y11928D02*
X-89624D01*
X-143185Y9580D02*
X-140035D01*
X-144405Y10799D02*
Y13949D01*
X-143185Y15169D02*
X-140035D01*
X-137768Y9557D02*
X-134618D01*
X-137768Y15146D02*
X-134618D01*
X-133399Y10776D02*
Y13926D01*
X-17931Y33531D02*
Y36681D01*
X-22300Y32311D02*
X-19150D01*
X-23520Y33531D02*
Y36681D01*
X-17908Y38948D02*
Y42097D01*
X-23497Y38948D02*
Y42097D01*
X-22277Y43317D02*
X-19127D01*
X-17931Y47131D02*
Y50281D01*
X-22300Y45911D02*
X-19150D01*
X-23520Y47131D02*
Y50281D01*
X-17908Y52548D02*
Y55697D01*
X-23497Y52548D02*
Y55697D01*
X-22277Y56917D02*
X-19127D01*
X-158485Y9580D02*
X-155335D01*
X-159705Y10799D02*
Y13949D01*
X-158485Y15169D02*
X-155335D01*
X-153068Y9557D02*
X-149918D01*
X-153068Y15146D02*
X-149918D01*
X-148699Y10776D02*
Y13926D01*
X-69731Y20779D02*
X-66581D01*
X-65361Y16409D02*
Y19559D01*
X-69731Y15190D02*
X-66581D01*
X-75147Y20802D02*
X-71998D01*
X-75147Y15213D02*
X-71998D01*
X-76367Y16432D02*
Y19582D01*
X-86669Y-20572D02*
X-83519D01*
X-87889Y-19353D02*
Y-16203D01*
X-86669Y-14983D02*
X-83519D01*
X-81252Y-20595D02*
X-78103D01*
X-81252Y-15006D02*
X-78103D01*
X-76883Y-19376D02*
Y-16226D01*
X186876Y29504D02*
Y32653D01*
X188095Y33873D02*
X191245D01*
X192465Y29504D02*
Y32653D01*
X186853Y24087D02*
Y27236D01*
X192442Y24087D02*
Y27236D01*
X188072Y22867D02*
X191222D01*
X197790Y21212D02*
X200940D01*
X196570Y22432D02*
Y25581D01*
X197790Y26801D02*
X200940D01*
X203207Y21189D02*
X206356D01*
X203207Y26778D02*
X206356D01*
X207576Y22408D02*
Y25558D01*
X162106Y39565D02*
Y42714D01*
X157737Y38345D02*
X160886D01*
X156517Y39565D02*
Y42714D01*
X162129Y44982D02*
Y48131D01*
X156540Y44982D02*
Y48131D01*
X157760Y49351D02*
X160909D01*
X192420Y39015D02*
Y42165D01*
X188051Y37795D02*
X191201D01*
X186831Y39015D02*
Y42165D01*
X192444Y44432D02*
Y47581D01*
X186854Y44432D02*
Y47581D01*
X188074Y48801D02*
X191224D01*
X154331Y39565D02*
Y42714D01*
X149962Y38345D02*
X153112D01*
X148742Y39565D02*
Y42714D01*
X154354Y44982D02*
Y48131D01*
X148765Y44982D02*
Y48131D01*
X149985Y49351D02*
X153135D01*
X202967Y48957D02*
X206117D01*
X207337Y44587D02*
Y47737D01*
X202967Y43367D02*
X206117D01*
X197551Y48980D02*
X200700D01*
X197551Y43390D02*
X200700D01*
X196331Y44610D02*
Y47760D01*
X146556Y39565D02*
Y42714D01*
X142187Y38345D02*
X145337D01*
X140967Y39565D02*
Y42714D01*
X146580Y44982D02*
Y48131D01*
X140990Y44982D02*
Y48131D01*
X142210Y49351D02*
X145360D01*
X170328Y44431D02*
Y47581D01*
X171547Y48801D02*
X174697D01*
X175917Y44431D02*
Y47581D01*
X170305Y39015D02*
Y42164D01*
X175894Y39015D02*
Y42164D01*
X171524Y37795D02*
X174674D01*
X178591Y44431D02*
Y47581D01*
X179811Y48801D02*
X182960D01*
X184180Y44431D02*
Y47581D01*
X178568Y39015D02*
Y42164D01*
X184157Y39015D02*
Y42164D01*
X179788Y37795D02*
X182937D01*
X35428Y105339D02*
Y108489D01*
X36647Y109708D02*
X39797D01*
X41017Y105339D02*
Y108489D01*
X35405Y99922D02*
Y103072D01*
X40994Y99922D02*
Y103072D01*
X36624Y98703D02*
X39774D01*
X219709Y-4196D02*
Y-1047D01*
X220929Y173D02*
X224078D01*
X225298Y-4196D02*
Y-1047D01*
X219686Y-9613D02*
Y-6464D01*
X225275Y-9613D02*
Y-6464D01*
X220905Y-10833D02*
X224055D01*
X114675Y-13412D02*
Y-10262D01*
X115895Y-9043D02*
X119044D01*
X120264Y-13412D02*
Y-10262D01*
X114652Y-18829D02*
Y-15679D01*
X120241Y-18829D02*
Y-15679D01*
X115871Y-20048D02*
X119021D01*
X129928Y-85328D02*
X133078D01*
X134298Y-89697D02*
Y-86547D01*
X129928Y-90917D02*
X133078D01*
X124512Y-85305D02*
X127661D01*
X124512Y-90894D02*
X127661D01*
X123292Y-89674D02*
Y-86524D01*
X129928Y-77617D02*
X133078D01*
X134298Y-81986D02*
Y-78837D01*
X129928Y-83206D02*
X133078D01*
X124512Y-77594D02*
X127661D01*
X124512Y-83183D02*
X127661D01*
X123292Y-81963D02*
Y-78813D01*
X80572Y24892D02*
Y28042D01*
X76203Y23672D02*
X79353D01*
X74983Y24892D02*
Y28042D01*
X80595Y30309D02*
Y33458D01*
X75006Y30309D02*
Y33458D01*
X76226Y34678D02*
X79376D01*
X-185658Y52728D02*
X-182508D01*
X-186878Y53947D02*
Y57097D01*
X-185658Y58317D02*
X-182508D01*
X-180241Y52705D02*
X-177092D01*
X-180241Y58294D02*
X-177092D01*
X-175872Y53924D02*
Y57074D01*
X-219528Y72078D02*
Y75228D01*
X-223897Y70858D02*
X-220747D01*
X-225117Y72078D02*
Y75228D01*
X-219505Y77495D02*
Y80644D01*
X-225094Y77495D02*
Y80644D01*
X-223874Y81864D02*
X-220724D01*
X-216472Y77494D02*
Y80644D01*
X-215253Y81864D02*
X-212103D01*
X-210883Y77494D02*
Y80644D01*
X-216495Y72078D02*
Y75227D01*
X-210906Y72078D02*
Y75227D01*
X-215276Y70858D02*
X-212126D01*
X-42428Y-10958D02*
Y-7808D01*
X-46797Y-12178D02*
X-43647D01*
X-48017Y-10958D02*
Y-7808D01*
X-42405Y-5541D02*
Y-2392D01*
X-47994Y-5541D02*
Y-2392D01*
X-46774Y-1172D02*
X-43624D01*
X-42428Y2142D02*
Y5292D01*
X-46797Y922D02*
X-43647D01*
X-48017Y2142D02*
Y5292D01*
X-42405Y7559D02*
Y10708D01*
X-47994Y7559D02*
Y10708D01*
X-46774Y11928D02*
X-43624D01*
X27872Y47131D02*
Y50281D01*
X23503Y45911D02*
X26653D01*
X22283Y47131D02*
Y50281D01*
X27895Y52548D02*
Y55697D01*
X22306Y52548D02*
Y55697D01*
X23526Y56917D02*
X26676D01*
X6128Y-86310D02*
Y-83161D01*
X7347Y-81941D02*
X10497D01*
X11717Y-86310D02*
Y-83161D01*
X6105Y-91727D02*
Y-88578D01*
X11694Y-91727D02*
Y-88578D01*
X7324Y-92947D02*
X10474D01*
X-199569Y52728D02*
X-196419D01*
X-200789Y53947D02*
Y57097D01*
X-199569Y58317D02*
X-196419D01*
X-194152Y52705D02*
X-191003D01*
X-194152Y58294D02*
X-191003D01*
X-189783Y53924D02*
Y57074D01*
X-193942Y-125400D02*
X-186494D01*
X-193942D02*
Y-97400D01*
X-144245Y-125345D02*
Y-123500D01*
X-144300Y-125400D02*
X-144245Y-125345D01*
X-186494Y-125400D02*
X-144300D01*
X-151445D02*
Y-113400D01*
X-156194D02*
X-151445D01*
X-156194Y-125400D02*
Y-113400D01*
X-144245Y-123500D02*
Y-97400D01*
X-149694D02*
X-144245D01*
X-193942D02*
X-188494D01*
X-182045Y-125400D02*
Y-113400D01*
X-186494D02*
X-182045D01*
X-186494Y-125400D02*
Y-113400D01*
X38625Y-102208D02*
Y-72680D01*
X35598Y-102404D02*
X38625D01*
X35598Y-72483D02*
X38625D01*
X20317Y-102404D02*
Y-95834D01*
Y-79053D02*
Y-72483D01*
Y-102404D02*
X25903D01*
X20317Y-72483D02*
X25903D01*
X-152760Y61560D02*
Y81240D01*
X-172440Y61560D02*
Y81240D01*
Y61560D02*
X-171970D01*
X-153230D02*
X-152760D01*
X-172440Y81240D02*
X-171970D01*
X-153230D02*
X-152760D01*
X227610Y57080D02*
X233790D01*
Y92300D01*
Y92520D01*
X227610D02*
X233790D01*
X211550Y57080D02*
X218880D01*
X211550Y92520D02*
X218880D01*
X-138090Y-33412D02*
Y-32747D01*
Y-23053D02*
Y-22388D01*
X-150645Y-33412D02*
Y-22388D01*
X-156200Y-33412D02*
X-138090Y-33412D01*
X-156200Y-33412D02*
Y-32747D01*
Y-22388D02*
X-138090Y-22388D01*
X-156200Y-23053D02*
Y-22388D01*
X-118812Y31229D02*
X-118147D01*
X-108453D02*
X-107788D01*
X-118812Y43784D02*
X-107788D01*
X-118812Y31229D02*
X-118812Y49339D01*
X-118147D01*
X-107788D02*
X-107788Y31229D01*
X-108453Y49339D02*
X-107788D01*
X-32803Y49340D02*
X-32138D01*
X-43162D02*
X-42497D01*
X-43162Y36784D02*
X-32138D01*
Y31229D02*
X-32138Y49340D01*
X-32803Y31229D02*
X-32138D01*
X-43162Y49340D02*
X-43162Y31229D01*
X-42497D01*
X224735Y27241D02*
Y34328D01*
X217057Y27241D02*
X220207D01*
X212530D02*
Y34328D01*
X-74567Y65539D02*
Y94539D01*
Y65539D02*
X-48071D01*
Y111372D01*
X-74567Y94539D02*
Y111372D01*
X-48071D01*
X-131900Y65539D02*
Y94539D01*
Y65539D02*
X-105404D01*
Y111372D01*
X-131900Y94539D02*
Y111372D01*
X-105404D01*
X-45900Y65539D02*
Y94539D01*
Y65539D02*
X-19404D01*
Y111372D01*
X-45900Y94539D02*
Y111372D01*
X-19404D01*
X-103233Y65539D02*
Y94539D01*
Y65539D02*
X-76737D01*
Y111372D01*
X-103233Y94539D02*
Y111372D01*
X-76737D01*
Y-93971D02*
Y-64971D01*
X-103233D02*
X-76737D01*
X-103233Y-110804D02*
Y-64971D01*
X-76737Y-110804D02*
Y-93971D01*
X-103233Y-110804D02*
X-76737D01*
X-19404Y-93971D02*
Y-64971D01*
X-45900D02*
X-19404D01*
X-45900Y-110804D02*
Y-64971D01*
X-19404Y-110804D02*
Y-93971D01*
X-45900Y-110804D02*
X-19404D01*
X-105404Y-93971D02*
Y-64971D01*
X-131900D02*
X-105404D01*
X-131900Y-110804D02*
Y-64971D01*
X-105404Y-110804D02*
Y-93971D01*
X-131900Y-110804D02*
X-105404D01*
X-48071Y-93971D02*
Y-64971D01*
X-74567D02*
X-48071D01*
X-74567Y-110804D02*
Y-64971D01*
X-48071Y-110804D02*
Y-93971D01*
X-74567Y-110804D02*
X-48071D01*
X122832Y-21078D02*
Y-8078D01*
X134832Y-21078D02*
Y-8078D01*
X-11150Y-122200D02*
X111350D01*
Y-52694D01*
X-11150D02*
X111350D01*
X-11150Y-122200D02*
Y-52938D01*
X-178434Y-83400D02*
X-178101Y-84400D01*
Y-82400D01*
X-178434Y-83400D01*
X-179101Y-82733D01*
X-180101Y-82400D01*
X-180767D01*
X-181767Y-82733D01*
X-182433Y-83400D01*
X-182767Y-84066D01*
X-183100Y-85066D01*
Y-86732D01*
X-182767Y-87732D01*
X-182433Y-88399D01*
X-181767Y-89065D01*
X-180767Y-89398D01*
X-180101D01*
X-179101Y-89065D01*
X-178434Y-88399D01*
X-178101Y-87732D01*
X-180767Y-82400D02*
X-181434Y-82733D01*
X-182100Y-83400D01*
X-182433Y-84066D01*
X-182767Y-85066D01*
Y-86732D01*
X-182433Y-87732D01*
X-182100Y-88399D01*
X-181434Y-89065D01*
X-180767Y-89398D01*
X-176102Y-82400D02*
Y-89398D01*
X-175768Y-82400D02*
Y-89398D01*
Y-85733D02*
X-175102Y-85066D01*
X-174102Y-84733D01*
X-173435D01*
X-172436Y-85066D01*
X-172102Y-85733D01*
Y-89398D01*
X-173435Y-84733D02*
X-172769Y-85066D01*
X-172436Y-85733D01*
Y-89398D01*
X-177101Y-82400D02*
X-175768D01*
X-177101Y-89398D02*
X-174768D01*
X-173435D02*
X-171103D01*
X-169536Y-85399D02*
Y-85733D01*
X-169869D01*
Y-85399D01*
X-169536Y-85066D01*
X-168870Y-84733D01*
X-167537D01*
X-166870Y-85066D01*
X-166537Y-85399D01*
X-166204Y-86066D01*
Y-88399D01*
X-165870Y-89065D01*
X-165537Y-89398D01*
X-166537Y-85399D02*
Y-88399D01*
X-166204Y-89065D01*
X-165537Y-89398D01*
X-165204D01*
X-166537Y-86066D02*
X-166870Y-86399D01*
X-168870Y-86732D01*
X-169869Y-87066D01*
X-170203Y-87732D01*
Y-88399D01*
X-169869Y-89065D01*
X-168870Y-89398D01*
X-167870D01*
X-167203Y-89065D01*
X-166537Y-88399D01*
X-168870Y-86732D02*
X-169536Y-87066D01*
X-169869Y-87732D01*
Y-88399D01*
X-169536Y-89065D01*
X-168870Y-89398D01*
X-163204Y-84733D02*
Y-89398D01*
X-162871Y-84733D02*
Y-89398D01*
Y-86732D02*
X-162538Y-85733D01*
X-161871Y-85066D01*
X-161205Y-84733D01*
X-160205D01*
X-159872Y-85066D01*
Y-85399D01*
X-160205Y-85733D01*
X-160538Y-85399D01*
X-160205Y-85066D01*
X-164204Y-84733D02*
X-162871D01*
X-164204Y-89398D02*
X-161871D01*
X-156806Y-84733D02*
X-157472Y-85066D01*
X-157805Y-85399D01*
X-158139Y-86066D01*
Y-86732D01*
X-157805Y-87399D01*
X-157472Y-87732D01*
X-156806Y-88065D01*
X-156139D01*
X-155473Y-87732D01*
X-155139Y-87399D01*
X-154806Y-86732D01*
Y-86066D01*
X-155139Y-85399D01*
X-155473Y-85066D01*
X-156139Y-84733D01*
X-156806D01*
X-157472Y-85066D02*
X-157805Y-85733D01*
Y-87066D01*
X-157472Y-87732D01*
X-155473D02*
X-155139Y-87066D01*
Y-85733D01*
X-155473Y-85066D01*
X-155139Y-85399D02*
X-154806Y-85066D01*
X-154140Y-84733D01*
Y-85066D01*
X-154806D01*
X-157805Y-87399D02*
X-158139Y-87732D01*
X-158472Y-88399D01*
Y-88732D01*
X-158139Y-89398D01*
X-157139Y-89732D01*
X-155473D01*
X-154473Y-90065D01*
X-154140Y-90398D01*
X-158472Y-88732D02*
X-158139Y-89065D01*
X-157139Y-89398D01*
X-155473D01*
X-154473Y-89732D01*
X-154140Y-90398D01*
Y-90732D01*
X-154473Y-91398D01*
X-155473Y-91731D01*
X-157472D01*
X-158472Y-91398D01*
X-158805Y-90732D01*
Y-90398D01*
X-158472Y-89732D01*
X-157472Y-89398D01*
X-152773Y-86732D02*
X-148774D01*
Y-86066D01*
X-149107Y-85399D01*
X-149441Y-85066D01*
X-150107Y-84733D01*
X-151107D01*
X-152107Y-85066D01*
X-152773Y-85733D01*
X-153106Y-86732D01*
Y-87399D01*
X-152773Y-88399D01*
X-152107Y-89065D01*
X-151107Y-89398D01*
X-150440D01*
X-149441Y-89065D01*
X-148774Y-88399D01*
X-149107Y-86732D02*
Y-85733D01*
X-149441Y-85066D01*
X-151107Y-84733D02*
X-151773Y-85066D01*
X-152440Y-85733D01*
X-152773Y-86732D01*
Y-87399D01*
X-152440Y-88399D01*
X-151773Y-89065D01*
X-151107Y-89398D01*
X46647Y106721D02*
Y101579D01*
X44076Y104150D02*
X49218D01*
X217247Y-55279D02*
Y-60421D01*
X214676Y-57850D02*
X219818D01*
X-220800Y-46933D02*
X-221133Y-45933D01*
X-221800Y-45267D01*
X-222466Y-44933D01*
X-223799Y-44600D01*
X-224799D01*
X-226132Y-44933D01*
X-226799Y-45267D01*
X-227465Y-45933D01*
X-227799Y-46933D01*
Y-47599D01*
X-227465Y-48599D01*
X-226799Y-49266D01*
X-226132Y-49599D01*
X-224799Y-49932D01*
X-223799D01*
X-222466Y-49599D01*
X-221800Y-49266D01*
X-221133Y-48599D01*
X-220800Y-47599D01*
Y-46933D01*
X-221133Y-46266D01*
X-221800Y-45600D01*
X-222466Y-45267D01*
X-223799Y-44933D01*
X-224799D01*
X-226132Y-45267D01*
X-226799Y-45600D01*
X-227465Y-46266D01*
X-227799Y-46933D01*
Y-47599D02*
X-227465Y-48266D01*
X-226799Y-48932D01*
X-226132Y-49266D01*
X-224799Y-49599D01*
X-223799D01*
X-222466Y-49266D01*
X-221800Y-48932D01*
X-221133Y-48266D01*
X-220800Y-47599D01*
Y-51898D02*
X-227799D01*
X-220800Y-52232D02*
X-227132Y-56231D01*
X-221466Y-52232D02*
X-227799Y-56231D01*
X-220800D02*
X-227799D01*
X-220800Y-50899D02*
Y-52232D01*
Y-55231D02*
Y-57231D01*
X-227799Y-50899D02*
Y-52898D01*
X-220800Y28967D02*
X-221133Y29967D01*
X-221800Y30634D01*
X-222466Y30967D01*
X-223799Y31300D01*
X-224799D01*
X-226132Y30967D01*
X-226799Y30634D01*
X-227465Y29967D01*
X-227799Y28967D01*
Y28301D01*
X-227465Y27301D01*
X-226799Y26634D01*
X-226132Y26301D01*
X-224799Y25968D01*
X-223799D01*
X-222466Y26301D01*
X-221800Y26634D01*
X-221133Y27301D01*
X-220800Y28301D01*
Y28967D01*
X-221133Y29634D01*
X-221800Y30300D01*
X-222466Y30634D01*
X-223799Y30967D01*
X-224799D01*
X-226132Y30634D01*
X-226799Y30300D01*
X-227465Y29634D01*
X-227799Y28967D01*
Y28301D02*
X-227465Y27634D01*
X-226799Y26968D01*
X-226132Y26634D01*
X-224799Y26301D01*
X-223799D01*
X-222466Y26634D01*
X-221800Y26968D01*
X-221133Y27634D01*
X-220800Y28301D01*
Y24002D02*
X-227799D01*
X-220800Y23668D02*
X-227799D01*
X-222800Y21669D02*
X-225466D01*
X-220800Y25001D02*
Y19669D01*
X-222800D01*
X-220800Y20002D01*
X-224133Y23668D02*
Y21669D01*
X-227799Y25001D02*
Y22669D01*
X-220800Y17703D02*
X-227799D01*
X-220800Y17370D02*
X-227799D01*
X-222800Y15370D02*
X-225466D01*
X-220800Y18703D02*
Y13371D01*
X-222800D01*
X-220800Y13704D01*
X-224133Y17370D02*
Y15370D01*
X-227799Y18703D02*
Y16370D01*
X158500Y-95901D02*
X157643Y-96187D01*
X157071Y-96758D01*
X156786Y-97329D01*
X156500Y-98472D01*
Y-99329D01*
X156786Y-100472D01*
X157071Y-101043D01*
X157643Y-101614D01*
X158500Y-101900D01*
X159071D01*
X159928Y-101614D01*
X160499Y-101043D01*
X160785Y-100472D01*
X161071Y-99329D01*
Y-98472D01*
X160785Y-97329D01*
X160499Y-96758D01*
X159928Y-96187D01*
X159071Y-95901D01*
X158500D01*
X157928Y-96187D01*
X157357Y-96758D01*
X157071Y-97329D01*
X156786Y-98472D01*
Y-99329D01*
X157071Y-100472D01*
X157357Y-101043D01*
X157928Y-101614D01*
X158500Y-101900D01*
X159071D02*
X159642Y-101614D01*
X160213Y-101043D01*
X160499Y-100472D01*
X160785Y-99329D01*
Y-98472D01*
X160499Y-97329D01*
X160213Y-96758D01*
X159642Y-96187D01*
X159071Y-95901D01*
X162756D02*
Y-101900D01*
X163041Y-95901D02*
Y-101900D01*
X166755Y-95901D02*
X163041Y-99615D01*
X164470Y-98472D02*
X166755Y-101900D01*
X164184Y-98472D02*
X166469Y-101900D01*
X161899Y-95901D02*
X163898D01*
X165612D02*
X167326D01*
X161899Y-101900D02*
X163898D01*
X165612D02*
X167326D01*
X185557Y-95901D02*
Y-101900D01*
X185843Y-95901D02*
Y-101900D01*
X184700Y-95901D02*
X188128D01*
X188985Y-96187D01*
X189270Y-96473D01*
X189556Y-97044D01*
Y-97615D01*
X189270Y-98186D01*
X188985Y-98472D01*
X188128Y-98758D01*
X185843D01*
X188128Y-95901D02*
X188699Y-96187D01*
X188985Y-96473D01*
X189270Y-97044D01*
Y-97615D01*
X188985Y-98186D01*
X188699Y-98472D01*
X188128Y-98758D01*
X184700Y-101900D02*
X186700D01*
X187271Y-98758D02*
X187842Y-99044D01*
X188128Y-99329D01*
X188985Y-101329D01*
X189270Y-101614D01*
X189556D01*
X189842Y-101329D01*
X187842Y-99044D02*
X188128Y-99615D01*
X188699Y-101614D01*
X188985Y-101900D01*
X189556D01*
X189842Y-101329D01*
Y-101043D01*
X190899Y-99615D02*
X194326D01*
Y-99044D01*
X194041Y-98472D01*
X193755Y-98186D01*
X193184Y-97901D01*
X192327D01*
X191470Y-98186D01*
X190899Y-98758D01*
X190613Y-99615D01*
Y-100186D01*
X190899Y-101043D01*
X191470Y-101614D01*
X192327Y-101900D01*
X192898D01*
X193755Y-101614D01*
X194326Y-101043D01*
X194041Y-99615D02*
Y-98758D01*
X193755Y-98186D01*
X192327Y-97901D02*
X191756Y-98186D01*
X191184Y-98758D01*
X190899Y-99615D01*
Y-100186D01*
X191184Y-101043D01*
X191756Y-101614D01*
X192327Y-101900D01*
X198097Y-98472D02*
X198383Y-97901D01*
Y-99044D01*
X198097Y-98472D01*
X197811Y-98186D01*
X197240Y-97901D01*
X196098D01*
X195526Y-98186D01*
X195241Y-98472D01*
Y-99044D01*
X195526Y-99329D01*
X196098Y-99615D01*
X197526Y-100186D01*
X198097Y-100472D01*
X198383Y-100757D01*
X195241Y-98758D02*
X195526Y-99044D01*
X196098Y-99329D01*
X197526Y-99900D01*
X198097Y-100186D01*
X198383Y-100472D01*
Y-101329D01*
X198097Y-101614D01*
X197526Y-101900D01*
X196383D01*
X195812Y-101614D01*
X195526Y-101329D01*
X195241Y-100757D01*
Y-101900D01*
X195526Y-101329D01*
X199640Y-99615D02*
X203067D01*
Y-99044D01*
X202782Y-98472D01*
X202496Y-98186D01*
X201925Y-97901D01*
X201068D01*
X200211Y-98186D01*
X199640Y-98758D01*
X199354Y-99615D01*
Y-100186D01*
X199640Y-101043D01*
X200211Y-101614D01*
X201068Y-101900D01*
X201639D01*
X202496Y-101614D01*
X203067Y-101043D01*
X202782Y-99615D02*
Y-98758D01*
X202496Y-98186D01*
X201068Y-97901D02*
X200497Y-98186D01*
X199925Y-98758D01*
X199640Y-99615D01*
Y-100186D01*
X199925Y-101043D01*
X200497Y-101614D01*
X201068Y-101900D01*
X205696D02*
X205410Y-101614D01*
X205124Y-100757D01*
Y-95901D01*
X204838D01*
Y-100757D01*
X205124Y-101614D01*
X205696Y-101900D01*
X206267D01*
X206838Y-101614D01*
X207124Y-101043D01*
X203982Y-97901D02*
X206267D01*
X120257Y-95901D02*
Y-101900D01*
X120543Y-95901D02*
X122257Y-101043D01*
X120257Y-95901D02*
X122257Y-101900D01*
X124256Y-95901D02*
X122257Y-101900D01*
X124256Y-95901D02*
Y-101900D01*
X124542Y-95901D02*
Y-101900D01*
X119400Y-95901D02*
X120543D01*
X124256D02*
X125399D01*
X119400Y-101900D02*
X121114D01*
X123399D02*
X125399D01*
X127798Y-97901D02*
X126941Y-98186D01*
X126370Y-98758D01*
X126084Y-99615D01*
Y-100186D01*
X126370Y-101043D01*
X126941Y-101614D01*
X127798Y-101900D01*
X128369D01*
X129227Y-101614D01*
X129798Y-101043D01*
X130083Y-100186D01*
Y-99615D01*
X129798Y-98758D01*
X129227Y-98186D01*
X128369Y-97901D01*
X127798D01*
X127227Y-98186D01*
X126656Y-98758D01*
X126370Y-99615D01*
Y-100186D01*
X126656Y-101043D01*
X127227Y-101614D01*
X127798Y-101900D01*
X128369D02*
X128941Y-101614D01*
X129512Y-101043D01*
X129798Y-100186D01*
Y-99615D01*
X129512Y-98758D01*
X128941Y-98186D01*
X128369Y-97901D01*
X134397Y-95901D02*
Y-101900D01*
X134682Y-95901D02*
Y-101900D01*
X134397Y-98758D02*
X133826Y-98186D01*
X133254Y-97901D01*
X132683D01*
X131826Y-98186D01*
X131255Y-98758D01*
X130969Y-99615D01*
Y-100186D01*
X131255Y-101043D01*
X131826Y-101614D01*
X132683Y-101900D01*
X133254D01*
X133826Y-101614D01*
X134397Y-101043D01*
X132683Y-97901D02*
X132112Y-98186D01*
X131540Y-98758D01*
X131255Y-99615D01*
Y-100186D01*
X131540Y-101043D01*
X132112Y-101614D01*
X132683Y-101900D01*
X133540Y-95901D02*
X134682D01*
X134397Y-101900D02*
X135539D01*
X136653Y-99615D02*
X140081D01*
Y-99044D01*
X139796Y-98472D01*
X139510Y-98186D01*
X138939Y-97901D01*
X138082D01*
X137225Y-98186D01*
X136653Y-98758D01*
X136368Y-99615D01*
Y-100186D01*
X136653Y-101043D01*
X137225Y-101614D01*
X138082Y-101900D01*
X138653D01*
X139510Y-101614D01*
X140081Y-101043D01*
X139796Y-99615D02*
Y-98758D01*
X139510Y-98186D01*
X138082Y-97901D02*
X137510Y-98186D01*
X136939Y-98758D01*
X136653Y-99615D01*
Y-100186D01*
X136939Y-101043D01*
X137510Y-101614D01*
X138082Y-101900D01*
X17200Y-13101D02*
X19866D01*
Y-13768D01*
X17200Y-16433D01*
Y-17100D01*
X19866D01*
X13400Y1199D02*
X16066Y-2800D01*
Y1199D02*
X13400Y-2800D01*
X300Y-12601D02*
Y-13268D01*
X1633Y-14601D01*
X2966Y-13268D01*
Y-12601D01*
X1633Y-14601D02*
Y-16600D01*
D11*
X15094Y-14900D02*
G03*
X15094Y-14900I-394J0D01*
G01*
X-5506Y-6000D02*
G03*
X-5506Y-6000I-394J0D01*
G01*
X-6753Y55443D02*
G03*
X-6753Y55443I-492J0D01*
G01*
X-76604Y11150D02*
G03*
X-76604Y11150I-492J0D01*
G01*
D12*
X159092Y83621D02*
G03*
X159092Y83621I-492J0D01*
G01*
D13*
X179901Y-46767D02*
G03*
X179911Y-46767I5J-787D01*
G01*
D14*
X-58823Y-38330D02*
G03*
X-58823Y-38330I-1181J0D01*
G01*
X95326Y-34221D02*
G03*
X95326Y-34201I1181J10D01*
G01*
X-90319Y39398D02*
G03*
X-90319Y39398I-1181J0D01*
G01*
D15*
X-133607Y-16311D02*
G03*
X-133607Y-16311I-591J0D01*
G01*
X-141481Y-13400D02*
G03*
X-141481Y-13400I-591J0D01*
G01*
X106136Y-40651D02*
G03*
X106136Y-40641I591J5D01*
G01*
X-177788Y86922D02*
G03*
X-177788Y86922I-591J0D01*
G01*
X-180809Y79389D02*
G03*
X-180809Y79389I-591J0D01*
G01*
D16*
X144735Y92942D02*
Y97470D01*
X150641Y92942D02*
Y97470D01*
X144736D02*
X150562D01*
X150650Y87312D02*
Y91446D01*
X149075Y86131D02*
X149469D01*
X150650Y87312D01*
X146319Y86131D02*
X149075D01*
X145925D02*
X146319D01*
X144744Y87312D02*
X145925Y86131D01*
X144744Y87312D02*
Y91446D01*
X139876Y-47065D02*
X144403D01*
X139876Y-41159D02*
X144403D01*
X139876Y-47064D02*
Y-41238D01*
X145899Y-41150D02*
X150034D01*
X151214Y-42725D02*
Y-42331D01*
X150034Y-41150D02*
X151214Y-42331D01*
Y-45481D02*
Y-42725D01*
Y-45875D02*
Y-45481D01*
X150034Y-47056D02*
X151214Y-45875D01*
X145899Y-47056D02*
X150034D01*
X219543Y-22947D02*
Y-18813D01*
Y-22947D02*
X220724Y-24128D01*
X221118D01*
X223874D01*
X224268D02*
X225449Y-22947D01*
X223874Y-24128D02*
X224268D01*
X225449Y-22947D02*
Y-18813D01*
X219535Y-12789D02*
X225361D01*
X225440Y-17317D02*
Y-12789D01*
X219534Y-17317D02*
Y-12789D01*
D17*
X146368Y91432D02*
X147683Y92748D01*
X147728D01*
X149043Y91432D01*
X149045D01*
X146368D02*
X149045D01*
X144597Y-44117D02*
X145913Y-45432D01*
X144597Y-44117D02*
Y-44072D01*
X145913Y-42757D01*
Y-42755D01*
Y-45432D02*
Y-42755D01*
X221167Y-18826D02*
X223844D01*
X223842D02*
X223844D01*
X222527Y-17511D02*
X223842Y-18826D01*
X222482Y-17511D02*
X222527D01*
X221167Y-18826D02*
X222482Y-17511D01*
X-193345Y107300D02*
X-188345D01*
X-192345D02*
X-189345Y108800D01*
X-192345Y107300D02*
X-189345Y105800D01*
Y107300D02*
Y108800D01*
Y105800D02*
Y107300D01*
X-192345D02*
Y108800D01*
Y105800D02*
Y107300D01*
X-193500Y-74900D02*
X-192000D01*
X-195000D02*
X-193500D01*
Y-71900D02*
X-192000D01*
X-195000D02*
X-193500D01*
Y-74900D02*
X-192000Y-71900D01*
X-195000D02*
X-193500Y-74900D01*
Y-75900D02*
Y-70900D01*
X67400Y40300D02*
X74900D01*
X67400Y50300D02*
X74900D01*
X51400D02*
X58900D01*
X51400Y40300D02*
X58900D01*
X74900D02*
Y50300D01*
X51400Y40300D02*
Y50300D01*
X-113300Y-41716D02*
Y-36716D01*
Y-37716D02*
X-111800Y-40716D01*
X-114800D02*
X-113300Y-37716D01*
Y-40716D02*
X-111800D01*
X-114800D02*
X-113300D01*
Y-37716D02*
X-111800D01*
X-114800D02*
X-113300D01*
X-37650Y-41716D02*
Y-36716D01*
X-39150Y-37716D02*
X-37650Y-40716D01*
X-36150Y-37716D01*
X-39150D02*
X-37650D01*
X-36150D01*
X-39150Y-40716D02*
X-37650D01*
X-36150D01*
X-148645Y-29400D02*
Y-27900D01*
Y-26400D01*
X-145645Y-29400D02*
Y-27900D01*
Y-26400D01*
X-148645Y-27900D02*
X-145645Y-29400D01*
X-148645Y-27900D02*
X-145645Y-26400D01*
X-149645Y-27900D02*
X-144645D01*
X-114800Y41784D02*
X-113300D01*
X-111800D01*
X-114800Y38784D02*
X-113300D01*
X-111800D01*
X-114800D02*
X-113300Y41784D01*
X-111800Y38784D01*
X-113300Y37784D02*
Y42784D01*
X-37650Y38784D02*
X-36150D01*
X-39150D02*
X-37650D01*
Y41784D02*
X-36150D01*
X-39150D02*
X-37650D01*
Y38784D02*
X-36150Y41784D01*
X-39150D02*
X-37650Y38784D01*
Y37784D02*
Y42784D01*
X-5309Y90426D02*
X32487D01*
X-5309Y117985D02*
X32487D01*
Y90426D02*
Y117985D01*
X-5309Y90426D02*
Y117985D01*
D18*
X-6102Y5102D02*
Y6102D01*
X-5102D01*
X5102D02*
X6102D01*
Y5102D02*
Y6102D01*
Y-6102D02*
Y-5102D01*
X5102Y-6102D02*
X6102D01*
X141458Y60479D02*
X142787Y60479D01*
X141458Y60479D02*
Y80764D01*
X142787Y80764D01*
X160413Y60479D02*
X161743D01*
X161743Y80764D02*
X161743Y60479D01*
X160413Y80764D02*
X161743Y80764D01*
X-151090Y-15846D02*
X-139110D01*
X-151090D02*
Y4046D01*
X-139110D01*
Y-15846D02*
Y4046D01*
X-199042Y82351D02*
X-178758D01*
X-199042Y70371D02*
Y82351D01*
Y70371D02*
X-178758D01*
Y82351D01*
X-186890Y25405D02*
Y30809D01*
X-192386Y19908D02*
X-186890Y25405D01*
X-213474Y19908D02*
X-192386D01*
X-213474D02*
Y30809D01*
X-186890Y35591D02*
Y40995D01*
X-192386Y46492D02*
X-186890Y40995D01*
X-213474Y46492D02*
X-192386D01*
X-213474Y35591D02*
Y46492D01*
X-169774Y105391D02*
Y110795D01*
X-164277Y116292D01*
X-143190D01*
Y105391D02*
Y116292D01*
X-169774Y95205D02*
Y100609D01*
Y95205D02*
X-164277Y89708D01*
X-143190D01*
Y100609D01*
X-162557Y35383D02*
Y46284D01*
X-141469D01*
X-135973Y40787D01*
Y35383D02*
Y40787D01*
X-162557Y19700D02*
Y30601D01*
Y19700D02*
X-141469D01*
X-135973Y25197D01*
Y30601D01*
X-657Y75783D02*
Y86684D01*
X20431D01*
X25927Y81187D01*
Y75783D02*
Y81187D01*
X-657Y60100D02*
Y71001D01*
Y60100D02*
X20431D01*
X25927Y65597D01*
Y71001D01*
D19*
X-213580Y-39900D02*
X-175779D01*
X-213580Y11281D02*
X-175779D01*
X-213580Y-39900D02*
Y11281D01*
X-233929Y-32313D02*
X-213580D01*
X-233929Y1187D02*
X-213680D01*
X-233929Y-32313D02*
Y1187D01*
X-175779Y-39900D02*
Y11281D01*
D20*
X80900Y51050D02*
X85400D01*
X80900Y39550D02*
X85400D01*
X80900Y49050D02*
Y51050D01*
X89900Y45050D02*
Y45550D01*
X80900Y39550D02*
Y41550D01*
X206933Y39035D02*
Y41035D01*
X197933Y35035D02*
Y35535D01*
X206933Y29535D02*
Y31535D01*
X202433Y41035D02*
X206933D01*
X202433Y29535D02*
X206933D01*
X67684Y62415D02*
X63914Y66185D01*
Y62415D02*
X67684Y66185D01*
D21*
X177200Y-24050D02*
X180200D01*
X177200Y-50250D02*
X177200Y-24050D01*
X177200Y-50250D02*
X203300D01*
Y-24050D01*
X178900D02*
X203300D01*
X-95437Y-44039D02*
Y-34393D01*
X-56067Y-44039D02*
Y-34393D01*
X-95437Y-44039D02*
X-56067D01*
X-95437Y-34393D02*
X-56067D01*
X51230Y-38157D02*
Y11055D01*
X100442Y11055D01*
Y-38157D02*
Y11055D01*
X51230Y-38157D02*
X100442Y-38157D01*
X-56067Y35461D02*
Y45107D01*
X-95437Y35461D02*
Y45107D01*
X-56067D01*
X-95437Y35461D02*
X-56067D01*
X-750Y34558D02*
X5550D01*
X-750Y54242D02*
X5550D01*
Y34558D02*
Y54242D01*
X-750Y34558D02*
Y54242D01*
X-70600Y-9736D02*
X-64300D01*
X-70600Y9949D02*
X-64300D01*
Y-9736D02*
Y9949D01*
X-70600Y-9736D02*
Y9949D01*
D22*
X-126000Y12900D02*
X-120245D01*
X-126000Y-13100D02*
Y12900D01*
X-105755Y-13100D02*
X-100000D01*
Y12900D01*
X-105755D02*
X-100000D01*
X-126000Y-13100D02*
X-120245D01*
D23*
X126723Y116138D02*
Y106298D01*
X127192Y116138D02*
Y106298D01*
X125317Y116138D02*
X128597D01*
X125317Y106298D02*
X128597D01*
X131784Y112858D02*
Y106298D01*
X132253Y112858D02*
Y106298D01*
Y111452D02*
X133190Y112389D01*
X134595Y112858D01*
X135533D01*
X136938Y112389D01*
X137407Y111452D01*
Y106298D01*
X135533Y112858D02*
X136470Y112389D01*
X136938Y111452D01*
Y106298D01*
X130378Y112858D02*
X132253D01*
X130378Y106298D02*
X133658D01*
X135533D02*
X138813D01*
X144764Y111921D02*
X145232Y112858D01*
Y110983D01*
X144764Y111921D01*
X144295Y112389D01*
X143358Y112858D01*
X141484D01*
X140547Y112389D01*
X140078Y111921D01*
Y110983D01*
X140547Y110515D01*
X141484Y110046D01*
X143827Y109109D01*
X144764Y108640D01*
X145232Y108172D01*
X140078Y111452D02*
X140547Y110983D01*
X141484Y110515D01*
X143827Y109578D01*
X144764Y109109D01*
X145232Y108640D01*
Y107235D01*
X144764Y106766D01*
X143827Y106298D01*
X141952D01*
X141015Y106766D01*
X140547Y107235D01*
X140078Y108172D01*
Y106298D01*
X140547Y107235D01*
X148231Y112858D02*
Y103017D01*
X148700Y112858D02*
Y103017D01*
Y111452D02*
X149637Y112389D01*
X150574Y112858D01*
X151512D01*
X152917Y112389D01*
X153855Y111452D01*
X154323Y110046D01*
Y109109D01*
X153855Y107703D01*
X152917Y106766D01*
X151512Y106298D01*
X150574D01*
X149637Y106766D01*
X148700Y107703D01*
X151512Y112858D02*
X152449Y112389D01*
X153386Y111452D01*
X153855Y110046D01*
Y109109D01*
X153386Y107703D01*
X152449Y106766D01*
X151512Y106298D01*
X146826Y112858D02*
X148700D01*
X146826Y103017D02*
X150106D01*
X157088Y116138D02*
X156619Y115669D01*
X157088Y115201D01*
X157556Y115669D01*
X157088Y116138D01*
Y112858D02*
Y106298D01*
X157556Y112858D02*
Y106298D01*
X155682Y112858D02*
X157556D01*
X155682Y106298D02*
X158962D01*
X162149Y112858D02*
Y106298D01*
X162617Y112858D02*
Y106298D01*
Y110046D02*
X163086Y111452D01*
X164023Y112389D01*
X164960Y112858D01*
X166366D01*
X166834Y112389D01*
Y111921D01*
X166366Y111452D01*
X165897Y111921D01*
X166366Y112389D01*
X160743Y112858D02*
X162617D01*
X160743Y106298D02*
X164023D01*
X168802Y110046D02*
X174426D01*
Y110983D01*
X173957Y111921D01*
X173488Y112389D01*
X172551Y112858D01*
X171145D01*
X169740Y112389D01*
X168802Y111452D01*
X168334Y110046D01*
Y109109D01*
X168802Y107703D01*
X169740Y106766D01*
X171145Y106298D01*
X172083D01*
X173488Y106766D01*
X174426Y107703D01*
X173957Y110046D02*
Y111452D01*
X173488Y112389D01*
X171145Y112858D02*
X170208Y112389D01*
X169271Y111452D01*
X168802Y110046D01*
Y109109D01*
X169271Y107703D01*
X170208Y106766D01*
X171145Y106298D01*
X177331Y112858D02*
Y106298D01*
X177799Y112858D02*
Y106298D01*
Y110046D02*
X178268Y111452D01*
X179205Y112389D01*
X180142Y112858D01*
X181548D01*
X182017Y112389D01*
Y111921D01*
X181548Y111452D01*
X181080Y111921D01*
X181548Y112389D01*
X175925Y112858D02*
X177799D01*
X175925Y106298D02*
X179205D01*
M02*
