G04*
G04 #@! TF.GenerationSoftware,Altium Limited,Altium Designer,20.1.11 (218)*
G04*
G04 Layer_Physical_Order=1*
G04 Layer_Color=255*
%FSLAX25Y25*%
%MOIN*%
G70*
G04*
G04 #@! TF.SameCoordinates,8D0FCBAB-09EC-4A3B-B863-23265075E7EF*
G04*
G04*
G04 #@! TF.FilePolarity,Positive*
G04*
G01*
G75*
%ADD10C,0.01000*%
%ADD24R,0.03150X0.03150*%
%ADD25R,0.03543X0.03150*%
%ADD26C,0.05906*%
%ADD27R,0.03150X0.03150*%
%ADD28R,0.07874X0.07874*%
%ADD29R,0.07874X0.07874*%
%ADD30R,0.03150X0.03543*%
%ADD31R,0.06299X0.07087*%
%ADD32O,0.02165X0.00787*%
%ADD33O,0.00787X0.02165*%
%ADD34R,0.15748X0.05906*%
%ADD35R,0.04724X0.06299*%
%ADD36R,0.06000X0.06000*%
%ADD37R,0.05000X0.03600*%
%ADD38R,0.03600X0.03600*%
%ADD39O,0.05906X0.01063*%
%ADD40O,0.01063X0.05906*%
%ADD41R,0.05906X0.10630*%
%ADD42R,0.03540X0.04720*%
%ADD43R,0.04720X0.05120*%
%ADD44O,0.02362X0.09252*%
%ADD45O,0.08024X0.02260*%
%ADD46O,0.06299X0.01181*%
%ADD47O,0.01181X0.06299*%
%ADD48O,0.02480X0.07343*%
%ADD49R,0.04724X0.01181*%
%ADD50R,0.07874X0.07087*%
%ADD51R,0.16930X0.07870*%
%ADD52R,0.04490X0.01970*%
%ADD53R,0.04490X0.01180*%
%ADD54R,0.13071X0.09740*%
%ADD55R,0.12835X0.03583*%
%ADD56R,0.02362X0.03937*%
%ADD57R,0.04724X0.07874*%
%ADD58R,0.23622X0.26378*%
%ADD59R,0.08661X0.14173*%
%ADD60R,0.08661X0.04724*%
%ADD61O,0.09843X0.02756*%
%ADD62R,0.10630X0.05906*%
%ADD112C,0.02000*%
%ADD113C,0.06000*%
%ADD114C,0.01500*%
%ADD115C,0.03000*%
%ADD116R,0.20800X0.14000*%
%ADD117R,0.11600X0.13400*%
%ADD118O,0.15748X0.11811*%
%ADD119O,0.11811X0.05906*%
%ADD120C,0.07087*%
%ADD121R,0.06299X0.06299*%
%ADD122C,0.06299*%
%ADD123O,0.07870X0.03940*%
%ADD124O,0.07090X0.03940*%
%ADD125C,0.03150*%
%ADD126C,0.02400*%
G36*
X213906Y123731D02*
X213354Y123260D01*
X212045Y121727D01*
X210991Y120007D01*
X210219Y118144D01*
X209749Y116183D01*
X209590Y114173D01*
X209749Y112163D01*
X210219Y110202D01*
X210991Y108339D01*
X212045Y106620D01*
X213354Y105087D01*
X214887Y103777D01*
X216607Y102723D01*
X218470Y101952D01*
X220431Y101481D01*
X222441Y101323D01*
X224451Y101481D01*
X226412Y101952D01*
X228275Y102723D01*
X229994Y103777D01*
X231528Y105087D01*
X231999Y105638D01*
X232468Y105465D01*
Y26803D01*
X231975Y26787D01*
X231877Y27275D01*
X231601Y27688D01*
X224053Y35236D01*
Y38371D01*
X220691D01*
Y33434D01*
X221098D01*
Y32607D01*
X220966Y32474D01*
X216299D01*
X216167Y32607D01*
Y33434D01*
X216573D01*
Y38371D01*
X216167D01*
Y43885D01*
X216195Y43913D01*
X218542D01*
Y48456D01*
X217875D01*
Y50621D01*
X217777Y51109D01*
X217501Y51522D01*
X216622Y52401D01*
X216209Y52678D01*
X215721Y52775D01*
X196807D01*
X196675Y52907D01*
Y63993D01*
X196807Y64126D01*
X201815D01*
Y63865D01*
X206581D01*
X206588Y63863D01*
X207039Y63655D01*
Y63185D01*
X207080Y63086D01*
Y62978D01*
X207260Y62545D01*
X207336Y62468D01*
X207377Y62369D01*
X207709Y62037D01*
X207808Y61996D01*
X207885Y61920D01*
X208318Y61740D01*
X208426D01*
X208525Y61699D01*
X208995D01*
X209094Y61740D01*
X209202D01*
X209635Y61920D01*
X209712Y61996D01*
X209811Y62037D01*
X210143Y62369D01*
X210184Y62468D01*
X210260Y62545D01*
X210440Y62978D01*
Y63086D01*
X210481Y63185D01*
Y63655D01*
X210440Y63754D01*
Y63862D01*
X210260Y64296D01*
X210184Y64372D01*
X210143Y64471D01*
X209811Y64803D01*
X209712Y64844D01*
X209635Y64920D01*
X209202Y65100D01*
X209094D01*
X208995Y65141D01*
X208893D01*
X208686Y65641D01*
X211001Y67956D01*
X211278Y68370D01*
X211374Y68857D01*
Y80753D01*
X211278Y81240D01*
X211001Y81654D01*
X208696Y83959D01*
X208904Y84459D01*
X208995D01*
X209094Y84500D01*
X209202D01*
X209635Y84680D01*
X209712Y84756D01*
X209811Y84797D01*
X210143Y85129D01*
X210184Y85228D01*
X210260Y85304D01*
X210440Y85738D01*
Y85846D01*
X210481Y85945D01*
Y86415D01*
X210440Y86514D01*
Y86622D01*
X210260Y87055D01*
X210184Y87132D01*
X210143Y87231D01*
X209811Y87563D01*
X209712Y87604D01*
X209635Y87680D01*
X209202Y87860D01*
X209094D01*
X208995Y87901D01*
X208525D01*
X208426Y87860D01*
X208318D01*
X207885Y87680D01*
X207808Y87604D01*
X207709Y87563D01*
X207377Y87231D01*
X207336Y87132D01*
X207260Y87055D01*
X207080Y86622D01*
Y86514D01*
X207039Y86415D01*
Y85945D01*
X206588Y85737D01*
X206581Y85735D01*
X201815D01*
Y80810D01*
X201805D01*
Y78680D01*
X195060D01*
X194670Y78602D01*
X194339Y78381D01*
X172379Y56421D01*
X172158Y56090D01*
X172080Y55700D01*
Y48098D01*
X170828D01*
Y43948D01*
X175372D01*
Y45004D01*
X176181D01*
X178457Y42727D01*
X178787Y42506D01*
X179092Y42446D01*
Y38437D01*
X180380D01*
Y3600D01*
X180413Y3436D01*
X179952Y3190D01*
X174220Y8922D01*
Y38437D01*
X175372D01*
Y42587D01*
X170828D01*
Y38437D01*
X172180D01*
Y8500D01*
X172258Y8110D01*
X172479Y7779D01*
X184360Y-4102D01*
Y-16840D01*
X183860Y-17107D01*
X183812Y-17075D01*
X183410Y-16995D01*
X183007Y-17075D01*
X182666Y-17303D01*
X182438Y-17645D01*
X182358Y-18047D01*
Y-22889D01*
X182390Y-23051D01*
Y-28512D01*
X181928Y-28704D01*
X178876Y-25652D01*
X178545Y-25431D01*
X178155Y-25353D01*
X176151D01*
X175989Y-25321D01*
X171147D01*
X170744Y-25401D01*
X170403Y-25629D01*
X170175Y-25970D01*
X170095Y-26373D01*
X170175Y-26775D01*
X170403Y-27116D01*
X170403Y-27598D01*
X170175Y-27939D01*
X170095Y-28342D01*
X170175Y-28744D01*
X170403Y-29085D01*
X170403Y-29566D01*
X170175Y-29907D01*
X170095Y-30310D01*
X170175Y-30712D01*
X170403Y-31053D01*
X170403Y-31535D01*
X170175Y-31876D01*
X170095Y-32279D01*
X170175Y-32681D01*
X170403Y-33022D01*
X170403Y-33503D01*
X170175Y-33844D01*
X170095Y-34247D01*
X170175Y-34649D01*
X170403Y-34990D01*
X170403Y-35472D01*
X170175Y-35813D01*
X170095Y-36216D01*
X170175Y-36618D01*
X170403Y-36959D01*
X170403Y-37440D01*
X170175Y-37781D01*
X170095Y-38184D01*
X170175Y-38586D01*
X170206Y-38633D01*
X169939Y-39133D01*
X164556D01*
Y-38114D01*
X160013D01*
Y-42264D01*
X164556D01*
Y-41172D01*
X169938D01*
X170205Y-41672D01*
X170175Y-41718D01*
X170095Y-42121D01*
X170175Y-42523D01*
X170403Y-42864D01*
X170403Y-43346D01*
X170175Y-43687D01*
X170095Y-44090D01*
X170175Y-44492D01*
X170403Y-44833D01*
X170745Y-45061D01*
X171147Y-45141D01*
X175989D01*
X176392Y-45061D01*
X176733Y-44833D01*
X176961Y-44492D01*
X177041Y-44090D01*
X176961Y-43687D01*
X176733Y-43346D01*
X176733Y-42864D01*
X176961Y-42523D01*
X177041Y-42121D01*
X176961Y-41718D01*
X176733Y-41377D01*
X176733Y-40896D01*
X176961Y-40555D01*
X177041Y-40153D01*
X176961Y-39750D01*
X176733Y-39409D01*
X176733Y-38927D01*
X176961Y-38586D01*
X177041Y-38184D01*
X176961Y-37781D01*
X176930Y-37735D01*
X177197Y-37235D01*
X178030D01*
X178404Y-37796D01*
X179090Y-38254D01*
X179900Y-38415D01*
X180710Y-38254D01*
X181396Y-37796D01*
X181854Y-37110D01*
X182016Y-36300D01*
X181854Y-35490D01*
X181396Y-34804D01*
X180710Y-34346D01*
X179900Y-34185D01*
X179090Y-34346D01*
X178404Y-34804D01*
X178142Y-35196D01*
X177197D01*
X176929Y-34696D01*
X176961Y-34649D01*
X177041Y-34247D01*
X176961Y-33844D01*
X176733Y-33503D01*
X176733Y-33022D01*
X176961Y-32681D01*
X177041Y-32279D01*
X176961Y-31876D01*
X176733Y-31535D01*
X176733Y-31053D01*
X176961Y-30712D01*
X177041Y-30310D01*
X176961Y-29907D01*
X176733Y-29566D01*
X176733Y-29085D01*
X176961Y-28744D01*
X177041Y-28342D01*
X176961Y-27939D01*
X176930Y-27892D01*
X177197Y-27392D01*
X177733D01*
X200461Y-50120D01*
X200394Y-50760D01*
X200383Y-50767D01*
X199901D01*
X199560Y-50539D01*
X199158Y-50459D01*
X198755Y-50539D01*
X198414Y-50767D01*
X197934D01*
X197593Y-50539D01*
X197190Y-50459D01*
X196788Y-50539D01*
X196728Y-50579D01*
X196228Y-50311D01*
Y-47467D01*
X196151Y-47077D01*
X195930Y-46746D01*
X193762Y-44579D01*
X193432Y-44358D01*
X193041Y-44280D01*
X190959D01*
X190568Y-44358D01*
X190238Y-44579D01*
X187810Y-47007D01*
X176151D01*
X175989Y-46975D01*
X171147D01*
X170745Y-47055D01*
X170403Y-47283D01*
X170312Y-47420D01*
X167951Y-49780D01*
X164000D01*
X163610Y-49858D01*
X163279Y-50079D01*
X161585Y-51773D01*
X161364Y-52104D01*
X161363Y-52106D01*
X160821Y-52270D01*
X159120Y-50569D01*
Y-37722D01*
X167921Y-28921D01*
X168142Y-28590D01*
X168220Y-28200D01*
Y-7422D01*
X172322Y-3320D01*
X175086D01*
X175404Y-3796D01*
X175880Y-4114D01*
Y-6228D01*
X174725D01*
Y-10772D01*
X175780D01*
Y-11937D01*
X175858Y-12327D01*
X176079Y-12658D01*
X178453Y-15032D01*
Y-17886D01*
X178421Y-18047D01*
Y-22889D01*
X178501Y-23292D01*
X178729Y-23633D01*
X179070Y-23861D01*
X179473Y-23941D01*
X179875Y-23861D01*
X180217Y-23633D01*
X180445Y-23292D01*
X180525Y-22889D01*
Y-18047D01*
X180492Y-17886D01*
Y-14610D01*
X180415Y-14220D01*
X180194Y-13889D01*
X177820Y-11515D01*
Y-10772D01*
X178875D01*
Y-6228D01*
X177920D01*
Y-4114D01*
X178396Y-3796D01*
X178854Y-3110D01*
X179016Y-2300D01*
X178854Y-1491D01*
X178396Y-804D01*
X177709Y-346D01*
X176900Y-184D01*
X176091Y-346D01*
X175404Y-804D01*
X175086Y-1280D01*
X171900D01*
X171510Y-1358D01*
X171179Y-1579D01*
X166479Y-6279D01*
X166258Y-6610D01*
X166180Y-7000D01*
Y-27778D01*
X157379Y-36579D01*
X157158Y-36910D01*
X157080Y-37300D01*
Y-42684D01*
X156580Y-42835D01*
X156391Y-42551D01*
X155704Y-42093D01*
X154895Y-41932D01*
X154085Y-42093D01*
X153399Y-42551D01*
X153081Y-43028D01*
X150572D01*
Y-41998D01*
X146423D01*
Y-46147D01*
X150572D01*
Y-45067D01*
X153081D01*
X153399Y-45543D01*
X154085Y-46002D01*
X154895Y-46163D01*
X155704Y-46002D01*
X156391Y-45543D01*
X156580Y-45259D01*
X157080Y-45411D01*
Y-48479D01*
X156580Y-48631D01*
X156496Y-48504D01*
X155809Y-48046D01*
X155000Y-47885D01*
X154191Y-48046D01*
X153504Y-48504D01*
X153186Y-48980D01*
X150631D01*
X150241Y-49058D01*
X149910Y-49279D01*
X149161Y-50028D01*
X146256D01*
Y-53838D01*
X145794Y-54029D01*
X144895Y-53130D01*
Y-50028D01*
X140745D01*
Y-54572D01*
X143453D01*
X144737Y-55855D01*
Y-57828D01*
X140745D01*
Y-60930D01*
X140295Y-61380D01*
X132289D01*
X132048Y-60880D01*
X132380Y-60384D01*
X132541Y-59575D01*
X132380Y-58765D01*
X132215Y-58520D01*
X132483Y-58020D01*
X133186D01*
X133504Y-58496D01*
X134190Y-58954D01*
X135000Y-59115D01*
X135810Y-58954D01*
X136496Y-58496D01*
X136954Y-57810D01*
X137116Y-57000D01*
X136954Y-56190D01*
X136496Y-55504D01*
X135810Y-55046D01*
X135000Y-54885D01*
X134190Y-55046D01*
X133504Y-55504D01*
X133186Y-55980D01*
X122440D01*
X122219Y-55572D01*
Y-51028D01*
X118070D01*
Y-52680D01*
X100871D01*
X100724Y-52275D01*
X100706Y-52180D01*
X101154Y-51510D01*
X101315Y-50700D01*
X101154Y-49890D01*
X100696Y-49204D01*
X100443Y-49035D01*
Y-46323D01*
X100485Y-46260D01*
X100570Y-45834D01*
Y-45783D01*
X118070D01*
Y-47034D01*
X122219D01*
Y-42491D01*
X121164D01*
Y-38497D01*
X122219D01*
Y-33954D01*
X120171D01*
Y-32551D01*
X120093Y-32161D01*
X119872Y-31830D01*
X113719Y-25677D01*
X113776Y-25392D01*
X113614Y-24583D01*
X113156Y-23896D01*
X112820Y-23672D01*
Y-18400D01*
X112742Y-18010D01*
X112521Y-17679D01*
X111881Y-17039D01*
X112088Y-16539D01*
X115016D01*
X115175Y-16699D01*
Y-19406D01*
X117588D01*
X117588Y-23088D01*
X122600Y-28100D01*
X143900Y-28100D01*
X148065Y-23935D01*
X148065Y-5465D01*
X143700Y-1100D01*
X123000D01*
X117589Y-6511D01*
X117588Y-9746D01*
X115175D01*
Y-12453D01*
X115097Y-12531D01*
X109718D01*
X109510Y-12032D01*
X127170Y5628D01*
X129847D01*
Y10172D01*
X127140D01*
X124417Y12894D01*
Y14579D01*
X124397Y14677D01*
Y17925D01*
X120248D01*
Y13382D01*
X122378D01*
Y12472D01*
X122455Y12082D01*
X122676Y11751D01*
X125698Y8730D01*
Y7040D01*
X109592Y-9066D01*
X108998Y-8960D01*
X108905Y-8431D01*
X109146Y-8071D01*
X109231Y-7645D01*
X109146Y-7220D01*
X108905Y-6859D01*
X109000Y-6321D01*
X109146Y-6103D01*
X109230Y-5677D01*
X109146Y-5252D01*
X109000Y-5033D01*
X108905Y-4494D01*
X109146Y-4134D01*
X109231Y-3708D01*
X109146Y-3283D01*
X109117Y-3240D01*
X109385Y-2740D01*
X110600D01*
X110704Y-2896D01*
X111390Y-3354D01*
X112200Y-3515D01*
X113010Y-3354D01*
X113696Y-2896D01*
X114154Y-2210D01*
X114315Y-1400D01*
X114154Y-590D01*
X113696Y96D01*
X113220Y414D01*
Y3000D01*
X113142Y3390D01*
X112921Y3721D01*
X112028Y4614D01*
X112235Y5114D01*
X116914D01*
X117304Y5192D01*
X117635Y5413D01*
X118221Y5999D01*
X118442Y6329D01*
X118520Y6720D01*
Y17678D01*
X121022Y20180D01*
X150500D01*
X150890Y20258D01*
X151221Y20479D01*
X160055Y29313D01*
X160276Y29643D01*
X160353Y30034D01*
Y39048D01*
X161605D01*
Y43197D01*
X157062D01*
Y39048D01*
X158314D01*
Y30456D01*
X150078Y22220D01*
X145815D01*
X145624Y22682D01*
X152280Y29338D01*
X152501Y29669D01*
X152578Y30059D01*
Y39048D01*
X153831D01*
Y43197D01*
X149287D01*
Y39048D01*
X150539D01*
Y30481D01*
X143778Y23720D01*
X139215D01*
X139023Y24182D01*
X144505Y29663D01*
X144726Y29994D01*
X144804Y30384D01*
Y39048D01*
X146056D01*
Y43197D01*
X141513D01*
Y39048D01*
X142764D01*
Y30806D01*
X137178Y25220D01*
X119357D01*
X118967Y25142D01*
X118636Y24921D01*
X113679Y19964D01*
X113458Y19633D01*
X113380Y19243D01*
Y11090D01*
X108556D01*
X108544Y11098D01*
X108119Y11183D01*
X103778D01*
X103587Y11645D01*
X112521Y20579D01*
X112742Y20910D01*
X112820Y21300D01*
Y37778D01*
X113320Y37930D01*
X113604Y37504D01*
X114290Y37046D01*
X115100Y36885D01*
X115910Y37046D01*
X116596Y37504D01*
X116653Y37590D01*
X120187D01*
Y36966D01*
X124336D01*
Y41510D01*
X123791D01*
Y44741D01*
X124336D01*
Y49285D01*
X123791D01*
Y68628D01*
X132130Y76968D01*
X142832D01*
Y74847D01*
X148557D01*
Y74847D01*
X148738D01*
Y74847D01*
X154462D01*
Y74847D01*
X154643Y74847D01*
Y74847D01*
X160368D01*
Y76974D01*
X161063D01*
X165171Y72866D01*
Y34746D01*
X164746Y34110D01*
X164585Y33300D01*
X164746Y32490D01*
X165204Y31804D01*
X165891Y31346D01*
X166700Y31185D01*
X167509Y31346D01*
X168196Y31804D01*
X168654Y32490D01*
X168816Y33300D01*
X168654Y34110D01*
X168229Y34746D01*
Y73500D01*
X168113Y74085D01*
X167781Y74581D01*
X162778Y79585D01*
X162282Y79917D01*
X161696Y80033D01*
X160368D01*
Y82147D01*
X154643D01*
Y82147D01*
X154462Y82147D01*
Y82147D01*
X148738D01*
Y82147D01*
X148557D01*
Y82147D01*
X142832D01*
Y80026D01*
X131497D01*
X130912Y79910D01*
X130415Y79578D01*
X121180Y70343D01*
X120849Y69847D01*
X120732Y69262D01*
Y49285D01*
X120187D01*
Y44741D01*
X120732D01*
Y41510D01*
X120187D01*
Y40648D01*
X116367D01*
X115910Y40954D01*
X115100Y41115D01*
X114290Y40954D01*
X113604Y40496D01*
X113320Y40070D01*
X112820Y40222D01*
Y82078D01*
X128472Y97730D01*
X168336D01*
X168654Y97254D01*
X169341Y96796D01*
X170150Y96635D01*
X170959Y96796D01*
X171646Y97254D01*
X171809Y97499D01*
X172301Y97349D01*
X172344Y96986D01*
X170862Y95504D01*
X170300Y95615D01*
X169491Y95454D01*
X168804Y94996D01*
X168346Y94310D01*
X168184Y93500D01*
X168346Y92690D01*
X168804Y92004D01*
X169491Y91546D01*
X170300Y91385D01*
X171109Y91546D01*
X171796Y92004D01*
X172254Y92690D01*
X172415Y93500D01*
X172304Y94062D01*
X174121Y95879D01*
X174342Y96210D01*
X174420Y96600D01*
Y99914D01*
X174342Y100304D01*
X174121Y100635D01*
X173056Y101700D01*
X173263Y102200D01*
X192500D01*
Y124200D01*
X213733D01*
X213906Y123731D01*
D02*
G37*
G36*
X15157Y21421D02*
X15256Y21405D01*
X15499Y21188D01*
X15611Y20593D01*
X11838Y16820D01*
X10114D01*
X9796Y17296D01*
X9110Y17754D01*
X8300Y17916D01*
X7490Y17754D01*
X6804Y17296D01*
X6346Y16610D01*
X6185Y15800D01*
X6296Y15238D01*
X3216Y12158D01*
X2995Y11827D01*
X2917Y11437D01*
Y8149D01*
X2417Y7790D01*
X2362Y7801D01*
X2014Y7732D01*
X1718Y7534D01*
X1432D01*
X1136Y7732D01*
X787Y7801D01*
X439Y7732D01*
X143Y7534D01*
X-143D01*
X-439Y7732D01*
X-787Y7801D01*
X-1136Y7732D01*
X-1214Y7680D01*
X-1575Y7575D01*
X-1936Y7680D01*
X-2014Y7732D01*
X-2362Y7801D01*
X-2711Y7732D01*
X-3007Y7534D01*
X-3204Y7238D01*
X-3273Y6890D01*
Y5512D01*
X-3204Y5163D01*
X-3007Y4868D01*
X-2711Y4670D01*
X-2362Y4601D01*
X-2014Y4670D01*
X-1936Y4722D01*
X-1575Y4826D01*
X-1214Y4722D01*
X-1136Y4670D01*
X-787Y4601D01*
X-439Y4670D01*
X-143Y4868D01*
X143D01*
X439Y4670D01*
X787Y4601D01*
X1136Y4670D01*
X1432Y4868D01*
X1718D01*
X2014Y4670D01*
X2362Y4601D01*
X2711Y4670D01*
X2789Y4722D01*
X3150Y4826D01*
X3511Y4722D01*
X3588Y4670D01*
X3937Y4601D01*
X4286Y4670D01*
X4357Y4718D01*
X4718Y4357D01*
X4670Y4286D01*
X4601Y3937D01*
X4670Y3588D01*
X4722Y3511D01*
X4826Y3150D01*
X4722Y2789D01*
X4670Y2711D01*
X4601Y2362D01*
X4670Y2014D01*
X4868Y1718D01*
Y1432D01*
X4670Y1136D01*
X4601Y787D01*
X4670Y439D01*
X4868Y143D01*
Y-143D01*
X4670Y-439D01*
X4601Y-787D01*
X4670Y-1136D01*
X4722Y-1214D01*
X4826Y-1575D01*
X4722Y-1936D01*
X4670Y-2014D01*
X4601Y-2362D01*
X4670Y-2711D01*
X4868Y-3007D01*
Y-3293D01*
X4670Y-3588D01*
X4601Y-3937D01*
X4670Y-4286D01*
X4718Y-4357D01*
X4357Y-4718D01*
X4286Y-4670D01*
X3937Y-4601D01*
X3588Y-4670D01*
X3511Y-4722D01*
X3150Y-4826D01*
X2789Y-4722D01*
X2711Y-4670D01*
X2362Y-4601D01*
X2014Y-4670D01*
X1936Y-4722D01*
X1575Y-4826D01*
X1214Y-4722D01*
X1136Y-4670D01*
X787Y-4601D01*
X439Y-4670D01*
X143Y-4868D01*
X-143D01*
X-439Y-4670D01*
X-787Y-4601D01*
X-1136Y-4670D01*
X-1214Y-4722D01*
X-1575Y-4826D01*
X-1936Y-4722D01*
X-2014Y-4670D01*
X-2362Y-4601D01*
X-2711Y-4670D01*
X-3007Y-4868D01*
X-3293D01*
X-3588Y-4670D01*
X-3937Y-4601D01*
X-4286Y-4670D01*
X-4357Y-4718D01*
X-4718Y-4357D01*
X-4670Y-4286D01*
X-4601Y-3937D01*
X-4670Y-3588D01*
X-4868Y-3293D01*
Y-3007D01*
X-4670Y-2711D01*
X-4601Y-2362D01*
X-4670Y-2014D01*
X-4722Y-1936D01*
X-4826Y-1575D01*
X-4722Y-1214D01*
X-4670Y-1136D01*
X-4601Y-787D01*
X-4670Y-439D01*
X-4868Y-143D01*
Y143D01*
X-4670Y439D01*
X-4601Y787D01*
X-4670Y1136D01*
X-4868Y1432D01*
X-5163Y1629D01*
X-5512Y1699D01*
X-6890D01*
X-7238Y1629D01*
X-7534Y1432D01*
X-7732Y1136D01*
X-7801Y787D01*
X-7790Y732D01*
X-8149Y232D01*
X-12090D01*
X-16480Y4622D01*
Y6386D01*
X-16004Y6704D01*
X-15546Y7390D01*
X-15384Y8200D01*
X-15546Y9010D01*
X-16004Y9696D01*
X-16691Y10154D01*
X-17500Y10315D01*
X-18309Y10154D01*
X-18996Y9696D01*
X-19454Y9010D01*
X-19615Y8200D01*
X-19454Y7390D01*
X-18996Y6704D01*
X-18520Y6386D01*
Y4200D01*
X-18442Y3810D01*
X-18221Y3479D01*
X-16935Y2193D01*
X-17181Y1732D01*
X-17600Y1815D01*
X-18409Y1654D01*
X-19096Y1196D01*
X-19554Y510D01*
X-19715Y-300D01*
X-19554Y-1110D01*
X-19096Y-1796D01*
X-18409Y-2254D01*
X-17600Y-2415D01*
X-16851Y-2266D01*
X-16035Y-3083D01*
X-15704Y-3304D01*
X-15314Y-3382D01*
X-14777D01*
X-14586Y-3844D01*
X-16938Y-6196D01*
X-17500Y-6085D01*
X-18309Y-6246D01*
X-18996Y-6704D01*
X-19454Y-7390D01*
X-19615Y-8200D01*
X-19454Y-9010D01*
X-18996Y-9696D01*
X-18309Y-10154D01*
X-17500Y-10315D01*
X-16691Y-10154D01*
X-16004Y-9696D01*
X-15546Y-9010D01*
X-15384Y-8200D01*
X-15496Y-7638D01*
X-12815Y-4957D01*
X-6201D01*
X-5811Y-4879D01*
X-5765Y-4848D01*
X-5512D01*
X-5163Y-4779D01*
X-5091Y-4731D01*
X-4731Y-5091D01*
X-4779Y-5163D01*
X-4848Y-5512D01*
Y-5765D01*
X-4879Y-5811D01*
X-4957Y-6201D01*
Y-10515D01*
X-8338Y-13896D01*
X-8900Y-13784D01*
X-9710Y-13946D01*
X-10396Y-14404D01*
X-10854Y-15090D01*
X-11015Y-15900D01*
X-10854Y-16710D01*
X-10396Y-17396D01*
X-9710Y-17854D01*
X-8900Y-18015D01*
X-8090Y-17854D01*
X-7404Y-17396D01*
X-7086Y-16920D01*
X8800D01*
X9190Y-16842D01*
X9521Y-16621D01*
X12821Y-13321D01*
X13042Y-12990D01*
X13120Y-12600D01*
Y-4893D01*
X13581Y-4702D01*
X16296Y-7417D01*
X16184Y-7979D01*
X16346Y-8788D01*
X16804Y-9475D01*
X17491Y-9933D01*
X18300Y-10094D01*
X19109Y-9933D01*
X19796Y-9475D01*
X20254Y-8788D01*
X20415Y-7979D01*
X20254Y-7169D01*
X19796Y-6483D01*
X19109Y-6024D01*
X18300Y-5863D01*
X17738Y-5975D01*
X12457Y-694D01*
X12649Y-232D01*
X15954D01*
X16010Y-300D01*
X16171Y-1110D01*
X16629Y-1796D01*
X17315Y-2254D01*
X18125Y-2415D01*
X18935Y-2254D01*
X19621Y-1796D01*
X20079Y-1110D01*
X20241Y-300D01*
X20079Y510D01*
X19621Y1196D01*
X18935Y1654D01*
X18125Y1815D01*
X17315Y1654D01*
X17137Y1535D01*
X16846Y1729D01*
X16456Y1807D01*
X13827D01*
X13636Y2269D01*
X17263Y5896D01*
X17825Y5785D01*
X18634Y5946D01*
X19321Y6404D01*
X19779Y7090D01*
X19940Y7900D01*
X19779Y8710D01*
X19321Y9396D01*
X18634Y9854D01*
X18108Y9959D01*
X17944Y10502D01*
X20959Y13518D01*
X21421Y13326D01*
Y0D01*
Y-15157D01*
X21425Y-15175D01*
X15175Y-21425D01*
X15157Y-21421D01*
X-15157D01*
X-15175Y-21425D01*
X-21425Y-15175D01*
X-21421Y-15157D01*
Y0D01*
Y15157D01*
X-21405Y15256D01*
X-21079Y15621D01*
X-15621Y21079D01*
X-15256Y21405D01*
X-15157Y21421D01*
X15157D01*
D02*
G37*
G36*
X116284Y102200D02*
X166651D01*
X166858Y101700D01*
X166478Y101320D01*
X127400D01*
X127010Y101242D01*
X126679Y101021D01*
X109579Y83921D01*
X109358Y83590D01*
X109280Y83200D01*
Y22344D01*
X101031Y14095D01*
X100570Y14286D01*
Y18428D01*
X107421Y25279D01*
X107642Y25610D01*
X107720Y26000D01*
Y91100D01*
X107642Y91490D01*
X107421Y91821D01*
X102321Y96921D01*
X101990Y97142D01*
X101600Y97220D01*
X90122D01*
X85025Y102317D01*
X85161Y102645D01*
X85300Y103700D01*
X85161Y104755D01*
X84753Y105739D01*
X84105Y106584D01*
X83261Y107232D01*
X82277Y107639D01*
X81221Y107778D01*
X80166Y107639D01*
X79182Y107232D01*
X78338Y106584D01*
X77690Y105739D01*
X77282Y104755D01*
X77143Y103700D01*
X77282Y102645D01*
X77690Y101661D01*
X78338Y100816D01*
X79182Y100168D01*
X80166Y99761D01*
X81221Y99622D01*
X82277Y99761D01*
X83261Y100168D01*
X83843Y100615D01*
X88979Y95479D01*
X89310Y95258D01*
X89700Y95180D01*
X101178D01*
X105680Y90678D01*
Y26422D01*
X98987Y19729D01*
X98671Y19518D01*
X98430Y19157D01*
X98346Y18732D01*
Y13614D01*
X98430Y13188D01*
X98671Y12828D01*
X98903Y12673D01*
X99049Y12112D01*
X72083Y-14854D01*
X71529Y-14700D01*
X71492Y-14550D01*
X94274Y8232D01*
X94495Y8563D01*
X94572Y8953D01*
Y12335D01*
X95072Y12602D01*
X95095Y12587D01*
X95521Y12502D01*
X95946Y12587D01*
X96307Y12828D01*
X96548Y13188D01*
X96633Y13614D01*
Y18732D01*
X96548Y19158D01*
X96540Y19169D01*
Y24314D01*
X97772D01*
Y28464D01*
X94670D01*
X83213Y39921D01*
X82882Y40142D01*
X82492Y40220D01*
X40129D01*
Y71400D01*
X40013Y71985D01*
X39681Y72481D01*
X37689Y74473D01*
X37193Y74805D01*
X36608Y74921D01*
X31725D01*
X31534Y75383D01*
X31962Y75811D01*
X32293Y76307D01*
X32409Y76892D01*
Y77880D01*
X32596Y78004D01*
X33054Y78690D01*
X33215Y79500D01*
X33054Y80310D01*
X32596Y80996D01*
X31910Y81454D01*
X31100Y81615D01*
X30290Y81454D01*
X29604Y80996D01*
X29146Y80310D01*
X28985Y79500D01*
X29146Y78690D01*
X29351Y78383D01*
Y77526D01*
X27823Y75999D01*
X27323Y76206D01*
Y96619D01*
X30624D01*
Y105401D01*
X35928D01*
Y104856D01*
X40472D01*
Y109005D01*
X35928D01*
Y108460D01*
X30624D01*
Y111792D01*
X20963D01*
Y105735D01*
X6215D01*
Y107068D01*
X-3447D01*
Y101343D01*
X6215D01*
Y102676D01*
X20963D01*
Y96619D01*
X24264D01*
Y75683D01*
X15836D01*
Y71101D01*
X23374D01*
Y56275D01*
X22828D01*
Y55329D01*
X17139D01*
X16553Y55213D01*
X16057Y54881D01*
X14990Y53815D01*
X8502D01*
X7770Y53669D01*
X7148Y53254D01*
X6733Y52633D01*
X6588Y51900D01*
X6733Y51167D01*
X7148Y50546D01*
X7770Y50131D01*
X8502Y49985D01*
X15589D01*
X16322Y50131D01*
X16943Y50546D01*
X17358Y51167D01*
X17504Y51900D01*
X17852Y52271D01*
X22828D01*
Y52125D01*
X27372D01*
Y56275D01*
X26432D01*
Y71101D01*
X29671D01*
Y71863D01*
X35974D01*
X37071Y70767D01*
Y39200D01*
Y35833D01*
X35289Y34051D01*
X33507Y32269D01*
X-24760D01*
X-25345Y32153D01*
X-25841Y31822D01*
X-33081Y24581D01*
X-36434Y21229D01*
X-52900D01*
X-53485Y21113D01*
X-53981Y20781D01*
X-58481Y16281D01*
X-58813Y15785D01*
X-58929Y15200D01*
Y9521D01*
X-61348D01*
X-62080Y9375D01*
X-62702Y8960D01*
X-63117Y8339D01*
X-63262Y7606D01*
X-63117Y6874D01*
X-62702Y6252D01*
X-62080Y5837D01*
X-61348Y5692D01*
X-54261D01*
X-53528Y5837D01*
X-52907Y6252D01*
X-52492Y6874D01*
X-52346Y7606D01*
X-52492Y8339D01*
X-52907Y8960D01*
X-53528Y9375D01*
X-54261Y9521D01*
X-55871D01*
Y14567D01*
X-52267Y18171D01*
X-35800D01*
X-35215Y18287D01*
X-34719Y18619D01*
X-33736Y19601D01*
X-33274Y19409D01*
Y-18300D01*
X-33178Y-18788D01*
X-32901Y-19201D01*
X-19151Y-32951D01*
X-18738Y-33228D01*
X-18250Y-33325D01*
X16022D01*
X18725Y-36028D01*
Y-45600D01*
X18823Y-46088D01*
X19099Y-46501D01*
X36625Y-64028D01*
Y-77172D01*
X32549Y-81248D01*
X11293D01*
X10805Y-81345D01*
X10392Y-81621D01*
X9369Y-82644D01*
X6628D01*
Y-84269D01*
X6457D01*
X5969Y-84366D01*
X5555Y-84642D01*
X2067Y-88130D01*
X825D01*
X702Y-88155D01*
X-898D01*
X-1022Y-88130D01*
X-1145Y-88155D01*
X-2272D01*
Y-89282D01*
X-2296Y-89405D01*
X-2272Y-89528D01*
Y-92304D01*
X2272D01*
Y-90679D01*
X2595D01*
X3083Y-90582D01*
X3496Y-90306D01*
X6984Y-86818D01*
X8075D01*
X8198Y-86794D01*
X11172D01*
Y-84446D01*
X11821Y-83797D01*
X15487D01*
Y-87550D01*
Y-91487D01*
X21211D01*
Y-91416D01*
X24267D01*
X24459Y-91878D01*
X21673Y-94664D01*
X21211Y-94472D01*
Y-93243D01*
X15487D01*
Y-93314D01*
X9920D01*
Y-92304D01*
X11172D01*
Y-88155D01*
X6628D01*
Y-92304D01*
X7880D01*
Y-93748D01*
X7958Y-94138D01*
X8179Y-94469D01*
X8765Y-95055D01*
X9096Y-95276D01*
X9486Y-95353D01*
X15487D01*
Y-95424D01*
X20259D01*
X20451Y-95886D01*
X-4544Y-120880D01*
X-48289D01*
X-48459Y-120380D01*
X-48097Y-120103D01*
X-47512Y-119341D01*
X-47144Y-118453D01*
X-47019Y-117500D01*
X-47144Y-116547D01*
X-47512Y-115659D01*
X-48097Y-114897D01*
X-48859Y-114312D01*
X-48921Y-114287D01*
X-49056Y-114151D01*
Y-105439D01*
X-49056Y-105439D01*
X-49086Y-105209D01*
Y-88046D01*
X-49056Y-87817D01*
X-49056Y-87817D01*
Y-85649D01*
X-39132Y-75725D01*
X-38571Y-74993D01*
X-38218Y-74142D01*
X-38098Y-73228D01*
X-38098Y-73228D01*
Y-69404D01*
X-38218Y-68490D01*
X-38571Y-67639D01*
X-38766Y-67385D01*
Y-64967D01*
X-42328D01*
X-51148Y-56147D01*
X-51644Y-55815D01*
X-52229Y-55699D01*
X-57396D01*
X-57493Y-55199D01*
X-57040Y-54896D01*
X-56668Y-54340D01*
X-56643Y-54214D01*
X-52311D01*
X-44943Y-61581D01*
X-44447Y-61913D01*
X-43862Y-62029D01*
X-37886D01*
Y-62772D01*
X-33736D01*
Y-58228D01*
X-37886D01*
Y-58971D01*
X-43229D01*
X-50596Y-51603D01*
X-51092Y-51271D01*
X-51678Y-51155D01*
X-56538D01*
Y-46795D01*
X-56668Y-46139D01*
X-57040Y-45583D01*
X-57596Y-45211D01*
X-58252Y-45081D01*
X-58771Y-45184D01*
X-59035Y-44740D01*
X-57826Y-43531D01*
X-51665D01*
Y-44076D01*
X-47122D01*
Y-41615D01*
X-46660Y-41424D01*
X-42087Y-45997D01*
Y-52708D01*
X-33213D01*
Y-43834D01*
X-39924D01*
X-47122Y-36636D01*
Y-34416D01*
X-51665D01*
Y-34961D01*
X-56447D01*
X-56722Y-34686D01*
Y-32374D01*
X-56668Y-32293D01*
X-56538Y-31637D01*
Y-24747D01*
X-56668Y-24091D01*
X-56705Y-24036D01*
X-56469Y-23595D01*
X-54655D01*
X-47009Y-31242D01*
X-46513Y-31574D01*
X-45928Y-31690D01*
X-42087D01*
Y-34598D01*
X-33213D01*
Y-25724D01*
X-36371D01*
Y-23246D01*
X-35946Y-22610D01*
X-35785Y-21800D01*
X-35946Y-20990D01*
X-36404Y-20304D01*
X-37090Y-19846D01*
X-37900Y-19684D01*
X-38710Y-19846D01*
X-39396Y-20304D01*
X-39854Y-20990D01*
X-40015Y-21800D01*
X-39854Y-22610D01*
X-39429Y-23246D01*
Y-25724D01*
X-42087D01*
Y-28631D01*
X-45294D01*
X-52940Y-20985D01*
X-53437Y-20653D01*
X-54022Y-20537D01*
X-60473D01*
X-61058Y-20653D01*
X-61554Y-20985D01*
X-63690Y-23120D01*
X-63908Y-23164D01*
X-64464Y-23535D01*
X-64836Y-24091D01*
X-64966Y-24747D01*
Y-31637D01*
X-64836Y-32293D01*
X-64781Y-32374D01*
Y-36667D01*
X-67860Y-39745D01*
X-74603D01*
X-77629Y-36719D01*
X-78126Y-36387D01*
X-78711Y-36271D01*
X-86792D01*
Y-32478D01*
X-86668Y-32293D01*
X-86538Y-31637D01*
Y-24747D01*
X-86668Y-24091D01*
X-87040Y-23535D01*
X-87596Y-23164D01*
X-88252Y-23033D01*
X-88908Y-23164D01*
X-89464Y-23535D01*
X-89836Y-24091D01*
X-89966Y-24747D01*
Y-31637D01*
X-89851Y-32217D01*
Y-36274D01*
X-89896Y-36304D01*
X-90020Y-36491D01*
X-92324D01*
X-92909Y-36607D01*
X-93405Y-36939D01*
X-99040Y-42573D01*
X-99502Y-42382D01*
Y-39927D01*
X-104045D01*
Y-40521D01*
X-105328D01*
X-105891Y-40146D01*
X-106700Y-39985D01*
X-107510Y-40146D01*
X-108196Y-40604D01*
X-108654Y-41290D01*
X-108816Y-42100D01*
X-108654Y-42910D01*
X-108196Y-43596D01*
X-107510Y-44054D01*
X-106700Y-44215D01*
X-105891Y-44054D01*
X-105204Y-43596D01*
X-105194Y-43580D01*
X-104045D01*
Y-44076D01*
X-101196D01*
X-101005Y-44539D01*
X-103208Y-46742D01*
X-108863D01*
Y-43834D01*
X-117737D01*
Y-52708D01*
X-108863D01*
Y-49800D01*
X-103316D01*
X-103125Y-50262D01*
X-106998Y-54135D01*
X-116769D01*
X-117354Y-54251D01*
X-117850Y-54583D01*
X-121495Y-58228D01*
X-123482D01*
Y-62772D01*
X-119333D01*
Y-60391D01*
X-118433Y-59492D01*
X-117971Y-59683D01*
Y-62772D01*
X-116732D01*
X-116403Y-63265D01*
X-112538Y-67130D01*
Y-73841D01*
X-106814D01*
Y-64967D01*
X-110375D01*
X-113792Y-61550D01*
Y-61075D01*
X-113822Y-60927D01*
Y-58228D01*
X-116516D01*
X-116708Y-57766D01*
X-116135Y-57194D01*
X-106364D01*
X-105779Y-57077D01*
X-105283Y-56746D01*
X-104100Y-55563D01*
X-103712Y-55882D01*
X-103910Y-56178D01*
X-104071Y-56988D01*
X-103910Y-57797D01*
X-103451Y-58483D01*
X-102765Y-58942D01*
X-101955Y-59103D01*
X-101146Y-58942D01*
X-100460Y-58483D01*
X-100001Y-57797D01*
X-99852Y-57047D01*
X-97111Y-54306D01*
X-94842D01*
X-94836Y-54340D01*
X-94464Y-54896D01*
X-93908Y-55268D01*
X-93252Y-55398D01*
X-92596Y-55268D01*
X-92040Y-54896D01*
X-91668Y-54340D01*
X-91538Y-53684D01*
Y-46795D01*
X-91668Y-46139D01*
X-92040Y-45583D01*
X-92596Y-45211D01*
X-92886Y-45153D01*
X-93042Y-44681D01*
X-92752Y-44329D01*
X-77880D01*
X-77469Y-44740D01*
X-77733Y-45184D01*
X-78252Y-45081D01*
X-78908Y-45211D01*
X-79464Y-45583D01*
X-79835Y-46139D01*
X-79966Y-46795D01*
Y-53684D01*
X-79835Y-54340D01*
X-79781Y-54421D01*
Y-56248D01*
X-79665Y-56833D01*
X-79333Y-57329D01*
X-76904Y-59759D01*
X-76754Y-60510D01*
X-76296Y-61196D01*
X-75610Y-61654D01*
X-74800Y-61815D01*
X-73990Y-61654D01*
X-73304Y-61196D01*
X-72846Y-60510D01*
X-72685Y-59700D01*
X-72846Y-58890D01*
X-73304Y-58204D01*
X-73990Y-57746D01*
X-74741Y-57596D01*
X-76723Y-55615D01*
Y-54421D01*
X-76668Y-54340D01*
X-76538Y-53684D01*
Y-46795D01*
X-76641Y-46275D01*
X-76197Y-46012D01*
X-74966Y-47243D01*
Y-53684D01*
X-74835Y-54340D01*
X-74464Y-54896D01*
X-73908Y-55268D01*
X-73252Y-55398D01*
X-72596Y-55268D01*
X-72040Y-54896D01*
X-71668Y-54340D01*
X-71538Y-53684D01*
Y-46795D01*
X-71668Y-46139D01*
X-72040Y-45583D01*
X-72596Y-45211D01*
X-72692Y-45192D01*
X-74617Y-43266D01*
X-74426Y-42804D01*
X-67226D01*
X-66641Y-42688D01*
X-66145Y-42356D01*
X-62170Y-38382D01*
X-61839Y-37886D01*
X-61722Y-37300D01*
Y-32374D01*
X-61668Y-32293D01*
X-61538Y-31637D01*
Y-25294D01*
X-60348Y-24104D01*
X-59887Y-24350D01*
X-59966Y-24747D01*
Y-31637D01*
X-59835Y-32293D01*
X-59781Y-32374D01*
Y-35319D01*
X-59665Y-35904D01*
X-59333Y-36401D01*
X-58162Y-37572D01*
X-57666Y-37904D01*
X-57080Y-38020D01*
X-51665D01*
Y-38566D01*
X-49518D01*
X-48619Y-39465D01*
X-48810Y-39927D01*
X-51665D01*
Y-40472D01*
X-58459D01*
X-59044Y-40589D01*
X-59541Y-40920D01*
X-63812Y-45192D01*
X-63908Y-45211D01*
X-64464Y-45583D01*
X-64836Y-46139D01*
X-64966Y-46795D01*
Y-53684D01*
X-64836Y-54340D01*
X-64464Y-54896D01*
X-63908Y-55268D01*
X-63812Y-55287D01*
X-60789Y-58310D01*
X-60638Y-58411D01*
Y-62772D01*
X-58651D01*
X-55234Y-66189D01*
Y-68042D01*
X-55205Y-68189D01*
Y-73841D01*
X-49480D01*
Y-64967D01*
X-52294D01*
X-52623Y-64474D01*
X-56488Y-60609D01*
Y-58758D01*
X-52863D01*
X-44491Y-67130D01*
Y-67385D01*
X-44686Y-67639D01*
X-45038Y-68490D01*
X-45158Y-69404D01*
Y-71766D01*
X-55082Y-81690D01*
X-55643Y-82421D01*
X-55858Y-82939D01*
X-73708D01*
Y-110317D01*
X-56116D01*
Y-115614D01*
X-55996Y-116527D01*
X-55643Y-117379D01*
X-55082Y-118110D01*
X-53913Y-119279D01*
X-53888Y-119341D01*
X-53303Y-120103D01*
X-52941Y-120380D01*
X-53111Y-120880D01*
X-58131D01*
X-58301Y-120380D01*
X-57939Y-120103D01*
X-57354Y-119341D01*
X-56987Y-118453D01*
X-56861Y-117500D01*
X-56987Y-116547D01*
X-57354Y-115659D01*
X-57939Y-114897D01*
X-58702Y-114312D01*
X-59590Y-113944D01*
X-60542Y-113819D01*
X-61495Y-113944D01*
X-62383Y-114312D01*
X-63145Y-114897D01*
X-63730Y-115659D01*
X-64098Y-116547D01*
X-64223Y-117500D01*
X-64098Y-118453D01*
X-63730Y-119341D01*
X-63145Y-120103D01*
X-62784Y-120380D01*
X-62953Y-120880D01*
X-65563D01*
X-67169Y-119274D01*
X-66829Y-118453D01*
X-66704Y-117500D01*
X-66829Y-116547D01*
X-67197Y-115659D01*
X-67782Y-114897D01*
X-68544Y-114312D01*
X-69432Y-113944D01*
X-70385Y-113819D01*
X-71338Y-113944D01*
X-72225Y-114312D01*
X-72988Y-114897D01*
X-73573Y-115659D01*
X-73941Y-116547D01*
X-74066Y-117500D01*
X-73941Y-118453D01*
X-73573Y-119341D01*
X-72988Y-120103D01*
X-72225Y-120688D01*
X-71338Y-121056D01*
X-70385Y-121181D01*
X-69432Y-121056D01*
X-68611Y-120716D01*
X-67409Y-121918D01*
X-67600Y-122380D01*
X-73905D01*
X-77012Y-119274D01*
X-76672Y-118453D01*
X-76547Y-117500D01*
X-76672Y-116547D01*
X-77040Y-115659D01*
X-77625Y-114897D01*
X-78387Y-114312D01*
X-79275Y-113944D01*
X-80228Y-113819D01*
X-81180Y-113944D01*
X-82068Y-114312D01*
X-82831Y-114897D01*
X-83416Y-115659D01*
X-83783Y-116547D01*
X-83909Y-117500D01*
X-83783Y-118453D01*
X-83416Y-119341D01*
X-82831Y-120103D01*
X-82068Y-120688D01*
X-81180Y-121056D01*
X-80228Y-121181D01*
X-79275Y-121056D01*
X-78454Y-120716D01*
X-75469Y-123700D01*
X-75677Y-124200D01*
X-213733Y-124200D01*
X-213906Y-123731D01*
X-213354Y-123260D01*
X-212045Y-121727D01*
X-210991Y-120007D01*
X-210219Y-118144D01*
X-209749Y-116183D01*
X-209590Y-114173D01*
X-209749Y-112163D01*
X-210219Y-110202D01*
X-210991Y-108339D01*
X-212045Y-106620D01*
X-213354Y-105087D01*
X-214887Y-103777D01*
X-216607Y-102723D01*
X-218470Y-101952D01*
X-220431Y-101481D01*
X-222441Y-101323D01*
X-224451Y-101481D01*
X-226412Y-101952D01*
X-228275Y-102723D01*
X-229994Y-103777D01*
X-231528Y-105087D01*
X-231999Y-105638D01*
X-232468Y-105465D01*
Y-49921D01*
X-232412Y-49073D01*
X-231977Y-46885D01*
X-231260Y-44772D01*
X-230273Y-42771D01*
X-229033Y-40916D01*
X-227562Y-39238D01*
X-225884Y-37767D01*
X-224029Y-36527D01*
X-222028Y-35540D01*
X-219915Y-34823D01*
X-217726Y-34388D01*
X-215500Y-34242D01*
X-213802Y-34353D01*
X-213802Y-34353D01*
X-213623Y-34357D01*
X-213335Y-34299D01*
X-212940Y-34221D01*
X-212361Y-33834D01*
X-211975Y-33255D01*
X-211839Y-32572D01*
X-211842Y-32554D01*
X-211831Y-32500D01*
Y1100D01*
X-211842Y1154D01*
X-211839Y1172D01*
X-211975Y1855D01*
X-212361Y2434D01*
X-212940Y2821D01*
X-213335Y2899D01*
X-213623Y2957D01*
X-213802Y2953D01*
X-213802Y2953D01*
X-215500Y2842D01*
X-217726Y2988D01*
X-219915Y3423D01*
X-222028Y4140D01*
X-224029Y5127D01*
X-225884Y6367D01*
X-227562Y7838D01*
X-229033Y9516D01*
X-230273Y11371D01*
X-231260Y13372D01*
X-231977Y15485D01*
X-232412Y17673D01*
X-232491Y18881D01*
X-232468Y19000D01*
Y105465D01*
X-231999Y105638D01*
X-231528Y105087D01*
X-229994Y103777D01*
X-228275Y102723D01*
X-226412Y101952D01*
X-224451Y101481D01*
X-222441Y101323D01*
X-220431Y101481D01*
X-218470Y101952D01*
X-216607Y102723D01*
X-214887Y103777D01*
X-213354Y105087D01*
X-212045Y106620D01*
X-210991Y108339D01*
X-210219Y110202D01*
X-209749Y112163D01*
X-209590Y114173D01*
X-209749Y116183D01*
X-210219Y118144D01*
X-210991Y120007D01*
X-212045Y121727D01*
X-213354Y123260D01*
X-213906Y123731D01*
X-213732Y124200D01*
X116284Y124200D01*
Y102200D01*
D02*
G37*
G36*
X17551Y19149D02*
X20073Y16627D01*
X20016Y16194D01*
X19999Y16169D01*
X19921Y15779D01*
Y15363D01*
X9515Y4957D01*
X6201D01*
X5811Y4879D01*
X5765Y4848D01*
X5512D01*
X5163Y4779D01*
X5091Y4731D01*
X4731Y5091D01*
X4779Y5163D01*
X4848Y5512D01*
Y5765D01*
X4879Y5811D01*
X4957Y6201D01*
Y11015D01*
X7738Y13796D01*
X8300Y13684D01*
X9110Y13846D01*
X9796Y14304D01*
X10114Y14780D01*
X12260D01*
X12650Y14858D01*
X12981Y15079D01*
X17051Y19149D01*
X17551D01*
D02*
G37*
G36*
X11080Y-4322D02*
Y-12178D01*
X8378Y-14880D01*
X-5785D01*
X-5977Y-14419D01*
X-3216Y-11658D01*
X-2995Y-11327D01*
X-2917Y-10937D01*
Y-8149D01*
X-2417Y-7790D01*
X-2362Y-7801D01*
X-2014Y-7732D01*
X-1936Y-7680D01*
X-1575Y-7575D01*
X-1214Y-7680D01*
X-1136Y-7732D01*
X-787Y-7801D01*
X-439Y-7732D01*
X-143Y-7534D01*
X143D01*
X439Y-7732D01*
X787Y-7801D01*
X1136Y-7732D01*
X1214Y-7680D01*
X1575Y-7575D01*
X1936Y-7680D01*
X2014Y-7732D01*
X2362Y-7801D01*
X2711Y-7732D01*
X2789Y-7680D01*
X3150Y-7575D01*
X3511Y-7680D01*
X3588Y-7732D01*
X3937Y-7801D01*
X4286Y-7732D01*
X4581Y-7534D01*
X4779Y-7238D01*
X4848Y-6890D01*
Y-5512D01*
X4779Y-5163D01*
X4731Y-5091D01*
X5091Y-4731D01*
X5163Y-4779D01*
X5512Y-4848D01*
X6890D01*
X7238Y-4779D01*
X7534Y-4581D01*
X7732Y-4286D01*
X7801Y-3937D01*
X7790Y-3882D01*
X8149Y-3382D01*
X10140D01*
X11080Y-4322D01*
D02*
G37*
G36*
X215325Y50093D02*
Y48456D01*
X214392D01*
Y45715D01*
X213991Y45314D01*
X213715Y44900D01*
X213618Y44413D01*
Y38371D01*
X213211D01*
Y33434D01*
X213618D01*
Y32079D01*
X213715Y31591D01*
X213991Y31177D01*
X214870Y30299D01*
X215283Y30022D01*
X215771Y29926D01*
X221494D01*
X221981Y30022D01*
X222395Y30299D01*
X223273Y31177D01*
X223484Y31493D01*
X224033Y31652D01*
X229426Y26259D01*
Y-50972D01*
X225368Y-55029D01*
X224901Y-54836D01*
X224000Y-54717D01*
X223099Y-54836D01*
X222259Y-55184D01*
X221537Y-55738D01*
X220984Y-56459D01*
X220636Y-57299D01*
X220517Y-58200D01*
X220636Y-59101D01*
X220984Y-59941D01*
X221537Y-60663D01*
X222259Y-61216D01*
X223099Y-61564D01*
X224000Y-61682D01*
X224901Y-61564D01*
X225741Y-61216D01*
X226463Y-60663D01*
X227016Y-59941D01*
X227364Y-59101D01*
X227483Y-58200D01*
X227364Y-57299D01*
X227170Y-56832D01*
X231601Y-52401D01*
X231877Y-51988D01*
X231975Y-51500D01*
X232468Y-51516D01*
Y-105465D01*
X231999Y-105638D01*
X231528Y-105087D01*
X229994Y-103777D01*
X228275Y-102723D01*
X226412Y-101952D01*
X224451Y-101481D01*
X222441Y-101323D01*
X220431Y-101481D01*
X218470Y-101952D01*
X216607Y-102723D01*
X214887Y-103777D01*
X213354Y-105087D01*
X212045Y-106620D01*
X210991Y-108339D01*
X210219Y-110202D01*
X209749Y-112163D01*
X209590Y-114173D01*
X209749Y-116183D01*
X210219Y-118144D01*
X210991Y-120007D01*
X212045Y-121727D01*
X213354Y-123260D01*
X213924Y-123747D01*
X213751Y-124216D01*
X208791D01*
X208689Y-124216D01*
X208191Y-124211D01*
X207706Y-124197D01*
X207188Y-124129D01*
X206432Y-123816D01*
X205783Y-123318D01*
X205284Y-122668D01*
X204971Y-121912D01*
X204881Y-121228D01*
X204870Y-121229D01*
X204749Y-120619D01*
X204362Y-120040D01*
X203783Y-119653D01*
X203100Y-119517D01*
X199662D01*
X199632Y-119030D01*
X200139Y-118820D01*
X200215Y-118744D01*
X200314Y-118703D01*
X200703Y-118314D01*
X200744Y-118215D01*
X200820Y-118139D01*
X201030Y-117632D01*
Y-117524D01*
X201071Y-117424D01*
Y-116876D01*
X201030Y-116776D01*
Y-116668D01*
X200820Y-116161D01*
X200744Y-116085D01*
X200703Y-115986D01*
X200314Y-115597D01*
X200215Y-115556D01*
X200139Y-115480D01*
X199632Y-115270D01*
X199524D01*
X199425Y-115229D01*
X198875D01*
X198776Y-115270D01*
X198668D01*
X198161Y-115480D01*
X198085Y-115556D01*
X197986Y-115597D01*
X197597Y-115986D01*
X197556Y-116085D01*
X197480Y-116161D01*
X197270Y-116668D01*
Y-116776D01*
X197229Y-116876D01*
Y-117424D01*
X197270Y-117524D01*
Y-117632D01*
X197480Y-118139D01*
X197556Y-118215D01*
X197597Y-118314D01*
X197986Y-118703D01*
X198085Y-118744D01*
X198161Y-118820D01*
X198668Y-119030D01*
X198638Y-119517D01*
X192962D01*
X192932Y-119030D01*
X193439Y-118820D01*
X193515Y-118744D01*
X193614Y-118703D01*
X194003Y-118314D01*
X194044Y-118215D01*
X194120Y-118139D01*
X194330Y-117632D01*
Y-117524D01*
X194371Y-117424D01*
Y-116876D01*
X194330Y-116776D01*
Y-116668D01*
X194120Y-116161D01*
X194044Y-116085D01*
X194003Y-115986D01*
X193614Y-115597D01*
X193515Y-115556D01*
X193439Y-115480D01*
X192932Y-115270D01*
X192824D01*
X192725Y-115229D01*
X192175D01*
X192076Y-115270D01*
X191968D01*
X191461Y-115480D01*
X191385Y-115556D01*
X191286Y-115597D01*
X190897Y-115986D01*
X190856Y-116085D01*
X190780Y-116161D01*
X190570Y-116668D01*
Y-116776D01*
X190529Y-116876D01*
Y-117424D01*
X190570Y-117524D01*
Y-117632D01*
X190780Y-118139D01*
X190856Y-118215D01*
X190897Y-118314D01*
X191286Y-118703D01*
X191385Y-118744D01*
X191461Y-118820D01*
X191968Y-119030D01*
X191938Y-119517D01*
X188500D01*
X187817Y-119653D01*
X187238Y-120040D01*
X186852Y-120619D01*
X186730Y-121229D01*
X186719Y-121228D01*
X186629Y-121912D01*
X186316Y-122668D01*
X185818Y-123318D01*
X185168Y-123816D01*
X184412Y-124129D01*
X183894Y-124197D01*
X183410Y-124211D01*
X182911Y-124216D01*
X182808Y-124216D01*
X175292D01*
X175189Y-124216D01*
X174691Y-124211D01*
X174206Y-124197D01*
X173688Y-124129D01*
X172932Y-123816D01*
X172283Y-123318D01*
X171784Y-122668D01*
X171471Y-121912D01*
X171381Y-121228D01*
X171370Y-121229D01*
X171248Y-120619D01*
X170862Y-120040D01*
X170283Y-119653D01*
X169600Y-119517D01*
X166162D01*
X166132Y-119030D01*
X166639Y-118820D01*
X166715Y-118744D01*
X166814Y-118703D01*
X167203Y-118314D01*
X167244Y-118215D01*
X167320Y-118139D01*
X167530Y-117632D01*
Y-117524D01*
X167571Y-117424D01*
Y-116876D01*
X167530Y-116776D01*
Y-116668D01*
X167320Y-116161D01*
X167244Y-116085D01*
X167203Y-115986D01*
X166814Y-115597D01*
X166715Y-115556D01*
X166639Y-115480D01*
X166132Y-115270D01*
X166024D01*
X165925Y-115229D01*
X165375D01*
X165276Y-115270D01*
X165168D01*
X164661Y-115480D01*
X164585Y-115556D01*
X164486Y-115597D01*
X164097Y-115986D01*
X164056Y-116085D01*
X163980Y-116161D01*
X163770Y-116668D01*
Y-116776D01*
X163729Y-116876D01*
Y-117424D01*
X163770Y-117524D01*
Y-117632D01*
X163980Y-118139D01*
X164056Y-118215D01*
X164097Y-118314D01*
X164486Y-118703D01*
X164585Y-118744D01*
X164661Y-118820D01*
X165168Y-119030D01*
X165138Y-119517D01*
X159462D01*
X159432Y-119030D01*
X159939Y-118820D01*
X160015Y-118744D01*
X160114Y-118703D01*
X160503Y-118314D01*
X160544Y-118215D01*
X160620Y-118139D01*
X160830Y-117632D01*
Y-117524D01*
X160871Y-117424D01*
Y-116876D01*
X160830Y-116776D01*
Y-116668D01*
X160620Y-116161D01*
X160544Y-116085D01*
X160503Y-115986D01*
X160114Y-115597D01*
X160015Y-115556D01*
X159939Y-115480D01*
X159432Y-115270D01*
X159324D01*
X159224Y-115229D01*
X158676D01*
X158576Y-115270D01*
X158468D01*
X157961Y-115480D01*
X157885Y-115556D01*
X157786Y-115597D01*
X157397Y-115986D01*
X157356Y-116085D01*
X157280Y-116161D01*
X157070Y-116668D01*
Y-116776D01*
X157029Y-116876D01*
Y-117424D01*
X157070Y-117524D01*
Y-117632D01*
X157280Y-118139D01*
X157356Y-118215D01*
X157397Y-118314D01*
X157786Y-118703D01*
X157885Y-118744D01*
X157961Y-118820D01*
X158468Y-119030D01*
X158438Y-119517D01*
X155000D01*
X154317Y-119653D01*
X153738Y-120040D01*
X153351Y-120619D01*
X153230Y-121229D01*
X153219Y-121228D01*
X153129Y-121912D01*
X152816Y-122668D01*
X152318Y-123318D01*
X151668Y-123816D01*
X150912Y-124129D01*
X150393Y-124197D01*
X149909Y-124211D01*
X149411Y-124216D01*
X149309Y-124216D01*
X141791D01*
X141689Y-124216D01*
X141191Y-124211D01*
X140707Y-124197D01*
X140188Y-124129D01*
X139432Y-123816D01*
X138783Y-123318D01*
X138284Y-122668D01*
X137971Y-121912D01*
X137881Y-121228D01*
X137870Y-121229D01*
X137749Y-120619D01*
X137362Y-120040D01*
X136783Y-119653D01*
X136100Y-119517D01*
X132662D01*
X132632Y-119030D01*
X133139Y-118820D01*
X133215Y-118744D01*
X133314Y-118703D01*
X133703Y-118314D01*
X133744Y-118215D01*
X133820Y-118139D01*
X134030Y-117632D01*
Y-117524D01*
X134071Y-117424D01*
Y-116876D01*
X134030Y-116776D01*
Y-116668D01*
X133820Y-116161D01*
X133744Y-116085D01*
X133703Y-115986D01*
X133314Y-115597D01*
X133215Y-115556D01*
X133139Y-115480D01*
X132632Y-115270D01*
X132524D01*
X132424Y-115229D01*
X131876D01*
X131776Y-115270D01*
X131668D01*
X131161Y-115480D01*
X131085Y-115556D01*
X130986Y-115597D01*
X130597Y-115986D01*
X130556Y-116085D01*
X130480Y-116161D01*
X130270Y-116668D01*
Y-116776D01*
X130229Y-116876D01*
Y-117424D01*
X130270Y-117524D01*
Y-117632D01*
X130480Y-118139D01*
X130556Y-118215D01*
X130597Y-118314D01*
X130986Y-118703D01*
X131085Y-118744D01*
X131161Y-118820D01*
X131668Y-119030D01*
X131638Y-119517D01*
X125962D01*
X125932Y-119030D01*
X126439Y-118820D01*
X126515Y-118744D01*
X126614Y-118703D01*
X127003Y-118314D01*
X127044Y-118215D01*
X127120Y-118139D01*
X127330Y-117632D01*
Y-117524D01*
X127371Y-117424D01*
Y-116876D01*
X127330Y-116776D01*
Y-116668D01*
X127120Y-116161D01*
X127044Y-116085D01*
X127003Y-115986D01*
X126614Y-115597D01*
X126515Y-115556D01*
X126439Y-115480D01*
X125932Y-115270D01*
X125824D01*
X125724Y-115229D01*
X125175D01*
X125076Y-115270D01*
X124968D01*
X124461Y-115480D01*
X124385Y-115556D01*
X124286Y-115597D01*
X123897Y-115986D01*
X123856Y-116085D01*
X123780Y-116161D01*
X123570Y-116668D01*
Y-116776D01*
X123529Y-116876D01*
Y-117424D01*
X123570Y-117524D01*
Y-117632D01*
X123780Y-118139D01*
X123856Y-118215D01*
X123897Y-118314D01*
X124286Y-118703D01*
X124385Y-118744D01*
X124461Y-118820D01*
X124968Y-119030D01*
X124938Y-119517D01*
X121500D01*
X120817Y-119653D01*
X120238Y-120040D01*
X119852Y-120619D01*
X119730Y-121229D01*
X119719Y-121228D01*
X119629Y-121912D01*
X119316Y-122668D01*
X118817Y-123318D01*
X118168Y-123816D01*
X117412Y-124129D01*
X116893Y-124197D01*
X116410Y-124211D01*
X116284Y-124200D01*
X115917Y-124200D01*
X-2151Y-124200D01*
X-2358Y-123700D01*
X26926Y-94416D01*
X36103D01*
X36494Y-94339D01*
X36824Y-94118D01*
X48521Y-82421D01*
X48742Y-82090D01*
X48820Y-81700D01*
Y-59500D01*
X48742Y-59110D01*
X48521Y-58779D01*
X35715Y-45973D01*
X35961Y-45512D01*
X36000Y-45520D01*
X40986D01*
X41304Y-45996D01*
X41990Y-46454D01*
X42800Y-46615D01*
X43610Y-46454D01*
X44296Y-45996D01*
X44754Y-45310D01*
X44915Y-44500D01*
X44754Y-43690D01*
X44296Y-43004D01*
X43610Y-42546D01*
X42800Y-42385D01*
X41990Y-42546D01*
X41304Y-43004D01*
X40986Y-43480D01*
X36422D01*
X35528Y-42586D01*
X35681Y-42086D01*
X36672D01*
Y-41031D01*
X40715D01*
X41105Y-40953D01*
X41436Y-40732D01*
X43883Y-38285D01*
X48671D01*
X49096Y-38200D01*
X49122Y-38183D01*
X49479Y-38529D01*
X49258Y-38860D01*
X49180Y-39250D01*
Y-54900D01*
X49258Y-55290D01*
X49479Y-55621D01*
X58479Y-64621D01*
X58810Y-64842D01*
X59200Y-64920D01*
X143914D01*
X144304Y-64842D01*
X144635Y-64621D01*
X146477Y-62779D01*
X146698Y-62448D01*
X146713Y-62372D01*
X150406D01*
Y-59270D01*
X152745Y-56931D01*
X153561D01*
X153604Y-56996D01*
X154290Y-57454D01*
X155100Y-57615D01*
X155910Y-57454D01*
X156596Y-56996D01*
X157054Y-56310D01*
X157215Y-55500D01*
X157054Y-54690D01*
X156596Y-54004D01*
X155910Y-53546D01*
X155100Y-53385D01*
X154290Y-53546D01*
X153604Y-54004D01*
X153146Y-54690D01*
X153105Y-54892D01*
X152323D01*
X151933Y-54969D01*
X151602Y-55190D01*
X148964Y-57828D01*
X146776D01*
Y-55433D01*
X146704Y-55072D01*
X146703Y-55034D01*
X146985Y-54572D01*
X150406D01*
Y-51667D01*
X151053Y-51020D01*
X153186D01*
X153504Y-51496D01*
X154191Y-51954D01*
X155000Y-52115D01*
X155809Y-51954D01*
X156496Y-51496D01*
X156631Y-51294D01*
X157158Y-51381D01*
X157379Y-51712D01*
X160034Y-54367D01*
Y-57075D01*
X164577D01*
Y-54951D01*
X178421D01*
Y-56353D01*
X178501Y-56755D01*
X178729Y-57097D01*
X179070Y-57325D01*
X179473Y-57405D01*
X179875Y-57325D01*
X180217Y-57097D01*
X180699D01*
X181040Y-57325D01*
X181442Y-57405D01*
X181845Y-57325D01*
X182186Y-57097D01*
X182666D01*
X183007Y-57325D01*
X183410Y-57405D01*
X183812Y-57325D01*
X184153Y-57097D01*
X184636D01*
X184977Y-57325D01*
X185379Y-57405D01*
X185782Y-57325D01*
X185827Y-57294D01*
X186327Y-57561D01*
Y-61361D01*
X186274Y-61414D01*
X183566D01*
Y-63384D01*
X177916D01*
X175952Y-65348D01*
X175952Y-89652D01*
X178084Y-91784D01*
X197416Y-91784D01*
X199652Y-89548D01*
X199652Y-65484D01*
X197552Y-63384D01*
X193227D01*
Y-61414D01*
X190519D01*
X190336Y-61231D01*
Y-57571D01*
X190430Y-57509D01*
X190449Y-57502D01*
X190836Y-57462D01*
X191001Y-57708D01*
X193907Y-60615D01*
X194238Y-60836D01*
X194628Y-60913D01*
X202271D01*
X204580Y-63222D01*
Y-65708D01*
X204658Y-66098D01*
X204879Y-66429D01*
X208728Y-70278D01*
Y-72986D01*
X209959D01*
Y-76714D01*
X208707D01*
Y-80864D01*
X213250D01*
Y-76714D01*
X211998D01*
Y-72986D01*
X213272D01*
Y-68836D01*
X210170D01*
X209271Y-67937D01*
X209462Y-67475D01*
X213272D01*
Y-63325D01*
X210170D01*
X205215Y-58369D01*
X205440Y-57888D01*
X206109Y-57754D01*
X206796Y-57296D01*
X207254Y-56610D01*
X207416Y-55800D01*
X207254Y-54990D01*
X206806Y-54320D01*
X206824Y-54225D01*
X206971Y-53820D01*
X208178D01*
X218184Y-63826D01*
Y-70433D01*
X218262Y-70823D01*
X218483Y-71154D01*
X222042Y-74713D01*
Y-75350D01*
X221537Y-75738D01*
X220984Y-76459D01*
X220636Y-77299D01*
X220517Y-78200D01*
X220636Y-79101D01*
X220984Y-79941D01*
X221537Y-80663D01*
X222259Y-81216D01*
X223099Y-81564D01*
X224000Y-81682D01*
X224901Y-81564D01*
X225741Y-81216D01*
X226463Y-80663D01*
X227016Y-79941D01*
X227364Y-79101D01*
X227483Y-78200D01*
X227364Y-77299D01*
X227016Y-76459D01*
X226463Y-75738D01*
X225741Y-75184D01*
X224901Y-74836D01*
X224081Y-74728D01*
Y-74290D01*
X224003Y-73900D01*
X223782Y-73570D01*
X221401Y-71188D01*
X221731Y-70811D01*
X222259Y-71216D01*
X223099Y-71564D01*
X224000Y-71683D01*
X224901Y-71564D01*
X225741Y-71216D01*
X226463Y-70662D01*
X227016Y-69941D01*
X227364Y-69101D01*
X227483Y-68200D01*
X227364Y-67299D01*
X227016Y-66459D01*
X226463Y-65737D01*
X225741Y-65184D01*
X224901Y-64836D01*
X224000Y-64718D01*
X223099Y-64836D01*
X222377Y-65135D01*
X221723Y-64481D01*
Y-62782D01*
X221646Y-62392D01*
X221425Y-62061D01*
X211474Y-52111D01*
X211793Y-51722D01*
X211990Y-51854D01*
X212800Y-52015D01*
X213610Y-51854D01*
X214296Y-51396D01*
X214754Y-50710D01*
X214915Y-49900D01*
X214754Y-49090D01*
X214296Y-48404D01*
X213610Y-47946D01*
X212800Y-47785D01*
X212238Y-47896D01*
X211648Y-47306D01*
X211317Y-47085D01*
X210927Y-47008D01*
X210661D01*
X210393Y-46508D01*
X210425Y-46461D01*
X210505Y-46058D01*
X210425Y-45656D01*
X210197Y-45315D01*
X210197Y-44834D01*
X210425Y-44493D01*
X210505Y-44090D01*
X210425Y-43688D01*
X210197Y-43347D01*
X210197Y-42865D01*
X210425Y-42524D01*
X210505Y-42121D01*
X210425Y-41719D01*
X210197Y-41378D01*
X210197Y-40897D01*
X210425Y-40556D01*
X210505Y-40153D01*
X210440Y-39825D01*
X210722Y-39364D01*
X211113Y-39324D01*
X216744Y-44954D01*
Y-48056D01*
X220894D01*
Y-43513D01*
X218186D01*
X212137Y-37463D01*
X211806Y-37242D01*
X211416Y-37165D01*
X210662D01*
X210395Y-36665D01*
X210425Y-36619D01*
X210505Y-36216D01*
X210425Y-35814D01*
X210394Y-35767D01*
X210661Y-35267D01*
X211416D01*
X214655Y-38505D01*
X214985Y-38726D01*
X215376Y-38804D01*
X216744D01*
Y-40056D01*
X220516D01*
X220518Y-40065D01*
X220739Y-40396D01*
X222305Y-41962D01*
X222403Y-42027D01*
X223310Y-42935D01*
Y-43513D01*
X222255D01*
Y-48056D01*
X226405D01*
Y-43513D01*
X225350D01*
Y-42513D01*
X225272Y-42122D01*
X225051Y-41792D01*
X223780Y-40520D01*
X223682Y-40455D01*
X222480Y-39253D01*
Y-32622D01*
X222402Y-32232D01*
X222181Y-31901D01*
X220894Y-30614D01*
Y-27513D01*
X216744D01*
Y-28765D01*
X215735D01*
X212623Y-25652D01*
X212292Y-25431D01*
X211902Y-25354D01*
X209614D01*
X209453Y-25322D01*
X208051D01*
Y-16194D01*
X213970Y-10275D01*
X217072D01*
Y-7567D01*
X219321Y-5318D01*
X219542Y-4987D01*
X219620Y-4597D01*
Y2387D01*
X221345Y4113D01*
X224053D01*
Y8656D01*
X223449D01*
Y12813D01*
X224053D01*
Y17356D01*
X223449D01*
Y23197D01*
X224053D01*
Y28134D01*
X220690D01*
Y24639D01*
X218283Y22232D01*
X206934D01*
Y26256D01*
X205879D01*
Y32935D01*
X209433D01*
Y37535D01*
X205579D01*
Y43913D01*
X206634D01*
Y48456D01*
X202484D01*
Y43913D01*
X203539D01*
Y37535D01*
X203433D01*
Y32935D01*
X203839D01*
Y26256D01*
X202784D01*
Y22379D01*
X202284Y22293D01*
X201423Y23155D01*
Y26256D01*
X199453D01*
Y29235D01*
X200733D01*
Y33835D01*
X196133D01*
Y29235D01*
X197413D01*
Y26256D01*
X197273D01*
Y21713D01*
X199981D01*
X201202Y20492D01*
X201533Y20271D01*
X201923Y20193D01*
X218706D01*
X219096Y20271D01*
X219427Y20492D01*
X220438Y21503D01*
X220900Y21312D01*
Y17356D01*
X219903D01*
Y14254D01*
X217475Y11826D01*
X200706D01*
X200316Y11748D01*
X199985Y11527D01*
X196979Y8521D01*
X196758Y8190D01*
X196680Y7800D01*
Y2322D01*
X193262Y-1096D01*
X192700Y-984D01*
X191891Y-1146D01*
X191204Y-1604D01*
X191168Y-1659D01*
X190668Y-1507D01*
Y23509D01*
X191920D01*
Y27659D01*
X187376D01*
Y23509D01*
X188628D01*
Y-1565D01*
X188128Y-1717D01*
X188068Y-1626D01*
X182420Y4022D01*
Y38437D01*
X183635D01*
Y42429D01*
X187377D01*
Y38498D01*
X188629D01*
Y33170D01*
X187376D01*
Y29020D01*
X191920D01*
Y33170D01*
X190668D01*
Y37755D01*
X191168Y38059D01*
X191383Y38016D01*
X196133D01*
Y36735D01*
X200733D01*
Y41335D01*
X196133D01*
Y40055D01*
X191920D01*
Y42458D01*
X192163Y42506D01*
X192494Y42727D01*
X194770Y45004D01*
X196973D01*
Y43913D01*
X201123D01*
Y48456D01*
X198218D01*
X196911Y49764D01*
X197102Y50226D01*
X215193D01*
X215325Y50093D01*
D02*
G37*
%LPC*%
G36*
X149775Y97218D02*
X145625D01*
Y93068D01*
X149775D01*
Y94123D01*
X153228D01*
Y92511D01*
X157772D01*
Y96661D01*
X153228D01*
Y96163D01*
X149775D01*
Y97218D01*
D02*
G37*
G36*
X224825Y94328D02*
X221675D01*
X220711Y94137D01*
X219894Y93591D01*
X219348Y92774D01*
X219157Y91810D01*
X219348Y90846D01*
X219894Y90029D01*
X220711Y89483D01*
X221675Y89292D01*
X224825D01*
X225789Y89483D01*
X226606Y90029D01*
X227152Y90846D01*
X227343Y91810D01*
X227152Y92774D01*
X226606Y93591D01*
X225789Y94137D01*
X224825Y94328D01*
D02*
G37*
G36*
X208755D02*
X204825D01*
X203861Y94137D01*
X203044Y93591D01*
X202498Y92774D01*
X202307Y91810D01*
X202498Y90846D01*
X203044Y90029D01*
X203861Y89483D01*
X204825Y89292D01*
X208755D01*
X209719Y89483D01*
X210536Y90029D01*
X211082Y90846D01*
X211273Y91810D01*
X211082Y92774D01*
X210536Y93591D01*
X209719Y94137D01*
X208755Y94328D01*
D02*
G37*
G36*
X149802Y90923D02*
X145653D01*
Y89867D01*
X130548D01*
X130158Y89790D01*
X129827Y89569D01*
X121262Y81004D01*
X120700Y81115D01*
X119890Y80954D01*
X119204Y80496D01*
X118746Y79810D01*
X118585Y79000D01*
X118746Y78190D01*
X119204Y77504D01*
X119890Y77046D01*
X120700Y76885D01*
X121510Y77046D01*
X122196Y77504D01*
X122654Y78190D01*
X122816Y79000D01*
X122704Y79562D01*
X130970Y87828D01*
X145653D01*
Y86773D01*
X149802D01*
Y90923D01*
D02*
G37*
G36*
X154643Y66395D02*
X154143Y66395D01*
X149057D01*
X148738Y66395D01*
X148238Y66395D01*
X142832D01*
Y60388D01*
X142764Y60047D01*
Y48708D01*
X141513D01*
Y44559D01*
X146056D01*
Y48708D01*
X144804D01*
Y59095D01*
X148238D01*
X148557Y59095D01*
X149057Y59095D01*
X150539D01*
Y48708D01*
X149287D01*
Y44559D01*
X153831D01*
Y48708D01*
X152578D01*
Y59095D01*
X154143D01*
X154462Y59095D01*
X154962Y59095D01*
X158314D01*
Y48708D01*
X157062D01*
Y44559D01*
X161605D01*
Y48708D01*
X160353D01*
Y59095D01*
X160368D01*
Y66395D01*
X154962D01*
X154643Y66395D01*
D02*
G37*
G36*
X224825Y60308D02*
X221675D01*
X220711Y60117D01*
X219894Y59571D01*
X219348Y58754D01*
X219157Y57790D01*
X219348Y56826D01*
X219894Y56009D01*
X220711Y55463D01*
X221675Y55272D01*
X224825D01*
X225789Y55463D01*
X226606Y56009D01*
X227152Y56826D01*
X227343Y57790D01*
X227152Y58754D01*
X226606Y59571D01*
X225789Y60117D01*
X224825Y60308D01*
D02*
G37*
G36*
X208755D02*
X204825D01*
X203861Y60117D01*
X203044Y59571D01*
X202498Y58754D01*
X202307Y57790D01*
X202498Y56826D01*
X203044Y56009D01*
X203861Y55463D01*
X204825Y55272D01*
X208755D01*
X209719Y55463D01*
X210536Y56009D01*
X211082Y56826D01*
X211273Y57790D01*
X211082Y58754D01*
X210536Y59571D01*
X209719Y60117D01*
X208755Y60308D01*
D02*
G37*
G36*
X129908Y17925D02*
X125759D01*
Y13382D01*
X128466D01*
X130543Y11305D01*
X130646Y10790D01*
X131104Y10104D01*
X131790Y9646D01*
X132600Y9485D01*
X133410Y9646D01*
X134096Y10104D01*
X134554Y10790D01*
X134715Y11600D01*
X134554Y12410D01*
X134096Y13096D01*
X133410Y13554D01*
X132600Y13715D01*
X131790Y13554D01*
X131423Y13309D01*
X129908Y14824D01*
Y17925D01*
D02*
G37*
G36*
X144834Y-33628D02*
X140684D01*
Y-38172D01*
X141183D01*
Y-42025D01*
X140127D01*
Y-46175D01*
X144277D01*
Y-42025D01*
X143222D01*
Y-38172D01*
X144834D01*
Y-33628D01*
D02*
G37*
G36*
X-5512Y4848D02*
X-6890D01*
X-7238Y4779D01*
X-7534Y4581D01*
X-7732Y4286D01*
X-7801Y3937D01*
X-7732Y3588D01*
X-7534Y3293D01*
X-7238Y3095D01*
X-6890Y3026D01*
X-5512D01*
X-5163Y3095D01*
X-4868Y3293D01*
X-4670Y3588D01*
X-4601Y3937D01*
X-4670Y4286D01*
X-4868Y4581D01*
X-5163Y4779D01*
X-5512Y4848D01*
D02*
G37*
G36*
X-71078Y120581D02*
X-72031Y120456D01*
X-72919Y120088D01*
X-73681Y119503D01*
X-74266Y118740D01*
X-74634Y117853D01*
X-74760Y116900D01*
X-74634Y115947D01*
X-74266Y115059D01*
X-73681Y114297D01*
X-72919Y113712D01*
X-72031Y113344D01*
X-71078Y113219D01*
X-70126Y113344D01*
X-69238Y113712D01*
X-68476Y114297D01*
X-67891Y115059D01*
X-67523Y115947D01*
X-67397Y116900D01*
X-67523Y117853D01*
X-67891Y118740D01*
X-68476Y119503D01*
X-69238Y120088D01*
X-70126Y120456D01*
X-71078Y120581D01*
D02*
G37*
G36*
X-80921D02*
X-81874Y120456D01*
X-82762Y120088D01*
X-83524Y119503D01*
X-84109Y118740D01*
X-84477Y117853D01*
X-84602Y116900D01*
X-84477Y115947D01*
X-84109Y115059D01*
X-83524Y114297D01*
X-82762Y113712D01*
X-81874Y113344D01*
X-80921Y113219D01*
X-79968Y113344D01*
X-79081Y113712D01*
X-78318Y114297D01*
X-77733Y115059D01*
X-77365Y115947D01*
X-77240Y116900D01*
X-77365Y117853D01*
X-77733Y118740D01*
X-78318Y119503D01*
X-79081Y120088D01*
X-79968Y120456D01*
X-80921Y120581D01*
D02*
G37*
G36*
X-90764D02*
X-91716Y120456D01*
X-92604Y120088D01*
X-93367Y119503D01*
X-93952Y118740D01*
X-94319Y117853D01*
X-94445Y116900D01*
X-94319Y115947D01*
X-93952Y115059D01*
X-93367Y114297D01*
X-92604Y113712D01*
X-91716Y113344D01*
X-90764Y113219D01*
X-89811Y113344D01*
X-88923Y113712D01*
X-88161Y114297D01*
X-87576Y115059D01*
X-87208Y115947D01*
X-87083Y116900D01*
X-87208Y117853D01*
X-87576Y118740D01*
X-88161Y119503D01*
X-88923Y120088D01*
X-89811Y120456D01*
X-90764Y120581D01*
D02*
G37*
G36*
X91063Y107778D02*
X90008Y107639D01*
X89024Y107232D01*
X88180Y106584D01*
X87532Y105739D01*
X87124Y104755D01*
X86985Y103700D01*
X87124Y102645D01*
X87532Y101661D01*
X88180Y100816D01*
X89024Y100168D01*
X90008Y99761D01*
X91063Y99622D01*
X92119Y99761D01*
X93103Y100168D01*
X93947Y100816D01*
X94595Y101661D01*
X95003Y102645D01*
X95142Y103700D01*
X95003Y104755D01*
X94595Y105739D01*
X93947Y106584D01*
X93103Y107232D01*
X92119Y107639D01*
X91063Y107778D01*
D02*
G37*
G36*
X48037Y118729D02*
X-9800D01*
X-10385Y118613D01*
X-10881Y118281D01*
X-16453Y112710D01*
X-16784Y112214D01*
X-16901Y111628D01*
Y96272D01*
X-16784Y95686D01*
X-16453Y95190D01*
X-14781Y93519D01*
X-14285Y93187D01*
X-13700Y93071D01*
X-11846D01*
X-11420Y92786D01*
Y64925D01*
X-20070Y56275D01*
X-22975D01*
Y52125D01*
X-18431D01*
Y55030D01*
X-9679Y63782D01*
X-9458Y64113D01*
X-9380Y64503D01*
Y92786D01*
X-8904Y93104D01*
X-8780Y93291D01*
X-3447D01*
Y92288D01*
X6215D01*
Y98013D01*
X-3447D01*
Y96349D01*
X-9091D01*
Y99345D01*
X-8644D01*
Y103495D01*
X-13187D01*
Y99345D01*
X-12149D01*
Y96129D01*
X-13067D01*
X-13842Y96905D01*
Y110995D01*
X-9166Y115671D01*
X47403D01*
X57808Y105265D01*
X57597Y104755D01*
X57458Y103700D01*
X57597Y102645D01*
X58005Y101661D01*
X58653Y100816D01*
X59497Y100168D01*
X60481Y99761D01*
X61537Y99622D01*
X62592Y99761D01*
X63576Y100168D01*
X64420Y100816D01*
X65068Y101661D01*
X65476Y102645D01*
X65615Y103700D01*
X65476Y104755D01*
X65068Y105739D01*
X64420Y106584D01*
X63576Y107232D01*
X62592Y107639D01*
X61537Y107778D01*
X60481Y107639D01*
X59971Y107428D01*
X49118Y118281D01*
X48622Y118613D01*
X48037Y118729D01*
D02*
G37*
G36*
X-48929Y110885D02*
X-73551D01*
Y83507D01*
X-48929D01*
Y110885D01*
D02*
G37*
G36*
X-106262D02*
X-130884D01*
Y83507D01*
X-106262D01*
Y110885D01*
D02*
G37*
G36*
X-190036Y98272D02*
X-194186D01*
Y93728D01*
X-192929D01*
Y90196D01*
X-193039Y90032D01*
X-193174Y89353D01*
Y84491D01*
X-193039Y83812D01*
X-192655Y83236D01*
X-192079Y82852D01*
X-191400Y82717D01*
X-190721Y82852D01*
X-190145Y83236D01*
X-189761Y83812D01*
X-189626Y84491D01*
Y89353D01*
X-189761Y90032D01*
X-189871Y90196D01*
Y95092D01*
X-189987Y95677D01*
X-190036Y95751D01*
Y98272D01*
D02*
G37*
G36*
X-177353Y111737D02*
X-186227D01*
Y102863D01*
X-182929D01*
Y90196D01*
X-183039Y90032D01*
X-183174Y89353D01*
Y84491D01*
X-183039Y83812D01*
X-182655Y83236D01*
X-182079Y82852D01*
X-181885Y82813D01*
X-177441Y78369D01*
X-176944Y78037D01*
X-176359Y77921D01*
X-171565D01*
Y75015D01*
X-153635D01*
Y83885D01*
X-171565D01*
Y80979D01*
X-175726D01*
X-179626Y84879D01*
Y89353D01*
X-179761Y90032D01*
X-179871Y90196D01*
Y102863D01*
X-177353D01*
Y111737D01*
D02*
G37*
G36*
X-181400Y70005D02*
X-182079Y69870D01*
X-182655Y69486D01*
X-183039Y68910D01*
X-183174Y68231D01*
Y63369D01*
X-183147Y63234D01*
X-183550Y62696D01*
X-183683Y62685D01*
X-184626Y63628D01*
Y68231D01*
X-184761Y68910D01*
X-185145Y69486D01*
X-185721Y69870D01*
X-186400Y70005D01*
X-187079Y69870D01*
X-187655Y69486D01*
X-188039Y68910D01*
X-188174Y68231D01*
Y63369D01*
X-188039Y62690D01*
X-187655Y62114D01*
X-187079Y61730D01*
X-187047Y61723D01*
X-185629Y60305D01*
Y57772D01*
X-186175D01*
Y57029D01*
X-190425D01*
Y57772D01*
X-194575D01*
Y53228D01*
X-190425D01*
Y53971D01*
X-186175D01*
Y53228D01*
X-184188D01*
X-182107Y51147D01*
X-181611Y50815D01*
X-181025Y50699D01*
X-174972D01*
X-174386Y50815D01*
X-173890Y51147D01*
X-168984Y56054D01*
X-168652Y56550D01*
X-168536Y57135D01*
Y58915D01*
X-156291D01*
X-156216Y58803D01*
X-140676Y43263D01*
Y35283D01*
X-143901D01*
X-154371Y45753D01*
Y50154D01*
X-153946Y50790D01*
X-153785Y51600D01*
X-153946Y52410D01*
X-154404Y53096D01*
X-155090Y53554D01*
X-155900Y53715D01*
X-156710Y53554D01*
X-157396Y53096D01*
X-157854Y52410D01*
X-158016Y51600D01*
X-157854Y50790D01*
X-157429Y50154D01*
Y45120D01*
X-157313Y44534D01*
X-156981Y44038D01*
X-146064Y33121D01*
Y30701D01*
X-140829D01*
Y28200D01*
X-140713Y27615D01*
X-140381Y27119D01*
X-128116Y14853D01*
X-128307Y14391D01*
X-134041D01*
Y14624D01*
X-138191D01*
Y10080D01*
X-134041D01*
Y10313D01*
X-120035D01*
Y6943D01*
X-105965D01*
Y17684D01*
X-120035D01*
Y16878D01*
X-125815D01*
X-137771Y28833D01*
Y30701D01*
X-135323D01*
Y29893D01*
X-135206Y29308D01*
X-134875Y28812D01*
X-126881Y20819D01*
X-126385Y20487D01*
X-125800Y20371D01*
X-107633D01*
X-99604Y12341D01*
X-99454Y11590D01*
X-98996Y10904D01*
X-98310Y10446D01*
X-97500Y10285D01*
X-96690Y10446D01*
X-96004Y10904D01*
X-95546Y11590D01*
X-95385Y12400D01*
X-95546Y13209D01*
X-96004Y13896D01*
X-96690Y14354D01*
X-97441Y14504D01*
X-105919Y22981D01*
X-106415Y23313D01*
X-107000Y23429D01*
X-125166D01*
X-132023Y30286D01*
X-132229Y30701D01*
Y31463D01*
X-130949D01*
X-130313Y31038D01*
X-129503Y30876D01*
X-128693Y31038D01*
X-128007Y31496D01*
X-127549Y32182D01*
X-127388Y32992D01*
X-127549Y33801D01*
X-127974Y34438D01*
Y41603D01*
X-128090Y42188D01*
X-128422Y42685D01*
X-145571Y59834D01*
Y64954D01*
X-145146Y65590D01*
X-144984Y66400D01*
X-145146Y67210D01*
X-145604Y67896D01*
X-146291Y68354D01*
X-147100Y68515D01*
X-147909Y68354D01*
X-148596Y67896D01*
X-149054Y67210D01*
X-149215Y66400D01*
X-149054Y65590D01*
X-148629Y64954D01*
Y59200D01*
X-148513Y58615D01*
X-148181Y58119D01*
X-131033Y40970D01*
Y34521D01*
X-132229D01*
Y35283D01*
X-137617D01*
Y43896D01*
X-137733Y44482D01*
X-138065Y44978D01*
X-153631Y60544D01*
X-153635Y60563D01*
Y67785D01*
X-171565D01*
Y60563D01*
X-171594Y60415D01*
Y57768D01*
X-175605Y53758D01*
X-176514D01*
Y57772D01*
X-177060D01*
Y60428D01*
X-177176Y61013D01*
X-177508Y61509D01*
X-179626Y63628D01*
Y68231D01*
X-179761Y68910D01*
X-180145Y69486D01*
X-180721Y69870D01*
X-181400Y70005D01*
D02*
G37*
G36*
X-47744Y120550D02*
X-55043D01*
Y113250D01*
X-51473D01*
X-51244Y113220D01*
X-47213D01*
X-44914Y110922D01*
Y97984D01*
X-44884Y97755D01*
Y88614D01*
X-44914Y88385D01*
Y85578D01*
X-54839Y75654D01*
X-55400Y74923D01*
X-55752Y74071D01*
X-55872Y73158D01*
Y69972D01*
X-55752Y69059D01*
X-55400Y68207D01*
X-55204Y67953D01*
Y65535D01*
X-54139D01*
Y63839D01*
X-54325Y63714D01*
X-54784Y63028D01*
X-54945Y62218D01*
X-54784Y61409D01*
X-54325Y60722D01*
X-53639Y60264D01*
X-52829Y60103D01*
X-52020Y60264D01*
X-51333Y60722D01*
X-50875Y61409D01*
X-50714Y62218D01*
X-50875Y63028D01*
X-51080Y63335D01*
Y65535D01*
X-49480D01*
Y67953D01*
X-49285Y68207D01*
X-48932Y69059D01*
X-48812Y69972D01*
Y71696D01*
X-38888Y81619D01*
X-38327Y82351D01*
X-37974Y83202D01*
X-37934Y83507D01*
X-20262D01*
Y110885D01*
X-37854D01*
Y112384D01*
X-37854Y112384D01*
X-37974Y113298D01*
X-38327Y114149D01*
X-38888Y114881D01*
X-43254Y119247D01*
X-43985Y119808D01*
X-44837Y120160D01*
X-45750Y120281D01*
X-47744D01*
Y120550D01*
D02*
G37*
G36*
X-38766Y74409D02*
X-44490D01*
Y65535D01*
X-40929D01*
X-38515Y63122D01*
Y61575D01*
X-38486Y61427D01*
Y58728D01*
X-34336D01*
Y63272D01*
X-35456D01*
Y63755D01*
X-35573Y64340D01*
X-35904Y64837D01*
X-38766Y67698D01*
Y74409D01*
D02*
G37*
G36*
X-124766D02*
X-130490D01*
Y65535D01*
X-126929D01*
X-123512Y62118D01*
Y61575D01*
X-123482Y61427D01*
Y58728D01*
X-119333D01*
Y63272D01*
X-120556D01*
X-120569Y63337D01*
X-120901Y63833D01*
X-124766Y67698D01*
Y74409D01*
D02*
G37*
G36*
X-100606Y120581D02*
X-101559Y120456D01*
X-102447Y120088D01*
X-103209Y119503D01*
X-103794Y118740D01*
X-104162Y117853D01*
X-104287Y116900D01*
X-104162Y115947D01*
X-103794Y115059D01*
X-103209Y114297D01*
X-102640Y113860D01*
X-102248Y113468D01*
Y106007D01*
X-102218Y105778D01*
Y88614D01*
X-102248Y88385D01*
Y85845D01*
X-111534Y76558D01*
X-111864Y76129D01*
X-112172Y75821D01*
X-112733Y75090D01*
X-113085Y74238D01*
X-113206Y73324D01*
Y69972D01*
X-113085Y69059D01*
X-112733Y68207D01*
X-112538Y67953D01*
Y65535D01*
X-108976D01*
X-100088Y56647D01*
X-99592Y56315D01*
X-99006Y56199D01*
X-95284D01*
X-95001Y55699D01*
X-95111Y55516D01*
X-103153D01*
X-109719Y62081D01*
X-110215Y62413D01*
X-110800Y62529D01*
X-113822D01*
Y63272D01*
X-117971D01*
Y58728D01*
X-113822D01*
Y59471D01*
X-111433D01*
X-104868Y52905D01*
X-104372Y52574D01*
X-103787Y52457D01*
X-94966D01*
Y47863D01*
X-94836Y47207D01*
X-94464Y46651D01*
X-93908Y46279D01*
X-93252Y46149D01*
X-92733Y46252D01*
X-92469Y45809D01*
X-93678Y44600D01*
X-99480D01*
Y45145D01*
X-104024D01*
Y42450D01*
X-104485Y42259D01*
X-108863Y46636D01*
Y53776D01*
X-117737D01*
Y46597D01*
X-118199Y46406D01*
X-135712Y63919D01*
Y77941D01*
X-135828Y78527D01*
X-136160Y79023D01*
X-159683Y102546D01*
Y105291D01*
X-163971D01*
Y111000D01*
X-164087Y111585D01*
X-164419Y112081D01*
X-169119Y116781D01*
X-169615Y117113D01*
X-170200Y117229D01*
X-193500D01*
X-194085Y117113D01*
X-194581Y116781D01*
X-199626Y111737D01*
X-204337D01*
Y102863D01*
X-201929D01*
Y92823D01*
X-213591Y81161D01*
X-215972D01*
Y77011D01*
X-211428D01*
Y78998D01*
X-199319Y91108D01*
X-198987Y91604D01*
X-198871Y92189D01*
Y102863D01*
X-195463D01*
Y111574D01*
X-192867Y114171D01*
X-170834D01*
X-167029Y110366D01*
Y105291D01*
X-173517D01*
Y100709D01*
X-165468D01*
Y98238D01*
X-165351Y97653D01*
X-165020Y97157D01*
X-144329Y76467D01*
Y61700D01*
X-144213Y61115D01*
X-143881Y60619D01*
X-123529Y40266D01*
Y30546D01*
X-123954Y29910D01*
X-124116Y29100D01*
X-123954Y28290D01*
X-123496Y27604D01*
X-122810Y27146D01*
X-122000Y26985D01*
X-121191Y27146D01*
X-120504Y27604D01*
X-120046Y28290D01*
X-119885Y29100D01*
X-120046Y29910D01*
X-120471Y30546D01*
Y40900D01*
X-120587Y41485D01*
X-120919Y41981D01*
X-141271Y62334D01*
Y77100D01*
X-141387Y77685D01*
X-141719Y78181D01*
X-162409Y98872D01*
Y100239D01*
X-161909Y100446D01*
X-138771Y77308D01*
Y63285D01*
X-138654Y62700D01*
X-138323Y62204D01*
X-114829Y38711D01*
Y35666D01*
X-117737D01*
Y26792D01*
X-110511D01*
X-110363Y26763D01*
X-103626D01*
X-96281Y19419D01*
X-95785Y19087D01*
X-95200Y18971D01*
X-89424D01*
X-88838Y19087D01*
X-88342Y19419D01*
X-87170Y20590D01*
X-86839Y21086D01*
X-86722Y21672D01*
Y25079D01*
X-86668Y25160D01*
X-86538Y25816D01*
Y32706D01*
X-86668Y33361D01*
X-86722Y33443D01*
Y36315D01*
X-85627Y37410D01*
X-85085Y37296D01*
X-85063Y37267D01*
X-85215Y36500D01*
X-85054Y35690D01*
X-84596Y35004D01*
X-84296Y34804D01*
Y34030D01*
X-84464Y33917D01*
X-84835Y33361D01*
X-84966Y32706D01*
Y25816D01*
X-84835Y25160D01*
X-84464Y24604D01*
X-83908Y24232D01*
X-83252Y24102D01*
X-82596Y24232D01*
X-82040Y24604D01*
X-81668Y25160D01*
X-81538Y25816D01*
Y32706D01*
X-81668Y33361D01*
X-82040Y33917D01*
X-82256Y34062D01*
Y34568D01*
X-81604Y35004D01*
X-81146Y35690D01*
X-81055Y36143D01*
X-80984Y36500D01*
X-80495Y36595D01*
X-80354Y35890D01*
X-79896Y35204D01*
X-79254Y34775D01*
Y34058D01*
X-79464Y33917D01*
X-79835Y33361D01*
X-79966Y32706D01*
Y25816D01*
X-79835Y25160D01*
X-79464Y24604D01*
X-78908Y24232D01*
X-78252Y24102D01*
X-77596Y24232D01*
X-77040Y24604D01*
X-76668Y25160D01*
X-76538Y25816D01*
Y32706D01*
X-76668Y33361D01*
X-77040Y33917D01*
X-77215Y34034D01*
Y34997D01*
X-76904Y35204D01*
X-76446Y35890D01*
X-76285Y36700D01*
X-76446Y37510D01*
X-76904Y38196D01*
X-77590Y38654D01*
X-78145Y38765D01*
X-78175Y38771D01*
X-78149Y39032D01*
X-78149D01*
X-78149Y39032D01*
X-77747Y39271D01*
X-69533D01*
X-64781Y34519D01*
Y33443D01*
X-64836Y33361D01*
X-64966Y32706D01*
Y25816D01*
X-64836Y25160D01*
X-64464Y24604D01*
X-64271Y24475D01*
Y22005D01*
X-64194Y21615D01*
X-63973Y21284D01*
X-63472Y20783D01*
X-63586Y20612D01*
X-63747Y19803D01*
X-63586Y18993D01*
X-63127Y18307D01*
X-62441Y17848D01*
X-61631Y17687D01*
X-60822Y17848D01*
X-60135Y18307D01*
X-59677Y18993D01*
X-59516Y19803D01*
X-59677Y20612D01*
X-60135Y21299D01*
X-60822Y21757D01*
X-61631Y21918D01*
X-61708Y21903D01*
X-62232Y22428D01*
Y24475D01*
X-62040Y24604D01*
X-61668Y25160D01*
X-61538Y25816D01*
Y32706D01*
X-61668Y33361D01*
X-61722Y33443D01*
Y34615D01*
X-52106Y44232D01*
X-51644Y44040D01*
Y40995D01*
X-47100D01*
Y43179D01*
X-45191Y45088D01*
X-45142Y45098D01*
X-44456Y45557D01*
X-43997Y46243D01*
X-43836Y47052D01*
X-43997Y47862D01*
X-44456Y48548D01*
X-45142Y49007D01*
X-45463Y49071D01*
X-45414Y49571D01*
X-42087D01*
Y44902D01*
X-41011D01*
Y43295D01*
X-41436Y42659D01*
X-41597Y41850D01*
X-41436Y41040D01*
X-40977Y40354D01*
X-40291Y39895D01*
X-39482Y39734D01*
X-38820Y39866D01*
X-38574Y39406D01*
X-38731Y39248D01*
X-39063Y38751D01*
X-39179Y38166D01*
Y35666D01*
X-39924D01*
X-42899Y38641D01*
X-43395Y38972D01*
X-43980Y39089D01*
X-47100D01*
Y39634D01*
X-51644D01*
Y35484D01*
X-47100D01*
Y36030D01*
X-44614D01*
X-42087Y33503D01*
Y26792D01*
X-33213D01*
Y35666D01*
X-36121D01*
Y37533D01*
X-27139Y46515D01*
X-26807Y47011D01*
X-26691Y47596D01*
Y48480D01*
X-26504Y48604D01*
X-26046Y49290D01*
X-25885Y50100D01*
X-26046Y50910D01*
X-26504Y51596D01*
X-27190Y52054D01*
X-28000Y52215D01*
X-28810Y52054D01*
X-29496Y51596D01*
X-29954Y50910D01*
X-30115Y50100D01*
X-29954Y49290D01*
X-29749Y48983D01*
Y48230D01*
X-32713Y45266D01*
X-33213Y45473D01*
Y53776D01*
X-32857Y54125D01*
X-32419Y54419D01*
X-30163Y56674D01*
X-29832Y57170D01*
X-29715Y57756D01*
Y58728D01*
X-28825D01*
Y63272D01*
X-32975D01*
Y58728D01*
X-32975D01*
X-32934Y58228D01*
X-34133Y57029D01*
X-46600D01*
X-47185Y56913D01*
X-47681Y56581D01*
X-56038Y48225D01*
X-56538Y48432D01*
Y54206D01*
X-55073Y55671D01*
X-54546D01*
X-53910Y55246D01*
X-53100Y55085D01*
X-52290Y55246D01*
X-51604Y55704D01*
X-51146Y56390D01*
X-50985Y57200D01*
X-51146Y58010D01*
X-51604Y58696D01*
X-52290Y59154D01*
X-53100Y59315D01*
X-53910Y59154D01*
X-54546Y58729D01*
X-55707D01*
X-56013Y58668D01*
X-56483Y59033D01*
X-56488Y59045D01*
Y63272D01*
X-60638D01*
Y60891D01*
X-61537Y59992D01*
X-61999Y60183D01*
Y63272D01*
X-63223D01*
X-63236Y63337D01*
X-63568Y63833D01*
X-67433Y67698D01*
Y74409D01*
X-73157D01*
Y65535D01*
X-69596D01*
X-66178Y62118D01*
Y61575D01*
X-66149Y61427D01*
Y58728D01*
X-63454D01*
X-63263Y58266D01*
X-64264Y57265D01*
X-64596Y56769D01*
X-64712Y56184D01*
Y55594D01*
X-64836Y55409D01*
X-64966Y54753D01*
Y47863D01*
X-64836Y47207D01*
X-64464Y46651D01*
X-64432Y46629D01*
X-64583Y46129D01*
X-66921D01*
X-67072Y46629D01*
X-67040Y46651D01*
X-66668Y47207D01*
X-66538Y47863D01*
Y54753D01*
X-66668Y55409D01*
X-66723Y55490D01*
Y57952D01*
X-66839Y58537D01*
X-67171Y59033D01*
X-68096Y59959D01*
X-68246Y60710D01*
X-68704Y61396D01*
X-69390Y61854D01*
X-70200Y62015D01*
X-71010Y61854D01*
X-71696Y61396D01*
X-72154Y60710D01*
X-72315Y59900D01*
X-72163Y59133D01*
X-72185Y59104D01*
X-72727Y58990D01*
X-73596Y59859D01*
X-73746Y60610D01*
X-74204Y61296D01*
X-74890Y61754D01*
X-75700Y61915D01*
X-76510Y61754D01*
X-77196Y61296D01*
X-77654Y60610D01*
X-77815Y59800D01*
X-77654Y58990D01*
X-77196Y58304D01*
X-76510Y57846D01*
X-75759Y57696D01*
X-74781Y56718D01*
Y55490D01*
X-74835Y55409D01*
X-74966Y54753D01*
Y47863D01*
X-74835Y47207D01*
X-74464Y46651D01*
X-74432Y46629D01*
X-74583Y46129D01*
X-76447D01*
X-76723Y46405D01*
Y47126D01*
X-76668Y47207D01*
X-76538Y47863D01*
Y54753D01*
X-76668Y55409D01*
X-77040Y55965D01*
X-77596Y56336D01*
X-78252Y56467D01*
X-78908Y56336D01*
X-79464Y55965D01*
X-79835Y55409D01*
X-79966Y54753D01*
Y47863D01*
X-79835Y47207D01*
X-79781Y47126D01*
Y45772D01*
X-79665Y45186D01*
X-79333Y44690D01*
X-78162Y43519D01*
X-77666Y43187D01*
X-77080Y43071D01*
X-58246D01*
X-58054Y42609D01*
X-63300Y37363D01*
X-67819Y41881D01*
X-68315Y42213D01*
X-68900Y42329D01*
X-84400D01*
X-84985Y42213D01*
X-85481Y41881D01*
X-89333Y38030D01*
X-89665Y37533D01*
X-89781Y36948D01*
Y33443D01*
X-89836Y33361D01*
X-89966Y32706D01*
Y25816D01*
X-89836Y25160D01*
X-89781Y25079D01*
Y22305D01*
X-90057Y22029D01*
X-94567D01*
X-101911Y29373D01*
X-102407Y29705D01*
X-102992Y29822D01*
X-108863D01*
Y35666D01*
X-111771D01*
Y39344D01*
X-111887Y39929D01*
X-112219Y40426D01*
X-116234Y44440D01*
X-116042Y44902D01*
X-111451D01*
X-111444Y44892D01*
X-104024Y37471D01*
Y35484D01*
X-101325D01*
X-101177Y35455D01*
X-98164D01*
X-94966Y32257D01*
Y25816D01*
X-94836Y25160D01*
X-94464Y24604D01*
X-93908Y24232D01*
X-93252Y24102D01*
X-92596Y24232D01*
X-92040Y24604D01*
X-91668Y25160D01*
X-91538Y25816D01*
Y32706D01*
X-91668Y33361D01*
X-92040Y33917D01*
X-92596Y34289D01*
X-92692Y34308D01*
X-96449Y38066D01*
X-96946Y38397D01*
X-97531Y38514D01*
X-99480D01*
Y39634D01*
X-101861D01*
X-102760Y40534D01*
X-102569Y40995D01*
X-99480D01*
Y41541D01*
X-93045D01*
X-92459Y41657D01*
X-91963Y41989D01*
X-87692Y46260D01*
X-87596Y46279D01*
X-87040Y46651D01*
X-86668Y47207D01*
X-86538Y47863D01*
Y54753D01*
X-86668Y55409D01*
X-87040Y55965D01*
X-87596Y56336D01*
X-87692Y56355D01*
X-90146Y58810D01*
X-90642Y59141D01*
X-90666Y59146D01*
Y63272D01*
X-91890D01*
X-91903Y63337D01*
X-92234Y63833D01*
X-96099Y67698D01*
Y74409D01*
X-101824D01*
Y65535D01*
X-98262D01*
X-94845Y62118D01*
Y61575D01*
X-94816Y61427D01*
Y59258D01*
X-98373D01*
X-106813Y67698D01*
Y67953D01*
X-106618Y68207D01*
X-106266Y69059D01*
X-106145Y69972D01*
Y71962D01*
X-96221Y81886D01*
X-95660Y82617D01*
X-95308Y83469D01*
X-95303Y83507D01*
X-77596D01*
Y110885D01*
X-95187D01*
Y114931D01*
X-95308Y115844D01*
X-95660Y116696D01*
X-96221Y117427D01*
X-97335Y118541D01*
X-97418Y118740D01*
X-98003Y119503D01*
X-98765Y120088D01*
X-99653Y120456D01*
X-100606Y120581D01*
D02*
G37*
G36*
X-220028Y81222D02*
X-224572D01*
Y77072D01*
X-222191D01*
X-218187Y73068D01*
X-217691Y72737D01*
X-217106Y72620D01*
X-215972D01*
Y71500D01*
X-213591D01*
X-206810Y64719D01*
X-206313Y64387D01*
X-205728Y64271D01*
X-198174D01*
Y63369D01*
X-198039Y62690D01*
X-197717Y62208D01*
X-197692Y61920D01*
X-197757Y61581D01*
X-197833Y61530D01*
X-199092Y60270D01*
X-199424Y59774D01*
X-199540Y59189D01*
Y57772D01*
X-200086D01*
Y53228D01*
X-195936D01*
Y57772D01*
X-196482D01*
Y58556D01*
X-196118Y58919D01*
X-194450D01*
X-193865Y59036D01*
X-193369Y59367D01*
X-191077Y61659D01*
X-190721Y61730D01*
X-190145Y62114D01*
X-189761Y62690D01*
X-189626Y63369D01*
Y68231D01*
X-189761Y68910D01*
X-190145Y69486D01*
X-190721Y69870D01*
X-190915Y69909D01*
X-195662Y74656D01*
X-196159Y74988D01*
X-196744Y75104D01*
X-202828D01*
Y75650D01*
X-207372D01*
Y71500D01*
X-202828D01*
Y72046D01*
X-197377D01*
X-195710Y70378D01*
X-195956Y69917D01*
X-196400Y70005D01*
X-197079Y69870D01*
X-197655Y69486D01*
X-198039Y68910D01*
X-198174Y68231D01*
Y67329D01*
X-205095D01*
X-211428Y73663D01*
Y75650D01*
X-214127D01*
X-214275Y75679D01*
X-216473D01*
X-220028Y79235D01*
Y81222D01*
D02*
G37*
G36*
X-85155Y63272D02*
X-89305D01*
Y58728D01*
X-87318D01*
X-84851Y56261D01*
Y55333D01*
X-84966Y54753D01*
Y47863D01*
X-84835Y47207D01*
X-84464Y46651D01*
X-83908Y46279D01*
X-83252Y46149D01*
X-82596Y46279D01*
X-82040Y46651D01*
X-81668Y47207D01*
X-81538Y47863D01*
Y54753D01*
X-81668Y55409D01*
X-81792Y55594D01*
Y56895D01*
X-81908Y57480D01*
X-82240Y57976D01*
X-85155Y60891D01*
Y63272D01*
D02*
G37*
G36*
X-7300Y58215D02*
X-8110Y58054D01*
X-8796Y57596D01*
X-9254Y56910D01*
X-9415Y56100D01*
X-9254Y55290D01*
X-8796Y54604D01*
X-8320Y54286D01*
Y53815D01*
X-10789D01*
X-11522Y53669D01*
X-12143Y53254D01*
X-12558Y52633D01*
X-12704Y51900D01*
X-12558Y51167D01*
X-12143Y50546D01*
X-11522Y50131D01*
X-10789Y49985D01*
X-8265D01*
Y48815D01*
X-10789D01*
X-11522Y48669D01*
X-12143Y48254D01*
X-12558Y47633D01*
X-12704Y46900D01*
X-12558Y46167D01*
X-12143Y45546D01*
X-11522Y45131D01*
X-10789Y44985D01*
X-3702D01*
X-2970Y45131D01*
X-2348Y45546D01*
X-1933Y46167D01*
X-1788Y46900D01*
X-1933Y47633D01*
X-2348Y48254D01*
X-2970Y48669D01*
X-3702Y48815D01*
X-6226D01*
Y49985D01*
X-3702D01*
X-2970Y50131D01*
X-2348Y50546D01*
X-1933Y51167D01*
X-1788Y51900D01*
X-1933Y52633D01*
X-2348Y53254D01*
X-2970Y53669D01*
X-3702Y53815D01*
X-6280D01*
Y54286D01*
X-5804Y54604D01*
X-5346Y55290D01*
X-5185Y56100D01*
X-5346Y56910D01*
X-5804Y57596D01*
X-6490Y58054D01*
X-7300Y58215D01*
D02*
G37*
G36*
X102784Y75353D02*
X86036D01*
Y70095D01*
X86007Y69947D01*
Y63570D01*
X71237Y48800D01*
X66400D01*
Y41800D01*
X73400D01*
Y43821D01*
X78400D01*
Y43050D01*
X84400D01*
Y47650D01*
X78400D01*
Y46879D01*
X74296D01*
X74104Y47341D01*
X88618Y61855D01*
X88949Y62351D01*
X89065Y62936D01*
Y68447D01*
X102784D01*
Y75353D01*
D02*
G37*
G36*
X40472Y103495D02*
X35928D01*
Y99345D01*
X36671D01*
Y86968D01*
X36787Y86383D01*
X37119Y85887D01*
X49816Y73190D01*
Y68447D01*
X54871D01*
Y48800D01*
X52900D01*
Y41800D01*
X59900D01*
Y48800D01*
X57929D01*
Y68447D01*
X66564D01*
Y75353D01*
X51979D01*
X39729Y87602D01*
Y99345D01*
X40472D01*
Y103495D01*
D02*
G37*
G36*
X2800Y49115D02*
X1990Y48954D01*
X1304Y48496D01*
X846Y47810D01*
X685Y47000D01*
X846Y46190D01*
X1304Y45504D01*
X1990Y45046D01*
X2800Y44885D01*
X3610Y45046D01*
X4296Y45504D01*
X4581Y45930D01*
X6892D01*
X7148Y45546D01*
X7770Y45131D01*
X8502Y44985D01*
X11026D01*
Y43815D01*
X8502D01*
X7770Y43669D01*
X7148Y43254D01*
X6733Y42633D01*
X6588Y41900D01*
X6733Y41167D01*
X7148Y40546D01*
X7770Y40131D01*
X8502Y39985D01*
X15589D01*
X16322Y40131D01*
X16943Y40546D01*
X17358Y41167D01*
X17504Y41900D01*
X17358Y42633D01*
X16943Y43254D01*
X16322Y43669D01*
X15589Y43815D01*
X13065D01*
Y44985D01*
X15589D01*
X16322Y45131D01*
X16943Y45546D01*
X17358Y46167D01*
X17504Y46900D01*
X17358Y47633D01*
X16943Y48254D01*
X16322Y48669D01*
X15589Y48815D01*
X8502D01*
X7770Y48669D01*
X7148Y48254D01*
X6958Y47970D01*
X4648D01*
X4296Y48496D01*
X3610Y48954D01*
X2800Y49115D01*
D02*
G37*
G36*
X-18431Y50764D02*
X-22975D01*
Y46614D01*
X-21723D01*
Y42675D01*
X-22975D01*
Y38525D01*
X-18431D01*
Y39580D01*
X-15998D01*
X-15608Y39658D01*
X-15277Y39879D01*
X-14276Y40880D01*
X-12366D01*
X-12143Y40546D01*
X-11522Y40131D01*
X-10789Y39985D01*
X-3702D01*
X-2970Y40131D01*
X-2348Y40546D01*
X-1933Y41167D01*
X-1788Y41900D01*
X-1933Y42633D01*
X-2348Y43254D01*
X-2970Y43669D01*
X-3702Y43815D01*
X-10789D01*
X-11522Y43669D01*
X-12143Y43254D01*
X-12366Y42920D01*
X-14698D01*
X-15088Y42842D01*
X-15419Y42621D01*
X-16420Y41620D01*
X-18431D01*
Y42675D01*
X-19683D01*
Y46614D01*
X-18431D01*
Y50764D01*
D02*
G37*
G36*
X99872Y50161D02*
X95328D01*
Y48031D01*
X94861D01*
X94471Y47953D01*
X94140Y47732D01*
X90258Y43850D01*
X87100D01*
Y39250D01*
X91700D01*
Y42408D01*
X95284Y45992D01*
X96525D01*
X96624Y46011D01*
X99872D01*
Y50161D01*
D02*
G37*
G36*
X27372Y50764D02*
X22828D01*
Y46614D01*
X24080D01*
Y42675D01*
X22828D01*
Y39967D01*
X20781Y37920D01*
X17166D01*
X16943Y38254D01*
X16322Y38669D01*
X15589Y38815D01*
X8502D01*
X7770Y38669D01*
X7148Y38254D01*
X6733Y37633D01*
X6588Y36900D01*
X6733Y36167D01*
X7148Y35546D01*
X7770Y35131D01*
X8502Y34985D01*
X15589D01*
X16322Y35131D01*
X16943Y35546D01*
X17166Y35880D01*
X21203D01*
X21593Y35958D01*
X21924Y36179D01*
X24270Y38525D01*
X27372D01*
Y42675D01*
X26120D01*
Y46614D01*
X27372D01*
Y50764D01*
D02*
G37*
G36*
X99872Y44650D02*
X95328D01*
Y40500D01*
X98430D01*
X100307Y38623D01*
X100304Y38596D01*
X99846Y37910D01*
X99685Y37100D01*
X99846Y36290D01*
X100304Y35604D01*
X100990Y35146D01*
X101800Y34985D01*
X102610Y35146D01*
X103296Y35604D01*
X103754Y36290D01*
X103916Y37100D01*
X103754Y37910D01*
X103296Y38596D01*
X102610Y39054D01*
X102385Y39099D01*
X102331Y39373D01*
X102110Y39704D01*
X99872Y41942D01*
Y44650D01*
D02*
G37*
G36*
X-73252Y34420D02*
X-73908Y34289D01*
X-74464Y33917D01*
X-74835Y33361D01*
X-74966Y32706D01*
Y25816D01*
X-74851Y25236D01*
Y20278D01*
X-75725D01*
Y15735D01*
X-71575D01*
Y20278D01*
X-71792D01*
Y24975D01*
X-71668Y25160D01*
X-71538Y25816D01*
Y32706D01*
X-71668Y33361D01*
X-72040Y33917D01*
X-72596Y34289D01*
X-73252Y34420D01*
D02*
G37*
G36*
X-139552Y14624D02*
X-143702D01*
Y14391D01*
X-149341D01*
Y14624D01*
X-153491D01*
Y10080D01*
X-149341D01*
Y10313D01*
X-143702D01*
Y10080D01*
X-143591D01*
Y6812D01*
X-143436Y6032D01*
X-142994Y5370D01*
X-138622Y998D01*
X-138616Y964D01*
X-138255Y425D01*
X-137716Y65D01*
X-137611Y44D01*
X-137120Y-284D01*
X-136340Y-439D01*
X-136340Y-439D01*
X-134198D01*
X-133418Y-284D01*
X-133086Y-62D01*
X-131316D01*
X-130681Y65D01*
X-130141Y425D01*
X-129781Y964D01*
X-129655Y1600D01*
X-129781Y2236D01*
X-130141Y2775D01*
X-130681Y3135D01*
X-131316Y3262D01*
X-133086D01*
X-133418Y3484D01*
X-134198Y3639D01*
X-135495D01*
X-139513Y7656D01*
Y12277D01*
X-139552Y12474D01*
Y14624D01*
D02*
G37*
G36*
X-209047Y14764D02*
X-214953D01*
X-215854Y14645D01*
X-216694Y14297D01*
X-217415Y13744D01*
X-217969Y13022D01*
X-218317Y12183D01*
X-218435Y11281D01*
X-218317Y10380D01*
X-217969Y9540D01*
X-217415Y8819D01*
X-216694Y8265D01*
X-215854Y7917D01*
X-214953Y7799D01*
X-209047D01*
X-208146Y7917D01*
X-207306Y8265D01*
X-206585Y8819D01*
X-206031Y9540D01*
X-205683Y10380D01*
X-205565Y11281D01*
X-205683Y12183D01*
X-206031Y13022D01*
X-206585Y13744D01*
X-207306Y14297D01*
X-208146Y14645D01*
X-209047Y14764D01*
D02*
G37*
G36*
X-45100Y16715D02*
X-45910Y16554D01*
X-46596Y16096D01*
X-47054Y15409D01*
X-47215Y14600D01*
X-47054Y13791D01*
X-46596Y13104D01*
X-46120Y12786D01*
Y11286D01*
X-47472D01*
Y7136D01*
X-42928D01*
Y11286D01*
X-44080D01*
Y12786D01*
X-43604Y13104D01*
X-43146Y13791D01*
X-42985Y14600D01*
X-43146Y15409D01*
X-43604Y16096D01*
X-44290Y16554D01*
X-45100Y16715D01*
D02*
G37*
G36*
X-88928Y11286D02*
X-93472D01*
Y8578D01*
X-96095Y5955D01*
X-96900Y6115D01*
X-97710Y5954D01*
X-98396Y5496D01*
X-98854Y4810D01*
X-99015Y4000D01*
X-98854Y3190D01*
X-98396Y2504D01*
X-97710Y2046D01*
X-96900Y1885D01*
X-96090Y2046D01*
X-95404Y2504D01*
X-94946Y3190D01*
X-94785Y4000D01*
X-94848Y4318D01*
X-93934Y5232D01*
X-93472Y5041D01*
Y1625D01*
X-92220D01*
Y-1814D01*
X-93472D01*
Y-5964D01*
X-88928D01*
Y-4909D01*
X-86269D01*
X-85879Y-4831D01*
X-85548Y-4610D01*
X-84351Y-3413D01*
X-82216D01*
X-81993Y-3748D01*
X-81372Y-4163D01*
X-80639Y-4308D01*
X-73552D01*
X-72820Y-4163D01*
X-72198Y-3748D01*
X-71783Y-3126D01*
X-71638Y-2394D01*
X-71783Y-1661D01*
X-72198Y-1040D01*
X-72820Y-625D01*
X-73552Y-479D01*
X-80639D01*
X-81372Y-625D01*
X-81993Y-1040D01*
X-82216Y-1374D01*
X-84774D01*
X-85164Y-1452D01*
X-85495Y-1673D01*
X-86691Y-2869D01*
X-88928D01*
Y-1814D01*
X-90180D01*
Y1625D01*
X-88928D01*
Y5775D01*
X-92738D01*
X-92929Y6237D01*
X-92030Y7136D01*
X-88928D01*
Y11286D01*
D02*
G37*
G36*
X-77100Y14716D02*
X-77910Y14554D01*
X-78596Y14096D01*
X-79054Y13409D01*
X-79215Y12600D01*
X-79054Y11790D01*
X-78596Y11104D01*
X-78120Y10786D01*
Y9521D01*
X-80639D01*
X-81372Y9375D01*
X-81993Y8960D01*
X-82408Y8339D01*
X-82554Y7606D01*
X-82408Y6874D01*
X-81993Y6252D01*
X-81372Y5837D01*
X-80639Y5692D01*
X-78120D01*
Y4521D01*
X-80639D01*
X-81372Y4375D01*
X-81993Y3960D01*
X-82408Y3339D01*
X-82554Y2606D01*
X-82408Y1874D01*
X-81993Y1252D01*
X-81372Y837D01*
X-80639Y692D01*
X-73552D01*
X-72820Y837D01*
X-72198Y1252D01*
X-71783Y1874D01*
X-71638Y2606D01*
X-71783Y3339D01*
X-72198Y3960D01*
X-72820Y4375D01*
X-73552Y4521D01*
X-76080D01*
Y5692D01*
X-73552D01*
X-72820Y5837D01*
X-72198Y6252D01*
X-71783Y6874D01*
X-71638Y7606D01*
X-71783Y8339D01*
X-72198Y8960D01*
X-72820Y9375D01*
X-73552Y9521D01*
X-76080D01*
Y10786D01*
X-75604Y11104D01*
X-75146Y11790D01*
X-74985Y12600D01*
X-75146Y13409D01*
X-75604Y14096D01*
X-76290Y14554D01*
X-77100Y14716D01*
D02*
G37*
G36*
X-153120Y3262D02*
X-158884D01*
X-159520Y3135D01*
X-160059Y2775D01*
X-160419Y2236D01*
X-160545Y1600D01*
X-160419Y964D01*
X-160059Y425D01*
X-159520Y65D01*
X-158884Y-62D01*
X-153120D01*
X-152484Y65D01*
X-151945Y425D01*
X-151584Y964D01*
X-151458Y1600D01*
X-151584Y2236D01*
X-151945Y2775D01*
X-152484Y3135D01*
X-153120Y3262D01*
D02*
G37*
G36*
X-66500Y5515D02*
X-67310Y5354D01*
X-67996Y4896D01*
X-68454Y4210D01*
X-68615Y3400D01*
X-68454Y2590D01*
X-67996Y1904D01*
X-67520Y1586D01*
Y103D01*
X-67442Y-287D01*
X-67221Y-618D01*
X-64971Y-2868D01*
X-64640Y-3089D01*
X-64250Y-3166D01*
X-63090D01*
X-62702Y-3748D01*
X-62080Y-4163D01*
X-61348Y-4308D01*
X-54261D01*
X-53528Y-4163D01*
X-52907Y-3748D01*
X-52492Y-3126D01*
X-52346Y-2394D01*
X-52492Y-1661D01*
X-52907Y-1040D01*
X-53528Y-625D01*
X-54261Y-479D01*
X-56785D01*
Y692D01*
X-54261D01*
X-53528Y837D01*
X-52907Y1252D01*
X-52492Y1874D01*
X-52346Y2606D01*
X-52492Y3339D01*
X-52907Y3960D01*
X-53528Y4375D01*
X-54261Y4521D01*
X-61348D01*
X-62080Y4375D01*
X-62702Y3960D01*
X-63117Y3339D01*
X-63262Y2606D01*
X-63117Y1874D01*
X-62702Y1252D01*
X-62080Y837D01*
X-61348Y692D01*
X-58824D01*
Y-479D01*
X-61348D01*
X-62080Y-625D01*
X-62702Y-1040D01*
X-62760Y-1127D01*
X-63828D01*
X-65480Y525D01*
Y1586D01*
X-65004Y1904D01*
X-64546Y2590D01*
X-64385Y3400D01*
X-64546Y4210D01*
X-65004Y4896D01*
X-65690Y5354D01*
X-66500Y5515D01*
D02*
G37*
G36*
X-131316Y-1738D02*
X-137080D01*
X-137716Y-1865D01*
X-138255Y-2225D01*
X-138616Y-2764D01*
X-138742Y-3400D01*
X-138616Y-4036D01*
X-138255Y-4575D01*
X-137716Y-4935D01*
X-137080Y-5062D01*
X-131316D01*
X-130681Y-4935D01*
X-130141Y-4575D01*
X-129781Y-4036D01*
X-129655Y-3400D01*
X-129781Y-2764D01*
X-130141Y-2225D01*
X-130681Y-1865D01*
X-131316Y-1738D01*
D02*
G37*
G36*
X-42928Y5775D02*
X-47472D01*
Y1625D01*
X-46220D01*
Y-1814D01*
X-47472D01*
Y-2869D01*
X-48589D01*
X-48979Y-2947D01*
X-49310Y-3168D01*
X-52263Y-6121D01*
X-52889Y-6067D01*
X-52907Y-6040D01*
X-53528Y-5625D01*
X-54261Y-5479D01*
X-61348D01*
X-62080Y-5625D01*
X-62702Y-6040D01*
X-63117Y-6661D01*
X-63262Y-7394D01*
X-63117Y-8126D01*
X-62702Y-8748D01*
X-62080Y-9163D01*
X-61348Y-9308D01*
X-54261D01*
X-53528Y-9163D01*
X-52907Y-8748D01*
X-52684Y-8413D01*
X-52094D01*
X-51704Y-8336D01*
X-51373Y-8115D01*
X-48167Y-4909D01*
X-47472D01*
Y-5964D01*
X-42928D01*
Y-1814D01*
X-44180D01*
Y1625D01*
X-42928D01*
Y5775D01*
D02*
G37*
G36*
X-131316Y-6738D02*
X-137080D01*
X-137716Y-6865D01*
X-138255Y-7225D01*
X-138616Y-7764D01*
X-138742Y-8400D01*
X-138616Y-9036D01*
X-138255Y-9575D01*
X-137716Y-9935D01*
X-137080Y-10062D01*
X-131316D01*
X-130681Y-9935D01*
X-130141Y-9575D01*
X-129781Y-9036D01*
X-129655Y-8400D01*
X-129781Y-7764D01*
X-130141Y-7225D01*
X-130681Y-6865D01*
X-131316Y-6738D01*
D02*
G37*
G36*
X-187855Y36730D02*
X-190064D01*
X-190978Y36610D01*
X-191829Y36257D01*
X-192560Y35696D01*
X-192717Y35491D01*
X-196981D01*
Y30909D01*
X-192717D01*
X-192560Y30704D01*
X-191829Y30143D01*
X-190978Y29790D01*
X-190064Y29670D01*
X-189318D01*
X-179310Y19662D01*
Y10414D01*
X-180211Y10141D01*
X-181324Y9546D01*
X-182299Y8746D01*
X-183100Y7770D01*
X-183695Y6658D01*
X-184061Y5450D01*
X-184185Y4194D01*
X-184061Y2939D01*
X-183695Y1731D01*
X-183100Y619D01*
X-182299Y-357D01*
X-181324Y-1157D01*
X-180211Y-1752D01*
X-179310Y-2025D01*
Y-8089D01*
X-180211Y-8363D01*
X-181324Y-8958D01*
X-182299Y-9758D01*
X-183100Y-10734D01*
X-183695Y-11846D01*
X-184061Y-13054D01*
X-184185Y-14310D01*
X-184061Y-15565D01*
X-183695Y-16773D01*
X-183100Y-17885D01*
X-182299Y-18861D01*
X-181324Y-19661D01*
X-180211Y-20256D01*
X-179004Y-20622D01*
X-177748Y-20746D01*
X-173811D01*
X-172555Y-20622D01*
X-171348Y-20256D01*
X-170235Y-19661D01*
X-169260Y-18861D01*
X-168459Y-17885D01*
X-167865Y-16773D01*
X-167498Y-15565D01*
X-167375Y-14310D01*
X-167479Y-13246D01*
X-164673Y-10439D01*
X-156002D01*
X-155221Y-10284D01*
X-154889Y-10062D01*
X-153120D01*
X-152484Y-9935D01*
X-151945Y-9575D01*
X-151584Y-9036D01*
X-151458Y-8400D01*
X-151584Y-7764D01*
X-151945Y-7225D01*
X-152484Y-6865D01*
X-153120Y-6738D01*
X-154889D01*
X-155221Y-6516D01*
X-156002Y-6361D01*
X-165517D01*
X-166298Y-6516D01*
X-166959Y-6958D01*
X-169534Y-9533D01*
X-170235Y-8958D01*
X-171348Y-8363D01*
X-172249Y-8089D01*
Y-2025D01*
X-171348Y-1752D01*
X-170235Y-1157D01*
X-169260Y-357D01*
X-168459Y619D01*
X-167865Y1731D01*
X-167498Y2939D01*
X-167375Y4194D01*
X-167498Y5450D01*
X-167865Y6658D01*
X-168459Y7770D01*
X-169260Y8746D01*
X-170235Y9546D01*
X-171348Y10141D01*
X-172249Y10414D01*
Y21124D01*
X-172370Y22038D01*
X-172722Y22889D01*
X-173283Y23621D01*
X-183147Y33484D01*
Y35491D01*
X-185154D01*
X-185359Y35696D01*
X-186090Y36257D01*
X-186942Y36610D01*
X-187855Y36730D01*
D02*
G37*
G36*
X-105965Y-7143D02*
X-120035D01*
Y-15687D01*
X-120075Y-15883D01*
Y-21280D01*
X-124466Y-25671D01*
X-124928Y-25480D01*
Y-23039D01*
X-126588D01*
X-132159Y-17468D01*
Y-15062D01*
X-131316D01*
X-130681Y-14935D01*
X-130141Y-14575D01*
X-129781Y-14036D01*
X-129655Y-13400D01*
X-129781Y-12764D01*
X-130141Y-12225D01*
X-130681Y-11865D01*
X-131316Y-11738D01*
X-133086D01*
X-133418Y-11516D01*
X-134198Y-11361D01*
X-134979Y-11516D01*
X-135311Y-11738D01*
X-137080D01*
X-137716Y-11865D01*
X-138255Y-12225D01*
X-138616Y-12764D01*
X-138742Y-13400D01*
X-138616Y-14036D01*
X-138255Y-14575D01*
X-137716Y-14935D01*
X-137080Y-15062D01*
X-136238D01*
Y-18313D01*
X-136082Y-19093D01*
X-135640Y-19754D01*
X-129472Y-25923D01*
Y-27189D01*
X-126637D01*
X-126446Y-27651D01*
X-127345Y-28550D01*
X-129472D01*
Y-29816D01*
X-133017Y-33361D01*
X-151161D01*
X-151724Y-32798D01*
Y-30337D01*
X-151763Y-30140D01*
Y-23463D01*
X-154062D01*
Y-15062D01*
X-153120D01*
X-152484Y-14935D01*
X-151945Y-14575D01*
X-151584Y-14036D01*
X-151458Y-13400D01*
X-151584Y-12764D01*
X-151945Y-12225D01*
X-152484Y-11865D01*
X-153120Y-11738D01*
X-154889D01*
X-155221Y-11516D01*
X-156002Y-11361D01*
X-156782Y-11516D01*
X-157114Y-11738D01*
X-158884D01*
X-159520Y-11865D01*
X-160059Y-12225D01*
X-160419Y-12764D01*
X-160545Y-13400D01*
X-160419Y-14036D01*
X-160059Y-14575D01*
X-159520Y-14935D01*
X-158884Y-15062D01*
X-158140D01*
Y-23463D01*
X-160637D01*
Y-32337D01*
X-155802D01*
Y-33643D01*
X-155647Y-34423D01*
X-155205Y-35085D01*
X-153448Y-36842D01*
X-152786Y-37284D01*
X-152006Y-37439D01*
X-132172D01*
X-131392Y-37284D01*
X-130730Y-36842D01*
X-126588Y-32700D01*
X-124928D01*
Y-31901D01*
X-116594Y-23566D01*
X-116151Y-22905D01*
X-115996Y-22124D01*
Y-17884D01*
X-105965D01*
Y-7143D01*
D02*
G37*
G36*
X-77525Y-15528D02*
X-81675D01*
Y-20072D01*
X-79781D01*
Y-24010D01*
X-79835Y-24091D01*
X-79966Y-24747D01*
Y-31637D01*
X-79835Y-32293D01*
X-79464Y-32849D01*
X-78908Y-33221D01*
X-78252Y-33351D01*
X-77596Y-33221D01*
X-77040Y-32849D01*
X-76668Y-32293D01*
X-76538Y-31637D01*
Y-24747D01*
X-76668Y-24091D01*
X-76723Y-24010D01*
Y-19345D01*
X-76839Y-18760D01*
X-77170Y-18263D01*
X-77525Y-17909D01*
Y-15528D01*
D02*
G37*
G36*
X-68252Y-23033D02*
X-68908Y-23164D01*
X-69464Y-23535D01*
X-69836Y-24091D01*
X-69966Y-24747D01*
Y-31637D01*
X-69836Y-32293D01*
X-69720Y-32466D01*
Y-34486D01*
X-70196Y-34804D01*
X-70654Y-35490D01*
X-70745Y-35948D01*
X-71255D01*
X-71321Y-35614D01*
X-71780Y-34928D01*
X-72256Y-34610D01*
Y-32994D01*
X-72040Y-32849D01*
X-71668Y-32293D01*
X-71538Y-31637D01*
Y-24747D01*
X-71668Y-24091D01*
X-72040Y-23535D01*
X-72596Y-23164D01*
X-73252Y-23033D01*
X-73908Y-23164D01*
X-74464Y-23535D01*
X-74835Y-24091D01*
X-74966Y-24747D01*
Y-31637D01*
X-74835Y-32293D01*
X-74464Y-32849D01*
X-74296Y-32961D01*
Y-34610D01*
X-74772Y-34928D01*
X-75230Y-35614D01*
X-75391Y-36424D01*
X-75230Y-37234D01*
X-74772Y-37920D01*
X-74085Y-38378D01*
X-73276Y-38539D01*
X-72466Y-38378D01*
X-71780Y-37920D01*
X-71321Y-37234D01*
X-71231Y-36776D01*
X-70721D01*
X-70654Y-37110D01*
X-70196Y-37796D01*
X-69510Y-38254D01*
X-68700Y-38415D01*
X-67890Y-38254D01*
X-67204Y-37796D01*
X-66746Y-37110D01*
X-66585Y-36300D01*
X-66746Y-35490D01*
X-67204Y-34804D01*
X-67680Y-34486D01*
Y-33237D01*
X-67596Y-33221D01*
X-67040Y-32849D01*
X-66668Y-32293D01*
X-66538Y-31637D01*
Y-24747D01*
X-66668Y-24091D01*
X-67040Y-23535D01*
X-67596Y-23164D01*
X-68252Y-23033D01*
D02*
G37*
G36*
X-108863Y-25724D02*
X-117737D01*
Y-34598D01*
X-110511D01*
X-110363Y-34627D01*
X-105997D01*
X-104045Y-36579D01*
Y-38566D01*
X-99502D01*
Y-34416D01*
X-100244D01*
Y-30789D01*
X-99916Y-30299D01*
X-99755Y-29489D01*
X-99916Y-28680D01*
X-100375Y-27993D01*
X-101061Y-27535D01*
X-101871Y-27374D01*
X-102680Y-27535D01*
X-103367Y-27993D01*
X-103825Y-28680D01*
X-103986Y-29489D01*
X-103825Y-30299D01*
X-103367Y-30985D01*
X-103303Y-31028D01*
Y-32342D01*
X-103764Y-32533D01*
X-104282Y-32016D01*
X-104778Y-31685D01*
X-105363Y-31568D01*
X-108863D01*
Y-25724D01*
D02*
G37*
G36*
X-209047Y-36417D02*
X-214953D01*
X-215854Y-36536D01*
X-216694Y-36884D01*
X-217415Y-37437D01*
X-217969Y-38159D01*
X-218317Y-38999D01*
X-218435Y-39900D01*
X-218317Y-40801D01*
X-217969Y-41641D01*
X-217415Y-42362D01*
X-216694Y-42916D01*
X-215854Y-43264D01*
X-214953Y-43382D01*
X-209047D01*
X-208146Y-43264D01*
X-207306Y-42916D01*
X-206585Y-42362D01*
X-206031Y-41641D01*
X-205683Y-40801D01*
X-205565Y-39900D01*
X-205683Y-38999D01*
X-206031Y-38159D01*
X-206585Y-37437D01*
X-207306Y-36884D01*
X-208146Y-36536D01*
X-209047Y-36417D01*
D02*
G37*
G36*
X-83252Y-45081D02*
X-83908Y-45211D01*
X-84464Y-45583D01*
X-84835Y-46139D01*
X-84966Y-46795D01*
Y-53684D01*
X-84835Y-54340D01*
X-84712Y-54525D01*
Y-57606D01*
X-84596Y-58192D01*
X-84264Y-58688D01*
X-82872Y-60080D01*
X-82915Y-60300D01*
X-82754Y-61110D01*
X-82296Y-61796D01*
X-81610Y-62254D01*
X-80800Y-62415D01*
X-79990Y-62254D01*
X-79304Y-61796D01*
X-78846Y-61110D01*
X-78685Y-60300D01*
X-78846Y-59490D01*
X-79304Y-58804D01*
X-79990Y-58346D01*
X-80352Y-58274D01*
X-81653Y-56973D01*
Y-54264D01*
X-81538Y-53684D01*
Y-46795D01*
X-81668Y-46139D01*
X-82040Y-45583D01*
X-82596Y-45211D01*
X-83252Y-45081D01*
D02*
G37*
G36*
X-68252D02*
X-68908Y-45211D01*
X-69464Y-45583D01*
X-69836Y-46139D01*
X-69966Y-46795D01*
Y-53684D01*
X-69836Y-54340D01*
X-69712Y-54525D01*
Y-56195D01*
X-69596Y-56780D01*
X-69264Y-57276D01*
X-66149Y-60391D01*
Y-62772D01*
X-61999D01*
Y-58228D01*
X-63986D01*
X-66653Y-55561D01*
Y-54264D01*
X-66538Y-53684D01*
Y-46795D01*
X-66668Y-46139D01*
X-67040Y-45583D01*
X-67596Y-45211D01*
X-68252Y-45081D01*
D02*
G37*
G36*
X-96100Y-64967D02*
X-101824D01*
Y-67385D01*
X-102019Y-67639D01*
X-102372Y-68490D01*
X-102492Y-69404D01*
Y-70699D01*
X-112416Y-80623D01*
X-112977Y-81354D01*
X-113330Y-82206D01*
X-113426Y-82939D01*
X-131042D01*
Y-110317D01*
X-115648D01*
Y-113985D01*
X-115528Y-114899D01*
X-115175Y-115750D01*
X-114614Y-116481D01*
X-111099Y-119996D01*
X-110368Y-120557D01*
X-109517Y-120910D01*
X-108603Y-121030D01*
X-103562D01*
Y-121150D01*
X-96263D01*
Y-113850D01*
X-103562D01*
Y-113970D01*
X-107141D01*
X-108588Y-112523D01*
Y-110317D01*
X-106420D01*
Y-88046D01*
X-106389Y-87817D01*
X-106389Y-87817D01*
Y-84582D01*
X-96465Y-74658D01*
X-95904Y-73927D01*
X-95552Y-73075D01*
X-95431Y-72162D01*
X-95431Y-72162D01*
Y-70933D01*
X-94841D01*
X-94510Y-71154D01*
X-93700Y-71315D01*
X-92890Y-71154D01*
X-92204Y-70696D01*
X-91746Y-70010D01*
X-91585Y-69200D01*
X-91746Y-68390D01*
X-92204Y-67704D01*
X-92890Y-67246D01*
X-93700Y-67085D01*
X-94510Y-67246D01*
X-95196Y-67704D01*
X-95310Y-67874D01*
X-95807D01*
X-95904Y-67639D01*
X-96100Y-67385D01*
Y-64967D01*
D02*
G37*
G36*
X-212100Y-64400D02*
X-213156Y-64539D01*
X-214139Y-64947D01*
X-214984Y-65595D01*
X-215632Y-66439D01*
X-216039Y-67423D01*
X-216178Y-68479D01*
X-216039Y-69534D01*
X-215632Y-70518D01*
X-214984Y-71362D01*
X-214139Y-72010D01*
X-213156Y-72418D01*
X-212100Y-72557D01*
X-211045Y-72418D01*
X-210061Y-72010D01*
X-209216Y-71362D01*
X-208568Y-70518D01*
X-208161Y-69534D01*
X-208022Y-68479D01*
X-208161Y-67423D01*
X-208568Y-66439D01*
X-209216Y-65595D01*
X-210061Y-64947D01*
X-211045Y-64539D01*
X-212100Y-64400D01*
D02*
G37*
G36*
X-28225Y-58228D02*
X-32375D01*
Y-62772D01*
X-30388D01*
X-26567Y-66592D01*
Y-68042D01*
X-26538Y-68189D01*
Y-73841D01*
X-20813D01*
Y-64967D01*
X-23897D01*
X-23956Y-64877D01*
X-28225Y-60609D01*
Y-58228D01*
D02*
G37*
G36*
X-88252Y-45081D02*
X-88908Y-45211D01*
X-89464Y-45583D01*
X-89836Y-46139D01*
X-89966Y-46795D01*
Y-53684D01*
X-89851Y-54264D01*
Y-55250D01*
X-92829Y-58228D01*
X-94816D01*
Y-62772D01*
X-90666D01*
Y-60391D01*
X-89767Y-59492D01*
X-89305Y-59683D01*
Y-62772D01*
X-87318D01*
X-83901Y-66189D01*
Y-68042D01*
X-83871Y-68189D01*
Y-73841D01*
X-78147D01*
Y-64967D01*
X-80961D01*
X-81290Y-64474D01*
X-85155Y-60609D01*
Y-58228D01*
X-87850D01*
X-88041Y-57766D01*
X-87240Y-56965D01*
X-86908Y-56469D01*
X-86792Y-55884D01*
Y-54525D01*
X-86668Y-54340D01*
X-86538Y-53684D01*
Y-46795D01*
X-86668Y-46139D01*
X-87040Y-45583D01*
X-87596Y-45211D01*
X-88252Y-45081D01*
D02*
G37*
G36*
X-212100Y-74243D02*
X-213156Y-74382D01*
X-214139Y-74790D01*
X-214984Y-75438D01*
X-215632Y-76282D01*
X-216039Y-77266D01*
X-216178Y-78321D01*
X-216039Y-79377D01*
X-215632Y-80361D01*
X-214984Y-81205D01*
X-214139Y-81853D01*
X-213156Y-82261D01*
X-212100Y-82400D01*
X-211045Y-82261D01*
X-210061Y-81853D01*
X-209216Y-81205D01*
X-208568Y-80361D01*
X-208161Y-79377D01*
X-208022Y-78321D01*
X-208161Y-77266D01*
X-208568Y-76282D01*
X-209216Y-75438D01*
X-210061Y-74790D01*
X-211045Y-74382D01*
X-212100Y-74243D01*
D02*
G37*
G36*
X-173811Y-26377D02*
X-177748D01*
X-179004Y-26501D01*
X-180211Y-26867D01*
X-181324Y-27462D01*
X-182299Y-28262D01*
X-183100Y-29237D01*
X-183695Y-30350D01*
X-184061Y-31558D01*
X-184185Y-32813D01*
X-184061Y-34069D01*
X-183695Y-35276D01*
X-183100Y-36389D01*
X-182299Y-37365D01*
X-181324Y-38165D01*
X-180211Y-38760D01*
X-179310Y-39033D01*
Y-63272D01*
X-194055Y-78018D01*
X-197937D01*
Y-81900D01*
X-200671Y-84633D01*
X-210059D01*
X-210061Y-84632D01*
X-211045Y-84224D01*
X-212100Y-84085D01*
X-213156Y-84224D01*
X-214139Y-84632D01*
X-214984Y-85280D01*
X-215632Y-86124D01*
X-216039Y-87108D01*
X-216178Y-88164D01*
X-216039Y-89219D01*
X-215632Y-90203D01*
X-214984Y-91047D01*
X-214139Y-91695D01*
X-213156Y-92103D01*
X-212100Y-92242D01*
X-211045Y-92103D01*
X-210061Y-91695D01*
X-210059Y-91694D01*
X-199208D01*
X-198295Y-91573D01*
X-197443Y-91221D01*
X-196712Y-90660D01*
X-192945Y-86892D01*
X-189063D01*
Y-85985D01*
X-170507D01*
X-163153Y-93339D01*
X-163387Y-93813D01*
X-164100Y-93719D01*
X-165053Y-93844D01*
X-165941Y-94212D01*
X-166703Y-94797D01*
X-167288Y-95560D01*
X-167656Y-96447D01*
X-167781Y-97400D01*
X-167656Y-98353D01*
X-167288Y-99240D01*
X-166703Y-100003D01*
X-165941Y-100588D01*
X-165053Y-100956D01*
X-164100Y-101081D01*
X-163147Y-100956D01*
X-162259Y-100588D01*
X-161497Y-100003D01*
X-160912Y-99240D01*
X-160544Y-98353D01*
X-160419Y-97400D01*
X-160513Y-96687D01*
X-160039Y-96453D01*
X-157313Y-99179D01*
X-157288Y-99240D01*
X-156703Y-100003D01*
X-155941Y-100588D01*
X-155053Y-100956D01*
X-154100Y-101081D01*
X-153147Y-100956D01*
X-152259Y-100588D01*
X-151497Y-100003D01*
X-150912Y-99240D01*
X-150544Y-98353D01*
X-150419Y-97400D01*
X-150544Y-96447D01*
X-150912Y-95560D01*
X-151497Y-94797D01*
X-152259Y-94212D01*
X-152321Y-94187D01*
X-166549Y-79959D01*
X-167280Y-79398D01*
X-168131Y-79045D01*
X-169045Y-78925D01*
X-184324D01*
X-184515Y-78463D01*
X-173283Y-67231D01*
X-172722Y-66500D01*
X-172370Y-65648D01*
X-172249Y-64735D01*
Y-39033D01*
X-171348Y-38760D01*
X-170235Y-38165D01*
X-169260Y-37365D01*
X-168459Y-36389D01*
X-167865Y-35276D01*
X-167498Y-34069D01*
X-167375Y-32813D01*
X-167498Y-31558D01*
X-167865Y-30350D01*
X-168459Y-29237D01*
X-169260Y-28262D01*
X-170235Y-27462D01*
X-171348Y-26867D01*
X-172555Y-26501D01*
X-173811Y-26377D01*
D02*
G37*
G36*
X-174100Y-93719D02*
X-175053Y-93844D01*
X-175941Y-94212D01*
X-176703Y-94797D01*
X-177288Y-95560D01*
X-177656Y-96447D01*
X-177781Y-97400D01*
X-177656Y-98353D01*
X-177288Y-99240D01*
X-176703Y-100003D01*
X-175941Y-100588D01*
X-175053Y-100956D01*
X-174100Y-101081D01*
X-173147Y-100956D01*
X-172259Y-100588D01*
X-171497Y-100003D01*
X-170912Y-99240D01*
X-170544Y-98353D01*
X-170419Y-97400D01*
X-170544Y-96447D01*
X-170912Y-95560D01*
X-171497Y-94797D01*
X-172259Y-94212D01*
X-173147Y-93844D01*
X-174100Y-93719D01*
D02*
G37*
G36*
X-20420Y-82939D02*
X-45042D01*
Y-110317D01*
X-20420D01*
Y-82939D01*
D02*
G37*
G36*
X-77753D02*
X-102375D01*
Y-110317D01*
X-77753D01*
Y-82939D01*
D02*
G37*
G36*
X216573Y28135D02*
X213211D01*
Y23198D01*
X216573D01*
Y28135D01*
D02*
G37*
G36*
X224753Y-6041D02*
X220210D01*
Y-10191D01*
X221216D01*
Y-13041D01*
X220424D01*
Y-17190D01*
X224574D01*
Y-13041D01*
X223765D01*
Y-10191D01*
X224753D01*
Y-6041D01*
D02*
G37*
G36*
X216400Y-19184D02*
X215591Y-19346D01*
X214904Y-19804D01*
X214446Y-20491D01*
X214284Y-21300D01*
X214446Y-22109D01*
X214904Y-22796D01*
X215591Y-23254D01*
X216400Y-23415D01*
X217210Y-23254D01*
X217896Y-22796D01*
X218214Y-22320D01*
X220452D01*
Y-23486D01*
X224602D01*
Y-19336D01*
X220452D01*
Y-20280D01*
X218214D01*
X217896Y-19804D01*
X217210Y-19346D01*
X216400Y-19184D01*
D02*
G37*
G36*
X161645Y-70428D02*
X157495D01*
Y-71580D01*
X155314D01*
X154996Y-71104D01*
X154309Y-70646D01*
X153500Y-70485D01*
X152690Y-70646D01*
X152004Y-71104D01*
X151546Y-71790D01*
X151384Y-72600D01*
X151546Y-73410D01*
X152004Y-74096D01*
X152690Y-74554D01*
X153500Y-74715D01*
X154309Y-74554D01*
X154996Y-74096D01*
X155314Y-73620D01*
X157495D01*
Y-74972D01*
X158489D01*
Y-78118D01*
X157434D01*
Y-82661D01*
X161584D01*
Y-78118D01*
X160529D01*
Y-74972D01*
X161645D01*
Y-70428D01*
D02*
G37*
G36*
X121600Y-66685D02*
X120791Y-66846D01*
X120104Y-67304D01*
X119646Y-67990D01*
X119484Y-68800D01*
X119646Y-69610D01*
X120104Y-70296D01*
X120791Y-70754D01*
X121600Y-70915D01*
X122304Y-70776D01*
X123995Y-72467D01*
Y-74972D01*
X124989D01*
Y-78118D01*
X123934D01*
Y-82661D01*
X128084D01*
Y-78118D01*
X127029D01*
Y-74972D01*
X128145D01*
Y-70428D01*
X124840D01*
X123632Y-69220D01*
X123715Y-68800D01*
X123554Y-67990D01*
X123096Y-67304D01*
X122409Y-66846D01*
X121600Y-66685D01*
D02*
G37*
G36*
X128084Y-85828D02*
X123934D01*
Y-87080D01*
X121814D01*
X121496Y-86604D01*
X120809Y-86146D01*
X120000Y-85985D01*
X119191Y-86146D01*
X118504Y-86604D01*
X118046Y-87290D01*
X117885Y-88100D01*
X118046Y-88910D01*
X118504Y-89596D01*
X119191Y-90054D01*
X120000Y-90215D01*
X120809Y-90054D01*
X121496Y-89596D01*
X121814Y-89120D01*
X123934D01*
Y-90372D01*
X128084D01*
Y-85828D01*
D02*
G37*
G36*
X139600Y-85785D02*
X138791Y-85946D01*
X138104Y-86404D01*
X137646Y-87090D01*
X137485Y-87900D01*
X137646Y-88710D01*
X138104Y-89396D01*
X138791Y-89854D01*
X139600Y-90015D01*
X140410Y-89854D01*
X141096Y-89396D01*
X141280Y-89120D01*
X157434D01*
Y-90372D01*
X161584D01*
Y-85828D01*
X157434D01*
Y-87080D01*
X141548D01*
X141096Y-86404D01*
X140410Y-85946D01*
X139600Y-85785D01*
D02*
G37*
G36*
X202100Y-103484D02*
X201290Y-103646D01*
X200604Y-104104D01*
X200146Y-104790D01*
X199985Y-105600D01*
X200146Y-106410D01*
X200604Y-107096D01*
X201080Y-107414D01*
Y-107990D01*
X199530D01*
Y-114110D01*
X205250D01*
Y-107990D01*
X203120D01*
Y-107414D01*
X203596Y-107096D01*
X204054Y-106410D01*
X204216Y-105600D01*
X204054Y-104790D01*
X203596Y-104104D01*
X202909Y-103646D01*
X202100Y-103484D01*
D02*
G37*
G36*
X167095Y-78118D02*
X162945D01*
Y-82661D01*
X164000D01*
Y-85828D01*
X162945D01*
Y-90372D01*
X165653D01*
X167870Y-92589D01*
Y-107990D01*
X166030D01*
Y-114110D01*
X171750D01*
Y-107990D01*
X169910D01*
Y-92167D01*
X169832Y-91777D01*
X169611Y-91446D01*
X167095Y-88930D01*
Y-85828D01*
X166040D01*
Y-82661D01*
X167095D01*
Y-78118D01*
D02*
G37*
G36*
X133595D02*
X129445D01*
Y-82661D01*
X130500D01*
Y-85828D01*
X129445D01*
Y-90372D01*
X132153D01*
X134370Y-92589D01*
Y-107990D01*
X132530D01*
Y-114110D01*
X138250D01*
Y-107990D01*
X136410D01*
Y-92167D01*
X136332Y-91777D01*
X136111Y-91446D01*
X133595Y-88930D01*
Y-85828D01*
X132540D01*
Y-82661D01*
X133595D01*
Y-78118D01*
D02*
G37*
%LPD*%
D10*
X30192Y15926D02*
G03*
X20974Y15812I-4601J-670D01*
G01*
X147700Y95143D02*
X154943D01*
X155500Y94586D01*
X130548Y88848D02*
X147728D01*
X120700Y79000D02*
X130548Y88848D01*
X171989Y101325D02*
X173400Y99914D01*
X167925Y101325D02*
X171989D01*
X173400Y96600D02*
Y99914D01*
X166900Y100300D02*
X167925Y101325D01*
X127400Y100300D02*
X166900D01*
X170300Y93500D02*
X173400Y96600D01*
X110300Y83200D02*
X127400Y100300D01*
X111800Y21300D02*
Y82500D01*
X128050Y98750D02*
X170150D01*
X111800Y82500D02*
X128050Y98750D01*
X110300Y21921D02*
Y83200D01*
X58119Y-48394D02*
X63925Y-54200D01*
X58119Y-48394D02*
Y-43275D01*
X56151Y-50951D02*
Y-43275D01*
Y-50951D02*
X59300Y-54100D01*
X226800Y-27314D02*
Y-6727D01*
X162642Y-46058D02*
X173568D01*
X-78056Y-8205D02*
X-76900D01*
X-76314Y-10450D02*
X-46250D01*
X197063Y-86660D02*
Y-86463D01*
X192107Y-85511D02*
Y-74684D01*
X191393Y-86225D02*
X192107Y-85511D01*
X210979Y-84300D02*
X211176D01*
X215076Y-88200D01*
X210979Y-78789D02*
Y-70932D01*
X211000Y-70911D01*
X210803D02*
X211000D01*
X205600Y-65708D02*
X210803Y-70911D01*
X205600Y-65708D02*
Y-62800D01*
X191722Y-56987D02*
X194628Y-59894D01*
X191722Y-56987D02*
Y-56808D01*
X191284Y-56370D02*
X191722Y-56808D01*
X202694Y-59894D02*
X205600Y-62800D01*
X191284Y-56370D02*
Y-53932D01*
X194628Y-59894D02*
X202694D01*
X210803Y-65400D02*
X211000D01*
X203703Y-58300D02*
X210803Y-65400D01*
X195818Y-58300D02*
X203703D01*
X-8900Y-15900D02*
X-3937Y-10937D01*
Y-6201D01*
X-17500Y-8200D02*
X-13237Y-3937D01*
X-6201D01*
X-15314Y-2362D02*
X-6201D01*
X-17376Y-300D02*
X-15314Y-2362D01*
X-17600Y-300D02*
X-17376D01*
X-17500Y4200D02*
Y8200D01*
Y4200D02*
X-12513Y-787D01*
X-6201D01*
X10562Y-2362D02*
X12100Y-3900D01*
X6201Y-2362D02*
X10562D01*
X9937Y3937D02*
X20941Y14941D01*
X6201Y3937D02*
X9937D01*
X17600Y7675D02*
Y7900D01*
X6201Y2362D02*
X12287D01*
X17600Y7675D01*
X6201Y787D02*
X16456D01*
X17543Y-300D01*
X17900D01*
X11109Y-787D02*
X18300Y-7979D01*
X6201Y-787D02*
X11109D01*
X3937Y6201D02*
Y11437D01*
X202100Y-110760D02*
X202390Y-111050D01*
X202100Y-110760D02*
Y-105600D01*
X173568Y-46058D02*
X185342D01*
X188300Y-43100D01*
X107700Y4166D02*
X111034D01*
X189648Y46084D02*
Y49970D01*
X188400Y51218D02*
X189648Y49970D01*
X188400Y51218D02*
Y51800D01*
X190959Y-45300D02*
X193041D01*
X173568Y-48027D02*
X188232D01*
X190959Y-45300D01*
X195209Y-53920D02*
Y-47467D01*
X193041Y-45300D02*
X195209Y-47467D01*
Y-53920D02*
X195221Y-53932D01*
X195233Y-53944D01*
X192000Y-48226D02*
Y-47900D01*
Y-48226D02*
X193253Y-49479D01*
Y-53932D02*
Y-49479D01*
X208541Y6406D02*
X208563Y6384D01*
X216467D01*
X202958Y-28342D02*
X207032D01*
X199900Y-31400D02*
X202958Y-28342D01*
X67600Y26100D02*
X73461Y31961D01*
X77800D01*
X52200Y31900D02*
X64800D01*
X79145Y-32933D02*
X92621Y-19457D01*
X105560D01*
X102194Y194D02*
X105525D01*
X100200Y-1800D02*
X100200D01*
X105525Y194D02*
X105560Y229D01*
X100200Y-1800D02*
X102194Y194D01*
X91600Y-49700D02*
X92011Y-49289D01*
X97111Y-46493D02*
Y-46262D01*
X92011Y-49289D02*
X94315D01*
X97111Y-46262D02*
X97490Y-45883D01*
X94315Y-49289D02*
X97111Y-46493D01*
X97490Y-45883D02*
Y-43275D01*
X34400Y-34500D02*
X34597D01*
X38789Y-30308D01*
Y-28911D01*
X39200Y-28500D01*
X47800Y-81700D02*
Y-59500D01*
X36103Y-93397D02*
X47800Y-81700D01*
X29800Y-41500D02*
X47800Y-59500D01*
X35482Y-91897D02*
X46300Y-81079D01*
Y-60121D01*
X28300Y-42121D02*
X46300Y-60121D01*
X44800Y-80457D02*
Y-60743D01*
X34861Y-90397D02*
X44800Y-80457D01*
X26800Y-42743D02*
X44800Y-60743D01*
X43300Y-79836D02*
Y-61364D01*
X25300Y-43364D02*
X43300Y-61364D01*
X34799Y-88337D02*
X43300Y-79836D01*
X41800Y-79215D02*
Y-61985D01*
X23800Y-43985D02*
X41800Y-61985D01*
X34555Y-86460D02*
X41800Y-79215D01*
X34403Y-84491D02*
X40300Y-78593D01*
X22300Y-44607D02*
X40300Y-62607D01*
Y-78593D02*
Y-62607D01*
X18349Y-84491D02*
X34403D01*
X18349Y-86460D02*
X34555D01*
X18440Y-88337D02*
X34799D01*
X18349Y-90397D02*
X34861D01*
X25882Y-91897D02*
X35482D01*
X26503Y-93397D02*
X36103D01*
X224330Y-29784D02*
Y-29587D01*
Y-37784D02*
Y-29784D01*
X-7246Y36900D02*
X-3702D01*
X-11237D02*
X-7246D01*
X-91397Y9211D02*
X-91200D01*
X-96608Y4000D02*
X-91397Y9211D01*
X-96900Y4000D02*
X-96608D01*
X211300Y15100D02*
X211316Y15084D01*
X216467D01*
X224330Y-29587D02*
X225405Y-28513D01*
X225602D01*
X226800Y-27314D01*
X222678Y-2605D02*
X226800Y-6727D01*
X222481Y-2605D02*
X222678D01*
X214800Y-2689D02*
Y4520D01*
X216467Y6187D01*
Y6384D01*
X165081Y-72700D02*
Y-63090D01*
X162503Y-60511D02*
X165081Y-63090D01*
X162306Y-60511D02*
X162503D01*
X215076Y-88200D02*
X224000D01*
X119740Y-116560D02*
Y-113696D01*
Y-117150D02*
Y-116560D01*
Y-113696D02*
X120326Y-113110D01*
X120340D01*
X122200Y-111250D01*
Y-111050D01*
X121530Y-114770D02*
X135870D01*
X119740Y-116560D02*
X121530Y-114770D01*
X136390Y-115290D02*
X136580D01*
X137850Y-117150D02*
Y-116560D01*
X136580Y-115290D02*
X137850Y-116560D01*
X135870Y-114770D02*
X136390Y-115290D01*
X153240Y-116560D02*
Y-113696D01*
Y-117150D02*
Y-116560D01*
X155700Y-111250D02*
Y-111050D01*
X153840Y-113110D02*
X155700Y-111250D01*
X153826Y-113110D02*
X153840D01*
X153240Y-113696D02*
X153826Y-113110D01*
X155100Y-114700D02*
X169490D01*
X171350Y-116560D01*
X153240D02*
X155100Y-114700D01*
X171350Y-117150D02*
Y-116560D01*
X186740D02*
Y-113696D01*
Y-117150D02*
Y-116560D01*
Y-113696D02*
X187326Y-113110D01*
X187340D01*
X189200Y-111250D01*
Y-111050D01*
X189120Y-114770D02*
X202470D01*
X188010Y-115290D02*
X188600D01*
X186740Y-116560D02*
X188010Y-115290D01*
X188600D02*
X189120Y-114770D01*
X202470D02*
X202990Y-115290D01*
X203580D01*
X204850Y-117150D02*
Y-116560D01*
X203580Y-115290D02*
X204850Y-116560D01*
X30240Y14760D02*
Y15877D01*
X32977Y12023D02*
X58777D01*
X30240Y14760D02*
X32977Y12023D01*
X20941Y14941D02*
Y15779D01*
X20974Y15812D01*
X12260Y15800D02*
X27200Y30740D01*
X8300Y15800D02*
X12260D01*
X3937Y11437D02*
X8300Y15800D01*
X-8900Y-15900D02*
X8800D01*
X12100Y-12600D02*
Y-3900D01*
X8800Y-15900D02*
X12100Y-12600D01*
X34400Y-42900D02*
Y-40011D01*
Y-42900D02*
X36000Y-44500D01*
X42800D01*
X80800Y36700D02*
X87600Y29900D01*
X38600Y36700D02*
X80800D01*
X38600Y39200D02*
X38600Y39200D01*
X82492D01*
X87600Y23600D02*
Y29900D01*
X82492Y39200D02*
X95303Y26389D01*
X111034Y4166D02*
X112200Y3000D01*
Y-1400D02*
Y3000D01*
X105580Y-1720D02*
X112200D01*
X111826Y-25226D02*
X119151Y-32551D01*
X109669Y-27331D02*
X111634Y-25366D01*
X110888Y-17488D02*
X111800Y-18400D01*
Y-25200D02*
Y-18400D01*
X119151Y-35232D02*
Y-32551D01*
X105560Y-27331D02*
X109669D01*
X105560Y-17488D02*
X110888D01*
X119151Y-35232D02*
X120145Y-36226D01*
Y-44763D02*
Y-36226D01*
X99423Y-50477D02*
Y-44679D01*
X95303Y26389D02*
X95500D01*
X42951D02*
X52200D01*
X36370Y32970D02*
X42951Y26389D01*
X139600Y-87900D02*
X139800Y-88100D01*
X159509D01*
X120000D02*
X126009D01*
X99200Y-50700D02*
X99423Y-50477D01*
X99541Y-44763D02*
X120145D01*
X99458Y-44679D02*
X99541Y-44763D01*
X99458Y-44679D02*
Y-43275D01*
X127834Y15457D02*
Y15653D01*
Y15457D02*
X131279Y12011D01*
X105560Y-1740D02*
X105580Y-1720D01*
X35105Y-35205D02*
X46112D01*
X34400Y-34500D02*
X35105Y-35205D01*
X34400Y-40011D02*
X40715D01*
X43553Y-37173D01*
X46112D01*
X-57804Y-2394D02*
Y2606D01*
X64628Y-16059D02*
Y-15971D01*
X86000Y5400D01*
X86221D01*
X91584Y10762D01*
Y16173D01*
X93553Y8953D02*
Y16173D01*
X69200Y-15400D02*
X93553Y8953D01*
X71899Y-16480D02*
X110300Y21921D01*
X71899Y-43275D02*
Y-16480D01*
X73867Y-16633D02*
X111800Y21300D01*
X73867Y-43275D02*
Y-16633D01*
X-77100Y2611D02*
Y12600D01*
Y2611D02*
X-77096Y2606D01*
X-64250Y-2147D02*
X-58051D01*
X-66500Y103D02*
X-64250Y-2147D01*
X-66500Y103D02*
Y3400D01*
X-58051Y-2147D02*
X-57804Y-2394D01*
X-91300Y9311D02*
X-91200Y9211D01*
X77114Y214D02*
X80200Y3300D01*
X46126Y214D02*
X77114D01*
X89616Y10916D02*
Y16173D01*
X77100Y6900D02*
X85600D01*
X89616Y10916D01*
X87612Y12312D02*
Y16138D01*
X74800Y9700D02*
X85000D01*
X87612Y12312D01*
X72000Y6900D02*
X74800Y9700D01*
X-78867Y-7394D02*
X-78056Y-8205D01*
X-76900Y-9864D02*
X-76314Y-10450D01*
X-76900Y-9864D02*
Y-8205D01*
X-46250Y-10450D02*
X-45200Y-9400D01*
X-3702Y36900D02*
X-902Y34100D01*
X24111D02*
X25100Y35089D01*
X-902Y34100D02*
X24111D01*
X-20703Y35089D02*
X-13048D01*
X-11237Y36900D01*
X-20703Y54200D02*
X-20506D01*
X-19432Y55275D01*
Y55472D01*
X-10400Y64503D01*
Y94600D01*
X-85224Y-7394D02*
X-80639D01*
X-91200Y-9400D02*
X-90125Y-8325D01*
X-86155D01*
X-85224Y-7394D01*
X-63252Y22005D02*
Y29261D01*
Y22005D02*
X-61631Y20384D01*
Y19803D02*
Y20384D01*
X-45200Y9211D02*
X-45100Y9311D01*
Y14600D01*
X56100Y-19800D02*
Y-2500D01*
X52506Y-23394D02*
X56100Y-19800D01*
X53400Y-17182D02*
Y-5600D01*
X49157Y-21425D02*
X53400Y-17182D01*
X46112Y-23394D02*
X52506D01*
X-83276Y29285D02*
Y36324D01*
X-83100Y36500D01*
X-78400Y36700D02*
X-78234Y36534D01*
Y29278D02*
Y36534D01*
X22300Y-44607D02*
Y-30900D01*
X23800Y-43985D02*
Y-31521D01*
X25300Y-43364D02*
Y-32143D01*
X26800Y-42743D02*
Y-32764D01*
X28300Y-42121D02*
Y-33385D01*
X29800Y-41500D02*
Y-34007D01*
X-68700Y-28640D02*
X-68252Y-28192D01*
X-68700Y-36300D02*
Y-28640D01*
X-73276Y-36424D02*
Y-28216D01*
X97600Y42575D02*
X97797D01*
X101389Y38983D01*
Y37511D02*
Y38983D01*
Y37511D02*
X101800Y37100D01*
X105560Y-31268D02*
X105594Y-31303D01*
X112203D01*
X112400Y-31500D01*
X87612Y16138D02*
X87647Y16173D01*
X11996Y46950D02*
X12046Y46900D01*
X2850Y46950D02*
X11996D01*
X2800Y47000D02*
X2850Y46950D01*
X-7300Y51954D02*
X-7246Y51900D01*
X-7300Y51954D02*
Y56100D01*
X-7246Y46900D02*
Y51900D01*
X12046Y41900D02*
Y46900D01*
X25100Y40600D02*
Y48689D01*
X12046Y36900D02*
X21203D01*
X24903Y40600D01*
X25100D01*
X-20703D02*
Y48689D01*
X-14698Y41900D02*
X-7246D01*
X-15998Y40600D02*
X-14698Y41900D01*
X-20703Y40600D02*
X-15998D01*
X-57804Y-7394D02*
X-52094D01*
X-48589Y-3889D02*
X-45200D01*
X-52094Y-7394D02*
X-48589Y-3889D01*
X-45200D02*
Y3700D01*
X-91200Y-3889D02*
Y3700D01*
X-84774Y-2394D02*
X-77096D01*
X-86269Y-3889D02*
X-84774Y-2394D01*
X-91200Y-3889D02*
X-86269D01*
X43238Y-13516D02*
X46077D01*
X40800Y-11079D02*
X43238Y-13516D01*
X40800Y-11079D02*
Y-11056D01*
X46077Y-13516D02*
X46112Y-13551D01*
X40975Y-15500D02*
X40984Y-15509D01*
X38000Y-25807D02*
Y-9021D01*
X36500Y-25185D02*
Y-8400D01*
X35000Y-24564D02*
Y436D01*
X33500Y-23943D02*
Y1057D01*
X32000Y-23321D02*
Y1679D01*
X30500Y-22700D02*
Y2300D01*
X22300Y-30900D02*
X30500Y-22700D01*
Y2300D02*
X38271Y10071D01*
X23800Y-31521D02*
X32000Y-23321D01*
Y1679D02*
X38424Y8103D01*
X25300Y-32143D02*
X33500Y-23943D01*
Y1057D02*
X38577Y6134D01*
X26800Y-32764D02*
X35000Y-24564D01*
Y436D02*
X38695Y4131D01*
X28300Y-33385D02*
X36500Y-25185D01*
Y-8400D02*
X39223Y-5677D01*
X29800Y-34007D02*
X38000Y-25807D01*
Y-9021D02*
X39376Y-7645D01*
X46112D01*
X39223Y-5677D02*
X46112D01*
X46102Y-15509D02*
X46112Y-15519D01*
X40984Y-15509D02*
X46102D01*
X-4121Y-121900D02*
X25882Y-91897D01*
X-65985Y-121900D02*
X-4121D01*
X-74328Y-123400D02*
X-3500D01*
X26503Y-93397D01*
X-70385Y-117500D02*
X-65985Y-121900D01*
X-80228Y-117500D02*
X-80228D01*
X-74328Y-123400D01*
X38695Y4131D02*
X46077D01*
X38577Y6134D02*
X46112D01*
X38424Y8103D02*
X46112D01*
X-83276Y29285D02*
X-83252Y29261D01*
X-78252Y29261D02*
X-78234Y29278D01*
X46112Y-21425D02*
X49157D01*
X46112Y-25362D02*
X53781D01*
X55118Y-26700D01*
X55700D01*
X51465Y-27365D02*
X55700Y-31600D01*
X46146Y-27365D02*
X51465D01*
X-73276Y-28216D02*
X-73252Y-28192D01*
X46112Y-27331D02*
X46146Y-27365D01*
X89600Y-37641D02*
X89616Y-37657D01*
X89600Y-37641D02*
Y-32500D01*
X91584Y-37616D02*
X92500Y-36700D01*
X91584Y-43275D02*
Y-37616D01*
X89616Y-43275D02*
Y-37657D01*
X99458Y18758D02*
X106700Y26000D01*
Y91100D01*
X99458Y16173D02*
Y18758D01*
X101600Y96200D02*
X106700Y91100D01*
X82200Y103700D02*
X89700Y96200D01*
X101600D01*
X81222Y103700D02*
X82200D01*
X46112Y229D02*
X46126Y214D01*
X60053Y13299D02*
Y16138D01*
X60088Y16173D01*
X58777Y12023D02*
X60053Y13299D01*
X30192Y15926D02*
X30240Y15877D01*
X87681Y-51681D02*
X89700Y-53700D01*
X87681Y-51681D02*
Y-43310D01*
X89700Y-53700D02*
X119745D01*
X121600Y-68800D02*
X121770D01*
X125870Y-72900D01*
X159470Y-72600D02*
X159570Y-72700D01*
X153500Y-72600D02*
X159470D01*
X159509Y-80389D02*
Y-72761D01*
X159570Y-72700D01*
X46077Y4131D02*
X46112Y4166D01*
X38271Y10071D02*
X46112D01*
X18349Y-88428D02*
X18440Y-88337D01*
X8900Y-93748D02*
Y-90230D01*
Y-93748D02*
X9486Y-94334D01*
X18349D01*
X62056Y4826D02*
X62300Y4582D01*
X62056Y4826D02*
Y10664D01*
X62056Y10664D01*
Y16173D01*
X64059Y9341D02*
X66000Y7400D01*
X64059Y9341D02*
Y16138D01*
X126009Y-72761D02*
X126070Y-72700D01*
X125870Y-72900D02*
X126009Y-72761D01*
Y-80389D02*
Y-72761D01*
X131520Y-88100D02*
Y-80389D01*
X135390Y-111050D02*
Y-92167D01*
X131520Y-88297D02*
X135390Y-92167D01*
X131520Y-88297D02*
Y-88100D01*
X64025Y16173D02*
X64059Y16138D01*
X105525Y-11547D02*
X105560Y-11582D01*
X97547Y-11547D02*
X105525D01*
X97500Y-11500D02*
X97547Y-11547D01*
X165020Y-88100D02*
Y-80389D01*
X168890Y-111050D02*
Y-92167D01*
X165020Y-88297D02*
X168890Y-92167D01*
X165020Y-88297D02*
Y-88100D01*
X108553Y-11547D02*
X126698Y6598D01*
X89721Y-57000D02*
X135000D01*
X85689Y-52968D02*
Y-43286D01*
Y-52968D02*
X89721Y-57000D01*
X83744Y-53144D02*
Y-43310D01*
X89300Y-58700D02*
X128969D01*
X83744Y-53144D02*
X89300Y-58700D01*
X129843Y-59575D02*
X130425D01*
X128969Y-58700D02*
X129843Y-59575D01*
X60000Y-62400D02*
X140717D01*
X59200Y-63900D02*
X143914D01*
X50200Y-54900D02*
X59200Y-63900D01*
X143914D02*
X145756Y-62058D01*
Y-55433D01*
X142820Y-52497D02*
X145756Y-55433D01*
X52248Y-54648D02*
X60000Y-62400D01*
X140717D02*
X142820Y-60297D01*
Y-52497D02*
Y-52300D01*
X46112Y-31268D02*
X46146Y-31303D01*
X50603D01*
X51600Y-32300D01*
X50200Y-54900D02*
Y-39250D01*
X51600Y-37850D01*
Y-32300D01*
X145695Y61958D02*
Y62745D01*
X143784Y60047D02*
X145695Y61958D01*
X143784Y46634D02*
Y60047D01*
X151559Y62704D02*
X151600Y62745D01*
X151559Y46634D02*
Y62704D01*
X159334Y46634D02*
Y60030D01*
X157406Y61958D02*
Y62745D01*
Y61958D02*
X159334Y60030D01*
X142820Y-60297D02*
Y-60100D01*
X52214Y-43275D02*
X52248Y-43310D01*
Y-54648D02*
Y-43310D01*
X150500Y21200D02*
X159334Y30034D01*
Y41123D01*
X120600Y21200D02*
X150500D01*
X151559Y30059D02*
Y41123D01*
X119979Y22700D02*
X144200D01*
X151559Y30059D01*
X119357Y24200D02*
X137600D01*
X143784Y30384D02*
Y41123D01*
X137600Y24200D02*
X143784Y30384D01*
X117500Y18100D02*
X120600Y21200D01*
X105560Y10071D02*
X113814D01*
X114400Y10657D02*
Y19243D01*
X113814Y10071D02*
X114400Y10657D01*
Y19243D02*
X119357Y24200D01*
X115900Y18621D02*
X119979Y22700D01*
X105560Y8103D02*
X115314D01*
X115900Y8689D01*
Y18621D01*
X116914Y6134D02*
X117500Y6720D01*
X105560Y6134D02*
X116914D01*
X117500Y6720D02*
Y18100D01*
X95521Y16173D02*
Y26368D01*
X95500Y26389D02*
X95521Y26368D01*
X77804Y16173D02*
Y26446D01*
X77800Y26450D02*
X77804Y26446D01*
X52214Y16173D02*
Y26375D01*
X52200Y26389D02*
X52214Y26375D01*
X119745Y-53700D02*
X120145Y-53300D01*
X87647Y-43275D02*
X87681Y-43310D01*
X89400Y41550D02*
X94861Y47011D01*
X96525D01*
X97600Y48086D01*
X127773Y7900D02*
Y8097D01*
X123397Y12472D02*
X127773Y8097D01*
X123397Y12472D02*
Y14579D01*
X122323Y15653D02*
X123397Y14579D01*
X126698Y6825D02*
X127773Y7900D01*
X126698Y6598D02*
Y6825D01*
X105594Y-11547D02*
X108553D01*
X105560Y-11582D02*
X105594Y-11547D01*
X129121Y-10548D02*
X140640D01*
X128832Y-10838D02*
X129121Y-10548D01*
X128832Y-18319D02*
X140346D01*
X140569Y-18542D01*
X117447Y-17331D02*
X118435Y-18319D01*
X128832D01*
X117447Y-11820D02*
X127849D01*
X128832Y-10838D01*
X105560Y-15519D02*
X115438D01*
X117250Y-17331D01*
X117447D01*
X105560Y-13551D02*
X115520D01*
X117250Y-11820D01*
X117447D01*
X142202Y-44100D02*
Y-36457D01*
X142759Y-35900D01*
X83710Y-43275D02*
X83744Y-43310D01*
X210927Y-48027D02*
X212800Y-49900D01*
X207032Y-48027D02*
X210927D01*
X85679Y-43275D02*
X85689Y-43286D01*
X201127Y-53932D02*
X203159D01*
X205027Y-55800D01*
X205300D01*
X152323Y-55911D02*
X154689D01*
X148331Y-60100D02*
Y-59903D01*
X152323Y-55911D01*
X154689D02*
X155100Y-55500D01*
X150631Y-50000D02*
X155000D01*
X148331Y-52300D02*
Y-52103D01*
X149406Y-51028D01*
X149603D01*
X150631Y-50000D01*
X167200Y-7000D02*
X171900Y-2300D01*
X158100Y-50991D02*
Y-37300D01*
X167200Y-28200D02*
Y-7000D01*
X158100Y-37300D02*
X167200Y-28200D01*
X171900Y-2300D02*
X176900D01*
X162306Y-55000D02*
Y-52494D01*
X164000Y-50800D01*
X171147Y-48027D02*
X173568D01*
X168374Y-50800D02*
X171147Y-48027D01*
X164000Y-50800D02*
X168374D01*
X162109Y-55000D02*
X162306D01*
X158100Y-50991D02*
X162109Y-55000D01*
X176800Y-8500D02*
X176900Y-8400D01*
Y-2300D01*
X192700Y-3100D02*
X197700Y1900D01*
Y7800D01*
X221978Y14887D02*
Y15084D01*
X217897Y10806D02*
X221978Y14887D01*
X200706Y10806D02*
X217897D01*
X197700Y7800D02*
X200706Y10806D01*
X189111Y-26389D02*
X191284Y-24216D01*
X187211Y-26389D02*
X189111D01*
X191284Y-24216D02*
Y-20468D01*
X186800Y-26800D02*
X187211Y-26389D01*
X148497Y-44072D02*
X148523Y-44047D01*
X154895D01*
X197190Y-24410D02*
Y-20468D01*
X194800Y-26800D02*
X197190Y-24410D01*
X199158Y-20468D02*
X199170Y-20480D01*
Y-26770D02*
Y-20480D01*
Y-26770D02*
X199200Y-26800D01*
X195233Y-57714D02*
X195818Y-58300D01*
X195233Y-57714D02*
Y-53944D01*
X207032Y-26373D02*
Y-15771D01*
X214603Y-8200D01*
X214800D01*
X224330Y-45784D02*
Y-42513D01*
X223059Y-41241D02*
X224330Y-42513D01*
X223026Y-41241D02*
X223059D01*
X221460Y-39675D02*
X223026Y-41241D01*
X221460Y-39675D02*
Y-32622D01*
X218819Y-29981D02*
X221460Y-32622D01*
X218819Y-29981D02*
Y-29784D01*
X221978Y6187D02*
Y6384D01*
X218600Y2809D02*
X221978Y6187D01*
X218600Y-4597D02*
Y2809D01*
X214800Y-8200D02*
X214997D01*
X218600Y-4597D01*
X198887Y46023D02*
X199048Y46184D01*
X176603Y46023D02*
X179178Y43448D01*
X191773D01*
X194348Y46023D01*
X198887D01*
X173100D02*
X176603D01*
X163374Y-53932D02*
X179473D01*
X162306Y-55000D02*
X163374Y-53932D01*
X201923Y21213D02*
X218706D01*
X222175Y24682D01*
X199348Y23787D02*
X201923Y21213D01*
X222175Y24682D02*
Y25469D01*
X199348Y23787D02*
Y23984D01*
X162284Y-45700D02*
X162642Y-46058D01*
X162321Y-40153D02*
X173568D01*
X162284Y-40189D02*
X162321Y-40153D01*
X222416Y-21300D02*
X222527Y-21411D01*
X216400Y-21300D02*
X222416D01*
X179816Y-36216D02*
X179900Y-36300D01*
X173568Y-36216D02*
X179816D01*
X220704Y-64904D02*
X224000Y-68200D01*
X220704Y-64904D02*
Y-62782D01*
X209221Y-51300D02*
X220704Y-62782D01*
X204583Y-52800D02*
X208600D01*
X178155Y-26373D02*
X204583Y-52800D01*
X208600D02*
X219204Y-63403D01*
X204945Y-51041D02*
X208941D01*
X183410Y-29506D02*
Y-20468D01*
Y-29506D02*
X204945Y-51041D01*
X209200Y-51300D02*
X209221D01*
X208941Y-51041D02*
X209200Y-51300D01*
X219204Y-70433D02*
Y-63403D01*
Y-70433D02*
X223061Y-74290D01*
X173568Y-26373D02*
X178155D01*
X223061Y-77261D02*
Y-74290D01*
Y-77261D02*
X224000Y-78200D01*
X215313Y-29784D02*
X218819D01*
X211902Y-26373D02*
X215313Y-29784D01*
X207032Y-26373D02*
X211902D01*
X215376Y-37784D02*
X218819D01*
X211839Y-34247D02*
X215376Y-37784D01*
X207032Y-34247D02*
X211839D01*
X207032Y-38184D02*
X211416D01*
X218819Y-45587D01*
Y-45784D02*
Y-45587D01*
X195221Y-20468D02*
Y-15221D01*
X189648Y-9648D02*
Y25584D01*
Y-9648D02*
X195221Y-15221D01*
X181400Y3600D02*
Y40476D01*
X181363Y40512D02*
X181400Y40476D01*
Y3600D02*
X187347Y-2347D01*
Y-20468D02*
Y-2347D01*
X173200Y8500D02*
Y40412D01*
X185379Y-20468D02*
Y-3679D01*
X173200Y8500D02*
X185379Y-3679D01*
X173100Y40512D02*
X173200Y40412D01*
X201127Y-20468D02*
Y-9284D01*
X201911Y-8500D01*
X197190Y-20468D02*
Y-9290D01*
X196400Y-8500D02*
X197190Y-9290D01*
X179473Y-20468D02*
Y-14610D01*
X176800Y-11937D02*
Y-8500D01*
Y-11937D02*
X179473Y-14610D01*
X182311Y-13466D02*
Y-8500D01*
X181442Y-14335D02*
X182311Y-13466D01*
X181442Y-20468D02*
Y-14335D01*
X183911Y-74684D02*
X185641Y-72955D01*
Y-63686D02*
Y-63489D01*
X191152Y-74444D02*
X191393Y-74684D01*
X191152Y-63686D02*
Y-63489D01*
X183852Y-86484D02*
X183911Y-86425D01*
X185641Y-72955D02*
Y-63686D01*
X191393Y-86225D02*
X191452Y-86284D01*
X189316Y-61653D02*
X191152Y-63489D01*
X189316Y-61653D02*
Y-53932D01*
X187347Y-61783D02*
Y-53932D01*
X191152Y-74444D02*
Y-63686D01*
X183911Y-86425D02*
Y-74684D01*
X185641Y-63489D02*
X187347Y-61783D01*
X190200Y55032D02*
X199048Y46184D01*
X190200Y62900D02*
X201030Y73730D01*
X190200Y55032D02*
Y62900D01*
X205859Y35235D02*
X206159D01*
X204859Y23984D02*
Y33935D01*
X206159Y35235D01*
X206433D01*
X198433Y24899D02*
Y31535D01*
Y24899D02*
X199348Y23984D01*
X189648Y31095D02*
Y40573D01*
X189648Y31095D02*
X189648Y31095D01*
X191383Y39035D02*
X198433D01*
X189845Y40573D02*
X191383Y39035D01*
X189648Y40573D02*
X189845D01*
X204559Y36535D02*
Y46184D01*
Y36535D02*
X205859Y35235D01*
X204560Y71850D02*
X204650Y71940D01*
X207219D01*
Y75690D02*
X207805Y75104D01*
X207219Y71940D02*
X207805Y72526D01*
Y75104D01*
X204650Y75690D02*
X207219D01*
X204560Y75780D02*
X204650Y75690D01*
X181363Y46023D02*
Y59163D01*
X197890Y75690D02*
X204470D01*
X181363Y59163D02*
X197890Y75690D01*
X204470D02*
X204560Y75780D01*
X173100Y46023D02*
Y55700D01*
X204470Y73730D02*
X204560Y73820D01*
X201030Y73730D02*
X204470D01*
X195060Y77660D02*
X204470D01*
X173100Y55700D02*
X195060Y77660D01*
X204470D02*
X204560Y77750D01*
D24*
X147700Y95143D02*
D03*
X147728Y88848D02*
D03*
X222527Y-21411D02*
D03*
X222499Y-15116D02*
D03*
D25*
X155500Y89075D02*
D03*
Y94586D02*
D03*
X97600Y48086D02*
D03*
Y42575D02*
D03*
X162284Y-40189D02*
D03*
Y-45700D02*
D03*
X211000Y-70911D02*
D03*
Y-65400D02*
D03*
X210979Y-84300D02*
D03*
Y-78789D02*
D03*
X162306Y-55000D02*
D03*
Y-60511D02*
D03*
X25100Y35089D02*
D03*
Y40600D02*
D03*
X34400Y-40011D02*
D03*
Y-34500D02*
D03*
X-101773Y-42002D02*
D03*
Y-36491D02*
D03*
X-49393Y-42002D02*
D03*
Y-36491D02*
D03*
X-127200Y-25114D02*
D03*
Y-30625D02*
D03*
X-101752Y43070D02*
D03*
Y37559D02*
D03*
X-10916Y101420D02*
D03*
Y106931D02*
D03*
X-49372Y43070D02*
D03*
Y37559D02*
D03*
X140662Y-18542D02*
D03*
Y-24054D02*
D03*
X140640Y-10548D02*
D03*
Y-5037D02*
D03*
X52200Y26389D02*
D03*
Y31900D02*
D03*
X95500Y26389D02*
D03*
Y31900D02*
D03*
X214800Y-8200D02*
D03*
Y-2689D02*
D03*
X-205100Y73575D02*
D03*
Y79086D02*
D03*
X0Y-90230D02*
D03*
Y-84719D02*
D03*
X-91200Y-9400D02*
D03*
Y-3889D02*
D03*
Y3700D02*
D03*
Y9211D02*
D03*
X-20703Y35089D02*
D03*
Y40600D02*
D03*
Y48689D02*
D03*
Y54200D02*
D03*
X189648Y31095D02*
D03*
Y25584D02*
D03*
X159334Y41123D02*
D03*
Y46634D02*
D03*
X189648Y40573D02*
D03*
Y46084D02*
D03*
X151559Y41123D02*
D03*
Y46634D02*
D03*
X143784Y41123D02*
D03*
Y46634D02*
D03*
X173100Y46023D02*
D03*
Y40512D02*
D03*
X181363Y46023D02*
D03*
Y40512D02*
D03*
X38200Y106931D02*
D03*
Y101420D02*
D03*
X222481Y-2605D02*
D03*
Y-8116D02*
D03*
X117447Y-11820D02*
D03*
Y-17331D02*
D03*
X77800Y26450D02*
D03*
Y31961D02*
D03*
X-222300Y73636D02*
D03*
Y79147D02*
D03*
X-213700Y79086D02*
D03*
Y73575D02*
D03*
X-45200Y-9400D02*
D03*
Y-3889D02*
D03*
Y3700D02*
D03*
Y9211D02*
D03*
X25100Y48689D02*
D03*
Y54200D02*
D03*
X8900Y-84719D02*
D03*
Y-90230D02*
D03*
D26*
X224000Y-88200D02*
D03*
Y-78200D02*
D03*
Y-68200D02*
D03*
Y-58200D02*
D03*
D27*
X142202Y-44100D02*
D03*
X148497Y-44072D02*
D03*
D28*
X-181790Y107300D02*
D03*
X-199900D02*
D03*
X-156200Y-27900D02*
D03*
X-138090D02*
D03*
D29*
X-193500Y-82455D02*
D03*
Y-64345D02*
D03*
X-113300Y-48271D02*
D03*
Y-30161D02*
D03*
X-37650D02*
D03*
Y-48271D02*
D03*
X-145100Y-5900D02*
D03*
X-113300Y49339D02*
D03*
Y31229D02*
D03*
X-37650D02*
D03*
Y49339D02*
D03*
D30*
X120145Y-53300D02*
D03*
X125656D02*
D03*
X127773Y47013D02*
D03*
X122262D02*
D03*
X127773Y39238D02*
D03*
X122262D02*
D03*
X127834Y15653D02*
D03*
X122323D02*
D03*
X127773Y7900D02*
D03*
X122262D02*
D03*
X142820Y-52300D02*
D03*
X148331D02*
D03*
X142820Y-60100D02*
D03*
X148331D02*
D03*
X148270Y-35900D02*
D03*
X142759D02*
D03*
X184052Y-86484D02*
D03*
X178541D02*
D03*
X176800Y-8500D02*
D03*
X182311D02*
D03*
X185641Y-63686D02*
D03*
X191152D02*
D03*
X191552Y-86463D02*
D03*
X197063D02*
D03*
X201911Y-8500D02*
D03*
X196400D02*
D03*
X218819Y-29784D02*
D03*
X224330D02*
D03*
Y-37784D02*
D03*
X218819D02*
D03*
X224330Y-45784D02*
D03*
X218819D02*
D03*
X165020Y-88100D02*
D03*
X159509D02*
D03*
X165020Y-80389D02*
D03*
X159509D02*
D03*
X165081Y-72700D02*
D03*
X159570D02*
D03*
X221978Y6384D02*
D03*
X216467D02*
D03*
X221978Y15084D02*
D03*
X216467D02*
D03*
X131581Y-72700D02*
D03*
X126070D02*
D03*
X120145Y-36226D02*
D03*
X125656D02*
D03*
X120145Y-44763D02*
D03*
X125656D02*
D03*
X216467Y46184D02*
D03*
X221978D02*
D03*
X-192111Y96000D02*
D03*
X-186600D02*
D03*
X-141627Y12352D02*
D03*
X-136116D02*
D03*
X-156927D02*
D03*
X-151416D02*
D03*
X-68139Y18006D02*
D03*
X-73650D02*
D03*
X-85111Y-17800D02*
D03*
X-79600D02*
D03*
X199348Y23984D02*
D03*
X204859D02*
D03*
X204559Y46184D02*
D03*
X199048D02*
D03*
X131520Y-88100D02*
D03*
X126009D02*
D03*
X131520Y-80389D02*
D03*
X126009D02*
D03*
X-184100Y55500D02*
D03*
X-178589D02*
D03*
X-198011D02*
D03*
X-192500D02*
D03*
X-121407Y61000D02*
D03*
X-115896D02*
D03*
X-58563D02*
D03*
X-64074D02*
D03*
X-92741D02*
D03*
X-87230D02*
D03*
X-30900D02*
D03*
X-36411D02*
D03*
X-30300Y-60500D02*
D03*
X-35811D02*
D03*
X-92741D02*
D03*
X-87230D02*
D03*
X-58563D02*
D03*
X-64074D02*
D03*
X-121407D02*
D03*
X-115896D02*
D03*
D31*
X0Y0D02*
D03*
D32*
X-6201Y-3937D02*
D03*
Y-2362D02*
D03*
Y-787D02*
D03*
Y787D02*
D03*
Y2362D02*
D03*
Y3937D02*
D03*
X6201D02*
D03*
Y2362D02*
D03*
Y787D02*
D03*
Y-787D02*
D03*
Y-2362D02*
D03*
Y-3937D02*
D03*
D33*
X-3937Y6201D02*
D03*
X-2362D02*
D03*
X-787D02*
D03*
X787D02*
D03*
X2362D02*
D03*
X3937D02*
D03*
Y-6201D02*
D03*
X2362D02*
D03*
X787D02*
D03*
X-787D02*
D03*
X-2362D02*
D03*
X-3937D02*
D03*
D34*
X94410Y71900D02*
D03*
X58190D02*
D03*
D35*
X157506Y62745D02*
D03*
X151600D02*
D03*
X145695D02*
D03*
Y78497D02*
D03*
X151600D02*
D03*
X157506Y78497D02*
D03*
D36*
X56400Y45300D02*
D03*
X69900D02*
D03*
D37*
X81400Y45350D02*
D03*
X206433Y35235D02*
D03*
D38*
X89400Y41550D02*
D03*
Y49050D02*
D03*
X198433Y31535D02*
D03*
Y39035D02*
D03*
D39*
X173568Y-48027D02*
D03*
X173568Y-46058D02*
D03*
X173568Y-44090D02*
D03*
X173568Y-42121D02*
D03*
X173568Y-40153D02*
D03*
X173568Y-38184D02*
D03*
X173568Y-36216D02*
D03*
X173568Y-34247D02*
D03*
X173568Y-32279D02*
D03*
X173568Y-30310D02*
D03*
X173568Y-28342D02*
D03*
X173568Y-26373D02*
D03*
X207032Y-26373D02*
D03*
X207032Y-28342D02*
D03*
X207032Y-30310D02*
D03*
X207032Y-32279D02*
D03*
X207032Y-34247D02*
D03*
X207032Y-36216D02*
D03*
X207032Y-38184D02*
D03*
X207032Y-40153D02*
D03*
X207032Y-42121D02*
D03*
X207032Y-44090D02*
D03*
X207032Y-46058D02*
D03*
X207032Y-48027D02*
D03*
D40*
X179473Y-20468D02*
D03*
X181442D02*
D03*
X183410D02*
D03*
X185379D02*
D03*
X187347D02*
D03*
X189316D02*
D03*
X191284D02*
D03*
X193253D02*
D03*
X195221D02*
D03*
X197190D02*
D03*
X199158D02*
D03*
X201127D02*
D03*
Y-53932D02*
D03*
X199158D02*
D03*
X197190D02*
D03*
X195221D02*
D03*
X193253D02*
D03*
X191284D02*
D03*
X189316D02*
D03*
X187347D02*
D03*
X185379D02*
D03*
X183410D02*
D03*
X181442D02*
D03*
X179473D02*
D03*
D41*
X184625Y-74684D02*
D03*
X192107D02*
D03*
D42*
X137850Y-117150D02*
D03*
X119740D02*
D03*
X171350D02*
D03*
X153240D02*
D03*
X204850D02*
D03*
X186740D02*
D03*
D43*
X135390Y-111050D02*
D03*
X122200D02*
D03*
X168890D02*
D03*
X155700D02*
D03*
X202390D02*
D03*
X189200D02*
D03*
D44*
X-93252Y-50239D02*
D03*
X-88252Y-50239D02*
D03*
X-83252Y-50239D02*
D03*
X-78252Y-50239D02*
D03*
X-73252D02*
D03*
X-68252Y-50239D02*
D03*
X-63252Y-50239D02*
D03*
X-58252Y-50239D02*
D03*
X-93252Y-28192D02*
D03*
X-88252Y-28192D02*
D03*
X-83252Y-28192D02*
D03*
X-78252Y-28192D02*
D03*
X-73252D02*
D03*
X-68252Y-28192D02*
D03*
X-63252Y-28192D02*
D03*
X-58252Y-28192D02*
D03*
Y51308D02*
D03*
X-63252Y51308D02*
D03*
X-68252Y51308D02*
D03*
X-73252Y51308D02*
D03*
X-78252D02*
D03*
X-83252Y51308D02*
D03*
X-88252Y51308D02*
D03*
X-93252Y51308D02*
D03*
X-58252Y29261D02*
D03*
X-63252Y29261D02*
D03*
X-68252Y29261D02*
D03*
X-73252Y29261D02*
D03*
X-78252D02*
D03*
X-83252Y29261D02*
D03*
X-88252Y29261D02*
D03*
X-93252Y29261D02*
D03*
D45*
X-134198Y-13400D02*
D03*
Y-8400D02*
D03*
Y-3400D02*
D03*
Y1600D02*
D03*
X-156002Y-13400D02*
D03*
Y-8400D02*
D03*
Y-3400D02*
D03*
Y1600D02*
D03*
D46*
X105560Y-37173D02*
D03*
Y-35205D02*
D03*
X105560Y-33236D02*
D03*
Y-31268D02*
D03*
X105560Y-29299D02*
D03*
X105560Y-27331D02*
D03*
X105560Y-25362D02*
D03*
Y-23394D02*
D03*
X105560Y-21425D02*
D03*
Y-19457D02*
D03*
X105560Y-17488D02*
D03*
X105560Y-15519D02*
D03*
Y-13551D02*
D03*
X105560Y-11582D02*
D03*
Y-9614D02*
D03*
X105560Y-7645D02*
D03*
X105560Y-5677D02*
D03*
X105560Y-3708D02*
D03*
Y-1740D02*
D03*
X105560Y229D02*
D03*
Y2197D02*
D03*
X105560Y4166D02*
D03*
X105560Y6134D02*
D03*
X105560Y8103D02*
D03*
Y10071D02*
D03*
X46112D02*
D03*
Y8103D02*
D03*
X46112Y6134D02*
D03*
Y4166D02*
D03*
X46112Y2197D02*
D03*
Y229D02*
D03*
X46112Y-1740D02*
D03*
Y-3708D02*
D03*
X46112Y-5677D02*
D03*
Y-7645D02*
D03*
X46112Y-9614D02*
D03*
Y-11582D02*
D03*
X46112Y-13551D02*
D03*
Y-15519D02*
D03*
X46112Y-17488D02*
D03*
X46112Y-19457D02*
D03*
Y-21425D02*
D03*
X46112Y-23394D02*
D03*
Y-25362D02*
D03*
Y-27331D02*
D03*
Y-29299D02*
D03*
Y-31268D02*
D03*
X46112Y-33236D02*
D03*
X46112Y-35205D02*
D03*
Y-37173D02*
D03*
D47*
X99458Y16173D02*
D03*
X97490D02*
D03*
X95521Y16173D02*
D03*
X93553Y16173D02*
D03*
X91584D02*
D03*
X89616D02*
D03*
X87647D02*
D03*
X85679D02*
D03*
X83710D02*
D03*
X81742Y16173D02*
D03*
X79773Y16173D02*
D03*
X77804Y16173D02*
D03*
X75836D02*
D03*
X73867Y16173D02*
D03*
X71899D02*
D03*
X69930D02*
D03*
X67962D02*
D03*
X65993D02*
D03*
X64025Y16173D02*
D03*
X62056Y16173D02*
D03*
X60088D02*
D03*
X58119Y16173D02*
D03*
X56151D02*
D03*
X54182Y16173D02*
D03*
X52214D02*
D03*
Y-43275D02*
D03*
X54182D02*
D03*
X56151Y-43275D02*
D03*
X58119D02*
D03*
X60088Y-43275D02*
D03*
X62056D02*
D03*
X64025Y-43275D02*
D03*
X65993D02*
D03*
X67962Y-43275D02*
D03*
X69930D02*
D03*
X71899Y-43275D02*
D03*
X73867D02*
D03*
X75836Y-43275D02*
D03*
X77804Y-43275D02*
D03*
X79773Y-43275D02*
D03*
X81742Y-43275D02*
D03*
X83710D02*
D03*
X85679D02*
D03*
X87647D02*
D03*
X89616D02*
D03*
X91584Y-43275D02*
D03*
X93553Y-43275D02*
D03*
X95521D02*
D03*
X97490Y-43275D02*
D03*
X99458D02*
D03*
D48*
X-196400Y65800D02*
D03*
X-191400D02*
D03*
X-186400D02*
D03*
X-181400D02*
D03*
X-196400Y86922D02*
D03*
X-191400D02*
D03*
X-186400D02*
D03*
X-181400D02*
D03*
D49*
X18349Y-94334D02*
D03*
Y-92365D02*
D03*
Y-90397D02*
D03*
Y-88428D02*
D03*
Y-86460D02*
D03*
Y-84491D02*
D03*
Y-82523D02*
D03*
Y-80554D02*
D03*
D50*
X30750Y-100042D02*
D03*
X30751Y-74846D02*
D03*
D51*
X-162600Y79450D02*
D03*
Y63350D02*
D03*
D52*
X204560Y87400D02*
D03*
Y84250D02*
D03*
Y65350D02*
D03*
Y62200D02*
D03*
D53*
Y81690D02*
D03*
X204550Y79720D02*
D03*
X204560Y77750D02*
D03*
Y75780D02*
D03*
Y73820D02*
D03*
Y71850D02*
D03*
Y69880D02*
D03*
X204550Y67910D02*
D03*
D54*
X-113000Y12313D02*
D03*
Y-12513D02*
D03*
D55*
X-210300Y33200D02*
D03*
X-190064D02*
D03*
X-146364Y103000D02*
D03*
X-166600D02*
D03*
X-139146Y32992D02*
D03*
X-159382D02*
D03*
X22754Y73392D02*
D03*
X2517D02*
D03*
D56*
X222372Y25666D02*
D03*
X214892Y25666D02*
D03*
X214892Y35903D02*
D03*
X218632Y35902D02*
D03*
X222372Y35902D02*
D03*
D57*
X-52342Y69972D02*
D03*
X-70295D02*
D03*
X-109676D02*
D03*
X-127628D02*
D03*
X-23676D02*
D03*
X-41628D02*
D03*
X-81009D02*
D03*
X-98962D02*
D03*
X-98962Y-69404D02*
D03*
X-81009D02*
D03*
X-41628D02*
D03*
X-23676D02*
D03*
X-127628D02*
D03*
X-109676D02*
D03*
X-70295D02*
D03*
X-52342D02*
D03*
D58*
X-61240Y97196D02*
D03*
X-118573D02*
D03*
X-32573D02*
D03*
X-89907D02*
D03*
X-90064Y-96628D02*
D03*
X-32731D02*
D03*
X-118731D02*
D03*
X-61397D02*
D03*
D59*
X25794Y104206D02*
D03*
D60*
X1384Y95151D02*
D03*
Y104206D02*
D03*
Y113261D02*
D03*
D61*
X12046Y36900D02*
D03*
Y41900D02*
D03*
Y46900D02*
D03*
Y51900D02*
D03*
X-7246Y36900D02*
D03*
Y41900D02*
D03*
Y46900D02*
D03*
Y51900D02*
D03*
X-57804Y-7394D02*
D03*
Y-2394D02*
D03*
Y2606D02*
D03*
Y7606D02*
D03*
X-77096Y-7394D02*
D03*
Y-2394D02*
D03*
Y2606D02*
D03*
Y7606D02*
D03*
D62*
X128832Y-18319D02*
D03*
Y-10838D02*
D03*
D112*
X122262Y47013D02*
Y69262D01*
X131497Y78497D02*
X145695D01*
X122262Y69262D02*
X131497Y78497D01*
X151600Y78497D02*
X156906D01*
X145695D02*
X151600D01*
X-181790Y107300D02*
X-181400Y106910D01*
Y84491D02*
Y106910D01*
Y84491D02*
X-176359Y79450D01*
X-162600D01*
X-10719Y106931D02*
X-5751Y111899D01*
X-199590Y84399D02*
X-196622D01*
X-147600Y-3400D02*
X-145100Y-5900D01*
X98300Y3200D02*
X107700D01*
X98281Y3181D02*
X98300Y3200D01*
X-15372Y111628D02*
X-9800Y117200D01*
X48037D02*
X61537Y103700D01*
X-9800Y117200D02*
X48037D01*
X-15372Y96272D02*
Y111628D01*
X-35800Y19700D02*
X-32000Y23500D01*
X-24760Y30740D01*
X-155900Y45120D02*
X-143772Y32992D01*
X-155900Y45120D02*
Y51600D01*
X-147100Y59200D02*
Y66400D01*
Y59200D02*
X-129503Y41603D01*
X-142800Y61700D02*
Y77100D01*
Y61700D02*
X-122000Y40900D01*
Y29100D02*
Y40900D01*
X25003Y73392D02*
X27380D01*
X38600Y39200D02*
Y71400D01*
Y36700D02*
Y39200D01*
X-93904Y-69404D02*
X-93700Y-69200D01*
X-98962Y-69404D02*
X-93904D01*
X-129503Y32992D02*
Y41603D01*
Y32992D02*
X-129111Y32600D01*
X-139146Y32992D02*
X-129503D01*
X-52609Y69961D02*
X-52470Y70100D01*
X-52609Y62438D02*
Y69961D01*
X-52829Y62218D02*
X-52609Y62438D01*
X27200Y30740D02*
X34140D01*
X-24760D02*
X27200D01*
X-13700Y94600D02*
X-10400D01*
X-15372Y96272D02*
X-13700Y94600D01*
X-10916Y101420D02*
X-10620Y101124D01*
Y94820D02*
Y101124D01*
X61537Y103700D02*
X61537D01*
X27380Y73392D02*
X36608D01*
X24903Y54200D02*
Y72601D01*
X27380Y73392D02*
X30880Y76892D01*
Y79280D01*
X31100Y79500D01*
X122143Y39119D02*
X122262Y39238D01*
X115219Y39119D02*
X122143D01*
X115100Y39000D02*
X115219Y39119D01*
X38600Y35200D02*
Y36700D01*
X36370Y32970D02*
X38600Y35200D01*
X34140Y30740D02*
X36370Y32970D01*
X-57400Y15200D02*
X-52900Y19700D01*
X-57804Y7606D02*
X-57749D01*
X-57400Y7955D02*
Y15200D01*
X-57749Y7606D02*
X-57400Y7955D01*
X-52900Y19700D02*
X-35800D01*
X36608Y73392D02*
X38600Y71400D01*
X24700Y53800D02*
X25100Y54200D01*
X12046Y51900D02*
X15384D01*
X15967Y52482D01*
Y52628D02*
X17139Y53800D01*
X15967Y52482D02*
Y52628D01*
X17139Y53800D02*
X24700D01*
X25794Y74183D02*
Y104206D01*
X25003Y73392D02*
X25794Y74183D01*
X1384Y104206D02*
X25794D01*
X28519Y106931D01*
X38200D01*
X157506Y78497D02*
X157512Y78504D01*
X161696D02*
X166700Y73500D01*
X157512Y78504D02*
X161696D01*
X157506Y77710D02*
Y78497D01*
X166700Y33300D02*
Y73500D01*
X122262Y39238D02*
Y47013D01*
X-10916Y106931D02*
X-10719D01*
X-5751Y111899D02*
X22D01*
X1384Y113261D01*
X-162600Y63350D02*
X-158070D01*
X-167130D02*
X-162600D01*
X1054Y94820D02*
X1384Y95151D01*
X-10180Y94820D02*
X1054D01*
X-10400Y94600D02*
X-10180Y94820D01*
X-143772Y32992D02*
X-139146D01*
X-80639Y-7394D02*
X-78867D01*
X-85111Y-11866D02*
X-80639Y-7394D01*
X-125800Y21900D02*
X-107000D01*
X-133793Y29893D02*
X-125800Y21900D01*
X-134585Y32992D02*
X-133793Y32201D01*
Y29893D02*
Y32201D01*
X-139146Y32992D02*
Y43896D01*
X-107000Y21900D02*
X-97500Y12400D01*
X-139300Y28200D02*
X-126449Y15349D01*
X-139300Y28200D02*
Y32838D01*
X-139146Y32992D01*
X-126449Y15349D02*
X-117701D01*
X-114704Y12352D01*
X-163938Y98238D02*
X-142800Y77100D01*
X-163938Y98238D02*
Y103000D01*
X-174972Y52228D02*
X-170065Y57135D01*
Y60415D02*
X-167130Y63350D01*
X-170065Y57135D02*
Y60415D01*
X-181025Y52228D02*
X-174972D01*
X-158070Y63350D02*
X-155135Y60415D01*
Y59885D02*
Y60415D01*
Y59885D02*
X-139146Y43896D01*
X-166600Y103000D02*
X-165500D01*
X-137241Y63285D02*
Y77941D01*
X-161974Y103000D02*
X-161183Y102209D01*
X-165500Y103000D02*
X-163147D01*
X-161183Y101883D02*
X-137241Y77941D01*
X-161183Y101883D02*
Y102209D01*
X-163147Y103000D02*
X-161974D01*
X-37900Y-29911D02*
X-37650Y-30161D01*
X-37900Y-29911D02*
Y-21800D01*
X-85111Y-17800D02*
Y-11866D01*
X-68252Y29261D02*
X-68195Y29204D01*
Y18063D02*
Y29204D01*
Y18063D02*
X-68139Y18006D01*
X-137241Y63285D02*
X-113300Y39344D01*
Y31229D02*
Y39344D01*
X-200400Y108800D02*
X-193500Y115700D01*
X-170200D02*
X-165500Y111000D01*
X-193500Y115700D02*
X-170200D01*
X-165500Y103791D02*
Y111000D01*
X-205100Y79086D02*
X-204903D01*
X-199590Y84399D01*
X-196622D02*
X-196400Y84621D01*
Y86922D01*
X-222300Y79147D02*
X-222103D01*
X-217106Y74150D01*
X-214275D01*
X-213700Y73575D01*
X-213503D01*
X-205728Y65800D01*
X-196400D01*
X-205100Y73575D02*
X-196744D01*
X-191400Y68231D01*
Y65800D02*
Y68231D01*
X-200400Y92189D02*
Y108800D01*
X-213503Y79086D02*
X-200400Y92189D01*
X-213700Y79086D02*
X-213503D01*
X-186492Y87014D02*
X-186400Y86922D01*
X-186492Y87014D02*
Y95892D01*
X-186600Y96000D02*
X-186492Y95892D01*
X-191400Y86922D02*
Y95092D01*
X-192111Y95803D02*
X-191400Y95092D01*
X-192111Y95803D02*
Y96000D01*
X-184100Y55303D02*
Y55500D01*
Y55303D02*
X-181025Y52228D01*
X-192500Y55500D02*
X-184100D01*
X-198011D02*
Y59189D01*
X-196751Y60449D01*
X-194450D01*
X-191400Y63499D01*
Y65800D01*
X-184100Y55500D02*
Y60939D01*
X-186400Y63239D02*
X-184100Y60939D01*
X-186400Y63239D02*
Y65800D01*
X-178589Y55500D02*
Y60428D01*
X-181400Y63239D02*
X-178589Y60428D01*
X-181400Y63239D02*
Y65800D01*
X-63300Y35200D02*
X-47400Y51100D01*
X-39411D01*
X-46600Y55500D02*
X-33500D01*
X-77080Y44600D02*
X-57500D01*
X-46600Y55500D01*
X-84400Y40800D02*
X-68900D01*
X-63252Y35152D01*
Y29261D02*
Y35152D01*
X-39411Y51100D02*
X-37650Y49339D01*
X-39482Y47508D02*
X-37650Y49339D01*
X-39482Y41850D02*
Y47508D01*
X-75700Y59800D02*
X-73252Y57352D01*
Y51308D02*
Y57352D01*
X-88252Y29261D02*
Y36948D01*
X-84400Y40800D01*
X-110363Y28292D02*
X-102992D01*
X-95200Y20500D02*
X-89424D01*
X-102992Y28292D02*
X-95200Y20500D01*
X-113300Y31229D02*
X-110363Y28292D01*
X-89424Y20500D02*
X-88252Y21672D01*
Y29261D01*
Y51308D02*
Y54753D01*
X-91228Y57728D02*
X-88252Y54753D01*
X-99006Y57728D02*
X-91228D01*
X-109676Y68398D02*
X-99006Y57728D01*
X-109676Y68398D02*
Y69972D01*
X-115896Y61000D02*
X-110800D01*
X-103787Y53987D01*
X-93419D01*
X-93252Y51308D02*
Y53820D01*
X-93419Y53987D02*
X-93252Y53820D01*
X-88252Y47863D02*
Y51308D01*
X-93045Y43070D02*
X-88252Y47863D01*
X-101752Y43070D02*
X-93045D01*
X-55707Y57200D02*
X-53100D01*
X-58252Y54655D02*
X-55707Y57200D01*
X-58252Y51308D02*
Y54655D01*
X-37650Y31229D02*
Y38166D01*
X-28220Y47596D01*
Y49880D01*
X-28000Y50100D01*
X-49372Y37559D02*
X-43980D01*
X-37650Y31229D01*
X-45952Y46491D02*
Y47052D01*
X-49372Y43070D02*
X-45952Y46491D01*
X-52470Y70100D02*
X-52342Y69972D01*
X-70200Y59900D02*
X-68252Y57952D01*
Y51308D02*
Y57952D01*
X-73321Y29191D02*
X-73252Y29261D01*
X-73321Y18335D02*
Y29191D01*
X-73650Y18006D02*
X-73321Y18335D01*
X-101949Y37559D02*
X-101752D01*
X-110363Y45974D02*
X-101949Y37559D01*
X-110363Y45974D02*
Y46402D01*
X-113300Y49339D02*
X-110363Y46402D01*
X-93252Y29261D02*
Y32706D01*
X-97531Y36984D02*
X-93252Y32706D01*
X-101177Y36984D02*
X-97531D01*
X-101752Y37559D02*
X-101177Y36984D01*
X-31245Y60655D02*
X-30900Y61000D01*
X-33500Y55500D02*
X-31245Y57756D01*
Y60655D01*
X-78252Y45772D02*
Y51308D01*
Y45772D02*
X-77080Y44600D01*
X-41628Y68398D02*
Y69972D01*
Y68398D02*
X-36986Y63755D01*
Y61575D02*
Y63755D01*
Y61575D02*
X-36411Y61000D01*
X-52229Y-57228D02*
X-41628Y-67829D01*
X-59708Y-57228D02*
X-52229D01*
X-63252Y-53684D02*
Y-50239D01*
Y-53684D02*
X-59708Y-57228D01*
X-41628Y-69404D02*
Y-67829D01*
X-58563Y60803D02*
Y61000D01*
X-63183Y56184D02*
X-58563Y60803D01*
X-63183Y51377D02*
Y56184D01*
X-63252Y51308D02*
X-63183Y51377D01*
X-70295Y68398D02*
Y69972D01*
Y68398D02*
X-64649Y62752D01*
Y61575D02*
Y62752D01*
Y61575D02*
X-64074Y61000D01*
X-87230Y60803D02*
Y61000D01*
Y60803D02*
X-83321Y56895D01*
Y51377D02*
Y56895D01*
Y51377D02*
X-83252Y51308D01*
X-98962Y68398D02*
Y69972D01*
Y68398D02*
X-93316Y62752D01*
Y61575D02*
Y62752D01*
Y61575D02*
X-92741Y61000D01*
X-127628Y68398D02*
Y69972D01*
Y68398D02*
X-121982Y62752D01*
Y61575D02*
Y62752D01*
Y61575D02*
X-121407Y61000D01*
X-78711Y-37800D02*
X-75236Y-41275D01*
X-67226D01*
X-63252Y-37300D01*
Y-28192D01*
X-88400Y-37800D02*
X-78711D01*
X-45928Y-30161D02*
X-37650D01*
X-54022Y-22066D02*
X-45928Y-30161D01*
X-60473Y-22066D02*
X-54022D01*
X-63252Y-24845D02*
X-60473Y-22066D01*
X-63252Y-28192D02*
Y-24845D01*
X-78252Y-28192D02*
Y-19345D01*
X-79600Y-17997D02*
X-78252Y-19345D01*
X-79600Y-17997D02*
Y-17800D01*
X-113300Y-48271D02*
X-102575D01*
X-92324Y-38020D01*
X-88620D01*
X-88400Y-37800D01*
X-88321Y-28261D02*
X-88252Y-28192D01*
X-88321Y-37721D02*
Y-28261D01*
X-88400Y-37800D02*
X-88321Y-37721D01*
X-78252Y-56248D02*
X-74800Y-59700D01*
X-78252Y-56248D02*
Y-50239D01*
X-101822Y-42051D02*
X-101773Y-42002D01*
X-106651Y-42051D02*
X-101822D01*
X-106700Y-42100D02*
X-106651Y-42051D01*
X-83252Y-50239D02*
X-83183Y-50309D01*
Y-57606D02*
Y-50309D01*
Y-57606D02*
X-80800Y-59989D01*
Y-60300D02*
Y-59989D01*
X-93252Y-52609D02*
Y-50239D01*
X-93419Y-52776D02*
X-93252Y-52609D01*
X-97744Y-52776D02*
X-93419D01*
X-101955Y-56988D02*
X-97744Y-52776D01*
X-101871Y-29489D02*
X-101773Y-29587D01*
Y-36491D02*
Y-29587D01*
X-113300Y-30161D02*
X-110363Y-33098D01*
X-105363D01*
X-101970Y-36491D01*
X-101773D01*
X-57080D02*
X-49196D01*
X-58252Y-35319D02*
X-57080Y-36491D01*
X-58252Y-35319D02*
Y-28192D01*
X-48622Y-37299D02*
X-37650Y-48271D01*
X-48622Y-37299D02*
Y-37066D01*
X-49196Y-36491D02*
X-48622Y-37066D01*
X-63252Y-50239D02*
Y-46795D01*
X-58459Y-42002D01*
X-49393D01*
X-30300Y-60697D02*
Y-60500D01*
Y-60697D02*
X-25038Y-65959D01*
Y-68042D02*
Y-65959D01*
Y-68042D02*
X-23676Y-69404D01*
X-58252Y-52517D02*
Y-50239D01*
Y-52517D02*
X-58085Y-52684D01*
X-51678D01*
X-43862Y-60500D01*
X-35811D01*
X-58563Y-60697D02*
Y-60500D01*
Y-60697D02*
X-53705Y-65555D01*
Y-68042D02*
Y-65555D01*
Y-68042D02*
X-52342Y-69404D01*
X-64074Y-60500D02*
Y-60303D01*
X-68183Y-56195D02*
X-64074Y-60303D01*
X-68183Y-56195D02*
Y-50309D01*
X-68252Y-50239D02*
X-68183Y-50309D01*
X-87230Y-60697D02*
Y-60500D01*
Y-60697D02*
X-82371Y-65555D01*
Y-68042D02*
Y-65555D01*
Y-68042D02*
X-81009Y-69404D01*
X-92741Y-60500D02*
Y-60303D01*
X-88321Y-55884D01*
Y-50309D01*
X-88252Y-50239D01*
X-73252D02*
Y-46795D01*
X-77246Y-42800D02*
X-73252Y-46795D01*
X-106364Y-55664D02*
X-93500Y-42800D01*
X-77246D01*
X-121407Y-60500D02*
Y-60303D01*
X-116769Y-55664D01*
X-106364D01*
X-109676Y-69404D02*
Y-67829D01*
X-115322Y-62183D02*
X-109676Y-67829D01*
X-115322Y-62183D02*
Y-61075D01*
X-115896Y-60500D02*
X-115322Y-61075D01*
X69950Y45350D02*
X87536Y62936D01*
X69900Y45300D02*
X69950Y45350D01*
X89489Y71900D02*
X94410D01*
X87536Y69947D02*
X89489Y71900D01*
X87536Y62936D02*
Y69947D01*
X69950Y45350D02*
X81400D01*
X53268Y71900D02*
X54800D01*
X56400Y45300D02*
Y70300D01*
X54800Y71900D02*
X56400Y70300D01*
X38200Y86968D02*
Y101420D01*
Y86968D02*
X53268Y71900D01*
D113*
X-142900Y-55600D02*
X-141500Y-54200D01*
X-142900Y-106085D02*
Y-55600D01*
X-178300Y-109600D02*
X-146415D01*
X-142900Y-106085D01*
X-184100Y-97400D02*
X-183950Y-97550D01*
Y-103950D02*
Y-97550D01*
Y-103950D02*
X-178300Y-109600D01*
X-225100Y-93885D02*
Y-80100D01*
Y-62682D01*
X-221263Y-58844D01*
X-212308D01*
X-212100Y-58636D01*
X-225100Y-93885D02*
X-221585Y-97400D01*
X-184100D01*
X-193500Y-82455D02*
X-169045D01*
X-154100Y-97400D01*
X-176891Y-33925D02*
X-175779Y-35037D01*
X-193500Y-82455D02*
X-175779Y-64735D01*
Y-35037D01*
X-212100Y-88163D02*
X-212100Y-88164D01*
X-199208D01*
X-193500Y-82455D01*
X-212100Y-58636D02*
X-199208D01*
X-193500Y-64345D01*
X-137263Y-58636D02*
X-127628Y-68272D01*
X-32400Y-100300D02*
Y-96958D01*
X-52342Y69972D02*
Y73158D01*
X-32731Y-96628D02*
X-32400Y-96958D01*
X-175779Y-14310D02*
Y4194D01*
X-176891Y-33925D02*
X-175779Y-32813D01*
X-51394Y116900D02*
X-51244Y116750D01*
X-45750D01*
X-41384Y112384D01*
Y97984D02*
Y112384D01*
Y106007D02*
X-32573Y97196D01*
X-41384Y107385D02*
X-32573Y98574D01*
Y97196D02*
Y98574D01*
X-41384Y97984D02*
X-36585Y93185D01*
X-98718Y106007D02*
X-89907Y97196D01*
X-98718Y106007D02*
Y114931D01*
X-100606Y116819D02*
X-98718Y114931D01*
X-100606Y116819D02*
Y116900D01*
X-175779Y4194D02*
Y21124D01*
X-187855Y33200D02*
X-175779Y21124D01*
X-190064Y33200D02*
X-187855D01*
X-41384Y88385D02*
X-36585Y93185D01*
X-109676Y69972D02*
Y73324D01*
X-109038Y73962D02*
Y74062D01*
X-109676Y73324D02*
X-109038Y73962D01*
Y74062D02*
X-98718Y84382D01*
Y88385D01*
X-89907Y97196D01*
X-52342Y73158D02*
X-41384Y84116D01*
Y88385D01*
X-109920Y-87817D02*
Y-83120D01*
X-98962Y-72162D02*
Y-69404D01*
X-109920Y-83120D02*
X-98962Y-72162D01*
X-118731Y-96628D02*
X-109920Y-87817D01*
X-108603Y-117500D02*
X-99913D01*
X-112118Y-113985D02*
X-108603Y-117500D01*
X-112118Y-113985D02*
Y-103241D01*
X-118731Y-96628D02*
X-112118Y-103241D01*
X-61397Y-96628D02*
X-52586Y-105439D01*
Y-115614D02*
Y-105439D01*
Y-115614D02*
X-51086Y-117114D01*
X-52586Y-84186D02*
X-41628Y-73228D01*
Y-69404D01*
X-61397Y-96628D02*
X-52586Y-87817D01*
Y-84186D01*
D114*
X193823Y-89900D02*
X197063Y-86660D01*
X178541Y-86681D02*
X181760Y-89900D01*
X193823D01*
X178541Y-86484D02*
Y-69259D01*
Y-86681D02*
Y-86484D01*
X197063Y-86463D02*
X197400Y-86126D01*
X194700Y-66500D02*
X197400Y-69200D01*
Y-86126D02*
Y-69200D01*
X181900Y-65900D02*
Y-62600D01*
X178541Y-69259D02*
X181900Y-65900D01*
X218632Y35902D02*
Y42642D01*
X4916Y-80000D02*
X25203D01*
X194700Y-66500D02*
Y-62500D01*
X140662Y-24054D02*
X140858D01*
X123953D02*
X140662D01*
X140837Y-5037D02*
X143683Y-7883D01*
X140640Y-5037D02*
X140837D01*
X140858Y-24054D02*
X143683Y-21229D01*
Y-7883D01*
X-32000Y-18300D02*
X-18250Y-32050D01*
X-32000Y-18300D02*
Y23500D01*
X18349Y-82523D02*
X33077D01*
X37900Y-77700D02*
Y-63500D01*
X33077Y-82523D02*
X37900Y-77700D01*
X20000Y-45600D02*
Y-35500D01*
Y-45600D02*
X37900Y-63500D01*
X16550Y-32050D02*
X20000Y-35500D01*
X-18250Y-32050D02*
X16550D01*
X-1022Y-89405D02*
Y-89405D01*
Y-89405D02*
X-197Y-90230D01*
X0D01*
X115900Y-21100D02*
X121000D01*
X123953Y-24054D01*
X115800Y-8400D02*
X121200D01*
X124563Y-5037D01*
X140640D01*
X25203Y-80000D02*
X29903Y-75300D01*
X30357Y-74846D01*
X23600Y-75300D02*
X29903D01*
X30392Y-100400D02*
X30750Y-100042D01*
X23900Y-100400D02*
X30392D01*
X14725Y-92237D02*
X18222D01*
X14246Y-91759D02*
X14725Y-92237D01*
X13800Y-91759D02*
X14246D01*
X30357Y-74846D02*
X30751D01*
X0Y-84719D02*
X197D01*
X4916Y-80000D01*
X2595Y-89405D02*
X6457Y-85544D01*
X8075D02*
X8900Y-84719D01*
X6457Y-85544D02*
X8075D01*
X825Y-89405D02*
X2595D01*
X0Y-90230D02*
X825Y-89405D01*
X8900Y-84719D02*
X9097D01*
X11293Y-82523D02*
X18349D01*
X9097Y-84719D02*
X11293Y-82523D01*
X222175Y6581D02*
Y24682D01*
X222372Y35115D02*
X230700Y26787D01*
X224000Y-58200D02*
X230700Y-51500D01*
Y26787D01*
X214892Y35903D02*
Y44413D01*
Y32079D02*
Y35903D01*
X222372Y32079D02*
Y35115D01*
Y35902D01*
X222490Y-15107D02*
X222499Y-15116D01*
X222481Y-8116D02*
X222490Y-8125D01*
Y-15107D02*
Y-8125D01*
X221978Y6384D02*
X222175Y6581D01*
X215771Y31200D02*
X221494D01*
X214892Y32079D02*
X215771Y31200D01*
X221494D02*
X222372Y32079D01*
X218632Y42642D02*
X221978Y45987D01*
Y46184D01*
X214892Y44413D02*
X216467Y45987D01*
Y46184D01*
X196279Y65400D02*
X203600D01*
X196279Y51500D02*
X215721D01*
X195400Y64521D02*
X196279Y65400D01*
X195400Y52379D02*
X196279Y51500D01*
X195400Y52379D02*
Y64521D01*
X198939Y61761D02*
X199379Y62200D01*
X198500Y61321D02*
X198939Y61761D01*
X194700Y87300D02*
X194800Y87400D01*
X204560D01*
Y84250D02*
X204795Y84015D01*
X206838D01*
X210100Y80753D01*
Y68857D02*
Y80753D01*
X206828Y65585D02*
X210100Y68857D01*
X204795Y65585D02*
X206828D01*
X204560Y65350D02*
X204795Y65585D01*
X221978Y46184D02*
X222300Y46506D01*
X199379Y53700D02*
X220600D01*
X222300Y46506D02*
Y52000D01*
X220600Y53700D02*
X222300Y52000D01*
X199379Y62200D02*
X204560D01*
X198500Y54579D02*
X199379Y53700D01*
X198500Y54579D02*
Y61321D01*
X215721Y51500D02*
X216600Y50621D01*
Y46317D02*
Y50621D01*
X216467Y46184D02*
X216600Y46317D01*
D115*
X-145100Y-20890D02*
Y-5900D01*
X-161500Y-3400D02*
X-156002D01*
X-156927Y12155D02*
Y12352D01*
X-163300Y5782D02*
X-156927Y12155D01*
X-163300Y-1600D02*
Y5782D01*
Y-1600D02*
X-161500Y-3400D01*
X-156002D02*
X-156002Y-3400D01*
X-147600D01*
X-145100Y-20890D02*
X-138090Y-27900D01*
X-136116Y12352D02*
X-114704D01*
X-113039D01*
X-113000Y12313D01*
X-151416Y12352D02*
X-141627D01*
X-141552Y6812D02*
Y12277D01*
Y6812D02*
X-136340Y1600D01*
X-141627Y12352D02*
X-141552Y12277D01*
X-136340Y1600D02*
X-134198D01*
X-156200Y-27900D02*
X-153763Y-30337D01*
Y-33643D02*
Y-30337D01*
X-152006Y-35400D02*
X-132172D01*
X-153763Y-33643D02*
X-152006Y-35400D01*
X-127397Y-30625D02*
X-127200D01*
X-132172Y-35400D02*
X-127397Y-30625D01*
X-127200D02*
X-127125Y-30550D01*
X-126461D01*
X-118035Y-22124D01*
Y-15883D01*
X-114665Y-12513D01*
X-113000D01*
X-165517Y-8400D02*
X-156002D01*
X-171427Y-14310D02*
X-165517Y-8400D01*
X-175779Y-14310D02*
X-171427D01*
X-134198Y-18313D02*
Y-13400D01*
Y-18313D02*
X-127397Y-25114D01*
X-127200D01*
X-156200Y-27900D02*
X-156101Y-27801D01*
Y-13499D01*
X-156002Y-13400D01*
X-51086Y-117114D02*
X-50700Y-117500D01*
D116*
X-141500Y-54200D02*
D03*
D117*
X-124300Y-72100D02*
D03*
X-84400Y72700D02*
D03*
X-27100D02*
D03*
X-66800Y-72200D02*
D03*
D118*
X-175779Y-32813D02*
D03*
Y-14310D02*
D03*
Y4194D02*
D03*
D119*
X-212000Y-39900D02*
D03*
Y11281D02*
D03*
D120*
X61537Y103700D02*
D03*
X71378D02*
D03*
X81221D02*
D03*
X91063D02*
D03*
X-212100Y-58636D02*
D03*
Y-68479D02*
D03*
Y-78321D02*
D03*
Y-88164D02*
D03*
D121*
X-51394Y116900D02*
D03*
X-99913Y-117500D02*
D03*
X-184100Y-97400D02*
D03*
D122*
X-61236Y116900D02*
D03*
X-71078D02*
D03*
X-80921D02*
D03*
X-90764D02*
D03*
X-100606D02*
D03*
X-90070Y-117500D02*
D03*
X-80228D02*
D03*
X-70385D02*
D03*
X-60542D02*
D03*
X-50700D02*
D03*
X-154100Y-97400D02*
D03*
X-164100D02*
D03*
X-174100D02*
D03*
D123*
X206790Y57790D02*
D03*
Y91810D02*
D03*
D124*
X223250D02*
D03*
Y57790D02*
D03*
D125*
X120700Y79000D02*
D03*
X63925Y-54200D02*
D03*
X59300Y-54100D02*
D03*
X-225332Y-64754D02*
D03*
X-224800Y-80100D02*
D03*
X-133600Y-63000D02*
D03*
Y-55175D02*
D03*
X-140400D02*
D03*
X-133600Y-47350D02*
D03*
X-141350D02*
D03*
X-149100D02*
D03*
X0Y0D02*
D03*
X-54100Y32600D02*
D03*
X170800Y67500D02*
D03*
X169000Y79100D02*
D03*
X227100Y-25400D02*
D03*
X226800Y1800D02*
D03*
X213400Y-15200D02*
D03*
X167100Y-34600D02*
D03*
X172500Y-16500D02*
D03*
X162800Y-109900D02*
D03*
X173700Y-101800D02*
D03*
X169000Y-46200D02*
D03*
X-97000Y-37100D02*
D03*
X-101000Y32400D02*
D03*
X-93100Y38500D02*
D03*
X155100Y-91100D02*
D03*
X143000Y-94000D02*
D03*
X155400Y-104800D02*
D03*
X165700Y-101600D02*
D03*
X-122600Y-35800D02*
D03*
X-112300Y-22300D02*
D03*
X-110800Y-61200D02*
D03*
X45600Y-50500D02*
D03*
X-67400Y11800D02*
D03*
X-55200Y24000D02*
D03*
X-81300Y62700D02*
D03*
X-45800Y61400D02*
D03*
X-26800Y42100D02*
D03*
X-5900Y62700D02*
D03*
X-6400Y85600D02*
D03*
X19180Y82569D02*
D03*
X18400Y63600D02*
D03*
X31800Y67700D02*
D03*
X64100Y51700D02*
D03*
X-37000Y-94900D02*
D03*
X-28300D02*
D03*
X-37000Y-104600D02*
D03*
X-28300D02*
D03*
X-32650Y-99750D02*
D03*
X185200Y23700D02*
D03*
X-73700Y-12200D02*
D03*
X202100Y-105600D02*
D03*
X219700Y-97300D02*
D03*
X108800Y-68500D02*
D03*
X118400Y-77900D02*
D03*
X135100Y-83400D02*
D03*
X-146100Y94800D02*
D03*
X-135200Y105700D02*
D03*
X-137400Y90700D02*
D03*
X-119500Y118600D02*
D03*
X-20946Y120440D02*
D03*
X-35946Y116740D02*
D03*
X-81944Y18904D02*
D03*
X-27246Y-54160D02*
D03*
X-48097Y-48365D02*
D03*
X-33000Y-66300D02*
D03*
X130454Y-52260D02*
D03*
X130954Y-44060D02*
D03*
X130654Y-35960D02*
D03*
X115300Y-48400D02*
D03*
X97154Y78340D02*
D03*
X97100Y91100D02*
D03*
X81354Y93340D02*
D03*
X77154Y80640D02*
D03*
X64654Y92640D02*
D03*
X55054Y83540D02*
D03*
X48100Y92800D02*
D03*
X49200Y108000D02*
D03*
X100700Y25300D02*
D03*
X110100Y13900D02*
D03*
X116354Y1740D02*
D03*
X-60900Y69200D02*
D03*
X-61600Y77900D02*
D03*
X180200Y-115100D02*
D03*
X180100Y-109000D02*
D03*
X-30100Y33100D02*
D03*
X-38900Y24100D02*
D03*
X-53101Y-29324D02*
D03*
X45000Y59900D02*
D03*
X44123Y44887D02*
D03*
X116100Y45500D02*
D03*
X117900Y61600D02*
D03*
X136900Y84200D02*
D03*
X170500Y86600D02*
D03*
X137100Y95800D02*
D03*
X229000Y34900D02*
D03*
X219200Y40800D02*
D03*
X210100Y40400D02*
D03*
X210500Y47400D02*
D03*
X210200Y25400D02*
D03*
X193000Y35800D02*
D03*
X194100Y21200D02*
D03*
X193700Y4200D02*
D03*
X185400Y6200D02*
D03*
X177400Y11200D02*
D03*
X222411Y70291D02*
D03*
X222400Y77500D02*
D03*
X187006Y77542D02*
D03*
X186200Y89900D02*
D03*
X209900Y101400D02*
D03*
X201500Y110000D02*
D03*
X204500Y119800D02*
D03*
X114900Y80100D02*
D03*
X114100Y92900D02*
D03*
X109600Y107800D02*
D03*
X110200Y119100D02*
D03*
X87000Y118100D02*
D03*
X66700Y118900D02*
D03*
X11400Y113000D02*
D03*
X-6500Y112600D02*
D03*
X15100Y93300D02*
D03*
X5900Y80100D02*
D03*
X4000Y63300D02*
D03*
X162900Y58100D02*
D03*
X151600Y71000D02*
D03*
X139100Y53300D02*
D03*
X138400Y30600D02*
D03*
X116477Y28133D02*
D03*
X155800Y53600D02*
D03*
X147600Y53200D02*
D03*
X155600Y32400D02*
D03*
X147600Y32200D02*
D03*
X162900Y29100D02*
D03*
X166800Y3000D02*
D03*
X152200Y7400D02*
D03*
X143200Y14200D02*
D03*
X160800Y10600D02*
D03*
X160200Y-8100D02*
D03*
X159900Y-24400D02*
D03*
X188300Y-43100D02*
D03*
X212500Y-43900D02*
D03*
X217900Y-53400D02*
D03*
X230000Y-63500D02*
D03*
X212300Y-100800D02*
D03*
X227200Y-97000D02*
D03*
X165000Y-93200D02*
D03*
X138500Y-68500D02*
D03*
X144900Y-79100D02*
D03*
X145800Y-101100D02*
D03*
X145200Y-119600D02*
D03*
X101700Y-81700D02*
D03*
X85700Y-69100D02*
D03*
X87800Y-90700D02*
D03*
X74700Y-78100D02*
D03*
X91600Y-108500D02*
D03*
X49900Y-110000D02*
D03*
X68100Y-100200D02*
D03*
X107100Y-99900D02*
D03*
X106800Y-119800D02*
D03*
X72200Y-120300D02*
D03*
X45200Y-120500D02*
D03*
X7700Y-121400D02*
D03*
X26500Y-111500D02*
D03*
X43300Y-97400D02*
D03*
X53300Y-87300D02*
D03*
X56300Y-70800D02*
D03*
X-11400Y-94600D02*
D03*
X10500Y-100100D02*
D03*
X-1700Y-109200D02*
D03*
X-16700Y-116400D02*
D03*
X-39600Y-116200D02*
D03*
X-92100Y-78100D02*
D03*
X-32600Y-75500D02*
D03*
X-13689Y-76230D02*
D03*
X-7600Y-65900D02*
D03*
X26800Y-65600D02*
D03*
X12300Y-54200D02*
D03*
X4900Y-75000D02*
D03*
X-5100Y-49600D02*
D03*
X16500Y-40900D02*
D03*
X1000Y-40700D02*
D03*
X-17900Y-41300D02*
D03*
X-36375Y-40793D02*
D03*
X-28053Y-27847D02*
D03*
X-48900Y-15400D02*
D03*
X-36800Y-10100D02*
D03*
X-36221Y5751D02*
D03*
X-65700Y-18300D02*
D03*
X-96300D02*
D03*
X-99698Y-6522D02*
D03*
X-110800Y400D02*
D03*
X-124700Y-16100D02*
D03*
X-123900Y2400D02*
D03*
X-118300Y69800D02*
D03*
X-101500Y48500D02*
D03*
X-120500Y55100D02*
D03*
X-135100Y39600D02*
D03*
X-145400Y41500D02*
D03*
X-155800Y26900D02*
D03*
X-137600Y18500D02*
D03*
X-144700Y21200D02*
D03*
X-145000Y-27700D02*
D03*
X-134700Y-85500D02*
D03*
X-142300Y-71300D02*
D03*
X-130300Y-119000D02*
D03*
X-155500Y-118800D02*
D03*
X-179500Y-118300D02*
D03*
X-202700Y-115800D02*
D03*
X-225300Y-93100D02*
D03*
X-224000Y-51500D02*
D03*
X-199700Y-44600D02*
D03*
X-195200Y-33400D02*
D03*
X-196100Y-15200D02*
D03*
X-194900Y200D02*
D03*
X-136900Y117600D02*
D03*
X-170100Y92600D02*
D03*
X-198600Y83600D02*
D03*
X-180900Y74000D02*
D03*
X-188300Y77700D02*
D03*
X-182000Y42600D02*
D03*
X-172111Y42862D02*
D03*
X-192600Y43700D02*
D03*
X-196100Y18400D02*
D03*
X-223985Y20516D02*
D03*
X-210400Y24000D02*
D03*
X-221300Y35700D02*
D03*
X-148400Y106700D02*
D03*
X-155600Y118900D02*
D03*
X-171400Y120600D02*
D03*
X-188200D02*
D03*
X-192200Y102500D02*
D03*
X-208600Y50000D02*
D03*
X-223000Y51700D02*
D03*
X-217900Y62800D02*
D03*
X-226900Y63000D02*
D03*
X-224100Y87400D02*
D03*
X-212000Y92000D02*
D03*
X-202400Y116800D02*
D03*
X-207100Y121500D02*
D03*
X-212700Y101200D02*
D03*
X-221000Y97800D02*
D03*
X-229200Y98600D02*
D03*
X200300Y-63000D02*
D03*
X201700Y-68300D02*
D03*
Y-73400D02*
D03*
X201800Y-78700D02*
D03*
X201900Y-83700D02*
D03*
Y-88700D02*
D03*
X199600Y-92700D02*
D03*
X194800Y-94100D02*
D03*
X189900Y-93900D02*
D03*
X184900D02*
D03*
X179900D02*
D03*
X174800Y-92000D02*
D03*
X173700Y-87000D02*
D03*
X173800Y-82000D02*
D03*
X174000Y-77300D02*
D03*
Y-71800D02*
D03*
Y-67000D02*
D03*
X175400Y-62800D02*
D03*
X115200Y-21500D02*
D03*
X117000Y-25100D02*
D03*
X120000Y-28600D02*
D03*
X124500Y-30200D02*
D03*
X129300D02*
D03*
X133900Y-30300D02*
D03*
X138200Y-30100D02*
D03*
X142600Y-30200D02*
D03*
X147500Y-27800D02*
D03*
X150300Y-24200D02*
D03*
X150700Y-19800D02*
D03*
Y-14800D02*
D03*
X150600Y-10700D02*
D03*
X150300Y-6200D02*
D03*
X148500Y-2200D02*
D03*
X145300Y700D02*
D03*
X140800Y1300D02*
D03*
X136000Y1400D02*
D03*
X131200Y1300D02*
D03*
X126500Y1400D02*
D03*
X-155900Y51600D02*
D03*
X-147100Y66400D02*
D03*
X188400Y51800D02*
D03*
X192000Y-47900D02*
D03*
X208541Y6406D02*
D03*
X199900Y-31400D02*
D03*
X67600Y26100D02*
D03*
X64800Y31900D02*
D03*
X79145Y-32933D02*
D03*
X100200Y-1800D02*
D03*
X91600Y-49700D02*
D03*
X73300Y63400D02*
D03*
X98000Y63000D02*
D03*
X39200Y-28500D02*
D03*
X2200Y-19300D02*
D03*
X17000Y-13600D02*
D03*
X-93700Y-69200D02*
D03*
X-120900Y-68000D02*
D03*
X-121000Y-76400D02*
D03*
X-127700Y-76100D02*
D03*
X-87800Y68600D02*
D03*
X-87700Y77000D02*
D03*
X-81000Y76700D02*
D03*
X-30500Y68600D02*
D03*
X-30400Y77000D02*
D03*
X-23700Y76700D02*
D03*
X-70200Y-76200D02*
D03*
X-63500Y-76500D02*
D03*
X-63400Y-68100D02*
D03*
X-96900Y4000D02*
D03*
X-129503Y32992D02*
D03*
X-52829Y62218D02*
D03*
X-95900Y-95200D02*
D03*
Y-104800D02*
D03*
X-84800D02*
D03*
Y-95200D02*
D03*
X-90350Y-100000D02*
D03*
X-66400Y93800D02*
D03*
X-56200D02*
D03*
Y102400D02*
D03*
X-66400D02*
D03*
X-114400Y92400D02*
D03*
Y101800D02*
D03*
X-122700Y92400D02*
D03*
Y101900D02*
D03*
X-118550Y97150D02*
D03*
X23600Y-75300D02*
D03*
X23900Y-100400D02*
D03*
X13800Y-91759D02*
D03*
X211300Y15100D02*
D03*
X18125Y-300D02*
D03*
X17825Y7900D02*
D03*
X18300Y-7979D02*
D03*
X-17500Y8200D02*
D03*
Y-8200D02*
D03*
X-17600Y-300D02*
D03*
X8300Y15800D02*
D03*
X-8900Y-15900D02*
D03*
X42800Y-44500D02*
D03*
X31100Y79500D02*
D03*
X115100Y39000D02*
D03*
X98281Y3181D02*
D03*
X87600Y23600D02*
D03*
X112200Y-1400D02*
D03*
X111660Y-25392D02*
D03*
X139600Y-87900D02*
D03*
X120000Y-88100D02*
D03*
X99200Y-50700D02*
D03*
X132600Y11600D02*
D03*
X69200Y-15400D02*
D03*
X64628Y-16059D02*
D03*
X-77100Y12600D02*
D03*
X-66500Y3400D02*
D03*
X80200Y3300D02*
D03*
X77100Y6900D02*
D03*
X72000D02*
D03*
X166700Y33300D02*
D03*
X-10400Y94600D02*
D03*
X-122000Y29100D02*
D03*
X-37900Y-21800D02*
D03*
X-61631Y19803D02*
D03*
X-45100Y14600D02*
D03*
X-97500Y12400D02*
D03*
X-61300Y98100D02*
D03*
X56100Y-2500D02*
D03*
X53400Y-5600D02*
D03*
X-39482Y41850D02*
D03*
X-75700Y59800D02*
D03*
X-83100Y36500D02*
D03*
X-78400Y36700D02*
D03*
X-53100Y57200D02*
D03*
X-28000Y50100D02*
D03*
X-45952Y47052D02*
D03*
X-70200Y59900D02*
D03*
X-68700Y-36300D02*
D03*
X-73276Y-36424D02*
D03*
X-88400Y-37800D02*
D03*
X-74800Y-59700D02*
D03*
X-106700Y-42100D02*
D03*
X-80800Y-60300D02*
D03*
X-101955Y-56988D02*
D03*
X-101871Y-29489D02*
D03*
X101800Y37100D02*
D03*
X112400Y-31500D02*
D03*
X2800Y47000D02*
D03*
X-7300Y56100D02*
D03*
X40975Y-15500D02*
D03*
X40800Y-11056D02*
D03*
X55700Y-26700D02*
D03*
Y-31600D02*
D03*
X92500Y-36700D02*
D03*
X89600Y-32500D02*
D03*
X170300Y93500D02*
D03*
X170150Y98750D02*
D03*
X121600Y-68800D02*
D03*
X153500Y-72600D02*
D03*
X62056Y4826D02*
D03*
X66000Y7400D02*
D03*
X97500Y-11500D02*
D03*
X130425Y-59575D02*
D03*
X135000Y-57000D02*
D03*
X212800Y-49900D02*
D03*
X205300Y-55800D02*
D03*
X155100Y-55500D02*
D03*
X155000Y-50000D02*
D03*
X176900Y-2300D02*
D03*
X192700Y-3100D02*
D03*
X186800Y-26800D02*
D03*
X154895Y-44047D02*
D03*
X194800Y-26800D02*
D03*
X199200D02*
D03*
X216400Y-21300D02*
D03*
X179900Y-36300D02*
D03*
X198939Y61761D02*
D03*
X194700Y87300D02*
D03*
D126*
X-147068Y-3931D02*
D03*
Y-7868D02*
D03*
X-143131D02*
D03*
Y-3931D02*
D03*
M02*
