G04*
G04 #@! TF.GenerationSoftware,Altium Limited,Altium Designer,20.1.11 (218)*
G04*
G04 Layer_Color=8388736*
%FSLAX25Y25*%
%MOIN*%
G70*
G04*
G04 #@! TF.SameCoordinates,8D0FCBAB-09EC-4A3B-B863-23265075E7EF*
G04*
G04*
G04 #@! TF.FilePolarity,Positive*
G04*
G01*
G75*
%ADD10C,0.01000*%
%ADD15C,0.01181*%
%ADD16C,0.00591*%
%ADD140C,0.00236*%
G36*
X-202358Y-56432D02*
X-204112D01*
X-204126Y-56418D01*
Y-50857D01*
X-206906D01*
Y-48888D01*
X-202351D01*
X-202258Y-48794D01*
X-202358Y-56432D01*
D02*
G37*
G36*
X-202353Y-86881D02*
X-204123D01*
Y-60117D01*
X-204127Y-60113D01*
X-202356D01*
X-202353Y-86881D01*
D02*
G37*
G36*
X-202258Y-98006D02*
X-202258Y-98006D01*
X-207258D01*
X-207256Y-98005D01*
Y-96137D01*
X-204126D01*
Y-90567D01*
X-202356D01*
X-202258Y-98006D01*
D02*
G37*
G36*
X-208906Y-48888D02*
Y-50857D01*
X-224306D01*
Y-96137D01*
X-210526D01*
Y-97966D01*
X-210525Y-97967D01*
X-226234D01*
X-226273Y-98006D01*
Y-49069D01*
X-225998Y-48794D01*
X-208906Y-48888D01*
D02*
G37*
G36*
X100867Y117834D02*
Y102125D01*
X100865Y102126D01*
X99037D01*
Y115906D01*
X53757D01*
Y100506D01*
X51788D01*
X51694Y117598D01*
X51969Y117873D01*
X100906D01*
X100867Y117834D01*
D02*
G37*
G36*
X63017Y95723D02*
X89781D01*
Y93953D01*
X63012Y93956D01*
Y95727D01*
X63017Y95723D01*
D02*
G37*
G36*
X100906Y93858D02*
X100906Y93858D01*
X93467Y93956D01*
Y95726D01*
X99037D01*
Y98856D01*
X100905D01*
X100906Y98858D01*
Y93858D01*
D02*
G37*
G36*
X53757Y95726D02*
X59317D01*
X59332Y95712D01*
Y93958D01*
X51694Y93858D01*
X51788Y93951D01*
Y98506D01*
X53757D01*
Y95726D01*
D02*
G37*
D10*
X138920Y-117400D02*
G03*
X138920Y-117400I-310J0D01*
G01*
X172420D02*
G03*
X172420Y-117400I-310J0D01*
G01*
X205920D02*
G03*
X205920Y-117400I-310J0D01*
G01*
D15*
X-180809Y89747D02*
G03*
X-180809Y89747I-591J0D01*
G01*
D16*
X17759Y-94333D02*
G03*
X17759Y-94333I-295J0D01*
G01*
D140*
X149263Y88964D02*
G03*
X149263Y88964I-118J0D01*
G01*
X157193Y88681D02*
G03*
X157193Y88681I-118J0D01*
G01*
X148499Y-42655D02*
G03*
X148499Y-42655I-118J0D01*
G01*
X224062Y-21295D02*
G03*
X224062Y-21295I-118J0D01*
G01*
X126168Y-51725D02*
G03*
X126168Y-51725I-118J0D01*
G01*
X-13600Y-6791D02*
G03*
X-13600Y-6791I-118J0D01*
G01*
Y1495D02*
G03*
X-13600Y1495I-118J0D01*
G01*
X128285Y48588D02*
G03*
X128285Y48588I-118J0D01*
G01*
Y40813D02*
G03*
X128285Y40813I-118J0D01*
G01*
X122046Y14078D02*
G03*
X122046Y14078I-118J0D01*
G01*
X128285Y9475D02*
G03*
X128285Y9475I-118J0D01*
G01*
X99293Y42180D02*
G03*
X99293Y42180I-118J0D01*
G01*
X142543Y-53875D02*
G03*
X142543Y-53875I-118J0D01*
G01*
Y-61675D02*
G03*
X142543Y-61675I-118J0D01*
G01*
X148783Y-34325D02*
G03*
X148783Y-34325I-118J0D01*
G01*
X160827Y-39794D02*
G03*
X160827Y-39794I-118J0D01*
G01*
X178264Y-88059D02*
G03*
X178264Y-88059I-118J0D01*
G01*
X182824Y-6925D02*
G03*
X182824Y-6925I-118J0D01*
G01*
X185364Y-65261D02*
G03*
X185364Y-65261I-118J0D01*
G01*
X197575Y-84888D02*
G03*
X197575Y-84888I-118J0D01*
G01*
X202424Y-6925D02*
G03*
X202424Y-6925I-118J0D01*
G01*
X212693Y-71306D02*
G03*
X212693Y-71306I-118J0D01*
G01*
X209522Y-78395D02*
G03*
X209522Y-78395I-118J0D01*
G01*
X163999Y-60905D02*
G03*
X163999Y-60905I-118J0D01*
G01*
X224843Y-28209D02*
G03*
X224843Y-28209I-118J0D01*
G01*
Y-36209D02*
G03*
X224843Y-36209I-118J0D01*
G01*
Y-44209D02*
G03*
X224843Y-44209I-118J0D01*
G01*
X165533Y-86525D02*
G03*
X165533Y-86525I-118J0D01*
G01*
Y-78814D02*
G03*
X165533Y-78814I-118J0D01*
G01*
X159293Y-74275D02*
G03*
X159293Y-74275I-118J0D01*
G01*
X26793Y34694D02*
G03*
X26793Y34694I-118J0D01*
G01*
X32943Y-34106D02*
G03*
X32943Y-34106I-118J0D01*
G01*
X3238Y-17721D02*
G03*
X3238Y-17721I-118J0D01*
G01*
X-3001Y17507D02*
G03*
X-3001Y17507I-118J0D01*
G01*
X-13600Y9781D02*
G03*
X-13600Y9781I-118J0D01*
G01*
X7598Y-6791D02*
G03*
X7598Y-6791I-118J0D01*
G01*
Y1495D02*
G03*
X7598Y1495I-118J0D01*
G01*
Y9781D02*
G03*
X7598Y9781I-118J0D01*
G01*
X-103230Y-36096D02*
G03*
X-103230Y-36096I-118J0D01*
G01*
X-50850D02*
G03*
X-50850Y-36096I-118J0D01*
G01*
X-125507Y-31019D02*
G03*
X-125507Y-31019I-118J0D01*
G01*
X-100059Y37165D02*
G03*
X-100059Y37165I-118J0D01*
G01*
X-12373Y107325D02*
G03*
X-12373Y107325I-118J0D01*
G01*
X-47679Y37165D02*
G03*
X-47679Y37165I-118J0D01*
G01*
X216191Y4809D02*
G03*
X216191Y4809I-118J0D01*
G01*
Y13509D02*
G03*
X216191Y13509I-118J0D01*
G01*
X142355Y-24448D02*
G03*
X142355Y-24448I-118J0D01*
G01*
X139183Y-4642D02*
G03*
X139183Y-4642I-118J0D01*
G01*
X125794Y-74275D02*
G03*
X125794Y-74275I-118J0D01*
G01*
X50743Y32294D02*
G03*
X50743Y32294I-118J0D01*
G01*
X94043D02*
G03*
X94043Y32294I-118J0D01*
G01*
X126168Y-34651D02*
G03*
X126168Y-34651I-118J0D01*
G01*
Y-43188D02*
G03*
X126168Y-43188I-118J0D01*
G01*
X213343Y-2294D02*
G03*
X213343Y-2294I-118J0D01*
G01*
X222491Y47759D02*
G03*
X222491Y47759I-118J0D01*
G01*
X-186088Y97575D02*
G03*
X-186088Y97575I-118J0D01*
G01*
X-206557Y79480D02*
G03*
X-206557Y79480I-118J0D01*
G01*
X-1457Y-84324D02*
G03*
X-1457Y-84324I-118J0D01*
G01*
X-89507Y-9794D02*
G03*
X-89507Y-9794I-118J0D01*
G01*
Y3306D02*
G03*
X-89507Y3306I-118J0D01*
G01*
X-141903Y10777D02*
G03*
X-141903Y10777I-118J0D01*
G01*
X-19010Y34694D02*
G03*
X-19010Y34694I-118J0D01*
G01*
Y48294D02*
G03*
X-19010Y48294I-118J0D01*
G01*
X-157203Y10777D02*
G03*
X-157203Y10777I-118J0D01*
G01*
X-67626Y19581D02*
G03*
X-67626Y19581I-118J0D01*
G01*
X-85387Y-19375D02*
G03*
X-85387Y-19375I-118J0D01*
G01*
X188191Y31490D02*
G03*
X188191Y31490I-118J0D01*
G01*
X199072Y22409D02*
G03*
X199072Y22409I-118J0D01*
G01*
X161027Y40728D02*
G03*
X161027Y40728I-118J0D01*
G01*
X191341Y40179D02*
G03*
X191341Y40179I-118J0D01*
G01*
X153252Y40728D02*
G03*
X153252Y40728I-118J0D01*
G01*
X205071Y47759D02*
G03*
X205071Y47759I-118J0D01*
G01*
X145477Y40728D02*
G03*
X145477Y40728I-118J0D01*
G01*
X171643Y46418D02*
G03*
X171643Y46418I-118J0D01*
G01*
X179906D02*
G03*
X179906Y46418I-118J0D01*
G01*
X36743Y107325D02*
G03*
X36743Y107325I-118J0D01*
G01*
X221024Y-2210D02*
G03*
X221024Y-2210I-118J0D01*
G01*
X115990Y-11426D02*
G03*
X115990Y-11426I-118J0D01*
G01*
X132033Y-86525D02*
G03*
X132033Y-86525I-118J0D01*
G01*
Y-78814D02*
G03*
X132033Y-78814I-118J0D01*
G01*
X79493Y26055D02*
G03*
X79493Y26055I-118J0D01*
G01*
X-184377Y53925D02*
G03*
X-184377Y53925I-118J0D01*
G01*
X-220607Y73242D02*
G03*
X-220607Y73242I-118J0D01*
G01*
X-215157Y79480D02*
G03*
X-215157Y79480I-118J0D01*
G01*
X-43507Y-9794D02*
G03*
X-43507Y-9794I-118J0D01*
G01*
Y3306D02*
G03*
X-43507Y3306I-118J0D01*
G01*
X26793Y48294D02*
G03*
X26793Y48294I-118J0D01*
G01*
X7443Y-84324D02*
G03*
X7443Y-84324I-118J0D01*
G01*
X-198287Y53925D02*
G03*
X-198287Y53925I-118J0D01*
G01*
X-214237Y20208D02*
G03*
X-214237Y20208I-118J0D01*
G01*
X-142191Y115992D02*
G03*
X-142191Y115992I-118J0D01*
G01*
X-163320Y20000D02*
G03*
X-163320Y20000I-118J0D01*
G01*
X-1420Y60400D02*
G03*
X-1420Y60400I-118J0D01*
G01*
X-121684Y59425D02*
G03*
X-121684Y59425I-118J0D01*
G01*
X-58051Y62575D02*
G03*
X-58051Y62575I-118J0D01*
G01*
X-93017Y59425D02*
G03*
X-93017Y59425I-118J0D01*
G01*
X-30387Y62575D02*
G03*
X-30387Y62575I-118J0D01*
G01*
X-29787Y-58925D02*
G03*
X-29787Y-58925I-118J0D01*
G01*
X-93017Y-62075D02*
G03*
X-93017Y-62075I-118J0D01*
G01*
X-58051Y-58925D02*
G03*
X-58051Y-58925I-118J0D01*
G01*
X-121684Y-62075D02*
G03*
X-121684Y-62075I-118J0D01*
G01*
M02*
