G04*
G04 #@! TF.GenerationSoftware,Altium Limited,Altium Designer,20.1.11 (218)*
G04*
G04 Layer_Color=32768*
%FSLAX25Y25*%
%MOIN*%
G70*
G04*
G04 #@! TF.SameCoordinates,8D0FCBAB-09EC-4A3B-B863-23265075E7EF*
G04*
G04*
G04 #@! TF.FilePolarity,Positive*
G04*
G01*
G75*
%ADD10C,0.01000*%
%ADD13C,0.01575*%
%ADD15C,0.01181*%
%ADD19C,0.00394*%
%ADD141C,0.00200*%
%ADD142C,0.00010*%
G36*
X101143Y117577D02*
Y117480D01*
Y117382D01*
X101004Y117243D01*
X100808D01*
X100670Y117382D01*
Y117480D01*
Y117577D01*
X100808Y117716D01*
X101004D01*
X101143Y117577D01*
D02*
G37*
G36*
X-144269Y102610D02*
X-147387D01*
Y103390D01*
X-144269D01*
Y102610D01*
D02*
G37*
G36*
X92323Y102440D02*
X89804D01*
Y104960D01*
X92323D01*
Y102440D01*
D02*
G37*
G36*
X82481D02*
X79962D01*
Y104960D01*
X82481D01*
Y102440D01*
D02*
G37*
G36*
X72638D02*
X70119D01*
Y104960D01*
X72638D01*
Y102440D01*
D02*
G37*
G36*
X62796D02*
X60277D01*
Y104960D01*
X62796D01*
Y102440D01*
D02*
G37*
G36*
X-166746Y103390D02*
X-165576D01*
Y102610D01*
X-166746D01*
Y100402D01*
X-167525D01*
Y102610D01*
X-168694D01*
Y103390D01*
X-167525D01*
Y105598D01*
X-166746D01*
Y103390D01*
D02*
G37*
G36*
X-179018Y88270D02*
Y88172D01*
Y88074D01*
X-179156Y87936D01*
X-179352D01*
X-179490Y88074D01*
Y88172D01*
Y88270D01*
X-179352Y88408D01*
X-179156D01*
X-179018Y88270D01*
D02*
G37*
G36*
X-180573Y84885D02*
Y83999D01*
X-182227D01*
Y84885D01*
Y88172D01*
X-180573D01*
Y84885D01*
D02*
G37*
G36*
X-185573D02*
Y83999D01*
X-187227D01*
Y84885D01*
Y88172D01*
X-185573D01*
Y84885D01*
D02*
G37*
G36*
X-190573D02*
Y83999D01*
X-192227D01*
Y84885D01*
Y88172D01*
X-190573D01*
Y84885D01*
D02*
G37*
G36*
X-195573D02*
Y83999D01*
X-197227D01*
Y84885D01*
Y88172D01*
X-195573D01*
Y84885D01*
D02*
G37*
G36*
X-154730Y76200D02*
X-170470D01*
Y81120D01*
X-154730D01*
Y76200D01*
D02*
G37*
G36*
X3541Y73002D02*
X423D01*
Y73782D01*
X3541D01*
Y73002D01*
D02*
G37*
G36*
X23679Y73782D02*
X24848D01*
Y73002D01*
X23679D01*
Y70794D01*
X22899D01*
Y73002D01*
X21730D01*
Y73782D01*
X22899D01*
Y75990D01*
X23679D01*
Y73782D01*
D02*
G37*
G36*
X-180573Y67798D02*
Y64550D01*
X-182227D01*
Y67798D01*
Y68723D01*
X-180573D01*
Y67798D01*
D02*
G37*
G36*
X-185573D02*
Y64550D01*
X-187227D01*
Y67798D01*
Y68723D01*
X-185573D01*
Y67798D01*
D02*
G37*
G36*
X-190573D02*
Y64550D01*
X-192227D01*
Y67798D01*
Y68723D01*
X-190573D01*
Y67798D01*
D02*
G37*
G36*
X-195573D02*
Y64550D01*
X-197227D01*
Y67798D01*
Y68723D01*
X-195573D01*
Y67798D01*
D02*
G37*
G36*
X-154730Y61680D02*
X-170470D01*
Y66600D01*
X-154730D01*
Y61680D01*
D02*
G37*
G36*
X-152520Y61659D02*
Y61461D01*
X-152661Y61320D01*
X-152859D01*
X-153000Y61461D01*
Y61659D01*
X-152859Y61800D01*
X-152661D01*
X-152520Y61659D01*
D02*
G37*
G36*
X89659Y61266D02*
X88084D01*
Y69928D01*
X89659D01*
Y61266D01*
D02*
G37*
G36*
X67612Y65574D02*
X71186D01*
Y63999D01*
X67612D01*
Y60479D01*
X66037D01*
Y63999D01*
X62524D01*
Y65574D01*
X66037D01*
Y69140D01*
X67612D01*
Y65574D01*
D02*
G37*
G36*
X-209276Y32810D02*
X-212394D01*
Y33590D01*
X-209276D01*
Y32810D01*
D02*
G37*
G36*
X-158359Y32602D02*
X-161477D01*
Y33382D01*
X-158359D01*
Y32602D01*
D02*
G37*
G36*
X-189139Y33590D02*
X-187969D01*
Y32810D01*
X-189139D01*
Y30602D01*
X-189918D01*
Y32810D01*
X-191087D01*
Y33590D01*
X-189918D01*
Y35798D01*
X-189139D01*
Y33590D01*
D02*
G37*
G36*
X-138221Y33382D02*
X-137052D01*
Y32602D01*
X-138221D01*
Y30394D01*
X-139001D01*
Y32602D01*
X-140170D01*
Y33382D01*
X-139001D01*
Y35590D01*
X-138221D01*
Y33382D01*
D02*
G37*
G36*
X-210840Y-59896D02*
X-213360D01*
Y-57377D01*
X-210840D01*
Y-59896D01*
D02*
G37*
G36*
Y-69738D02*
X-213360D01*
Y-67219D01*
X-210840D01*
Y-69738D01*
D02*
G37*
G36*
X33704Y-77011D02*
X27798D01*
Y-72483D01*
X33704D01*
Y-77011D01*
D02*
G37*
G36*
X-210840Y-79581D02*
X-213360D01*
Y-77062D01*
X-210840D01*
Y-79581D01*
D02*
G37*
G36*
X19530Y-80849D02*
X17168D01*
Y-80258D01*
X19530D01*
Y-80849D01*
D02*
G37*
G36*
Y-82818D02*
X17168D01*
Y-82227D01*
X19530D01*
Y-82818D01*
D02*
G37*
G36*
Y-84786D02*
X17168D01*
Y-84195D01*
X19530D01*
Y-84786D01*
D02*
G37*
G36*
Y-86755D02*
X17168D01*
Y-86164D01*
X19530D01*
Y-86755D01*
D02*
G37*
G36*
Y-88723D02*
X17168D01*
Y-88132D01*
X19530D01*
Y-88723D01*
D02*
G37*
G36*
X-210840Y-89423D02*
X-213360D01*
Y-86904D01*
X-210840D01*
Y-89423D01*
D02*
G37*
G36*
X19530Y-90692D02*
X17168D01*
Y-90101D01*
X19530D01*
Y-90692D01*
D02*
G37*
G36*
Y-92660D02*
X17168D01*
Y-92069D01*
X19530D01*
Y-92660D01*
D02*
G37*
G36*
Y-94629D02*
X17168D01*
Y-94038D01*
X19530D01*
Y-94629D01*
D02*
G37*
G36*
X-225643Y-97909D02*
Y-98104D01*
X-225782Y-98242D01*
X-225977D01*
X-226116Y-98104D01*
Y-97909D01*
X-225977Y-97770D01*
X-225782D01*
X-225643Y-97909D01*
D02*
G37*
G36*
X33704Y-102402D02*
X27798D01*
Y-97875D01*
X33704D01*
Y-102402D01*
D02*
G37*
G36*
X17404Y-102307D02*
Y-102502D01*
X17266Y-102641D01*
X17070D01*
X16932Y-102502D01*
Y-102307D01*
X17070Y-102168D01*
X17266D01*
X17404Y-102307D01*
D02*
G37*
G36*
X147957Y95399D02*
X148765D01*
Y94887D01*
X147957D01*
Y94078D01*
X147445D01*
Y94887D01*
X146639D01*
Y95399D01*
X147445D01*
Y96204D01*
X147957D01*
Y95399D01*
D02*
G37*
G36*
X224820Y91220D02*
X221670D01*
Y92400D01*
X224820D01*
Y91220D01*
D02*
G37*
G36*
X208960D02*
X204620D01*
Y92400D01*
X208960D01*
Y91220D01*
D02*
G37*
G36*
X147984Y87783D02*
X147472D01*
Y89909D01*
X147984D01*
Y87783D01*
D02*
G37*
G36*
X205410Y86610D02*
X203050D01*
Y88190D01*
X205410D01*
Y86610D01*
D02*
G37*
G36*
X209208Y86850D02*
X209430Y86628D01*
X209550Y86337D01*
Y86023D01*
X209430Y85733D01*
X209208Y85510D01*
X208917Y85390D01*
X208603D01*
X208313Y85510D01*
X208090Y85733D01*
X207970Y86023D01*
Y86337D01*
X208090Y86628D01*
X208313Y86850D01*
X208603Y86970D01*
X208917D01*
X209208Y86850D01*
D02*
G37*
G36*
X205410Y83460D02*
X203050D01*
Y85040D01*
X205410D01*
Y83460D01*
D02*
G37*
G36*
Y81300D02*
X203050D01*
Y82080D01*
X205410D01*
Y81300D01*
D02*
G37*
G36*
Y79330D02*
X203050D01*
Y80110D01*
X205410D01*
Y79330D01*
D02*
G37*
G36*
X152100Y79121D02*
X154100Y79121D01*
Y78121D01*
X152100D01*
X152100Y76121D01*
X151100D01*
Y78121D01*
X149100D01*
X149100Y79121D01*
X151100Y79121D01*
Y81121D01*
X152100D01*
X152100Y79121D01*
D02*
G37*
G36*
X205410Y77360D02*
X203050D01*
Y78150D01*
X205410D01*
Y77360D01*
D02*
G37*
G36*
X157600Y81121D02*
X158100D01*
X158100Y79121D01*
X160100Y79121D01*
Y78121D01*
X158100Y78121D01*
X158100Y76121D01*
X157100D01*
X157100Y78121D01*
X155100Y78121D01*
X155100Y79121D01*
X157100D01*
X157100Y81121D01*
X157600Y81121D01*
D02*
G37*
G36*
X146100D02*
X146100Y79121D01*
X148100D01*
X148100Y78121D01*
X146100D01*
X146100Y76121D01*
X145100D01*
Y78121D01*
X143100D01*
Y79121D01*
X145100D01*
X145100Y81121D01*
X145600Y81121D01*
X146100Y81121D01*
D02*
G37*
G36*
X205410Y75390D02*
X203050D01*
Y76180D01*
X205410D01*
Y75390D01*
D02*
G37*
G36*
Y73420D02*
X203050D01*
Y74210D01*
X205410D01*
Y73420D01*
D02*
G37*
G36*
Y71450D02*
X203050D01*
Y72240D01*
X205410D01*
Y71450D01*
D02*
G37*
G36*
Y69490D02*
X203050D01*
Y70270D01*
X205410D01*
Y69490D01*
D02*
G37*
G36*
Y67520D02*
X203050D01*
Y68300D01*
X205410D01*
Y67520D01*
D02*
G37*
G36*
Y64560D02*
X203050D01*
Y66140D01*
X205410D01*
Y64560D01*
D02*
G37*
G36*
X209208Y64090D02*
X209430Y63867D01*
X209550Y63577D01*
Y63263D01*
X209430Y62972D01*
X209208Y62750D01*
X208917Y62630D01*
X208603D01*
X208313Y62750D01*
X208090Y62972D01*
X207970Y63263D01*
Y63577D01*
X208090Y63867D01*
X208313Y64090D01*
X208603Y64210D01*
X208917D01*
X209208Y64090D01*
D02*
G37*
G36*
X205410Y61410D02*
X203050D01*
Y62990D01*
X205410D01*
Y61410D01*
D02*
G37*
G36*
X158100Y60121D02*
X157100D01*
Y66121D01*
X158100D01*
Y60121D01*
D02*
G37*
G36*
X152195D02*
X151195D01*
Y66121D01*
X152195D01*
Y60121D01*
D02*
G37*
G36*
X146290D02*
X145290D01*
Y66121D01*
X146290D01*
Y60121D01*
D02*
G37*
G36*
X144850D02*
X141350D01*
X141350Y64121D01*
X144850Y60121D01*
D02*
G37*
G36*
X224820Y57200D02*
X221670D01*
Y58380D01*
X224820D01*
Y57200D01*
D02*
G37*
G36*
X208960D02*
X204630D01*
Y58380D01*
X208960D01*
Y57200D01*
D02*
G37*
G36*
X203290Y57299D02*
Y57101D01*
X203149Y56960D01*
X202951D01*
X202810Y57101D01*
Y57299D01*
X202951Y57440D01*
X203149D01*
X203290Y57299D01*
D02*
G37*
G36*
X222756Y-14860D02*
X223564D01*
Y-15371D01*
X222756D01*
Y-16181D01*
X222244D01*
Y-15371D01*
X221438D01*
Y-14860D01*
X222244D01*
Y-14055D01*
X222756D01*
Y-14860D01*
D02*
G37*
G36*
X222782Y-22476D02*
X222271D01*
Y-20350D01*
X222782D01*
Y-22476D01*
D02*
G37*
G36*
X149563Y-44328D02*
X147436D01*
Y-43817D01*
X149563D01*
Y-44328D01*
D02*
G37*
G36*
X142458Y-43843D02*
X143268D01*
Y-44355D01*
X142458D01*
Y-45161D01*
X141946D01*
Y-44355D01*
X141141D01*
Y-43843D01*
X141946D01*
Y-43035D01*
X142458D01*
Y-43843D01*
D02*
G37*
G36*
X203300Y-111840D02*
X204280D01*
Y-113580D01*
Y-113600D01*
Y-113610D01*
X200030D01*
Y-111840D01*
X201730D01*
Y-111440D01*
X203300D01*
Y-111840D01*
D02*
G37*
G36*
X169800D02*
X170780D01*
Y-113580D01*
Y-113600D01*
Y-113610D01*
X166530D01*
Y-111840D01*
X168230D01*
Y-111440D01*
X169800D01*
Y-111840D01*
D02*
G37*
G36*
X136300D02*
X137280D01*
Y-113580D01*
Y-113600D01*
Y-113610D01*
X133030D01*
Y-111840D01*
X134730D01*
Y-111440D01*
X136300D01*
Y-111840D01*
D02*
G37*
G36*
X189910D02*
X191570D01*
Y-112280D01*
Y-112730D01*
Y-113600D01*
X191560Y-113610D01*
X187350Y-113620D01*
Y-113610D01*
Y-113590D01*
Y-111840D01*
X188330D01*
Y-111450D01*
X189910D01*
Y-111840D01*
D02*
G37*
G36*
X156410D02*
X158070D01*
Y-112280D01*
Y-112730D01*
Y-113600D01*
X158060Y-113610D01*
X153850Y-113620D01*
Y-113610D01*
Y-113590D01*
Y-111840D01*
X154830D01*
Y-111450D01*
X156410D01*
Y-111840D01*
D02*
G37*
G36*
X122910D02*
X124570D01*
Y-112280D01*
Y-112730D01*
Y-113600D01*
X124560Y-113610D01*
X120350Y-113620D01*
Y-113610D01*
Y-113590D01*
Y-111840D01*
X121330D01*
Y-111450D01*
X122910D01*
Y-111840D01*
D02*
G37*
G36*
X200073Y-115768D02*
X200532Y-116227D01*
X200780Y-116826D01*
Y-117150D01*
Y-117474D01*
X200532Y-118073D01*
X200073Y-118532D01*
X199474Y-118780D01*
X198826D01*
X198227Y-118532D01*
X197768Y-118073D01*
X197520Y-117474D01*
Y-117150D01*
Y-116826D01*
X197768Y-116227D01*
X198227Y-115768D01*
X198826Y-115520D01*
X199474D01*
X200073Y-115768D01*
D02*
G37*
G36*
X193373D02*
X193832Y-116227D01*
X194080Y-116826D01*
Y-117150D01*
Y-117474D01*
X193832Y-118073D01*
X193373Y-118532D01*
X192774Y-118780D01*
X192126D01*
X191527Y-118532D01*
X191068Y-118073D01*
X190820Y-117474D01*
Y-117150D01*
Y-116826D01*
X191068Y-116227D01*
X191527Y-115768D01*
X192126Y-115520D01*
X192774D01*
X193373Y-115768D01*
D02*
G37*
G36*
X166573D02*
X167032Y-116227D01*
X167280Y-116826D01*
Y-117150D01*
Y-117474D01*
X167032Y-118073D01*
X166573Y-118532D01*
X165974Y-118780D01*
X165326D01*
X164727Y-118532D01*
X164268Y-118073D01*
X164020Y-117474D01*
Y-117150D01*
Y-116826D01*
X164268Y-116227D01*
X164727Y-115768D01*
X165326Y-115520D01*
X165974D01*
X166573Y-115768D01*
D02*
G37*
G36*
X159873D02*
X160332Y-116227D01*
X160580Y-116826D01*
Y-117150D01*
Y-117474D01*
X160332Y-118073D01*
X159873Y-118532D01*
X159274Y-118780D01*
X158626D01*
X158027Y-118532D01*
X157568Y-118073D01*
X157320Y-117474D01*
Y-117150D01*
Y-116826D01*
X157568Y-116227D01*
X158027Y-115768D01*
X158626Y-115520D01*
X159274D01*
X159873Y-115768D01*
D02*
G37*
G36*
X133073D02*
X133532Y-116227D01*
X133780Y-116826D01*
Y-117150D01*
Y-117474D01*
X133532Y-118073D01*
X133073Y-118532D01*
X132474Y-118780D01*
X131826D01*
X131227Y-118532D01*
X130768Y-118073D01*
X130520Y-117474D01*
Y-117150D01*
Y-116826D01*
X130768Y-116227D01*
X131227Y-115768D01*
X131826Y-115520D01*
X132474D01*
X133073Y-115768D01*
D02*
G37*
G36*
X126373D02*
X126832Y-116227D01*
X127080Y-116826D01*
Y-117150D01*
Y-117474D01*
X126832Y-118073D01*
X126373Y-118532D01*
X125774Y-118780D01*
X125126D01*
X124527Y-118532D01*
X124068Y-118073D01*
X123820Y-117474D01*
Y-117150D01*
Y-116826D01*
X124068Y-116227D01*
X124527Y-115768D01*
X125126Y-115520D01*
X125774D01*
X126373Y-115768D01*
D02*
G37*
G36*
X187270Y-119510D02*
X186840D01*
Y-116960D01*
X187270D01*
Y-119510D01*
D02*
G37*
G36*
X153770D02*
X153340D01*
Y-116960D01*
X153770D01*
Y-119510D01*
D02*
G37*
G36*
X120270D02*
X119840D01*
Y-116960D01*
X120270D01*
Y-119510D01*
D02*
G37*
G36*
X204760D02*
X204750Y-119520D01*
X204360D01*
Y-116960D01*
X204760D01*
Y-119510D01*
D02*
G37*
G36*
X171260D02*
X171250Y-119520D01*
X170860D01*
Y-116960D01*
X171260D01*
Y-119510D01*
D02*
G37*
G36*
X137760D02*
X137750Y-119520D01*
X137360D01*
Y-116960D01*
X137760D01*
Y-119510D01*
D02*
G37*
G36*
X205040Y-125841D02*
Y-125940D01*
Y-126039D01*
X204899Y-126180D01*
X204701D01*
X204560Y-126039D01*
Y-125940D01*
Y-125841D01*
X204701Y-125700D01*
X204899D01*
X205040Y-125841D01*
D02*
G37*
G36*
X171540D02*
Y-125940D01*
Y-126039D01*
X171399Y-126180D01*
X171201D01*
X171060Y-126039D01*
Y-125940D01*
Y-125841D01*
X171201Y-125700D01*
X171399D01*
X171540Y-125841D01*
D02*
G37*
G36*
X138040D02*
Y-125940D01*
Y-126039D01*
X137899Y-126180D01*
X137701D01*
X137560Y-126039D01*
Y-125940D01*
Y-125841D01*
X137701Y-125700D01*
X137899D01*
X138040Y-125841D01*
D02*
G37*
D10*
X196366Y-74684D02*
G03*
X196366Y-74684I-500J0D01*
G01*
X129332Y-7078D02*
G03*
X129332Y-7078I-500J0D01*
G01*
D13*
X110023Y-37451D02*
G03*
X110023Y-37451I-787J0D01*
G01*
X223419Y36285D02*
G03*
X223419Y36285I-787J0D01*
G01*
D15*
X180064Y-55901D02*
G03*
X180064Y-55901I-591J0D01*
G01*
X-131123Y-13400D02*
G03*
X-131123Y-13400I-591J0D01*
G01*
D19*
X-77720Y-39216D02*
X-73783D01*
X-75752Y-41184D02*
Y-37247D01*
X-96421Y-55751D02*
Y-22680D01*
X-55083Y-55751D02*
Y-22680D01*
X-96421Y-55751D02*
X-55083D01*
X-96421Y-22680D02*
X-55083D01*
X-77720Y40284D02*
X-73783D01*
X-75752Y38316D02*
Y42253D01*
X-55083Y23749D02*
Y56820D01*
X-96421Y23749D02*
Y56820D01*
X-55083D01*
X-96421Y23749D02*
X-55083D01*
X2400Y42432D02*
Y46369D01*
X432Y44400D02*
X4369D01*
X-14135Y32589D02*
X18935D01*
X-14135Y56211D02*
X18935D01*
Y32589D02*
Y56211D01*
X-14135Y32589D02*
Y56211D01*
X-67450Y-1862D02*
Y2075D01*
X-69419Y106D02*
X-65482D01*
X-83985Y-11705D02*
X-50915D01*
X-83985Y11917D02*
X-50915D01*
Y-11705D02*
Y11917D01*
X-83985Y-11705D02*
Y11917D01*
D141*
X132840Y-117150D02*
G03*
X132840Y-117150I-690J0D01*
G01*
X126140D02*
G03*
X126140Y-117150I-690J0D01*
G01*
X166340D02*
G03*
X166340Y-117150I-690J0D01*
G01*
X159640D02*
G03*
X159640Y-117150I-690J0D01*
G01*
X199840D02*
G03*
X199840Y-117150I-690J0D01*
G01*
X193140D02*
G03*
X193140Y-117150I-690J0D01*
G01*
X100906Y94251D02*
Y117480D01*
X51694D02*
X100906D01*
X51694Y94251D02*
Y117480D01*
Y94251D02*
X100906D01*
X130400Y-112630D02*
Y-111840D01*
X127250Y-112620D02*
X130400Y-112630D01*
X127240Y-111840D02*
X127250Y-112620D01*
X122910Y-111840D02*
X127240D01*
X122910D02*
Y-111440D01*
X121340D02*
X122910D01*
X121340Y-111840D02*
Y-111440D01*
X120360Y-111840D02*
X121340D01*
X119850Y-111830D02*
X120360Y-111840D01*
X119840Y-120890D02*
X119850Y-111830D01*
X119840Y-120890D02*
X121330Y-120900D01*
X121410Y-121680D01*
X122440D01*
X122520Y-120890D01*
X124360Y-120900D01*
X124320Y-125920D02*
X124360Y-120900D01*
X124320Y-125920D02*
X133220D01*
X133240Y-121200D01*
X137780Y-121190D01*
X137760Y-111830D02*
X137780Y-121190D01*
X136300Y-111840D02*
X137760Y-111830D01*
X136300Y-111840D02*
Y-111450D01*
X134730D02*
X136300D01*
X134730Y-111840D02*
Y-111450D01*
X130400Y-111840D02*
X134730D01*
X163900Y-112630D02*
Y-111840D01*
X160750Y-112620D02*
X163900Y-112630D01*
X160740Y-111840D02*
X160750Y-112620D01*
X156410Y-111840D02*
X160740D01*
X156410D02*
Y-111440D01*
X154840D02*
X156410D01*
X154840Y-111840D02*
Y-111440D01*
X153860Y-111840D02*
X154840D01*
X153350Y-111830D02*
X153860Y-111840D01*
X153340Y-120890D02*
X153350Y-111830D01*
X153340Y-120890D02*
X154830Y-120900D01*
X154910Y-121680D01*
X155940D01*
X156020Y-120890D01*
X157860Y-120900D01*
X157820Y-125920D02*
X157860Y-120900D01*
X157820Y-125920D02*
X166720D01*
X166740Y-121200D01*
X171280Y-121190D01*
X171260Y-111830D02*
X171280Y-121190D01*
X169800Y-111840D02*
X171260Y-111830D01*
X169800Y-111840D02*
Y-111450D01*
X168230D02*
X169800D01*
X168230Y-111840D02*
Y-111450D01*
X163900Y-111840D02*
X168230D01*
X197400Y-112630D02*
Y-111840D01*
X194250Y-112620D02*
X197400Y-112630D01*
X194240Y-111840D02*
X194250Y-112620D01*
X189910Y-111840D02*
X194240D01*
X189910D02*
Y-111440D01*
X188340D02*
X189910D01*
X188340Y-111840D02*
Y-111440D01*
X187360Y-111840D02*
X188340D01*
X186850Y-111830D02*
X187360Y-111840D01*
X186840Y-120890D02*
X186850Y-111830D01*
X186840Y-120890D02*
X188330Y-120900D01*
X188410Y-121680D01*
X189440D01*
X189520Y-120890D01*
X191360Y-120900D01*
X191320Y-125920D02*
X191360Y-120900D01*
X191320Y-125920D02*
X200220D01*
X200240Y-121200D01*
X204780Y-121190D01*
X204760Y-111830D02*
X204780Y-121190D01*
X203300Y-111840D02*
X204760Y-111830D01*
X203300Y-111840D02*
Y-111450D01*
X201730D02*
X203300D01*
X201730Y-111840D02*
Y-111450D01*
X197400Y-111840D02*
X201730D01*
X-198546Y84038D02*
X-179254D01*
X-198546Y68684D02*
Y84038D01*
Y68684D02*
X-179254D01*
Y84038D01*
X19137Y-72483D02*
X38428D01*
Y-102404D02*
Y-72483D01*
X19137Y-102404D02*
X38428D01*
X19137D02*
Y-72483D01*
X-225880Y-98006D02*
X-202651D01*
X-225880D02*
Y-48794D01*
X-202651D01*
Y-98006D02*
Y-48794D01*
X-172440Y61560D02*
X-152760D01*
Y81240D01*
X-172440D02*
X-152760D01*
X-172440Y61560D02*
Y81240D01*
X204620Y57200D02*
Y92400D01*
X233440D01*
Y57200D02*
Y92400D01*
X204620Y57200D02*
X233440D01*
D142*
X152559Y91900D02*
X152759Y91700D01*
X-190919Y109319D02*
X-190718Y109519D01*
X-195719Y-73274D02*
X-195519Y-73474D01*
X122830Y-56241D02*
X123030Y-56041D01*
X-10699Y-11107D02*
X-10499Y-11307D01*
X10499Y-11107D02*
X10699Y-11307D01*
X-10699Y-2821D02*
X-10499Y-3021D01*
X10499Y-2821D02*
X10699Y-3021D01*
X124948Y44072D02*
X125147Y44272D01*
X124948Y36298D02*
X125147Y36498D01*
X124948Y18394D02*
X125148Y18594D01*
X124948Y4959D02*
X125147Y5159D01*
X94659Y45400D02*
X94859Y45200D01*
X145445Y-49559D02*
X145645Y-49359D01*
X145445Y-57359D02*
X145645Y-57159D01*
X145445Y-38841D02*
X145645Y-38641D01*
X165025Y-42814D02*
X165225Y-43014D01*
X181166Y-83744D02*
X181366Y-83544D01*
X179486Y-11441D02*
X179686Y-11241D01*
X188266Y-60945D02*
X188466Y-60745D01*
X194238Y-89404D02*
X194438Y-89204D01*
X199086Y-11441D02*
X199286Y-11241D01*
X208059Y-68086D02*
X208259Y-68286D01*
X213719Y-81414D02*
X213919Y-81614D01*
X159365Y-57686D02*
X159565Y-57886D01*
X221505Y-32725D02*
X221705Y-32525D01*
X221505Y-40725D02*
X221705Y-40525D01*
X221505Y-48725D02*
X221705Y-48525D01*
X162195Y-91041D02*
X162395Y-90841D01*
X162195Y-83330D02*
X162395Y-83130D01*
X162195Y-69959D02*
X162395Y-69759D01*
X22159Y37914D02*
X22359Y37714D01*
X37141Y-37125D02*
X37341Y-37325D01*
X-100Y-13206D02*
X100Y-13406D01*
X-100Y13192D02*
X100Y12992D01*
X-10699Y5466D02*
X-10499Y5266D01*
X10499Y5466D02*
X10699Y5266D01*
X-111281Y-39142D02*
X-111081Y-39342D01*
X-99032Y-39116D02*
X-98832Y-39316D01*
X-46653Y-39116D02*
X-46453Y-39316D01*
X-39869Y-39089D02*
X-39669Y-39289D01*
X-130141Y-27800D02*
X-129941Y-28000D01*
X-104693Y40384D02*
X-104493Y40184D01*
X-8175Y104306D02*
X-7975Y104106D01*
X-52313Y40384D02*
X-52113Y40184D01*
X219092Y9125D02*
X219292Y9325D01*
X219092Y17825D02*
X219292Y18025D01*
X137721Y-21228D02*
X137921Y-21428D01*
X143381Y-7662D02*
X143581Y-7862D01*
X128695Y-69959D02*
X128895Y-69759D01*
X54941Y29275D02*
X55141Y29075D01*
X98241Y29275D02*
X98441Y29075D01*
X122830Y-39166D02*
X123030Y-38966D01*
X122830Y-47703D02*
X123030Y-47504D01*
X217541Y-5314D02*
X217741Y-5514D01*
X219153Y43244D02*
X219353Y43444D01*
X-189425Y93059D02*
X-189225Y93259D01*
X-202359Y76461D02*
X-202159Y76261D01*
X2741Y-87344D02*
X2941Y-87544D01*
X-94141Y-6575D02*
X-93941Y-6775D01*
X-94141Y6525D02*
X-93941Y6325D01*
X-139002Y15093D02*
X-138802Y15293D01*
X-23644Y37914D02*
X-23444Y37714D01*
X-23644Y51514D02*
X-23444Y51314D01*
X-154302Y15093D02*
X-154102Y15293D01*
X-70964Y15066D02*
X-70764Y15266D01*
X-82486Y-15059D02*
X-82286Y-14859D01*
X192389Y28470D02*
X192589Y28270D01*
X201973Y26725D02*
X202173Y26925D01*
X156393Y43948D02*
X156593Y43748D01*
X186707Y43398D02*
X186907Y43198D01*
X148618Y43948D02*
X148818Y43748D01*
X201734Y43244D02*
X201934Y43444D01*
X140843Y43948D02*
X141043Y43748D01*
X175841Y43398D02*
X176041Y43198D01*
X184104Y43398D02*
X184304Y43198D01*
X40941Y104306D02*
X41141Y104106D01*
X225222Y-5230D02*
X225422Y-5430D01*
X120188Y-14446D02*
X120388Y-14646D01*
X128695Y-91041D02*
X128895Y-90841D01*
X128695Y-83330D02*
X128895Y-83130D01*
X74859Y29275D02*
X75059Y29075D01*
X-181475Y58241D02*
X-181275Y58441D01*
X-225241Y76461D02*
X-225041Y76261D01*
X-210959Y76461D02*
X-210759Y76261D01*
X-48141Y-6575D02*
X-47941Y-6775D01*
X-48141Y6525D02*
X-47941Y6325D01*
X22159Y51514D02*
X22359Y51314D01*
X11641Y-87344D02*
X11841Y-87544D01*
X-195386Y58241D02*
X-195186Y58441D01*
X-147219Y-25881D02*
X-147019Y-25681D01*
X-111281Y40358D02*
X-111081Y40158D01*
X-39869Y40411D02*
X-39669Y40211D01*
X-118782Y63741D02*
X-118582Y63941D01*
X-61388Y58059D02*
X-61188Y58259D01*
X-90116Y63741D02*
X-89916Y63941D01*
X-33725Y58059D02*
X-33525Y58259D01*
X-33125Y-63441D02*
X-32925Y-63241D01*
X-90116Y-57759D02*
X-89916Y-57559D01*
X-61388Y-63441D02*
X-61188Y-63241D01*
X-118782Y-57759D02*
X-118582Y-57559D01*
M02*
