G04*
G04 #@! TF.GenerationSoftware,Altium Limited,Altium Designer,20.1.11 (218)*
G04*
G04 Layer_Color=128*
%FSLAX25Y25*%
%MOIN*%
G70*
G04*
G04 #@! TF.SameCoordinates,8D0FCBAB-09EC-4A3B-B863-23265075E7EF*
G04*
G04*
G04 #@! TF.FilePolarity,Positive*
G04*
G01*
G75*
%ADD141C,0.00200*%
D141*
X-178142Y-32813D02*
X-173417D01*
X-175779Y-35176D02*
Y-30451D01*
X-178142Y-14310D02*
X-173417D01*
X-175779Y-16672D02*
Y-11947D01*
X-178142Y4194D02*
X-173417D01*
X-175779Y1832D02*
Y6557D01*
X-212984Y-39900D02*
X-211016D01*
X-212000Y-40884D02*
Y-38916D01*
X-212984Y11281D02*
X-211016D01*
X-212000Y10297D02*
Y12265D01*
X59371Y103700D02*
X63702D01*
X61537Y101535D02*
Y105865D01*
X69213Y103700D02*
X73544D01*
X71378Y101535D02*
Y105865D01*
X79056Y103700D02*
X83387D01*
X81222Y101535D02*
Y105865D01*
X88898Y103700D02*
X93229D01*
X91063Y101535D02*
Y105865D01*
X-53559Y116900D02*
X-49228D01*
X-51394Y114735D02*
Y119065D01*
X-63402Y116900D02*
X-59071D01*
X-61236Y114735D02*
Y119065D01*
X-73244Y116900D02*
X-68913D01*
X-71078Y114735D02*
Y119065D01*
X-83087Y116900D02*
X-78756D01*
X-80921Y114735D02*
Y119065D01*
X-92929Y116900D02*
X-88598D01*
X-90764Y114735D02*
Y119065D01*
X-102771Y116900D02*
X-98441D01*
X-100606Y114735D02*
Y119065D01*
X-102078Y-117500D02*
X-97747D01*
X-99913Y-119665D02*
Y-115335D01*
X-92235Y-117500D02*
X-87905D01*
X-90070Y-119665D02*
Y-115335D01*
X-82393Y-117500D02*
X-78062D01*
X-80228Y-119665D02*
Y-115335D01*
X-72550Y-117500D02*
X-68220D01*
X-70385Y-119665D02*
Y-115335D01*
X-62708Y-117500D02*
X-58377D01*
X-60542Y-119665D02*
Y-115335D01*
X-52865Y-117500D02*
X-48535D01*
X-50700Y-119665D02*
Y-115335D01*
X-156265Y-97400D02*
X-151935D01*
X-154100Y-99565D02*
Y-95235D01*
X-166265Y-97400D02*
X-161935D01*
X-164100Y-99565D02*
Y-95235D01*
X-176265Y-97400D02*
X-171935D01*
X-174100Y-99565D02*
Y-95235D01*
X-186265Y-97400D02*
X-181935D01*
X-184100Y-99565D02*
Y-95235D01*
X-214265Y-58637D02*
X-209935D01*
X-212100Y-60802D02*
Y-56471D01*
X-214265Y-68478D02*
X-209935D01*
X-212100Y-70644D02*
Y-66313D01*
X-214265Y-78322D02*
X-209935D01*
X-212100Y-80487D02*
Y-76156D01*
X-214265Y-88163D02*
X-209935D01*
X-212100Y-90329D02*
Y-85998D01*
X205610Y57790D02*
X207970D01*
X206790Y56610D02*
Y58970D01*
X205610Y91810D02*
X207970D01*
X206790Y90630D02*
Y92990D01*
X222070Y91810D02*
X224430D01*
X223250Y90630D02*
Y92990D01*
X222070Y57790D02*
X224430D01*
X223250Y56610D02*
Y58970D01*
X216142Y-114173D02*
X228740D01*
X222441Y-120473D02*
Y-107874D01*
X216142Y114173D02*
X228740D01*
X222441Y107874D02*
Y120473D01*
X-228740Y114173D02*
X-216142D01*
X-222441Y107874D02*
Y120473D01*
X-228740Y-114173D02*
X-216142D01*
X-222441Y-120473D02*
Y-107874D01*
X119716Y79000D02*
X121684D01*
X120700Y78016D02*
Y79984D01*
X62941Y-54200D02*
X64909D01*
X63925Y-55184D02*
Y-53216D01*
X58316Y-54100D02*
X60284D01*
X59300Y-55084D02*
Y-53116D01*
X-226317Y-64754D02*
X-224348D01*
X-225332Y-65738D02*
Y-63770D01*
X-225784Y-80100D02*
X-223816D01*
X-224800Y-81084D02*
Y-79116D01*
X-134584Y-63000D02*
X-132616D01*
X-133600Y-63984D02*
Y-62016D01*
X-134584Y-55175D02*
X-132616D01*
X-133600Y-56159D02*
Y-54191D01*
X-141384Y-55175D02*
X-139416D01*
X-140400Y-56159D02*
Y-54191D01*
X-134584Y-47350D02*
X-132616D01*
X-133600Y-48334D02*
Y-46366D01*
X-142334Y-47350D02*
X-140366D01*
X-141350Y-48334D02*
Y-46366D01*
X-150084Y-47350D02*
X-148116D01*
X-149100Y-48334D02*
Y-46366D01*
X-984Y0D02*
X984D01*
X0Y-984D02*
Y984D01*
X-55084Y32600D02*
X-53116D01*
X-54100Y31616D02*
Y33584D01*
X169816Y67500D02*
X171784D01*
X170800Y66516D02*
Y68484D01*
X168016Y79100D02*
X169984D01*
X169000Y78116D02*
Y80084D01*
X226116Y-25400D02*
X228084D01*
X227100Y-26384D02*
Y-24416D01*
X225816Y1800D02*
X227784D01*
X226800Y816D02*
Y2784D01*
X212416Y-15200D02*
X214384D01*
X213400Y-16184D02*
Y-14216D01*
X166116Y-34600D02*
X168084D01*
X167100Y-35584D02*
Y-33616D01*
X171516Y-16500D02*
X173484D01*
X172500Y-17484D02*
Y-15516D01*
X161816Y-109900D02*
X163784D01*
X162800Y-110884D02*
Y-108916D01*
X172716Y-101800D02*
X174684D01*
X173700Y-102784D02*
Y-100816D01*
X168016Y-46200D02*
X169984D01*
X169000Y-47184D02*
Y-45216D01*
X-97984Y-37100D02*
X-96016D01*
X-97000Y-38084D02*
Y-36116D01*
X-101984Y32400D02*
X-100016D01*
X-101000Y31416D02*
Y33384D01*
X-94084Y38500D02*
X-92116D01*
X-93100Y37516D02*
Y39484D01*
X154116Y-91100D02*
X156084D01*
X155100Y-92084D02*
Y-90116D01*
X142016Y-94000D02*
X143984D01*
X143000Y-94984D02*
Y-93016D01*
X154416Y-104800D02*
X156384D01*
X155400Y-105784D02*
Y-103816D01*
X164716Y-101600D02*
X166684D01*
X165700Y-102584D02*
Y-100616D01*
X-123584Y-35800D02*
X-121616D01*
X-122600Y-36784D02*
Y-34816D01*
X-113284Y-22300D02*
X-111316D01*
X-112300Y-23284D02*
Y-21316D01*
X-111784Y-61200D02*
X-109816D01*
X-110800Y-62184D02*
Y-60216D01*
X44616Y-50500D02*
X46584D01*
X45600Y-51484D02*
Y-49516D01*
X-68384Y11800D02*
X-66416D01*
X-67400Y10816D02*
Y12784D01*
X-56184Y24000D02*
X-54216D01*
X-55200Y23016D02*
Y24984D01*
X-82284Y62700D02*
X-80316D01*
X-81300Y61716D02*
Y63684D01*
X-46784Y61400D02*
X-44816D01*
X-45800Y60416D02*
Y62384D01*
X-27784Y42100D02*
X-25816D01*
X-26800Y41116D02*
Y43084D01*
X-6884Y62700D02*
X-4916D01*
X-5900Y61716D02*
Y63684D01*
X-7384Y85600D02*
X-5416D01*
X-6400Y84616D02*
Y86584D01*
X18196Y82569D02*
X20165D01*
X19180Y81585D02*
Y83553D01*
X17416Y63600D02*
X19384D01*
X18400Y62616D02*
Y64584D01*
X30816Y67700D02*
X32784D01*
X31800Y66716D02*
Y68684D01*
X63116Y51700D02*
X65084D01*
X64100Y50716D02*
Y52684D01*
X-37984Y-94900D02*
X-36016D01*
X-37000Y-95884D02*
Y-93916D01*
X-29284Y-94900D02*
X-27316D01*
X-28300Y-95884D02*
Y-93916D01*
X-37984Y-104600D02*
X-36016D01*
X-37000Y-105584D02*
Y-103616D01*
X-29284Y-104600D02*
X-27316D01*
X-28300Y-105584D02*
Y-103616D01*
X-33634Y-99750D02*
X-31666D01*
X-32650Y-100734D02*
Y-98766D01*
X184216Y23700D02*
X186184D01*
X185200Y22716D02*
Y24684D01*
X-74684Y-12200D02*
X-72716D01*
X-73700Y-13184D02*
Y-11216D01*
X201116Y-105600D02*
X203084D01*
X202100Y-106584D02*
Y-104616D01*
X218716Y-97300D02*
X220684D01*
X219700Y-98284D02*
Y-96316D01*
X107816Y-68500D02*
X109784D01*
X108800Y-69484D02*
Y-67516D01*
X117416Y-77900D02*
X119384D01*
X118400Y-78884D02*
Y-76916D01*
X134116Y-83400D02*
X136084D01*
X135100Y-84384D02*
Y-82416D01*
X-147084Y94800D02*
X-145116D01*
X-146100Y93816D02*
Y95784D01*
X-136184Y105700D02*
X-134216D01*
X-135200Y104716D02*
Y106684D01*
X-138384Y90700D02*
X-136416D01*
X-137400Y89716D02*
Y91684D01*
X-120484Y118600D02*
X-118516D01*
X-119500Y117616D02*
Y119584D01*
X-21931Y120440D02*
X-19962D01*
X-20946Y119456D02*
Y121424D01*
X-36931Y116740D02*
X-34962D01*
X-35946Y115756D02*
Y117724D01*
X-82928Y18904D02*
X-80960D01*
X-81944Y17919D02*
Y19888D01*
X-28231Y-54160D02*
X-26262D01*
X-27246Y-55144D02*
Y-53176D01*
X-49081Y-48365D02*
X-47113D01*
X-48097Y-49349D02*
Y-47381D01*
X-33984Y-66300D02*
X-32016D01*
X-33000Y-67284D02*
Y-65316D01*
X129469Y-52260D02*
X131438D01*
X130454Y-53244D02*
Y-51276D01*
X129969Y-44060D02*
X131938D01*
X130954Y-45044D02*
Y-43076D01*
X129669Y-35960D02*
X131638D01*
X130654Y-36944D02*
Y-34976D01*
X114316Y-48400D02*
X116284D01*
X115300Y-49384D02*
Y-47416D01*
X96169Y78340D02*
X98138D01*
X97154Y77356D02*
Y79324D01*
X96116Y91100D02*
X98084D01*
X97100Y90116D02*
Y92084D01*
X80369Y93340D02*
X82338D01*
X81354Y92356D02*
Y94324D01*
X76169Y80640D02*
X78138D01*
X77154Y79656D02*
Y81624D01*
X63669Y92640D02*
X65638D01*
X64654Y91656D02*
Y93624D01*
X54069Y83540D02*
X56038D01*
X55054Y82556D02*
Y84524D01*
X47116Y92800D02*
X49084D01*
X48100Y91816D02*
Y93784D01*
X48216Y108000D02*
X50184D01*
X49200Y107016D02*
Y108984D01*
X99716Y25300D02*
X101684D01*
X100700Y24316D02*
Y26284D01*
X109116Y13900D02*
X111084D01*
X110100Y12916D02*
Y14884D01*
X115369Y1740D02*
X117338D01*
X116354Y756D02*
Y2724D01*
X-61884Y69200D02*
X-59916D01*
X-60900Y68216D02*
Y70184D01*
X-62584Y77900D02*
X-60616D01*
X-61600Y76916D02*
Y78884D01*
X179216Y-115100D02*
X181184D01*
X180200Y-116084D02*
Y-114116D01*
X179116Y-109000D02*
X181084D01*
X180100Y-109984D02*
Y-108016D01*
X-31084Y33100D02*
X-29116D01*
X-30100Y32116D02*
Y34084D01*
X-39884Y24100D02*
X-37916D01*
X-38900Y23116D02*
Y25084D01*
X-54085Y-29324D02*
X-52117D01*
X-53101Y-30308D02*
Y-28340D01*
X44016Y59900D02*
X45984D01*
X45000Y58916D02*
Y60884D01*
X43139Y44887D02*
X45107D01*
X44123Y43903D02*
Y45871D01*
X115116Y45500D02*
X117084D01*
X116100Y44516D02*
Y46484D01*
X116916Y61600D02*
X118884D01*
X117900Y60616D02*
Y62584D01*
X135916Y84200D02*
X137884D01*
X136900Y83216D02*
Y85184D01*
X169516Y86600D02*
X171484D01*
X170500Y85616D02*
Y87584D01*
X136116Y95800D02*
X138084D01*
X137100Y94816D02*
Y96784D01*
X228016Y34900D02*
X229984D01*
X229000Y33916D02*
Y35884D01*
X218216Y40800D02*
X220184D01*
X219200Y39816D02*
Y41784D01*
X209116Y40400D02*
X211084D01*
X210100Y39416D02*
Y41384D01*
X209516Y47400D02*
X211484D01*
X210500Y46416D02*
Y48384D01*
X209216Y25400D02*
X211184D01*
X210200Y24416D02*
Y26384D01*
X192016Y35800D02*
X193984D01*
X193000Y34816D02*
Y36784D01*
X193116Y21200D02*
X195084D01*
X194100Y20216D02*
Y22184D01*
X192716Y4200D02*
X194684D01*
X193700Y3216D02*
Y5184D01*
X184416Y6200D02*
X186384D01*
X185400Y5216D02*
Y7184D01*
X176416Y11200D02*
X178384D01*
X177400Y10216D02*
Y12184D01*
X221426Y70291D02*
X223395D01*
X222411Y69306D02*
Y71275D01*
X221416Y77500D02*
X223384D01*
X222400Y76516D02*
Y78484D01*
X186021Y77542D02*
X187990D01*
X187006Y76558D02*
Y78527D01*
X185216Y89900D02*
X187184D01*
X186200Y88916D02*
Y90884D01*
X208916Y101400D02*
X210884D01*
X209900Y100416D02*
Y102384D01*
X200516Y110000D02*
X202484D01*
X201500Y109016D02*
Y110984D01*
X203516Y119800D02*
X205484D01*
X204500Y118816D02*
Y120784D01*
X113916Y80100D02*
X115884D01*
X114900Y79116D02*
Y81084D01*
X113116Y92900D02*
X115084D01*
X114100Y91916D02*
Y93884D01*
X108616Y107800D02*
X110584D01*
X109600Y106816D02*
Y108784D01*
X109216Y119100D02*
X111184D01*
X110200Y118116D02*
Y120084D01*
X86016Y118100D02*
X87984D01*
X87000Y117116D02*
Y119084D01*
X65716Y118900D02*
X67684D01*
X66700Y117916D02*
Y119884D01*
X10416Y113000D02*
X12384D01*
X11400Y112016D02*
Y113984D01*
X-7484Y112600D02*
X-5516D01*
X-6500Y111616D02*
Y113584D01*
X14116Y93300D02*
X16084D01*
X15100Y92316D02*
Y94284D01*
X4916Y80100D02*
X6884D01*
X5900Y79116D02*
Y81084D01*
X3016Y63300D02*
X4984D01*
X4000Y62316D02*
Y64284D01*
X161916Y58100D02*
X163884D01*
X162900Y57116D02*
Y59084D01*
X150616Y71000D02*
X152584D01*
X151600Y70016D02*
Y71984D01*
X138116Y53300D02*
X140084D01*
X139100Y52316D02*
Y54284D01*
X137416Y30600D02*
X139384D01*
X138400Y29616D02*
Y31584D01*
X115493Y28133D02*
X117461D01*
X116477Y27149D02*
Y29118D01*
X154816Y53600D02*
X156784D01*
X155800Y52616D02*
Y54584D01*
X146616Y53200D02*
X148584D01*
X147600Y52216D02*
Y54184D01*
X154616Y32400D02*
X156584D01*
X155600Y31416D02*
Y33384D01*
X146616Y32200D02*
X148584D01*
X147600Y31216D02*
Y33184D01*
X161916Y29100D02*
X163884D01*
X162900Y28116D02*
Y30084D01*
X165816Y3000D02*
X167784D01*
X166800Y2016D02*
Y3984D01*
X151216Y7400D02*
X153184D01*
X152200Y6416D02*
Y8384D01*
X142216Y14200D02*
X144184D01*
X143200Y13216D02*
Y15184D01*
X159816Y10600D02*
X161784D01*
X160800Y9616D02*
Y11584D01*
X159216Y-8100D02*
X161184D01*
X160200Y-9084D02*
Y-7116D01*
X158916Y-24400D02*
X160884D01*
X159900Y-25384D02*
Y-23416D01*
X187316Y-43100D02*
X189284D01*
X188300Y-44084D02*
Y-42116D01*
X211516Y-43900D02*
X213484D01*
X212500Y-44884D02*
Y-42916D01*
X216916Y-53400D02*
X218884D01*
X217900Y-54384D02*
Y-52416D01*
X229016Y-63500D02*
X230984D01*
X230000Y-64484D02*
Y-62516D01*
X211316Y-100800D02*
X213284D01*
X212300Y-101784D02*
Y-99816D01*
X226216Y-97000D02*
X228184D01*
X227200Y-97984D02*
Y-96016D01*
X164016Y-93200D02*
X165984D01*
X165000Y-94184D02*
Y-92216D01*
X137516Y-68500D02*
X139484D01*
X138500Y-69484D02*
Y-67516D01*
X143916Y-79100D02*
X145884D01*
X144900Y-80084D02*
Y-78116D01*
X144816Y-101100D02*
X146784D01*
X145800Y-102084D02*
Y-100116D01*
X144216Y-119600D02*
X146184D01*
X145200Y-120584D02*
Y-118616D01*
X100716Y-81700D02*
X102684D01*
X101700Y-82684D02*
Y-80716D01*
X84716Y-69100D02*
X86684D01*
X85700Y-70084D02*
Y-68116D01*
X86816Y-90700D02*
X88784D01*
X87800Y-91684D02*
Y-89716D01*
X73716Y-78100D02*
X75684D01*
X74700Y-79084D02*
Y-77116D01*
X90616Y-108500D02*
X92584D01*
X91600Y-109484D02*
Y-107516D01*
X48916Y-110000D02*
X50884D01*
X49900Y-110984D02*
Y-109016D01*
X67116Y-100200D02*
X69084D01*
X68100Y-101184D02*
Y-99216D01*
X106116Y-99900D02*
X108084D01*
X107100Y-100884D02*
Y-98916D01*
X105816Y-119800D02*
X107784D01*
X106800Y-120784D02*
Y-118816D01*
X71216Y-120300D02*
X73184D01*
X72200Y-121284D02*
Y-119316D01*
X44216Y-120500D02*
X46184D01*
X45200Y-121484D02*
Y-119516D01*
X6716Y-121400D02*
X8684D01*
X7700Y-122384D02*
Y-120416D01*
X25516Y-111500D02*
X27484D01*
X26500Y-112484D02*
Y-110516D01*
X42316Y-97400D02*
X44284D01*
X43300Y-98384D02*
Y-96416D01*
X52316Y-87300D02*
X54284D01*
X53300Y-88284D02*
Y-86316D01*
X55316Y-70800D02*
X57284D01*
X56300Y-71784D02*
Y-69816D01*
X-12384Y-94600D02*
X-10416D01*
X-11400Y-95584D02*
Y-93616D01*
X9516Y-100100D02*
X11484D01*
X10500Y-101084D02*
Y-99116D01*
X-2684Y-109200D02*
X-716D01*
X-1700Y-110184D02*
Y-108216D01*
X-17684Y-116400D02*
X-15716D01*
X-16700Y-117384D02*
Y-115416D01*
X-40584Y-116200D02*
X-38616D01*
X-39600Y-117184D02*
Y-115216D01*
X-93084Y-78100D02*
X-91116D01*
X-92100Y-79084D02*
Y-77116D01*
X-33584Y-75500D02*
X-31616D01*
X-32600Y-76484D02*
Y-74516D01*
X-14673Y-76230D02*
X-12704D01*
X-13689Y-77214D02*
Y-75246D01*
X-8584Y-65900D02*
X-6616D01*
X-7600Y-66884D02*
Y-64916D01*
X25816Y-65600D02*
X27784D01*
X26800Y-66584D02*
Y-64616D01*
X11316Y-54200D02*
X13284D01*
X12300Y-55184D02*
Y-53216D01*
X3916Y-75000D02*
X5884D01*
X4900Y-75984D02*
Y-74016D01*
X-6084Y-49600D02*
X-4116D01*
X-5100Y-50584D02*
Y-48616D01*
X15516Y-40900D02*
X17484D01*
X16500Y-41884D02*
Y-39916D01*
X16Y-40700D02*
X1984D01*
X1000Y-41684D02*
Y-39716D01*
X-18884Y-41300D02*
X-16916D01*
X-17900Y-42284D02*
Y-40316D01*
X-37359Y-40793D02*
X-35391D01*
X-36375Y-41777D02*
Y-39808D01*
X-29037Y-27847D02*
X-27069D01*
X-28053Y-28831D02*
Y-26863D01*
X-49884Y-15400D02*
X-47916D01*
X-48900Y-16384D02*
Y-14416D01*
X-37784Y-10100D02*
X-35816D01*
X-36800Y-11084D02*
Y-9116D01*
X-37205Y5751D02*
X-35237D01*
X-36221Y4766D02*
Y6735D01*
X-66684Y-18300D02*
X-64716D01*
X-65700Y-19284D02*
Y-17316D01*
X-97284Y-18300D02*
X-95316D01*
X-96300Y-19284D02*
Y-17316D01*
X-100682Y-6522D02*
X-98713D01*
X-99698Y-7506D02*
Y-5538D01*
X-111784Y400D02*
X-109816D01*
X-110800Y-584D02*
Y1384D01*
X-125684Y-16100D02*
X-123716D01*
X-124700Y-17084D02*
Y-15116D01*
X-124884Y2400D02*
X-122916D01*
X-123900Y1416D02*
Y3384D01*
X-119284Y69800D02*
X-117316D01*
X-118300Y68816D02*
Y70784D01*
X-102484Y48500D02*
X-100516D01*
X-101500Y47516D02*
Y49484D01*
X-121484Y55100D02*
X-119516D01*
X-120500Y54116D02*
Y56084D01*
X-136084Y39600D02*
X-134116D01*
X-135100Y38616D02*
Y40584D01*
X-146384Y41500D02*
X-144416D01*
X-145400Y40516D02*
Y42484D01*
X-156784Y26900D02*
X-154816D01*
X-155800Y25916D02*
Y27884D01*
X-138584Y18500D02*
X-136616D01*
X-137600Y17516D02*
Y19484D01*
X-145684Y21200D02*
X-143716D01*
X-144700Y20216D02*
Y22184D01*
X-145984Y-27700D02*
X-144016D01*
X-145000Y-28684D02*
Y-26716D01*
X-135684Y-85500D02*
X-133716D01*
X-134700Y-86484D02*
Y-84516D01*
X-143284Y-71300D02*
X-141316D01*
X-142300Y-72284D02*
Y-70316D01*
X-131284Y-119000D02*
X-129316D01*
X-130300Y-119984D02*
Y-118016D01*
X-156484Y-118800D02*
X-154516D01*
X-155500Y-119784D02*
Y-117816D01*
X-180484Y-118300D02*
X-178516D01*
X-179500Y-119284D02*
Y-117316D01*
X-203684Y-115800D02*
X-201716D01*
X-202700Y-116784D02*
Y-114816D01*
X-226284Y-93100D02*
X-224316D01*
X-225300Y-94084D02*
Y-92116D01*
X-224984Y-51500D02*
X-223016D01*
X-224000Y-52484D02*
Y-50516D01*
X-200684Y-44600D02*
X-198716D01*
X-199700Y-45584D02*
Y-43616D01*
X-196184Y-33400D02*
X-194216D01*
X-195200Y-34384D02*
Y-32416D01*
X-197084Y-15200D02*
X-195116D01*
X-196100Y-16184D02*
Y-14216D01*
X-195884Y200D02*
X-193916D01*
X-194900Y-784D02*
Y1184D01*
X-137884Y117600D02*
X-135916D01*
X-136900Y116616D02*
Y118584D01*
X-171084Y92600D02*
X-169116D01*
X-170100Y91616D02*
Y93584D01*
X-199584Y83600D02*
X-197616D01*
X-198600Y82616D02*
Y84584D01*
X-181884Y74000D02*
X-179916D01*
X-180900Y73016D02*
Y74984D01*
X-189284Y77700D02*
X-187316D01*
X-188300Y76716D02*
Y78684D01*
X-182984Y42600D02*
X-181016D01*
X-182000Y41616D02*
Y43584D01*
X-173095Y42862D02*
X-171127D01*
X-172111Y41878D02*
Y43846D01*
X-193584Y43700D02*
X-191616D01*
X-192600Y42716D02*
Y44684D01*
X-197084Y18400D02*
X-195116D01*
X-196100Y17416D02*
Y19384D01*
X-224970Y20516D02*
X-223001D01*
X-223985Y19532D02*
Y21500D01*
X-211384Y24000D02*
X-209416D01*
X-210400Y23016D02*
Y24984D01*
X-222284Y35700D02*
X-220316D01*
X-221300Y34716D02*
Y36684D01*
X-149384Y106700D02*
X-147416D01*
X-148400Y105716D02*
Y107684D01*
X-156584Y118900D02*
X-154616D01*
X-155600Y117916D02*
Y119884D01*
X-172384Y120600D02*
X-170416D01*
X-171400Y119616D02*
Y121584D01*
X-189184Y120600D02*
X-187216D01*
X-188200Y119616D02*
Y121584D01*
X-193184Y102500D02*
X-191216D01*
X-192200Y101516D02*
Y103484D01*
X-209584Y50000D02*
X-207616D01*
X-208600Y49016D02*
Y50984D01*
X-223984Y51700D02*
X-222016D01*
X-223000Y50716D02*
Y52684D01*
X-218884Y62800D02*
X-216916D01*
X-217900Y61816D02*
Y63784D01*
X-227884Y63000D02*
X-225916D01*
X-226900Y62016D02*
Y63984D01*
X-225084Y87400D02*
X-223116D01*
X-224100Y86416D02*
Y88384D01*
X-212984Y92000D02*
X-211016D01*
X-212000Y91016D02*
Y92984D01*
X-203384Y116800D02*
X-201416D01*
X-202400Y115816D02*
Y117784D01*
X-208084Y121500D02*
X-206116D01*
X-207100Y120516D02*
Y122484D01*
X-213684Y101200D02*
X-211716D01*
X-212700Y100216D02*
Y102184D01*
X-221984Y97800D02*
X-220016D01*
X-221000Y96816D02*
Y98784D01*
X-230184Y98600D02*
X-228216D01*
X-229200Y97616D02*
Y99584D01*
X199316Y-63000D02*
X201284D01*
X200300Y-63984D02*
Y-62016D01*
X200716Y-68300D02*
X202684D01*
X201700Y-69284D02*
Y-67316D01*
X200716Y-73400D02*
X202684D01*
X201700Y-74384D02*
Y-72416D01*
X200816Y-78700D02*
X202784D01*
X201800Y-79684D02*
Y-77716D01*
X200916Y-83700D02*
X202884D01*
X201900Y-84684D02*
Y-82716D01*
X200916Y-88700D02*
X202884D01*
X201900Y-89684D02*
Y-87716D01*
X198616Y-92700D02*
X200584D01*
X199600Y-93684D02*
Y-91716D01*
X193816Y-94100D02*
X195784D01*
X194800Y-95084D02*
Y-93116D01*
X188916Y-93900D02*
X190884D01*
X189900Y-94884D02*
Y-92916D01*
X183916Y-93900D02*
X185884D01*
X184900Y-94884D02*
Y-92916D01*
X178916Y-93900D02*
X180884D01*
X179900Y-94884D02*
Y-92916D01*
X173816Y-92000D02*
X175784D01*
X174800Y-92984D02*
Y-91016D01*
X172716Y-87000D02*
X174684D01*
X173700Y-87984D02*
Y-86016D01*
X172816Y-82000D02*
X174784D01*
X173800Y-82984D02*
Y-81016D01*
X173016Y-77300D02*
X174984D01*
X174000Y-78284D02*
Y-76316D01*
X173016Y-71800D02*
X174984D01*
X174000Y-72784D02*
Y-70816D01*
X173016Y-67000D02*
X174984D01*
X174000Y-67984D02*
Y-66016D01*
X174416Y-62800D02*
X176384D01*
X175400Y-63784D02*
Y-61816D01*
X114216Y-21500D02*
X116184D01*
X115200Y-22484D02*
Y-20516D01*
X116016Y-25100D02*
X117984D01*
X117000Y-26084D02*
Y-24116D01*
X119016Y-28600D02*
X120984D01*
X120000Y-29584D02*
Y-27616D01*
X123516Y-30200D02*
X125484D01*
X124500Y-31184D02*
Y-29216D01*
X128316Y-30200D02*
X130284D01*
X129300Y-31184D02*
Y-29216D01*
X132916Y-30300D02*
X134884D01*
X133900Y-31284D02*
Y-29316D01*
X137216Y-30100D02*
X139184D01*
X138200Y-31084D02*
Y-29116D01*
X141616Y-30200D02*
X143584D01*
X142600Y-31184D02*
Y-29216D01*
X146516Y-27800D02*
X148484D01*
X147500Y-28784D02*
Y-26816D01*
X149316Y-24200D02*
X151284D01*
X150300Y-25184D02*
Y-23216D01*
X149716Y-19800D02*
X151684D01*
X150700Y-20784D02*
Y-18816D01*
X149716Y-14800D02*
X151684D01*
X150700Y-15784D02*
Y-13816D01*
X149616Y-10700D02*
X151584D01*
X150600Y-11684D02*
Y-9716D01*
X149316Y-6200D02*
X151284D01*
X150300Y-7184D02*
Y-5216D01*
X147516Y-2200D02*
X149484D01*
X148500Y-3184D02*
Y-1216D01*
X144316Y700D02*
X146284D01*
X145300Y-284D02*
Y1684D01*
X139816Y1300D02*
X141784D01*
X140800Y316D02*
Y2284D01*
X135016Y1400D02*
X136984D01*
X136000Y416D02*
Y2384D01*
X130216Y1300D02*
X132184D01*
X131200Y316D02*
Y2284D01*
X125516Y1400D02*
X127484D01*
X126500Y416D02*
Y2384D01*
X-156884Y51600D02*
X-154916D01*
X-155900Y50616D02*
Y52584D01*
X-148084Y66400D02*
X-146116D01*
X-147100Y65416D02*
Y67384D01*
X187416Y51800D02*
X189384D01*
X188400Y50816D02*
Y52784D01*
X191016Y-47900D02*
X192984D01*
X192000Y-48884D02*
Y-46916D01*
X207556Y6406D02*
X209525D01*
X208541Y5422D02*
Y7390D01*
X198916Y-31400D02*
X200884D01*
X199900Y-32384D02*
Y-30416D01*
X66616Y26100D02*
X68584D01*
X67600Y25116D02*
Y27084D01*
X63816Y31900D02*
X65784D01*
X64800Y30916D02*
Y32884D01*
X78161Y-32933D02*
X80129D01*
X79145Y-33917D02*
Y-31949D01*
X99216Y-1800D02*
X101184D01*
X100200Y-2784D02*
Y-816D01*
X90616Y-49700D02*
X92584D01*
X91600Y-50684D02*
Y-48716D01*
X72316Y63400D02*
X74284D01*
X73300Y62416D02*
Y64384D01*
X97016Y63000D02*
X98984D01*
X98000Y62016D02*
Y63984D01*
X38216Y-28500D02*
X40184D01*
X39200Y-29484D02*
Y-27516D01*
X1216Y-19300D02*
X3184D01*
X2200Y-20284D02*
Y-18316D01*
X16016Y-13600D02*
X17984D01*
X17000Y-14584D02*
Y-12616D01*
X-94684Y-69200D02*
X-92716D01*
X-93700Y-70184D02*
Y-68216D01*
X-121884Y-68000D02*
X-119916D01*
X-120900Y-68984D02*
Y-67016D01*
X-121984Y-76400D02*
X-120016D01*
X-121000Y-77384D02*
Y-75416D01*
X-128684Y-76100D02*
X-126716D01*
X-127700Y-77084D02*
Y-75116D01*
X-88784Y68600D02*
X-86816D01*
X-87800Y67616D02*
Y69584D01*
X-88684Y77000D02*
X-86716D01*
X-87700Y76016D02*
Y77984D01*
X-81984Y76700D02*
X-80016D01*
X-81000Y75716D02*
Y77684D01*
X-31484Y68600D02*
X-29516D01*
X-30500Y67616D02*
Y69584D01*
X-31384Y77000D02*
X-29416D01*
X-30400Y76016D02*
Y77984D01*
X-24684Y76700D02*
X-22716D01*
X-23700Y75716D02*
Y77684D01*
X-71184Y-76200D02*
X-69216D01*
X-70200Y-77184D02*
Y-75216D01*
X-64484Y-76500D02*
X-62516D01*
X-63500Y-77484D02*
Y-75516D01*
X-64384Y-68100D02*
X-62416D01*
X-63400Y-69084D02*
Y-67116D01*
X-97884Y4000D02*
X-95916D01*
X-96900Y3016D02*
Y4984D01*
X-130487Y32992D02*
X-128519D01*
X-129503Y32008D02*
Y33976D01*
X-53813Y62218D02*
X-51845D01*
X-52829Y61234D02*
Y63202D01*
X-96884Y-95200D02*
X-94916D01*
X-95900Y-96184D02*
Y-94216D01*
X-96884Y-104800D02*
X-94916D01*
X-95900Y-105784D02*
Y-103816D01*
X-85784Y-104800D02*
X-83816D01*
X-84800Y-105784D02*
Y-103816D01*
X-85784Y-95200D02*
X-83816D01*
X-84800Y-96184D02*
Y-94216D01*
X-91334Y-100000D02*
X-89366D01*
X-90350Y-100984D02*
Y-99016D01*
X-67384Y93800D02*
X-65416D01*
X-66400Y92816D02*
Y94784D01*
X-57184Y93800D02*
X-55216D01*
X-56200Y92816D02*
Y94784D01*
X-57184Y102400D02*
X-55216D01*
X-56200Y101416D02*
Y103384D01*
X-67384Y102400D02*
X-65416D01*
X-66400Y101416D02*
Y103384D01*
X-115384Y92400D02*
X-113416D01*
X-114400Y91416D02*
Y93384D01*
X-115384Y101800D02*
X-113416D01*
X-114400Y100816D02*
Y102784D01*
X-123684Y92400D02*
X-121716D01*
X-122700Y91416D02*
Y93384D01*
X-123684Y101900D02*
X-121716D01*
X-122700Y100916D02*
Y102884D01*
X-119534Y97150D02*
X-117566D01*
X-118550Y96166D02*
Y98134D01*
X22616Y-75300D02*
X24584D01*
X23600Y-76284D02*
Y-74316D01*
X22916Y-100400D02*
X24884D01*
X23900Y-101384D02*
Y-99416D01*
X12816Y-91759D02*
X14784D01*
X13800Y-92743D02*
Y-90775D01*
X210316Y15100D02*
X212284D01*
X211300Y14116D02*
Y16084D01*
X17141Y-300D02*
X19109D01*
X18125Y-1284D02*
Y684D01*
X16841Y7900D02*
X18809D01*
X17825Y6916D02*
Y8884D01*
X17316Y-7979D02*
X19284D01*
X18300Y-8963D02*
Y-6994D01*
X-18484Y8200D02*
X-16516D01*
X-17500Y7216D02*
Y9184D01*
X-18484Y-8200D02*
X-16516D01*
X-17500Y-9184D02*
Y-7216D01*
X-18584Y-300D02*
X-16616D01*
X-17600Y-1284D02*
Y684D01*
X7316Y15800D02*
X9284D01*
X8300Y14816D02*
Y16784D01*
X-9884Y-15900D02*
X-7916D01*
X-8900Y-16884D02*
Y-14916D01*
X41816Y-44500D02*
X43784D01*
X42800Y-45484D02*
Y-43516D01*
X30116Y79500D02*
X32084D01*
X31100Y78516D02*
Y80484D01*
X114116Y39000D02*
X116084D01*
X115100Y38016D02*
Y39984D01*
X97297Y3181D02*
X99266D01*
X98281Y2197D02*
Y4166D01*
X86616Y23600D02*
X88584D01*
X87600Y22616D02*
Y24584D01*
X111216Y-1400D02*
X113184D01*
X112200Y-2384D02*
Y-416D01*
X110676Y-25392D02*
X112644D01*
X111660Y-26377D02*
Y-24408D01*
X138616Y-87900D02*
X140584D01*
X139600Y-88884D02*
Y-86916D01*
X119016Y-88100D02*
X120984D01*
X120000Y-89084D02*
Y-87116D01*
X98216Y-50700D02*
X100184D01*
X99200Y-51684D02*
Y-49716D01*
X131616Y11600D02*
X133584D01*
X132600Y10616D02*
Y12584D01*
X68216Y-15400D02*
X70184D01*
X69200Y-16384D02*
Y-14416D01*
X63644Y-16059D02*
X65613D01*
X64628Y-17043D02*
Y-15075D01*
X-78084Y12600D02*
X-76116D01*
X-77100Y11616D02*
Y13584D01*
X-67484Y3400D02*
X-65516D01*
X-66500Y2416D02*
Y4384D01*
X79216Y3300D02*
X81184D01*
X80200Y2316D02*
Y4284D01*
X76116Y6900D02*
X78084D01*
X77100Y5916D02*
Y7884D01*
X71016Y6900D02*
X72984D01*
X72000Y5916D02*
Y7884D01*
X165716Y33300D02*
X167684D01*
X166700Y32316D02*
Y34284D01*
X-11384Y94600D02*
X-9416D01*
X-10400Y93616D02*
Y95584D01*
X-122984Y29100D02*
X-121016D01*
X-122000Y28116D02*
Y30084D01*
X-38884Y-21800D02*
X-36916D01*
X-37900Y-22784D02*
Y-20816D01*
X-62615Y19803D02*
X-60647D01*
X-61631Y18819D02*
Y20787D01*
X-46084Y14600D02*
X-44116D01*
X-45100Y13616D02*
Y15584D01*
X-98484Y12400D02*
X-96516D01*
X-97500Y11416D02*
Y13384D01*
X-62284Y98100D02*
X-60316D01*
X-61300Y97116D02*
Y99084D01*
X55116Y-2500D02*
X57084D01*
X56100Y-3484D02*
Y-1516D01*
X52416Y-5600D02*
X54384D01*
X53400Y-6584D02*
Y-4616D01*
X-40466Y41850D02*
X-38497D01*
X-39482Y40865D02*
Y42834D01*
X-76684Y59800D02*
X-74716D01*
X-75700Y58816D02*
Y60784D01*
X-84084Y36500D02*
X-82116D01*
X-83100Y35516D02*
Y37484D01*
X-79384Y36700D02*
X-77416D01*
X-78400Y35716D02*
Y37684D01*
X-54084Y57200D02*
X-52116D01*
X-53100Y56216D02*
Y58184D01*
X-28984Y50100D02*
X-27016D01*
X-28000Y49116D02*
Y51084D01*
X-46936Y47052D02*
X-44967D01*
X-45952Y46068D02*
Y48037D01*
X-71184Y59900D02*
X-69216D01*
X-70200Y58916D02*
Y60884D01*
X-69684Y-36300D02*
X-67716D01*
X-68700Y-37284D02*
Y-35316D01*
X-74260Y-36424D02*
X-72292D01*
X-73276Y-37408D02*
Y-35440D01*
X-89384Y-37800D02*
X-87416D01*
X-88400Y-38784D02*
Y-36816D01*
X-75784Y-59700D02*
X-73816D01*
X-74800Y-60684D02*
Y-58716D01*
X-107684Y-42100D02*
X-105716D01*
X-106700Y-43084D02*
Y-41116D01*
X-81784Y-60300D02*
X-79816D01*
X-80800Y-61284D02*
Y-59316D01*
X-102940Y-56988D02*
X-100971D01*
X-101955Y-57972D02*
Y-56003D01*
X-102855Y-29489D02*
X-100887D01*
X-101871Y-30474D02*
Y-28505D01*
X100816Y37100D02*
X102784D01*
X101800Y36116D02*
Y38084D01*
X111416Y-31500D02*
X113384D01*
X112400Y-32484D02*
Y-30516D01*
X1816Y47000D02*
X3784D01*
X2800Y46016D02*
Y47984D01*
X-8284Y56100D02*
X-6316D01*
X-7300Y55116D02*
Y57084D01*
X39991Y-15500D02*
X41959D01*
X40975Y-16484D02*
Y-14516D01*
X39816Y-11056D02*
X41784D01*
X40800Y-12041D02*
Y-10072D01*
X54716Y-26700D02*
X56684D01*
X55700Y-27684D02*
Y-25716D01*
X54716Y-31600D02*
X56684D01*
X55700Y-32584D02*
Y-30616D01*
X91516Y-36700D02*
X93484D01*
X92500Y-37684D02*
Y-35716D01*
X88616Y-32500D02*
X90584D01*
X89600Y-33484D02*
Y-31516D01*
X169316Y93500D02*
X171284D01*
X170300Y92516D02*
Y94484D01*
X169166Y98750D02*
X171134D01*
X170150Y97766D02*
Y99734D01*
X120616Y-68800D02*
X122584D01*
X121600Y-69784D02*
Y-67816D01*
X152516Y-72600D02*
X154484D01*
X153500Y-73584D02*
Y-71616D01*
X61071Y4826D02*
X63040D01*
X62056Y3842D02*
Y5810D01*
X65016Y7400D02*
X66984D01*
X66000Y6416D02*
Y8384D01*
X96516Y-11500D02*
X98484D01*
X97500Y-12484D02*
Y-10516D01*
X129441Y-59575D02*
X131409D01*
X130425Y-60559D02*
Y-58591D01*
X134016Y-57000D02*
X135984D01*
X135000Y-57984D02*
Y-56016D01*
X211816Y-49900D02*
X213784D01*
X212800Y-50884D02*
Y-48916D01*
X204316Y-55800D02*
X206284D01*
X205300Y-56784D02*
Y-54816D01*
X154116Y-55500D02*
X156084D01*
X155100Y-56484D02*
Y-54516D01*
X154016Y-50000D02*
X155984D01*
X155000Y-50984D02*
Y-49016D01*
X175916Y-2300D02*
X177884D01*
X176900Y-3284D02*
Y-1316D01*
X191716Y-3100D02*
X193684D01*
X192700Y-4084D02*
Y-2116D01*
X185816Y-26800D02*
X187784D01*
X186800Y-27784D02*
Y-25816D01*
X153911Y-44047D02*
X155879D01*
X154895Y-45031D02*
Y-43063D01*
X193816Y-26800D02*
X195784D01*
X194800Y-27784D02*
Y-25816D01*
X198216Y-26800D02*
X200184D01*
X199200Y-27784D02*
Y-25816D01*
X215416Y-21300D02*
X217384D01*
X216400Y-22284D02*
Y-20316D01*
X178916Y-36300D02*
X180884D01*
X179900Y-37284D02*
Y-35316D01*
X197955Y61761D02*
X199924D01*
X198939Y60776D02*
Y62745D01*
X193716Y87300D02*
X195684D01*
X194700Y86316D02*
Y88284D01*
X-147668Y-3931D02*
X-146468D01*
X-147068Y-4531D02*
Y-3331D01*
X-147668Y-7868D02*
X-146468D01*
X-147068Y-8468D02*
Y-7268D01*
X-143731Y-7868D02*
X-142531D01*
X-143131Y-8468D02*
Y-7268D01*
X-143731Y-3931D02*
X-142531D01*
X-143131Y-4531D02*
Y-3331D01*
M02*
