G04*
G04 #@! TF.GenerationSoftware,Altium Limited,Altium Designer,20.1.11 (218)*
G04*
G04 Layer_Color=255*
%FSLAX25Y25*%
%MOIN*%
G70*
G04*
G04 #@! TF.SameCoordinates,8D0FCBAB-09EC-4A3B-B863-23265075E7EF*
G04*
G04*
G04 #@! TF.FilePolarity,Positive*
G04*
G01*
G75*
%ADD24R,0.03150X0.03150*%
%ADD25R,0.03543X0.03150*%
%ADD26C,0.05906*%
%ADD27R,0.03150X0.03150*%
%ADD28R,0.07874X0.07874*%
%ADD29R,0.07874X0.07874*%
%ADD30R,0.03150X0.03543*%
%ADD31R,0.06299X0.07087*%
%ADD32O,0.02165X0.00787*%
%ADD33O,0.00787X0.02165*%
%ADD34R,0.15748X0.05906*%
%ADD35R,0.04724X0.06299*%
%ADD36R,0.06000X0.06000*%
%ADD37R,0.05000X0.03600*%
%ADD38R,0.03600X0.03600*%
%ADD39O,0.05906X0.01063*%
%ADD40O,0.01063X0.05906*%
%ADD41R,0.05906X0.10630*%
%ADD42R,0.03540X0.04720*%
%ADD43R,0.04720X0.05120*%
%ADD44O,0.02362X0.09252*%
%ADD45O,0.08024X0.02260*%
%ADD46O,0.06299X0.01181*%
%ADD47O,0.01181X0.06299*%
%ADD48O,0.02480X0.07343*%
%ADD49R,0.04724X0.01181*%
%ADD50R,0.07874X0.07087*%
%ADD51R,0.16930X0.07870*%
%ADD52R,0.04490X0.01970*%
%ADD53R,0.04490X0.01180*%
%ADD54R,0.13071X0.09740*%
%ADD55R,0.12835X0.03583*%
%ADD56R,0.02362X0.03937*%
%ADD57R,0.04724X0.07874*%
%ADD58R,0.23622X0.26378*%
%ADD59R,0.08661X0.14173*%
%ADD60R,0.08661X0.04724*%
%ADD61O,0.09843X0.02756*%
%ADD62R,0.10630X0.05906*%
%ADD118O,0.15748X0.11811*%
%ADD119O,0.11811X0.05906*%
%ADD120C,0.07087*%
%ADD121R,0.06299X0.06299*%
%ADD122C,0.06299*%
%ADD123O,0.07870X0.03940*%
%ADD124O,0.07090X0.03940*%
D24*
X147700Y95143D02*
D03*
X147728Y88848D02*
D03*
X222527Y-21411D02*
D03*
X222499Y-15116D02*
D03*
D25*
X155500Y89075D02*
D03*
Y94586D02*
D03*
X97600Y48086D02*
D03*
Y42575D02*
D03*
X162284Y-40189D02*
D03*
Y-45700D02*
D03*
X211000Y-70911D02*
D03*
Y-65400D02*
D03*
X210979Y-84300D02*
D03*
Y-78789D02*
D03*
X162306Y-55000D02*
D03*
Y-60511D02*
D03*
X25100Y35089D02*
D03*
Y40600D02*
D03*
X34400Y-40011D02*
D03*
Y-34500D02*
D03*
X-101773Y-42002D02*
D03*
Y-36491D02*
D03*
X-49393Y-42002D02*
D03*
Y-36491D02*
D03*
X-127200Y-25114D02*
D03*
Y-30625D02*
D03*
X-101752Y43070D02*
D03*
Y37559D02*
D03*
X-10916Y101420D02*
D03*
Y106931D02*
D03*
X-49372Y43070D02*
D03*
Y37559D02*
D03*
X140662Y-18542D02*
D03*
Y-24054D02*
D03*
X140640Y-10548D02*
D03*
Y-5037D02*
D03*
X52200Y26389D02*
D03*
Y31900D02*
D03*
X95500Y26389D02*
D03*
Y31900D02*
D03*
X214800Y-8200D02*
D03*
Y-2689D02*
D03*
X-205100Y73575D02*
D03*
Y79086D02*
D03*
X0Y-90230D02*
D03*
Y-84719D02*
D03*
X-91200Y-9400D02*
D03*
Y-3889D02*
D03*
Y3700D02*
D03*
Y9211D02*
D03*
X-20703Y35089D02*
D03*
Y40600D02*
D03*
Y48689D02*
D03*
Y54200D02*
D03*
X189648Y31095D02*
D03*
Y25584D02*
D03*
X159334Y41123D02*
D03*
Y46634D02*
D03*
X189648Y40573D02*
D03*
Y46084D02*
D03*
X151559Y41123D02*
D03*
Y46634D02*
D03*
X143784Y41123D02*
D03*
Y46634D02*
D03*
X173100Y46023D02*
D03*
Y40512D02*
D03*
X181363Y46023D02*
D03*
Y40512D02*
D03*
X38200Y106931D02*
D03*
Y101420D02*
D03*
X222481Y-2605D02*
D03*
Y-8116D02*
D03*
X117447Y-11820D02*
D03*
Y-17331D02*
D03*
X77800Y26450D02*
D03*
Y31961D02*
D03*
X-222300Y73636D02*
D03*
Y79147D02*
D03*
X-213700Y79086D02*
D03*
Y73575D02*
D03*
X-45200Y-9400D02*
D03*
Y-3889D02*
D03*
Y3700D02*
D03*
Y9211D02*
D03*
X25100Y48689D02*
D03*
Y54200D02*
D03*
X8900Y-84719D02*
D03*
Y-90230D02*
D03*
D26*
X224000Y-88200D02*
D03*
Y-78200D02*
D03*
Y-68200D02*
D03*
Y-58200D02*
D03*
D27*
X142202Y-44100D02*
D03*
X148497Y-44072D02*
D03*
D28*
X-181790Y107300D02*
D03*
X-199900D02*
D03*
X-156200Y-27900D02*
D03*
X-138090D02*
D03*
D29*
X-193500Y-82455D02*
D03*
Y-64345D02*
D03*
X-113300Y-48271D02*
D03*
Y-30161D02*
D03*
X-37650D02*
D03*
Y-48271D02*
D03*
X-145100Y-5900D02*
D03*
X-113300Y49339D02*
D03*
Y31229D02*
D03*
X-37650D02*
D03*
Y49339D02*
D03*
D30*
X120145Y-53300D02*
D03*
X125656D02*
D03*
X127773Y47013D02*
D03*
X122262D02*
D03*
X127773Y39238D02*
D03*
X122262D02*
D03*
X127834Y15653D02*
D03*
X122323D02*
D03*
X127773Y7900D02*
D03*
X122262D02*
D03*
X142820Y-52300D02*
D03*
X148331D02*
D03*
X142820Y-60100D02*
D03*
X148331D02*
D03*
X148270Y-35900D02*
D03*
X142759D02*
D03*
X184052Y-86484D02*
D03*
X178541D02*
D03*
X176800Y-8500D02*
D03*
X182311D02*
D03*
X185641Y-63686D02*
D03*
X191152D02*
D03*
X191552Y-86463D02*
D03*
X197063D02*
D03*
X201911Y-8500D02*
D03*
X196400D02*
D03*
X218819Y-29784D02*
D03*
X224330D02*
D03*
Y-37784D02*
D03*
X218819D02*
D03*
X224330Y-45784D02*
D03*
X218819D02*
D03*
X165020Y-88100D02*
D03*
X159509D02*
D03*
X165020Y-80389D02*
D03*
X159509D02*
D03*
X165081Y-72700D02*
D03*
X159570D02*
D03*
X221978Y6384D02*
D03*
X216467D02*
D03*
X221978Y15084D02*
D03*
X216467D02*
D03*
X131581Y-72700D02*
D03*
X126070D02*
D03*
X120145Y-36226D02*
D03*
X125656D02*
D03*
X120145Y-44763D02*
D03*
X125656D02*
D03*
X216467Y46184D02*
D03*
X221978D02*
D03*
X-192111Y96000D02*
D03*
X-186600D02*
D03*
X-141627Y12352D02*
D03*
X-136116D02*
D03*
X-156927D02*
D03*
X-151416D02*
D03*
X-68139Y18006D02*
D03*
X-73650D02*
D03*
X-85111Y-17800D02*
D03*
X-79600D02*
D03*
X199348Y23984D02*
D03*
X204859D02*
D03*
X204559Y46184D02*
D03*
X199048D02*
D03*
X131520Y-88100D02*
D03*
X126009D02*
D03*
X131520Y-80389D02*
D03*
X126009D02*
D03*
X-184100Y55500D02*
D03*
X-178589D02*
D03*
X-198011D02*
D03*
X-192500D02*
D03*
X-121407Y61000D02*
D03*
X-115896D02*
D03*
X-58563D02*
D03*
X-64074D02*
D03*
X-92741D02*
D03*
X-87230D02*
D03*
X-30900D02*
D03*
X-36411D02*
D03*
X-30300Y-60500D02*
D03*
X-35811D02*
D03*
X-92741D02*
D03*
X-87230D02*
D03*
X-58563D02*
D03*
X-64074D02*
D03*
X-121407D02*
D03*
X-115896D02*
D03*
D31*
X0Y0D02*
D03*
D32*
X-6201Y-3937D02*
D03*
Y-2362D02*
D03*
Y-787D02*
D03*
Y787D02*
D03*
Y2362D02*
D03*
Y3937D02*
D03*
X6201D02*
D03*
Y2362D02*
D03*
Y787D02*
D03*
Y-787D02*
D03*
Y-2362D02*
D03*
Y-3937D02*
D03*
D33*
X-3937Y6201D02*
D03*
X-2362D02*
D03*
X-787D02*
D03*
X787D02*
D03*
X2362D02*
D03*
X3937D02*
D03*
Y-6201D02*
D03*
X2362D02*
D03*
X787D02*
D03*
X-787D02*
D03*
X-2362D02*
D03*
X-3937D02*
D03*
D34*
X94410Y71900D02*
D03*
X58190D02*
D03*
D35*
X157506Y62745D02*
D03*
X151600D02*
D03*
X145695D02*
D03*
Y78497D02*
D03*
X151600D02*
D03*
X157506Y78497D02*
D03*
D36*
X56400Y45300D02*
D03*
X69900D02*
D03*
D37*
X81400Y45350D02*
D03*
X206433Y35235D02*
D03*
D38*
X89400Y41550D02*
D03*
Y49050D02*
D03*
X198433Y31535D02*
D03*
Y39035D02*
D03*
D39*
X173568Y-48027D02*
D03*
X173568Y-46058D02*
D03*
X173568Y-44090D02*
D03*
X173568Y-42121D02*
D03*
X173568Y-40153D02*
D03*
X173568Y-38184D02*
D03*
X173568Y-36216D02*
D03*
X173568Y-34247D02*
D03*
X173568Y-32279D02*
D03*
X173568Y-30310D02*
D03*
X173568Y-28342D02*
D03*
X173568Y-26373D02*
D03*
X207032Y-26373D02*
D03*
X207032Y-28342D02*
D03*
X207032Y-30310D02*
D03*
X207032Y-32279D02*
D03*
X207032Y-34247D02*
D03*
X207032Y-36216D02*
D03*
X207032Y-38184D02*
D03*
X207032Y-40153D02*
D03*
X207032Y-42121D02*
D03*
X207032Y-44090D02*
D03*
X207032Y-46058D02*
D03*
X207032Y-48027D02*
D03*
D40*
X179473Y-20468D02*
D03*
X181442D02*
D03*
X183410D02*
D03*
X185379D02*
D03*
X187347D02*
D03*
X189316D02*
D03*
X191284D02*
D03*
X193253D02*
D03*
X195221D02*
D03*
X197190D02*
D03*
X199158D02*
D03*
X201127D02*
D03*
Y-53932D02*
D03*
X199158D02*
D03*
X197190D02*
D03*
X195221D02*
D03*
X193253D02*
D03*
X191284D02*
D03*
X189316D02*
D03*
X187347D02*
D03*
X185379D02*
D03*
X183410D02*
D03*
X181442D02*
D03*
X179473D02*
D03*
D41*
X184625Y-74684D02*
D03*
X192107D02*
D03*
D42*
X137850Y-117150D02*
D03*
X119740D02*
D03*
X171350D02*
D03*
X153240D02*
D03*
X204850D02*
D03*
X186740D02*
D03*
D43*
X135390Y-111050D02*
D03*
X122200D02*
D03*
X168890D02*
D03*
X155700D02*
D03*
X202390D02*
D03*
X189200D02*
D03*
D44*
X-93252Y-50239D02*
D03*
X-88252Y-50239D02*
D03*
X-83252Y-50239D02*
D03*
X-78252Y-50239D02*
D03*
X-73252D02*
D03*
X-68252Y-50239D02*
D03*
X-63252Y-50239D02*
D03*
X-58252Y-50239D02*
D03*
X-93252Y-28192D02*
D03*
X-88252Y-28192D02*
D03*
X-83252Y-28192D02*
D03*
X-78252Y-28192D02*
D03*
X-73252D02*
D03*
X-68252Y-28192D02*
D03*
X-63252Y-28192D02*
D03*
X-58252Y-28192D02*
D03*
Y51308D02*
D03*
X-63252Y51308D02*
D03*
X-68252Y51308D02*
D03*
X-73252Y51308D02*
D03*
X-78252D02*
D03*
X-83252Y51308D02*
D03*
X-88252Y51308D02*
D03*
X-93252Y51308D02*
D03*
X-58252Y29261D02*
D03*
X-63252Y29261D02*
D03*
X-68252Y29261D02*
D03*
X-73252Y29261D02*
D03*
X-78252D02*
D03*
X-83252Y29261D02*
D03*
X-88252Y29261D02*
D03*
X-93252Y29261D02*
D03*
D45*
X-134198Y-13400D02*
D03*
Y-8400D02*
D03*
Y-3400D02*
D03*
Y1600D02*
D03*
X-156002Y-13400D02*
D03*
Y-8400D02*
D03*
Y-3400D02*
D03*
Y1600D02*
D03*
D46*
X105560Y-37173D02*
D03*
Y-35205D02*
D03*
X105560Y-33236D02*
D03*
Y-31268D02*
D03*
X105560Y-29299D02*
D03*
X105560Y-27331D02*
D03*
X105560Y-25362D02*
D03*
Y-23394D02*
D03*
X105560Y-21425D02*
D03*
Y-19457D02*
D03*
X105560Y-17488D02*
D03*
X105560Y-15519D02*
D03*
Y-13551D02*
D03*
X105560Y-11582D02*
D03*
Y-9614D02*
D03*
X105560Y-7645D02*
D03*
X105560Y-5677D02*
D03*
X105560Y-3708D02*
D03*
Y-1740D02*
D03*
X105560Y229D02*
D03*
Y2197D02*
D03*
X105560Y4166D02*
D03*
X105560Y6134D02*
D03*
X105560Y8103D02*
D03*
Y10071D02*
D03*
X46112D02*
D03*
Y8103D02*
D03*
X46112Y6134D02*
D03*
Y4166D02*
D03*
X46112Y2197D02*
D03*
Y229D02*
D03*
X46112Y-1740D02*
D03*
Y-3708D02*
D03*
X46112Y-5677D02*
D03*
Y-7645D02*
D03*
X46112Y-9614D02*
D03*
Y-11582D02*
D03*
X46112Y-13551D02*
D03*
Y-15519D02*
D03*
X46112Y-17488D02*
D03*
X46112Y-19457D02*
D03*
Y-21425D02*
D03*
X46112Y-23394D02*
D03*
Y-25362D02*
D03*
Y-27331D02*
D03*
Y-29299D02*
D03*
Y-31268D02*
D03*
X46112Y-33236D02*
D03*
X46112Y-35205D02*
D03*
Y-37173D02*
D03*
D47*
X99458Y16173D02*
D03*
X97490D02*
D03*
X95521Y16173D02*
D03*
X93553Y16173D02*
D03*
X91584D02*
D03*
X89616D02*
D03*
X87647D02*
D03*
X85679D02*
D03*
X83710D02*
D03*
X81742Y16173D02*
D03*
X79773Y16173D02*
D03*
X77804Y16173D02*
D03*
X75836D02*
D03*
X73867Y16173D02*
D03*
X71899D02*
D03*
X69930D02*
D03*
X67962D02*
D03*
X65993D02*
D03*
X64025Y16173D02*
D03*
X62056Y16173D02*
D03*
X60088D02*
D03*
X58119Y16173D02*
D03*
X56151D02*
D03*
X54182Y16173D02*
D03*
X52214D02*
D03*
Y-43275D02*
D03*
X54182D02*
D03*
X56151Y-43275D02*
D03*
X58119D02*
D03*
X60088Y-43275D02*
D03*
X62056D02*
D03*
X64025Y-43275D02*
D03*
X65993D02*
D03*
X67962Y-43275D02*
D03*
X69930D02*
D03*
X71899Y-43275D02*
D03*
X73867D02*
D03*
X75836Y-43275D02*
D03*
X77804Y-43275D02*
D03*
X79773Y-43275D02*
D03*
X81742Y-43275D02*
D03*
X83710D02*
D03*
X85679D02*
D03*
X87647D02*
D03*
X89616D02*
D03*
X91584Y-43275D02*
D03*
X93553Y-43275D02*
D03*
X95521D02*
D03*
X97490Y-43275D02*
D03*
X99458D02*
D03*
D48*
X-196400Y65800D02*
D03*
X-191400D02*
D03*
X-186400D02*
D03*
X-181400D02*
D03*
X-196400Y86922D02*
D03*
X-191400D02*
D03*
X-186400D02*
D03*
X-181400D02*
D03*
D49*
X18349Y-94334D02*
D03*
Y-92365D02*
D03*
Y-90397D02*
D03*
Y-88428D02*
D03*
Y-86460D02*
D03*
Y-84491D02*
D03*
Y-82523D02*
D03*
Y-80554D02*
D03*
D50*
X30750Y-100042D02*
D03*
X30751Y-74846D02*
D03*
D51*
X-162600Y79450D02*
D03*
Y63350D02*
D03*
D52*
X204560Y87400D02*
D03*
Y84250D02*
D03*
Y65350D02*
D03*
Y62200D02*
D03*
D53*
Y81690D02*
D03*
X204550Y79720D02*
D03*
X204560Y77750D02*
D03*
Y75780D02*
D03*
Y73820D02*
D03*
Y71850D02*
D03*
Y69880D02*
D03*
X204550Y67910D02*
D03*
D54*
X-113000Y12313D02*
D03*
Y-12513D02*
D03*
D55*
X-210300Y33200D02*
D03*
X-190064D02*
D03*
X-146364Y103000D02*
D03*
X-166600D02*
D03*
X-139146Y32992D02*
D03*
X-159382D02*
D03*
X22754Y73392D02*
D03*
X2517D02*
D03*
D56*
X222372Y25666D02*
D03*
X214892Y25666D02*
D03*
X214892Y35903D02*
D03*
X218632Y35902D02*
D03*
X222372Y35902D02*
D03*
D57*
X-52342Y69972D02*
D03*
X-70295D02*
D03*
X-109676D02*
D03*
X-127628D02*
D03*
X-23676D02*
D03*
X-41628D02*
D03*
X-81009D02*
D03*
X-98962D02*
D03*
X-98962Y-69404D02*
D03*
X-81009D02*
D03*
X-41628D02*
D03*
X-23676D02*
D03*
X-127628D02*
D03*
X-109676D02*
D03*
X-70295D02*
D03*
X-52342D02*
D03*
D58*
X-61240Y97196D02*
D03*
X-118573D02*
D03*
X-32573D02*
D03*
X-89907D02*
D03*
X-90064Y-96628D02*
D03*
X-32731D02*
D03*
X-118731D02*
D03*
X-61397D02*
D03*
D59*
X25794Y104206D02*
D03*
D60*
X1384Y95151D02*
D03*
Y104206D02*
D03*
Y113261D02*
D03*
D61*
X12046Y36900D02*
D03*
Y41900D02*
D03*
Y46900D02*
D03*
Y51900D02*
D03*
X-7246Y36900D02*
D03*
Y41900D02*
D03*
Y46900D02*
D03*
Y51900D02*
D03*
X-57804Y-7394D02*
D03*
Y-2394D02*
D03*
Y2606D02*
D03*
Y7606D02*
D03*
X-77096Y-7394D02*
D03*
Y-2394D02*
D03*
Y2606D02*
D03*
Y7606D02*
D03*
D62*
X128832Y-18319D02*
D03*
Y-10838D02*
D03*
D118*
X-175779Y-32813D02*
D03*
Y-14310D02*
D03*
Y4194D02*
D03*
D119*
X-212000Y-39900D02*
D03*
Y11281D02*
D03*
D120*
X61537Y103700D02*
D03*
X71378D02*
D03*
X81221D02*
D03*
X91063D02*
D03*
X-212100Y-58636D02*
D03*
Y-68479D02*
D03*
Y-78321D02*
D03*
Y-88164D02*
D03*
D121*
X-51394Y116900D02*
D03*
X-99913Y-117500D02*
D03*
X-184100Y-97400D02*
D03*
D122*
X-61236Y116900D02*
D03*
X-71078D02*
D03*
X-80921D02*
D03*
X-90764D02*
D03*
X-100606D02*
D03*
X-90070Y-117500D02*
D03*
X-80228D02*
D03*
X-70385D02*
D03*
X-60542D02*
D03*
X-50700D02*
D03*
X-154100Y-97400D02*
D03*
X-164100D02*
D03*
X-174100D02*
D03*
D123*
X206790Y57790D02*
D03*
Y91810D02*
D03*
D124*
X223250D02*
D03*
Y57790D02*
D03*
M02*
